<svg width="90" height="91" viewBox="0 0 90 91" fill="none" xmlns="http://www.w3.org/2000/svg">
<path d="M29.2383 17.8902C41.5793 21.7737 53.9998 26.1082 66.7431 28.4131C67.7462 28.5945 64.7383 28.8326 63.7246 28.9652C58.1249 29.6976 52.5961 30.944 47.1483 32.4521C42.7053 33.682 38.3892 35.1993 34.1327 36.9822C32.4496 37.6872 27.5504 40.1131 29.1099 39.1607C36.4417 34.6826 42.8445 31.0873 47.5701 23.4403C49.4844 20.3425 51.8549 16.4142 52.0015 12.6465C52.0058 12.5354 51.8477 8.76539 51.0188 10.0499C48.7786 13.5213 48.6956 18.9939 48.3896 22.8974C47.8667 29.5682 47.978 36.2682 48.1527 42.9427C48.1791 43.951 48.6647 48.6046 46.8654 45.3591C44.7364 41.5191 43.0202 37.4539 40.8878 33.6081C38.0752 28.5356 35.1279 23.401 31.557 18.824C30.8145 17.8723 29.9894 16.8546 28.974 16.1568C27.7459 15.3129 28.4105 16.1911 27.9002 16.6115" stroke="#E1251B" stroke-width="1.4636" stroke-linecap="round"/>
<path d="M13.2186 47.3048C11.3155 44.5739 4.95018 47.565 6.39154 50.2165C7.82577 52.8548 11.2035 50.5695 12.4346 48.9893C13.8934 47.1168 13.595 44.5975 11.0006 43.9385C8.29816 43.252 5.47441 46.2965 6.97876 48.8778C8.11565 50.8285 10.1465 50.1951 11.1791 48.5598C12.048 47.1836 10.5514 44.9878 9.22058 46.383C8.66822 46.962 8.23006 49.9481 9.7442 49.4701C11.5166 48.9104 9.65936 47.0851 9.02975 46.583" stroke="#E1251B" stroke-width="1.4636" stroke-linecap="round"/>
<path d="M45.2636 78.5403C46.9272 79.5908 48.5279 80.0649 50.4485 80.6174C53.0539 81.3669 55.8171 81.9486 58.334 82.9751C59.1243 83.2974 55.1635 84.0237 54.8198 84.1184C52.6724 84.7101 49.8645 86.7179 47.7583 86.9538C47.3509 86.9995 48.1228 86.2134 48.3735 85.8892C49.6912 84.1848 51.188 82.6349 52.4469 80.882C53.5217 79.3855 56.0909 74.479 55.1072 76.0369C53.6721 78.3097 54.0683 82.2977 53.989 84.8475C53.9388 86.4638 54.5578 90.9286 52.7457 87.5386C51.2503 84.7411 49.3483 82.3517 46.977 80.2491C46.423 79.7579 45.5155 79.0459 46.6918 80.069C48.9744 82.0543 51.201 84.1836 53.272 86.3892C54.9242 88.1489 52.9116 85.0778 52.4119 84.5925C49.5717 81.8347 51.4531 83.3603 53.5194 84.7789C53.9851 85.0987 52.4512 84.406 51.9026 84.271" stroke="#E1251B" stroke-width="1.4636" stroke-linecap="round"/>
</svg>
