<svg width="54" height="55" viewBox="0 0 54 55" fill="none" xmlns="http://www.w3.org/2000/svg">
<g clip-path="url(#clip0_1_30839)">
<path d="M8.74052 27.7574C8.30659 21.2206 6.45674 11.69 14.647 9.38636C19.2915 8.08058 24.9141 8.61404 29.7152 8.6711C34.8785 8.73214 41.9329 7.8749 44.6546 13.175C46.872 17.4917 45.7069 25.1644 45.7746 30.0279C45.8396 34.6472 47.5793 42.588 42.5062 45.0722C38.5066 47.0322 30.3627 45.5327 26.1495 45.4955C22.0039 45.4597 14.4851 47.2206 11.6851 43.3245C8.54147 38.9308 8.28403 29.736 9.07094 24.8526C9.87776 19.8392 2.20634 17.6868 1.39289 22.7294C0.162756 30.4207 0.700193 40.4701 4.81656 47.348C8.78298 53.9698 15.3649 53.3686 22.2003 53.4283C29.7045 53.4947 40.1282 55.4003 47.1334 51.7762C54.5089 47.9611 53.8693 39.5094 53.7685 32.3873C53.657 24.4625 55.2282 14.1331 50.5292 7.18884C46.3386 0.989069 38.7985 0.934661 32.0295 0.754189C23.8392 0.53656 12.9352 -0.437462 5.77997 4.39151C-1.53316 9.32664 0.279532 20.2439 0.778486 27.7574C1.11555 32.8425 9.08023 32.881 8.74052 27.7574Z" fill="black"/>
<path d="M1.7245 20.4898C1.20963 26.9231 -0.0483741 35.0536 2.83919 41.1167C5.40694 46.5123 10.9339 48.4444 16.5578 48.7045C21.68 48.9407 21.6681 40.9787 16.5578 40.7425C11.2046 40.4944 9.51402 37.9677 9.21677 32.9012C9.08663 28.7582 9.24359 24.6111 9.68653 20.4898C10.0939 15.3808 2.12924 15.4073 1.7245 20.4898Z" fill="black"/>
<path d="M0.415335 21.3263C-0.16722 30.3725 -1.20892 42.2505 5.98876 49.139C13.6628 56.484 25.6974 54.2878 35.2651 53.7304C40.3569 53.4332 40.3914 45.4685 35.2651 45.7684C28.2838 46.1758 17.4236 48.6148 11.8103 43.4515C6.36961 38.4434 7.94476 28.0476 8.37737 21.3263C8.70779 16.2107 0.744433 16.2306 0.415335 21.3263Z" fill="black"/>
<path d="M13.4928 28.7551C12.2017 25.3845 13.6746 22.5925 15.3241 19.6346C16.8011 16.9872 18.412 13.3101 21.0302 11.6553L15.1874 7.16205C13.2941 12.1646 12.2557 17.4499 12.1154 22.7968C12.0305 26.7778 11.911 31.6652 14.8265 34.7147C16.7135 36.6879 21.0475 35.9859 21.4801 32.9577C21.8901 30.0887 22.2935 27.2157 22.8416 24.3693C23.2901 22.0418 23.4785 18.0103 25.3218 16.3516L18.5262 13.5317L20.0788 29.1412C20.5817 34.1918 28.549 34.2436 28.0408 29.1412L26.4882 13.5317C26.4622 12.7561 26.2135 12.0044 25.7716 11.3666C25.3297 10.7287 24.7134 10.2316 23.9965 9.93466C23.2795 9.63778 22.4922 9.55368 21.7288 9.69244C20.9653 9.83119 20.2579 10.1869 19.6913 10.7171C14.7999 15.1241 14.6672 24.7966 13.802 30.8411L20.457 29.0842C19.536 28.1221 20.0589 22.1652 20.2128 20.3087C20.5901 16.5273 21.483 12.8153 22.8668 9.27597C24.0903 5.99428 19.8226 3.01117 17.0187 4.78007C12.6183 7.56015 9.99617 12.5722 7.65268 17.0748C5.36891 21.4619 3.98219 26.0745 5.81611 30.8717C7.63012 35.6077 15.3307 33.5522 13.4928 28.7484V28.7551Z" fill="black"/>
<path d="M26.7662 12.6959C32.3218 19.7039 37.2927 27.1561 41.6286 34.9777C44.1247 39.4537 51.0039 35.4434 48.5038 30.9595C43.7997 22.5697 38.4138 14.5807 32.4006 7.07341C29.2158 3.06718 23.6079 8.73349 26.7701 12.7026L26.7662 12.6959Z" fill="black"/>
<path d="M36.2118 8.90884C37.1719 14.7983 37.7424 20.7447 37.9196 26.7093C38.0842 31.8196 46.0475 31.8421 45.8816 26.7093C45.6554 20.0338 44.9904 13.3805 43.8911 6.79227C43.0591 1.74965 35.385 3.88878 36.2118 8.90884Z" fill="black"/>
<path d="M39.3764 13.5746C40.817 17.7991 41.1482 22.3228 40.3385 26.712C39.3844 31.7201 47.0571 33.8646 48.0152 28.8352C49.184 23.058 48.8532 17.0778 47.0545 11.4647C45.478 6.61185 37.788 8.68728 39.3764 13.5879V13.5746Z" fill="black"/>
<path d="M34.5552 10.0939C39.6788 10.0939 39.6867 2.13184 34.5552 2.13184C29.4237 2.13184 29.4237 10.0939 34.5552 10.0939Z" fill="black"/>
<path d="M18.2121 17.5963L25.2452 30.0449C27.8395 34.6337 34.0685 30.601 32.1205 26.0268C30.3874 21.9608 27.2583 15.838 27.6604 11.3262L26.4953 14.1408L26.5165 14.101L23.4485 13.7029C22.708 13.1349 24.6839 17.449 25.0024 18.4522C25.5796 20.2702 26.0481 22.1227 26.5696 23.9566C27.5552 27.6903 28.9769 31.2949 30.8054 34.6961C33.1356 38.8642 38.8152 35.8639 38.0814 31.6281L35.8998 19.0361L31.0031 23.9328L31.8285 24.0655L29.4572 22.2382C31.8378 25.845 32.3766 31.9134 32.7362 36.0496C32.7656 36.9956 33.1295 37.9006 33.7631 38.6036C34.3968 39.3067 35.2591 39.7624 36.197 39.8897C37.1348 40.017 38.0874 39.8077 38.8856 39.299C39.6837 38.7903 40.2756 38.0152 40.5562 37.1112L43.4876 27.9761C45.0561 23.0848 37.3714 20.9908 35.8095 25.8596L32.8782 34.9947L40.6982 36.0563C40.2656 31.0389 39.7414 17.3694 33.1277 16.2587C32.4515 16.0925 31.744 16.1034 31.0734 16.2906C30.4027 16.4778 29.7917 16.8348 29.2994 17.3271C28.8071 17.8194 28.4501 18.4304 28.2629 19.101C28.0758 19.7717 28.0648 20.4792 28.231 21.1553L30.4126 33.7473L37.6846 30.6739C34.8979 25.691 34.0512 20.1136 32.1788 14.7831C31.0496 11.5412 29.5899 6.54368 25.4629 6.28093C13.7587 5.53383 23.414 25.7401 25.2506 30.0449L32.1258 26.0268L25.0926 13.5781C22.5713 9.11807 15.6908 13.1256 18.2174 17.5963H18.2121Z" fill="black"/>
<path d="M36.9776 19.0948C42.1011 19.0948 42.1091 11.1328 36.9776 11.1328C31.846 11.1328 31.846 19.0948 36.9776 19.0948Z" fill="black"/>
<path d="M32.4785 17.1905C37.6021 17.1905 37.6101 9.22852 32.4785 9.22852C27.347 9.22852 27.347 17.1905 32.4785 17.1905Z" fill="black"/>
<path d="M32.8218 16.8497C37.9454 16.8497 37.9533 8.8877 32.8218 8.8877C27.6903 8.8877 27.6903 16.8497 32.8218 16.8497Z" fill="black"/>
<path d="M36.8733 24.1209C35.8024 28.0183 34.8669 31.9502 34.1198 35.9219C33.6341 38.5149 32.1531 42.5835 33.8225 44.9734C34.2933 45.7031 34.9774 46.2702 35.7818 46.5976C36.5861 46.925 37.4718 46.9968 38.3184 46.8034C42.3313 46.2327 43.0492 40.1325 46.1371 38.1154L40.289 33.6196C39.7248 36.4081 38.248 38.9294 36.0917 40.7854C32.2818 44.2276 37.9269 49.8435 41.7222 46.4159C44.8697 43.5992 47.0535 39.8655 47.9657 35.7414C48.6903 32.5487 45.179 29.2457 42.1176 31.2455C40.4266 32.3446 38.9573 33.7517 37.7863 35.3938C37.1798 36.2324 36.661 37.1189 36.1222 38.004L35.5914 38.8971C34.6864 40.0277 34.8916 40.1055 36.2071 39.1306L40.703 40.9605C41.079 42.4645 41.2887 42.376 41.332 40.6951L41.5616 39.3681C41.8367 37.8226 42.1384 36.2806 42.4666 34.7422C43.0744 31.8865 43.783 29.0586 44.5553 26.2427C45.9128 21.2943 38.2348 19.1831 36.8786 24.1262L36.8733 24.1209Z" fill="black"/>
<path d="M14.4748 30.4664C17.7845 36.2396 21.7284 41.6252 26.2334 46.5231C29.3811 49.9561 34.5444 45.5836 32.4862 41.6982C30.6238 37.9682 28.4537 34.3999 25.9985 31.0304C23.8474 28.2211 21.1364 25.035 17.1673 26.1549C7.67656 28.8342 18.3616 42.1945 21.4509 46.0149L27.08 40.3844C23.9855 36.8466 20.4291 25.2658 14.285 26.7693C6.02179 28.7904 14.1417 40.8263 16.7506 44.4079C19.7032 48.4579 26.3953 44.8259 23.6258 40.3884C21.0382 36.2428 18.5987 32.0137 16.3074 27.7009C14.0104 23.3775 8.44755 26.6393 9.03144 30.7676C9.7093 35.2674 11.7322 39.457 14.8344 42.7863C18.2634 46.6081 23.8793 40.963 20.4649 37.1558C18.3723 34.7756 17.0614 31.81 16.7095 28.6603L9.43219 31.7257C11.7253 36.0411 14.1647 40.2707 16.7506 44.4145L23.6232 40.395C21.4641 37.4332 19.0808 33.9418 18.4319 30.2766L18.0338 33.3447L17.3531 34.0519L14.285 34.4501C13.0598 33.6247 12.9474 33.7215 13.948 34.7407C14.3523 35.3086 14.7376 35.889 15.1038 36.4817C15.7567 37.5168 16.3512 38.5877 16.9616 39.6453C18.2497 41.9063 19.7508 44.0392 21.4442 46.0149C24.8626 49.9243 30.2357 44.2991 27.0734 40.3844C25.856 38.876 24.7394 37.289 23.7307 35.6337C22.9345 34.3373 21.1948 32.1981 21.35 30.6203L20.1902 33.4375C17.7565 32.9642 17.1213 33.1929 18.2846 34.1236C18.8208 34.7101 19.329 35.3201 19.8094 35.9535C20.4941 36.8546 21.1138 37.8114 21.715 38.7708C23.1256 41.0267 24.369 43.3728 25.611 45.719L31.8626 40.8953C27.8295 36.4862 24.3033 31.6389 21.35 26.4442C18.8088 21.9948 11.9283 26.0023 14.4748 30.4624V30.4664Z" fill="black"/>
<path d="M19.5228 40.4866C21.2346 39.8406 22.7418 38.7471 23.8873 37.3204C24.5237 36.5865 25.1969 35.8853 25.9043 35.2197L26.7788 34.4487C28.2492 33.5304 28.1656 33.3805 26.528 33.9989L23.0911 32.0269L23.3459 32.4516L22.9478 29.3835C22.1954 34.5974 16.7002 41.6371 20.4888 46.4701C21.6553 47.9576 23.8209 47.7453 25.3125 47.0924C29.2338 45.3766 30.2091 40.1655 33.9951 38.2015L28.5544 32.7608C26.5811 37.1704 22.3174 42.8248 24.4778 47.6511C24.8303 48.2497 25.3326 48.7462 25.9352 49.0917C26.5379 49.4372 27.2201 49.6199 27.9148 49.6217C32.0815 50.0198 34.4848 46.4369 38.1831 45.7123L35.1164 45.3142L35.5065 45.569C39.8047 48.3863 43.799 41.4951 39.5247 38.6951C34.985 35.72 32.0643 42.0578 27.9148 41.6623L31.353 43.6343L31.0372 42.9309L31.4353 45.999C32.5276 42.8249 33.8639 39.7402 35.4322 36.7723C37.0246 33.2027 33.7244 29.3849 29.9849 31.325C28.1019 32.344 26.4586 33.7538 25.1652 35.4599C24.1381 36.7352 22.8469 39.5418 21.3023 40.2172L26.1259 40.8396L25.8048 40.4295L26.9713 43.2441C27.4344 38.9738 34.2247 29.8984 28.5477 26.5809C26.5426 25.4078 24.5481 26.2452 22.8721 27.4647C21.6529 28.3488 20.5078 29.3309 19.4485 30.4014C19.0039 30.8499 17.4234 32.8046 17.4115 32.8085C12.6714 34.6159 14.7283 42.3152 19.5347 40.4866H19.5228Z" fill="black"/>
<path d="M13.4351 46.6153C18.5586 46.6153 18.5666 38.6533 13.4351 38.6533C8.30354 38.6533 8.30354 46.6153 13.4351 46.6153Z" fill="black"/>
<path d="M0.47943 19.2591C0.43962 20.8515 0.47943 22.4439 0.596206 24.0363C0.621145 25.0843 1.04858 26.0825 1.78983 26.8237C2.53107 27.565 3.52924 27.9924 4.57722 28.0174C5.63016 28.008 6.63732 27.5856 7.38189 26.841C8.12646 26.0964 8.54889 25.0893 8.55824 24.0363L8.22649 18.7681C8.20317 17.7196 7.77625 16.7205 7.03466 15.9789C6.29307 15.2373 5.29398 14.8104 4.24547 14.7871C3.19644 14.8088 2.19641 15.2352 1.45447 15.9771C0.712538 16.7191 0.286147 17.7191 0.264455 18.7681C0.0181825 21.3527 0.0288508 23.9553 0.296303 26.5377C0.325089 27.5845 0.753756 28.5804 1.49419 29.3209C2.23463 30.0613 3.23058 30.49 4.27732 30.5188C5.33089 30.5115 6.33925 30.0897 7.08426 29.3447C7.82926 28.5997 8.25103 27.5913 8.25833 26.5377C7.99273 23.9556 7.98384 21.3534 8.23179 18.7695H0.264455L0.596206 24.0337H8.55824C8.44013 22.4413 8.40165 20.8489 8.44146 19.2565C8.56753 14.1316 0.61213 14.1342 0.47943 19.2565V19.2591Z" fill="black"/>
<path d="M13.7012 38.2959C12.4737 30.3591 10.052 13.5021 21.4111 12.6927C24.9038 12.4963 28.4055 12.5252 31.8945 12.7789C33.643 12.7657 35.3887 12.9226 37.1069 13.2474C40.8226 14.2532 42.2265 17.4606 42.7892 21.0342C43.1098 24.4483 43.2272 27.8785 43.1408 31.3066C43.1966 32.9375 43.7964 36.0679 43.3598 37.7279C42.829 39.749 42.0062 40.2758 39.8605 41.0932C35.3049 42.8263 15.6586 44.9827 14.3607 37.6842C13.9122 35.1628 10.0745 36.2337 10.5217 38.7458C12.3795 49.1773 32.5646 47.0289 39.8326 45.2295C44.0565 44.1865 46.9135 43.4739 47.3819 39.0112C47.8159 34.8802 47.086 30.3339 46.9427 26.1697C46.8246 22.7129 47.1842 18.8858 46.3601 15.5033C45.3092 11.1892 42.0222 9.94046 37.9602 9.33402C31.7087 8.40512 24.1288 7.80929 17.8839 9.09383C5.44194 11.6536 8.4622 30.2649 9.86219 39.3495C10.251 41.8709 14.0874 40.8013 13.7012 38.2879V38.2959Z" fill="white"/>
<path d="M26.2314 21.1236C25.0795 21.2841 23.9805 21.7097 23.0209 22.367C22.0613 23.0242 21.2673 23.8952 20.7014 24.9113C20.1355 25.9274 19.813 27.0609 19.7594 28.2228C19.7059 29.3846 19.9226 30.543 20.3926 31.6069C21.4711 33.6177 23.2461 35.1661 25.3848 35.9615C27.5234 36.757 29.8788 36.7449 32.0092 35.9277C36.5515 33.9677 37.4114 28.174 35.0971 24.1837C32.7085 20.07 27.1537 18.5505 23.6504 22.2078C21.8788 24.0576 24.6894 26.8762 26.4663 25.0223C30.5256 20.7839 35.8296 31.4623 29.5184 32.5385C28.4924 32.6964 27.4427 32.5617 26.4899 32.1497C25.5371 31.7377 24.7198 31.0653 24.1321 30.2096C22.7082 27.6166 24.7478 25.3329 27.2824 24.9613C29.817 24.5897 28.7341 20.756 26.2208 21.1223L26.2314 21.1236Z" fill="white"/>
<path d="M33.5081 18.9237C33.6515 19.4067 33.9168 19.8448 34.2784 20.1957C34.64 20.5466 35.0859 20.7986 35.5731 20.9274C36.0603 21.0561 36.5724 21.0573 37.0602 20.9309C37.548 20.8045 37.995 20.5547 38.3583 20.2055C38.6671 19.8929 38.8648 19.4875 38.9209 19.0517C38.977 18.6159 38.8884 18.1737 38.6689 17.793C38.4153 17.4009 38.0734 17.0737 37.6706 16.8375C37.2678 16.6013 36.8153 16.4627 36.3493 16.4329C35.9422 16.4155 35.5361 16.4835 35.157 16.6325C34.7778 16.7815 34.434 17.0082 34.1478 17.2981C33.9576 17.4817 33.806 17.7013 33.7017 17.9442C33.5974 18.187 33.5425 18.4482 33.5402 18.7125C33.5379 18.9768 33.5882 19.2389 33.6883 19.4836C33.7884 19.7282 33.9362 19.9504 34.1231 20.1373C34.31 20.3242 34.5322 20.472 34.7768 20.5721C35.0215 20.6722 35.2836 20.7225 35.5479 20.7203C35.8122 20.718 36.0734 20.663 36.3162 20.5587C36.5591 20.4544 36.7787 20.3028 36.9623 20.1126C36.8354 20.2229 36.6854 20.3033 36.5234 20.348C36.3613 20.3927 36.1913 20.4005 36.0258 20.3708C35.8603 20.3411 35.7036 20.2748 35.5671 20.1766C35.4307 20.0784 35.3179 19.9509 35.2372 19.8035L35.5477 17.391C35.6826 17.2605 35.8488 17.167 36.0303 17.1195C36.2118 17.072 36.4025 17.0722 36.584 17.12C36.7654 17.1677 36.9315 17.2615 37.0661 17.3922C37.2007 17.5229 37.2994 17.6861 37.3525 17.866C37.2117 17.3569 36.8745 16.9246 36.4149 16.6642C35.9554 16.4038 35.4112 16.3365 34.9022 16.4773C34.3931 16.6181 33.9608 16.9553 33.7003 17.4149C33.4399 17.8744 33.3727 18.4185 33.5135 18.9276L33.5081 18.9237Z" fill="white"/>
<path d="M14.7637 14.2382C12.9841 16.9997 9.32293 26.8978 14.5965 28.2885C16.6772 28.8366 17.5968 27.134 18.3532 25.4713C19.8939 22.0848 21.2288 18.6027 22.4669 15.0967C23.3374 12.6312 19.586 11.7394 18.6279 14.0351C17.281 17.2637 15.2148 28.3668 20.6741 29.2546C22.6368 29.5744 23.7966 28.1651 24.4561 26.501C26.0485 22.4815 26.9602 18.0347 28.1797 13.8865L24.2703 13.3557C24.8754 20.1088 25.6531 26.8129 29.0475 32.8149C29.1795 33.0407 29.3545 33.2382 29.5628 33.3963C29.7711 33.5544 30.0085 33.6699 30.2614 33.7363C30.5143 33.8027 30.7778 33.8185 31.0369 33.7831C31.2959 33.7476 31.5455 33.6614 31.7712 33.5295C31.997 33.3976 32.1945 33.2225 32.3526 33.0142C32.5107 32.806 32.6262 32.5686 32.6926 32.3157C32.759 32.0627 32.7749 31.7992 32.7394 31.5402C32.7039 31.2811 32.6177 31.0316 32.4858 30.8058C29.443 25.4315 28.7967 19.4082 28.2527 13.3597C28.2375 12.8869 28.0553 12.4348 27.7384 12.0835C27.4215 11.7323 26.9905 11.5047 26.5217 11.441C26.053 11.3774 25.5768 11.4819 25.1778 11.736C24.7788 11.99 24.4827 12.3772 24.342 12.8289C24.0354 13.8759 21.0006 25.3134 20.6755 25.2749L22.4006 26.2608C20.2057 23.0163 21.0736 18.4448 22.4736 15.0954L18.6345 14.0338C17.971 15.9168 17.281 17.7906 16.5339 19.6417C16.1358 20.629 15.2945 24.1217 14.3642 24.7467H16.3733C14.3974 23.8178 17.5955 17.1921 18.2059 16.2433C19.5979 14.0842 16.153 12.0858 14.769 14.2342L14.7637 14.2382Z" fill="white"/>
<path d="M25.3151 15.5036C23.2815 15.1635 21.2048 15.1748 19.175 15.5367L20.709 19.1754L26.4537 15.3815C27.9611 14.3862 27.559 11.4841 25.4491 11.6725C22.0363 11.9439 18.6876 12.7509 15.5258 14.0638C13.2393 15.0166 14.0448 18.6433 16.5874 17.9028C21.9854 16.2317 27.4806 14.8925 33.0422 13.8926L31.5056 10.2553C25.534 13.4693 19.7509 16.7881 14.8092 21.4857C13.4424 22.7862 14.849 25.553 16.7466 24.8125C22.3386 22.6309 26.8849 18.4761 32.5831 16.5851L30.6457 13.2583C25.8922 17.831 21.7007 22.954 18.1599 28.5188C17.9397 28.9361 17.8743 29.4179 17.9752 29.8787C18.0761 30.3396 18.3368 30.75 18.7112 31.0371C19.0856 31.3242 19.5495 31.4696 20.0208 31.4476C20.492 31.4256 20.9403 31.2375 21.2863 30.9167L35.667 17.5618L32.3402 16.6833C33.0754 18.7945 27.2976 25.7149 26.1033 27.6735C24.1265 30.8569 22.4529 34.2188 21.1045 37.715C20.303 39.874 23.6205 41.1347 24.7471 39.249L32.4743 26.3771L28.8356 24.8377C27.5005 29.0419 25.7759 33.1122 23.6842 36.9958C22.47 39.2517 25.9056 41.2647 27.1211 39.0048C29.3756 34.8171 31.2349 30.4283 32.6747 25.8954C32.7874 25.4336 32.7319 24.9468 32.5183 24.5222C32.3046 24.0976 31.9468 23.763 31.5088 23.5784C31.0708 23.3937 30.5814 23.3711 30.1282 23.5146C29.6751 23.6581 29.2879 23.9583 29.036 24.3613L21.3102 37.2333L24.9475 38.7739C26.9062 33.5734 30.0034 29.0576 32.883 24.3441C34.356 21.9329 37.221 18.6207 36.1779 15.6257C36.0789 15.2949 35.8965 14.9951 35.6484 14.7549C35.4002 14.5148 35.0946 14.3424 34.7607 14.2542C34.4268 14.1661 34.0759 14.1651 33.7416 14.2514C33.4072 14.3377 33.1006 14.5084 32.8511 14.7472L18.4717 28.1048L21.5981 30.5186C24.964 25.2471 28.9466 20.3958 33.4616 16.0676C33.7622 15.7533 33.9525 15.3498 34.0038 14.9179C34.0551 14.4861 33.9646 14.0492 33.7459 13.6733C33.5273 13.2973 33.1923 13.0027 32.7915 12.8338C32.3908 12.6648 31.9459 12.6308 31.5241 12.7368C25.7795 14.6503 21.2889 18.7866 15.6877 20.9708L17.6251 24.2976C22.3187 19.8376 27.8523 16.7337 33.5146 13.6896C35.6379 12.547 34.0733 9.70854 31.982 10.0509C26.4199 11.0521 20.9243 12.3922 15.5258 14.0638L16.5874 17.9028C19.4069 16.6878 22.4009 15.9264 25.4584 15.6469L24.4446 11.9406L18.7 15.7331C18.2988 15.9861 18.0006 16.3733 17.8583 16.8257C17.7161 17.2781 17.7392 17.7663 17.9234 18.2032C18.1076 18.6402 18.441 18.9976 18.8642 19.2116C19.2874 19.4256 19.7728 19.4824 20.234 19.3718L24.2575 19.3373C26.7628 19.7248 27.8404 15.8871 25.3191 15.4996L25.3151 15.5036Z" fill="white"/>
<path d="M14.1446 27.6123C13.6394 29.0144 13.4683 30.5151 13.645 31.995C13.8216 33.4749 14.3413 34.8932 15.1624 36.137C15.367 36.4654 15.6618 36.728 16.0116 36.8935C16.3614 37.0589 16.7514 37.1202 17.1351 37.07C17.5188 37.0197 17.8799 36.8601 18.1753 36.6102C18.4707 36.3603 18.688 36.0306 18.8011 35.6606C19.73 32.3099 20.0485 27.1319 17.4953 24.3452C17.2483 24.0935 16.9379 23.9131 16.597 23.823C16.256 23.7328 15.897 23.7363 15.5579 23.833C12.7141 24.7897 12.957 28.3647 13.1693 30.8011C13.3856 33.3118 13.7412 37.4932 16.1073 38.9595C16.4125 39.1365 16.759 39.2297 17.1118 39.2297C17.4646 39.2297 17.8112 39.1365 18.1164 38.9595C20.2953 37.7426 20.0697 34.741 19.7791 32.5686C19.3756 29.7708 18.2193 27.1352 16.4337 24.9437C16.2181 24.7296 15.9564 24.5675 15.6687 24.4697C15.381 24.372 15.0748 24.3411 14.7733 24.3795C14.4719 24.4179 14.1832 24.5245 13.9291 24.6912C13.6751 24.858 13.4624 25.0805 13.3073 25.3418C11.2451 29.7793 12.2072 37.0566 15.9228 40.4842C16.2989 40.852 16.8041 41.0579 17.3301 41.0579C17.8561 41.0579 18.3613 40.852 18.7374 40.4842L19.0506 40.118C20.7053 38.1806 17.9027 35.3514 16.2347 37.3034L15.9228 37.6683H18.7374C16.4549 35.569 15.4743 30.0792 16.7403 27.3615L13.6138 27.7596C15.3549 30.0155 16.658 33.6236 15.6521 36.4462L16.5664 35.2519L16.0993 35.5173H18.1084C17.652 34.27 17.359 32.9689 17.2366 31.6464C17.1313 30.905 17.0724 30.1578 17.0601 29.409C17.0455 28.7893 17.4847 27.3734 16.6115 27.6667L14.6754 27.1545C16.1643 28.7814 15.4716 32.7624 14.9568 34.5976L18.5954 34.1226C18.049 33.3351 17.7067 32.4244 17.599 31.472C17.4913 30.5197 17.6216 29.5555 17.9783 28.6659C18.8263 26.2428 14.982 25.2011 14.1393 27.6043L14.1446 27.6123Z" fill="white"/>
<path d="M11.0056 38.6516C10.9873 39.3111 11.1151 39.9665 11.3798 40.5708C11.6446 41.1751 12.0397 41.7133 12.5369 42.147C14.1824 43.5403 16.8975 41.7834 15.6634 39.7358C15.2003 38.9727 14.6672 38.2543 14.071 37.59C13.7892 37.3206 13.4353 37.139 13.0521 37.0673C12.669 36.9956 12.2733 37.0368 11.9132 37.1861C11.5531 37.3353 11.2442 37.5861 11.0242 37.9078C10.8041 38.2295 10.6824 38.6083 10.6738 38.998C10.6712 39.6892 10.8478 40.3693 11.1864 40.9719C11.5251 41.5745 12.0141 42.0791 12.6059 42.4363C12.9872 42.6539 13.4291 42.7412 13.8645 42.6849C14.2999 42.6287 14.705 42.4319 15.0184 42.1244C15.3175 41.8061 15.5086 41.4017 15.5645 40.9686C15.6205 40.5355 15.5386 40.0958 15.3303 39.7119C15.0014 39.0104 14.5348 38.3822 13.9582 37.8647C13.6429 37.5659 13.2392 37.3774 12.8077 37.3273C12.3762 37.2772 11.9401 37.3684 11.5648 37.5871C11.1894 37.8058 10.8951 38.1402 10.7258 38.5403C10.5566 38.9403 10.5216 39.3845 10.626 39.8061C10.736 40.3952 10.9669 40.955 11.304 41.4504C11.6411 41.9458 12.0771 42.3659 12.5847 42.6844C12.9273 42.8735 13.3177 42.9584 13.7079 42.9287C14.0981 42.899 14.4711 42.756 14.7812 42.5173C15.0912 42.2785 15.3248 41.9544 15.4532 41.5848C15.5817 41.2151 15.5994 40.816 15.5041 40.4365C15.1417 39.3632 14.4532 38.4298 13.5348 37.7665C12.1388 36.6917 10.1125 38.4698 10.6154 40.0145C10.9944 41.2321 11.7848 42.2801 12.8514 42.979C13.1941 43.1674 13.5843 43.2518 13.9742 43.2219C14.3641 43.1919 14.7368 43.0489 15.0467 42.8103C15.3565 42.5717 15.5901 42.2479 15.7187 41.8786C15.8473 41.5093 15.8654 41.1105 15.7708 40.7311C15.2954 39.2989 14.3719 38.0576 13.1367 37.1906C11.6505 36.0892 9.84577 37.9019 10.2173 39.4386C10.3881 40.1354 10.695 40.7917 11.1205 41.3695C11.5459 41.9472 12.0814 42.4352 12.6962 42.8052C14.0855 43.677 16.2446 42.2067 15.6156 40.5572C15.1727 39.2884 14.4131 38.1538 13.4088 37.2609C13.0931 36.9665 12.6909 36.7815 12.2619 36.7335C11.8328 36.6855 11.3997 36.7769 11.0267 36.9943C10.6537 37.2117 10.3607 37.5435 10.191 37.9405C10.0213 38.3374 9.98401 38.7785 10.0846 39.1984C10.456 40.7426 11.4207 42.0785 12.7698 42.9167C14.1189 43.755 15.7439 44.0281 17.2929 43.677C19.7943 43.129 18.7354 39.2899 16.2313 39.838C15.7008 39.9106 15.1629 39.774 14.7315 39.4569C14.3 39.1399 14.0088 38.6674 13.9197 38.1394L10.5982 40.0715C11.1183 40.4745 11.526 41.0046 11.7819 41.6109L14.7013 39.3629C14.5265 39.2571 14.3777 39.1135 14.2656 38.9426C14.1536 38.7718 14.0812 38.5781 14.0537 38.3756L11.1343 40.6222C11.5111 40.9198 11.7888 41.3247 11.9305 41.7834L14.8499 39.5354C14.6503 39.3944 14.5066 39.1877 14.4438 38.9515L11.5244 41.1995C11.5891 41.2868 11.6401 41.3834 11.6757 41.4861L14.5964 39.2435C14.5142 39.1864 14.4837 38.856 14.4637 38.7432L11.1369 40.6806C11.4623 40.9665 11.7182 41.3228 11.8854 41.7223L14.6084 38.998C14.5805 38.9807 14.6509 38.9754 14.6509 38.998L11.2524 40.4046C11.6181 40.8197 11.9438 41.2685 12.2251 41.7449L15.3515 39.3324C15.0689 39.0935 14.98 39.006 14.9853 38.6516C14.9853 38.1237 14.7755 37.6174 14.4023 37.2441C14.029 36.8708 13.5227 36.6611 12.9948 36.6611C12.4668 36.6611 11.9605 36.8708 11.5873 37.2441C11.214 37.6174 11.0056 38.1237 11.0056 38.6516Z" fill="white"/>
<path d="M18.5026 29.9705C17.0429 32.3179 13.1945 41.9706 18.7189 42.2599C20.9933 42.378 23.3183 39.7638 24.6081 38.2045C26.3524 36.0805 27.6732 33.6416 28.4989 31.0201C28.5857 30.6816 28.5828 30.3264 28.4905 29.9893C28.3983 29.6523 28.2198 29.3451 27.9727 29.098C27.7256 28.8509 27.4184 28.6725 27.0814 28.5802C26.7443 28.4879 26.3891 28.485 26.0506 28.5718C22.3695 29.3163 16.0224 39.3272 21.1022 41.4982C23.6965 42.6062 26.511 40.2216 28.1233 38.4155C29.5738 36.7926 31.9942 33.5786 31.1954 31.2497C31.1048 30.9168 30.9288 30.6134 30.6849 30.3695C30.441 30.1255 30.1375 29.9496 29.8047 29.859C25.9563 29.2791 23.4443 35.1949 22.8525 38.2988C22.5911 39.1076 22.6411 39.9848 22.9925 40.7587C23.344 41.5326 23.9717 42.1474 24.7528 42.4828C26.7658 43.2312 28.1817 41.7251 29.7343 40.7803C31.9186 39.4533 29.9214 36.003 27.7252 37.342C27.2355 37.5878 26.7877 37.9093 26.3982 38.2948C25.61 38.7371 25.7604 38.8601 26.8494 38.6637C26.937 38.3182 27.0429 37.9775 27.1666 37.6432C27.6602 36.0208 28.5908 34.5654 29.8564 33.4366L28.3224 33.637L28.751 33.702L27.3603 32.3113C27.4426 31.7805 27.4205 31.742 27.294 32.1959C27.1813 32.5618 27.0365 32.917 26.8614 33.2575C26.5703 33.8563 26.2261 34.4279 25.8329 34.9653C25.4672 35.4492 25.0606 35.9008 24.6174 36.3149C24.1596 36.7488 23.2068 37.1482 22.8658 37.6167C22.212 37.8166 22.3367 38.2054 23.24 38.7831L23.4204 38.048C23.8013 37.3407 23.9512 36.4356 24.3215 35.7045C24.8656 34.6429 25.8091 32.6736 27.1082 32.4108L24.6599 29.9612C23.7734 32.6988 21.3769 37.7016 18.1894 38.3492L19.7234 38.5509L19.9225 38.8561C19.9129 38.4771 19.924 38.0979 19.9556 37.7202C20.0094 37.0171 20.1262 36.3203 20.3046 35.6381C20.6598 34.3413 21.2116 33.1065 21.9408 31.9769C23.2944 29.7927 19.8508 27.7915 18.5026 29.9678V29.9705Z" fill="white"/>
<path d="M31.5809 16.8123C34.1311 18.4719 36.189 20.7857 37.5398 23.5121C38.8906 26.2384 39.4848 29.2774 39.2603 32.3118C39.1077 34.8716 43.0887 34.8623 43.2413 32.3118C43.4594 28.582 42.6798 24.8616 40.9825 21.5333C39.2852 18.205 36.7317 15.3891 33.5847 13.3754C31.4336 11.9701 29.4378 15.415 31.5756 16.8123H31.5809Z" fill="white"/>
<path d="M30.8031 15.9514C31.732 15.8931 33.0696 17.155 33.68 17.8093C34.1061 18.224 34.4303 18.7318 34.6272 19.2929C34.824 19.854 34.8882 20.4531 34.8146 21.0432C34.8184 21.5699 35.0294 22.074 35.4018 22.4464C35.7743 22.8189 36.2784 23.0299 36.8051 23.0337C37.3294 23.0222 37.8291 22.8088 38.1999 22.4379C38.5707 22.0671 38.7841 21.5675 38.7956 21.0432C38.8769 19.9275 38.713 18.8076 38.3155 17.7621C37.918 16.7165 37.2965 15.7706 36.4946 14.9907C35.1132 13.5469 32.8904 11.8338 30.8031 11.9651C28.2579 12.1244 28.2406 16.1067 30.8031 15.9461V15.9514Z" fill="white"/>
<path d="M33.5794 15.5218C41.9196 14.2307 40.3843 25.3536 40.448 30.2343C40.448 30.7623 40.6577 31.2685 41.031 31.6418C41.4043 32.0151 41.9106 32.2248 42.4385 32.2248C42.9664 32.2248 43.4727 32.0151 43.846 31.6418C44.2193 31.2685 44.429 30.7623 44.429 30.2343C44.3719 25.8924 45.261 20.0297 42.9467 16.0911C40.9469 12.686 36.2268 11.1069 32.5204 11.6735C29.9991 12.0637 31.0687 15.9 33.582 15.5125L33.5794 15.5218Z" fill="white"/>
<path d="M28.9728 22.5352C33.1927 27.4 33.6174 32.6961 35.5986 38.5084C35.7392 38.96 36.0354 39.3472 36.4344 39.6013C36.8334 39.8554 37.3096 39.9598 37.7783 39.8962C38.2471 39.8326 38.6781 39.605 38.995 39.2537C39.3119 38.9025 39.4941 38.4504 39.5093 37.9776L39.5451 37.4998C39.7388 34.944 35.7565 34.956 35.5641 37.4998L35.5282 37.9776L39.4376 37.4468C38.3216 34.1664 37.958 30.6963 36.6509 27.4743C35.4728 24.636 33.83 22.0137 31.7901 19.7153C30.1074 17.7766 27.3021 20.6031 28.9742 22.5312L28.9728 22.5352Z" fill="white"/>
<path d="M33.0799 23.2634C35.1511 27.22 36.2741 31.6039 36.3602 36.069L40.2709 35.5382L40.2457 34.9026C40.3492 32.3415 36.3682 32.3454 36.2647 34.9026C36.244 35.4724 36.3002 36.0424 36.4319 36.5972C36.891 38.804 40.393 38.2957 40.3413 36.0664C40.2289 30.8999 38.9203 25.8298 36.5182 21.2543C35.3345 18.9812 31.8975 20.9889 33.0799 23.2634Z" fill="white"/>
<path d="M37.431 25.0264C38.4425 28.0713 38.7457 31.3069 38.3175 34.4866L39.7069 33.0959L39.6007 33.1172C37.0887 33.6029 38.1516 37.4406 40.6623 36.9549L40.7685 36.935C41.104 36.8499 41.4104 36.6758 41.6552 36.431C41.9 36.1862 42.0741 35.8798 42.1592 35.5443C42.7543 31.6687 42.4505 27.7083 41.2714 23.9688C40.4951 21.5364 36.6508 22.5768 37.4337 25.0304L37.431 25.0264Z" fill="white"/>
<path d="M40.0928 31.077C39.9966 31.644 39.7886 32.1861 39.4811 32.672C39.1736 33.158 38.7725 33.5779 38.3013 33.9075C37.8547 34.1825 37.5311 34.6191 37.3979 35.1264C37.2647 35.6337 37.3321 36.1729 37.5861 36.6319C37.8566 37.0835 38.2934 37.4111 38.8026 37.5445C39.3119 37.678 39.8531 37.6067 40.3104 37.3458C42.1563 36.1536 43.4575 34.2816 43.9318 32.136C44.0592 31.6272 43.9858 31.0889 43.7268 30.6328C43.4679 30.1766 43.0433 29.8377 42.5411 29.6863C42.0322 29.5514 41.4906 29.6214 41.0328 29.8815C40.575 30.1415 40.2375 30.5708 40.0928 31.077Z" fill="white"/>
<path d="M19.3636 24.1828L20.5751 27.4712C20.7274 27.9725 21.0663 28.3962 21.5218 28.655C21.9774 28.9138 22.5149 28.9878 23.0235 28.8619C23.5304 28.7177 23.9605 28.3802 24.2209 27.9219C24.4813 27.4637 24.5512 26.9215 24.4155 26.4122L23.2039 23.1239C23.0514 22.6222 22.7121 22.1982 22.256 21.9394C21.7999 21.6806 21.2619 21.6068 20.753 21.7332C20.2463 21.8776 19.8167 22.2153 19.5568 22.6736C19.2968 23.1318 19.2275 23.6739 19.3636 24.1828Z" fill="white"/>
<path d="M24.6976 25.3299C23.5034 26.4127 22.4407 27.6322 21.5314 28.9633C20.7564 30.0925 19.5687 31.665 20.1699 33.0942C21.0125 35.0927 23.1065 34.4212 24.4163 33.4353L28.9905 29.9784C29.4336 29.7005 29.7541 29.2642 29.8867 28.7583C30.0194 28.2524 29.9542 27.7149 29.7044 27.2554C29.4358 26.8021 28.9993 26.4728 28.4897 26.339C27.98 26.2051 27.4381 26.2774 26.9814 26.5401L24.123 28.7018L22.7881 29.709C22.5028 29.9253 21.9215 30.4986 21.6269 30.5397L23.5644 31.0506L23.3972 30.9179L23.9797 32.3259C23.8965 32.7682 23.9496 32.7611 24.139 32.3047C24.2717 32.0764 24.4044 31.8508 24.5371 31.6292C24.81 31.1817 25.1063 30.749 25.4248 30.3327C26.0556 29.5444 26.7531 28.8118 27.5095 28.1432C29.4138 26.4181 26.5926 23.6128 24.695 25.3286L24.6976 25.3299Z" fill="white"/>
<path d="M31.8484 26.1032C30.6903 28.1379 29.4337 30.1081 28.0783 32.0137C27.8165 32.4705 27.7446 33.0119 27.8781 33.5213C28.0117 34.0306 28.34 34.4671 28.7923 34.7367C29.2505 34.9924 29.7899 35.0608 30.2975 34.9278C30.805 34.7947 31.2414 34.4704 31.5153 34.0228C32.8706 32.1145 34.1273 30.1444 35.2853 28.1123C35.5517 27.6565 35.6262 27.1136 35.4923 26.6029C35.3584 26.0922 35.0271 25.6557 34.5714 25.3893C34.1156 25.1228 33.5727 25.0484 33.062 25.1823C32.5513 25.3162 32.1148 25.6474 31.8484 26.1032Z" fill="white"/>
<path d="M38.7047 14.0123L38.5043 13.8942C38.1989 13.7178 37.8524 13.625 37.4998 13.625C37.1471 13.625 36.8007 13.7178 36.4952 13.8942C33.4153 15.687 36.8588 20.2943 38.3331 22.0685C39.6601 23.6609 42.1244 21.9358 41.6599 20.1311C41.3587 18.9673 41.1066 17.7982 40.9022 16.6119L37.0632 17.6735C37.4438 19.5964 37.3674 21.5818 36.8403 23.4698C36.6995 23.9789 36.7667 24.5231 37.0271 24.9826C37.2876 25.4421 37.7199 25.7794 38.229 25.9202C38.7381 26.0609 39.2822 25.9937 39.7417 25.7333C40.2013 25.4728 40.5385 25.0405 40.6793 24.5314C41.3723 21.9472 41.4487 19.2363 40.9022 16.6172C40.3966 14.0892 36.6319 15.1814 37.0632 17.6788C37.2689 18.8638 37.5197 20.0329 37.8209 21.198L41.1477 19.2619C40.6558 18.6719 40.2278 18.0314 39.8711 17.351C39.6849 17.009 39.5231 16.6542 39.3868 16.2894C39.2152 15.5817 39.1501 15.5817 39.1917 16.2894L38.2774 17.4837L38.5043 17.351H36.4939L36.6943 17.4678C37.1501 17.7342 37.693 17.8087 38.2037 17.6748C38.7143 17.5409 39.1509 17.2096 39.4173 16.7539C39.6837 16.2981 39.7582 15.7552 39.6243 15.2445C39.4904 14.7338 39.1591 14.2973 38.7034 14.0308L38.7047 14.0123Z" fill="white"/>
<path d="M19.2126 36.4306C21.1912 41.099 26.5298 41.7824 30.8478 40.2789C31.1793 40.1807 31.48 39.9989 31.7208 39.7508C31.9616 39.5028 32.1345 39.1968 32.2228 38.8626C32.3111 38.5283 32.3117 38.1769 32.2248 37.8423C32.1378 37.5077 31.9662 37.2011 31.7263 36.9521C29.9428 35.2164 26.5921 35.5388 24.3269 35.8401C22.5142 36.0816 18.8199 36.489 18.3249 38.7953C17.8883 40.8322 19.9956 41.9376 21.6119 42.4499C24.4122 43.2072 27.3844 43.0163 30.0649 41.9071C30.5165 41.7664 30.9038 41.4703 31.1578 41.0713C31.4119 40.6723 31.5164 40.1961 31.4527 39.7274C31.3891 39.2586 31.1615 38.8276 30.8103 38.5107C30.459 38.1938 30.0069 38.0116 29.5341 37.9964C26.4479 37.9796 23.369 38.2972 20.3512 38.9439C19.9397 39.0692 19.5793 39.3233 19.3233 39.6689C19.0672 40.0145 18.9289 40.4333 18.9289 40.8634C18.9289 41.2936 19.0672 41.7123 19.3233 42.0579C19.5793 42.4035 19.9397 42.6577 20.3512 42.7829C23.5629 43.545 26.9396 43.1699 29.9057 41.7213C32.427 40.5987 35.625 38.9797 35.9541 35.8931C35.9921 35.2416 35.8869 34.5896 35.6459 33.9831C35.4049 33.3765 35.0339 32.8302 34.5591 32.3824C34.0842 31.9346 33.517 31.5963 32.8974 31.3913C32.2778 31.1862 31.6208 31.1194 30.9726 31.1955C28.0067 31.4609 25.9936 34.1627 25.2479 36.8459C24.5512 39.35 25.5624 42.1141 28.4221 42.3782C31.1292 42.629 33.9278 40.3691 35.28 38.2061C36.3761 36.4531 37.3502 33.2564 34.5794 32.5292C31.7157 31.7768 29.3762 35.714 28.4406 37.8544C28.2732 38.1589 28.187 38.5014 28.1904 38.8488C28.1938 39.1962 28.2867 39.5369 28.46 39.8381C28.6334 40.1392 28.8814 40.3906 29.1802 40.5679C29.479 40.7453 29.8184 40.8428 30.1657 40.8508L30.6129 40.8667C33.1754 40.9649 33.1714 36.9826 30.6129 36.8857L30.1657 36.8698L31.8909 39.8649C32.4149 38.3239 33.4381 37.0019 34.7983 36.1081L33.2643 36.3085L33.7951 36.4266L32.4071 35.0293C32.7521 35.9183 30.0344 38.4569 29.4585 37.804C29.1161 37.4165 29.4876 36.3881 29.9893 36.1055C30.2069 35.526 30.4413 35.534 30.6926 36.1293C31.2844 36.5292 31.1871 36.8181 30.4006 36.9959C28.4101 39.0302 23.9673 39.5955 21.4155 38.9413V42.779C24.0866 42.2162 26.8111 41.9461 29.5407 41.9735L29.0099 38.0641C27.8649 38.5292 26.6577 38.8234 25.427 38.9373C24.8471 38.9705 22.29 39.0302 21.9768 38.3162V40.3253C22.3391 39.63 28.3769 39.2305 28.925 39.7627L29.8035 36.4359C27.0367 37.4019 23.9713 37.5068 22.6642 34.4202C21.6676 32.07 18.2373 34.0964 19.2259 36.4306H19.2126Z" fill="white"/>
<path d="M37.9556 33.8735C38.0047 34.6459 38.2621 36.4506 37.292 36.7797L39.7417 39.228C39.8011 38.7434 39.958 38.2758 40.2029 37.8534C40.4479 37.4311 40.7758 37.0627 41.1669 36.7704L39.2308 36.2582C39.2481 36.3381 39.2489 36.4206 39.2332 36.5009C39.2175 36.5811 39.1857 36.6573 39.1397 36.7248C39.0936 36.7924 39.0343 36.8498 38.9653 36.8937C38.8963 36.9376 38.8192 36.967 38.7385 36.9801H40.7423C39.9407 37.1065 39.158 37.3321 38.412 37.6515L39.8134 39.0422C39.8999 38.6073 40.0301 38.1823 40.2022 37.7736L38.8048 36.3842C39.8147 39.1816 35.62 38.6309 34.4085 38.0961C33.5101 37.698 32.6475 37.276 31.7292 36.9217L30.6676 40.7607C32.6228 41.3792 34.7279 41.3325 36.6538 40.628C38.6602 39.9287 38.4943 36.5992 36.123 36.7186C33.0889 36.8407 30.1349 37.7281 27.5359 39.2983C27.2068 39.5022 26.9435 39.7967 26.7775 40.1465C26.6116 40.4962 26.55 40.8864 26.6001 41.2702C26.6502 41.6541 26.81 42.0154 27.0602 42.3108C27.3105 42.6062 27.6406 42.8231 28.011 42.9357C30.1675 43.4468 32.4353 43.1779 34.4124 42.1766C34.9215 42.0358 35.3538 41.6986 35.6143 41.2391C35.8747 40.7795 35.9419 40.2354 35.8012 39.7263C35.6604 39.2172 35.3231 38.7849 34.8636 38.5245C34.4041 38.264 33.8599 38.1968 33.3508 38.3376L26.2938 39.5399C23.8654 39.9539 24.8235 43.1838 26.8246 43.4505C29.2401 43.7702 31.6938 43.6406 34.0621 43.0684C34.5144 42.9284 34.9023 42.6326 35.157 42.2335C35.4116 41.8344 35.5164 41.3579 35.4527 40.8888C35.389 40.4197 35.161 39.9884 34.8091 39.6717C34.4573 39.3549 34.0045 39.1733 33.5313 39.159C32.0995 39.1882 30.6875 39.2811 29.2637 39.4377C28.7916 39.4538 28.3404 39.6363 27.9899 39.9531C27.6395 40.2698 27.4124 40.7003 27.3489 41.1684C27.2853 41.6365 27.3894 42.1119 27.6427 42.5107C27.896 42.9094 28.2821 43.2057 28.7329 43.347C34.6858 45.8113 43.8183 39.6513 41.9206 32.9752L38.2939 34.5118C38.8678 35.4927 39.1129 36.6315 38.9933 37.7617C38.9853 39.9287 42.5682 40.567 42.9039 38.2925C43.1456 36.6507 43.4796 35.0238 43.9045 33.4197H40.0655C40.4437 34.6437 40.4895 35.9462 40.1982 37.1937H44.0332C43.9021 36.6381 43.8998 36.0599 44.0265 35.5033C44.1533 34.9466 44.4057 34.4264 44.7644 33.9824L41.0488 32.9778C41.1328 33.4992 41.1116 34.0322 40.9862 34.5452C40.8609 35.0583 40.634 35.541 40.3189 35.9649C38.8473 38.0695 42.2975 40.0614 43.7559 37.974C44.8137 36.5375 45.2706 34.7455 45.0298 32.9778C45.0181 32.5458 44.8674 32.1291 44.6 31.7895C44.3327 31.45 43.963 31.2057 43.5458 31.0929C43.1286 30.9801 42.6862 31.0048 42.2842 31.1634C41.8822 31.322 41.542 31.606 41.3142 31.9733C40.1351 33.8397 39.7291 36.092 40.1823 38.2527C40.5034 40.206 43.6166 40.0959 44.0213 38.2527C44.4854 36.3101 44.4397 34.2805 43.8886 32.3608C43.7634 31.9492 43.5092 31.5889 43.1636 31.3328C42.818 31.0767 42.3992 30.9385 41.9691 30.9385C41.5389 30.9385 41.1202 31.0767 40.7746 31.3328C40.429 31.5889 40.1748 31.9492 40.0496 32.3608C39.6248 33.9649 39.2907 35.5918 39.049 37.2335L42.9584 37.7643C42.9767 35.9364 42.55 34.1315 41.715 32.5054C40.717 30.4565 37.4685 31.9003 38.0776 34.0394C39.1392 37.7882 32.7617 40.7461 29.7865 39.5133L29.2557 43.424C30.6796 43.2674 32.0915 43.1745 33.5234 43.1453L32.9926 39.2346C30.9655 39.6953 28.8707 39.7767 26.814 39.4748L27.3448 43.3842L34.4018 42.1819L33.3402 38.3429C32.0451 39.0905 30.5286 39.3596 29.0553 39.1033L29.5304 42.7406C31.5139 41.5128 33.7781 40.8121 36.1084 40.705L35.5776 36.7956C34.3439 37.2954 32.9731 37.3424 31.708 36.9283C29.2 36.1971 28.3069 39.8636 30.6464 40.7673C34.5412 42.2682 38.5102 44.4166 41.6061 40.1795C42.9398 38.3548 43.8222 33.7528 40.3534 33.7753C37.7074 33.7939 34.4642 38.1545 36.1442 40.5829C38.1931 43.5355 42.5138 40.3175 43.6006 38.051C43.9371 37.4878 44.0797 36.8299 44.0065 36.1781C43.9333 35.5262 43.6484 34.9163 43.1955 34.4418C42.7425 33.9673 42.1465 33.6544 41.4987 33.551C40.8509 33.4477 40.1871 33.5596 39.609 33.8696C37.1421 35.0904 35.6771 40.6572 39.7178 40.6957C42.677 40.7249 44.296 36.022 42.5881 33.9187C39.7682 30.4499 36.5144 35.8362 35.8775 38.1757C35.7882 38.5168 35.7904 38.8754 35.8839 39.2154C35.9773 39.5554 36.1587 39.8647 36.4098 40.1123C36.6608 40.3599 36.9727 40.5369 37.314 40.6256C37.6552 40.7142 38.0138 40.7114 38.3537 40.6174C41.423 39.5744 42.1223 36.8792 41.9366 33.8735C41.7787 31.3283 37.7963 31.3111 37.9556 33.8735Z" fill="white"/>
<path d="M26.2813 19.4369C22.6692 20.5608 19.2482 23.2945 19.5746 27.4679C19.8945 31.5816 23.906 34.8235 27.7225 35.5719C29.7561 35.9364 31.852 35.6951 33.7496 34.8781C35.6472 34.0611 37.2628 32.7043 38.3956 30.9765C40.6236 27.4679 39.1347 23.1578 36.2524 20.5051C30.0474 14.799 17.8336 19.9889 19.1155 28.7949C20.4491 37.9486 32.6974 40.3372 37.8926 32.7733C40.6355 28.779 38.0943 23.6554 34.5234 21.1607C32.6522 19.7416 30.3144 19.081 27.9773 19.3107C25.6401 19.5405 23.4758 20.6438 21.9168 22.4001C20.2594 24.3362 23.062 27.1653 24.7314 25.2147C29.7143 19.3918 39.5938 28.6423 32.1626 32.4521C29.3533 33.8919 25.8527 33.7022 24.0055 30.8531C23.6057 30.3376 23.3117 29.7482 23.1404 29.1188C22.9691 28.4894 22.9238 27.8323 23.0072 27.1853C23.0905 26.5383 23.3009 25.9142 23.6261 25.3487C23.9514 24.7832 24.3852 24.2876 24.9026 23.8903C27.112 22.2369 30.2331 21.1739 32.7319 22.7809C35.711 24.6971 36.4754 28.3291 33.4551 30.5227C32.2879 31.3695 30.8723 31.8043 29.431 31.7586C27.9896 31.713 26.6044 31.1895 25.4931 30.2705C22.4065 27.6683 23.7852 24.3879 27.3376 23.2825C29.7753 22.5235 28.735 18.6792 26.276 19.4435L26.2813 19.4369Z" fill="black"/>
<path d="M28.0258 23.6349C28.9561 24.8227 29.5455 26.2414 29.7309 27.7387C29.9163 29.236 29.6906 30.7555 29.0782 32.1344C28.1028 34.5004 31.9538 35.5328 32.9172 33.196C33.6845 31.3042 33.9533 29.2471 33.6977 27.2216C33.4421 25.1962 32.6707 23.2703 31.4575 21.6285C29.946 19.5968 26.4892 21.5794 28.0205 23.6376L28.0258 23.6349Z" fill="black"/>
<path d="M25.588 21.3791C24.8037 22.4438 24.27 23.6719 24.0267 24.9718C23.7834 26.2716 23.8367 27.6096 24.1827 28.8859C24.6232 31.2214 26.5288 33.6711 29.1828 32.6201C33.9813 30.7212 30.6266 20.1542 26.1307 22.8441C23.8416 24.2149 23.6532 28.0685 23.8469 30.408C23.8126 31.0337 23.9679 31.6552 24.2924 32.1912C24.617 32.7273 25.0959 33.1528 25.6662 33.4123C26.2597 33.602 26.9018 33.5708 27.4741 33.3245C28.0464 33.0783 28.5104 32.6334 28.7807 32.0721C29.3223 30.9579 29.5591 29.7202 29.467 28.4848C29.375 27.2494 28.9573 26.0605 28.2566 25.0389C27.9 24.5805 27.4085 24.2454 26.8515 24.0809C26.2944 23.9164 25.6998 23.9308 25.1514 24.122C24.5955 24.3637 24.1014 24.728 23.7062 25.1876C23.3109 25.6472 23.0247 26.1902 22.8689 26.776C21.9254 29.1646 25.7737 30.193 26.7079 27.8376C25.2863 26.9795 24.794 27.0033 25.231 27.9092C25.3077 28.16 25.3706 28.4147 25.4194 28.6723C25.5136 29.2243 25.6344 29.8042 25.1381 30.1957L27.0755 29.6834L26.7252 29.5866L27.9195 30.5009C27.264 29.5016 28.2592 27.9557 28.0628 26.9578C28.4503 26.1695 27.9872 25.8922 26.6734 26.1257L27.0012 26.4867C27.2502 26.9924 27.4348 27.5274 27.5506 28.0791C27.5771 28.5754 26.9972 29.5799 27.816 29.0531C28.4702 28.6311 28.0947 28.3352 27.9872 27.5682C27.6918 26.4348 27.8424 25.2313 28.4078 24.2056C29.9856 22.2151 27.1857 19.3832 25.5933 21.391L25.588 21.3791Z" fill="black"/>
<path d="M39.1136 13.5163L38.6333 13.5481C38.1993 13.5548 37.779 13.7001 37.4335 13.9627C37.088 14.2253 36.8356 14.5916 36.7131 15.0079C36.474 15.8563 36.5532 16.7629 36.936 17.557C37.2974 18.1764 37.8864 18.6302 38.5775 18.8217C39.3032 19.0229 40.079 18.9284 40.7351 18.5588C41.3913 18.1892 41.8742 17.5746 42.0782 16.8497C42.2531 16.1174 42.147 15.3461 41.781 14.6882C41.4149 14.0302 40.8154 13.5335 40.1009 13.296C39.4117 13.1011 38.6766 13.1461 38.0163 13.4236C37.3559 13.7011 36.8094 14.1947 36.4663 14.8234C36.3342 15.0491 36.248 15.2985 36.2124 15.5575C36.1768 15.8166 36.1926 16.08 36.2588 16.333C36.325 16.5859 36.4404 16.8233 36.5984 17.0316C36.7564 17.2399 36.9538 17.4151 37.1795 17.5471C37.4052 17.6791 37.6547 17.7653 37.9137 17.8009C38.1727 17.8365 38.4362 17.8208 38.6891 17.7545C38.942 17.6883 39.1794 17.5729 39.3877 17.4149C39.596 17.2569 39.7712 17.0595 39.9032 16.8338C40.0801 16.5463 39.9877 16.6193 39.6259 17.0528C39.5091 17.1109 39.3807 17.1418 39.2503 17.143C39.0239 17.1425 38.8033 17.0715 38.6192 16.9397C38.4351 16.8079 38.2966 16.622 38.2232 16.4078C38.1972 16.2327 38.2076 16.0541 38.2539 15.8833C38.3003 15.7124 38.3814 15.553 38.4924 15.415C38.6033 15.277 38.7416 15.1635 38.8985 15.0815C39.0554 14.9996 39.2276 14.951 39.4042 14.9389C39.9996 14.9866 40.3809 15.3922 40.5481 16.1557C40.495 16.3326 40.495 16.3012 40.5481 16.0615L38.6293 17.5212L39.1096 17.4894C39.6376 17.4894 40.1439 17.2796 40.5171 16.9063C40.8904 16.5331 41.1002 16.0268 41.1002 15.4988C41.1002 14.9709 40.8904 14.4646 40.5171 14.0913C40.1439 13.7181 39.6376 13.5083 39.1096 13.5083L39.1136 13.5163Z" fill="black"/>
</g>
<defs>
<clipPath id="clip0_1_30839">
<rect width="53.9361" height="53.9454" fill="white" transform="translate(0 0.527344)"/>
</clipPath>
</defs>
</svg>
