<svg width="145" height="78" viewBox="0 0 145 78" fill="none" xmlns="http://www.w3.org/2000/svg">
<path d="M126.92 38.9189C126.173 39.0059 125.416 38.8729 124.669 38.9189C124.531 38.9189 124.188 38.7092 124.157 38.6989C123.426 38.4585 123.37 37.0977 123.37 36.494C123.37 35.3634 123.4 34.2379 123.37 33.0971C123.334 32.4831 123.348 31.8672 123.41 31.2554C123.45 30.8663 123.58 30.4918 123.79 30.1615C123.999 29.8312 124.283 29.5542 124.618 29.3523C124.911 29.2089 125.24 29.1521 125.564 29.1886C125.991 29.1812 126.417 29.1401 126.838 29.0658C127.332 28.9335 127.837 28.8512 128.347 28.8202C128.977 28.804 129.607 28.8211 130.235 28.8714C130.97 28.9867 131.716 29.0021 132.455 28.9174C133.284 28.7964 134.12 28.7314 134.957 28.723C135.268 28.7512 135.582 28.7512 135.893 28.723C136.405 28.6514 136.916 28.5389 137.428 28.4877C138.021 28.4314 138.599 28.5747 139.198 28.5747C139.894 28.5747 140.554 28.6207 141.244 28.677C141.758 28.6537 142.271 28.7537 142.738 28.9686C143.25 29.3114 143.326 30.1555 143.408 30.7233C143.485 31.194 143.408 31.6698 143.516 32.1609C143.589 32.5079 143.684 32.8497 143.802 33.1841C144.02 33.7622 144.12 34.3777 144.099 34.9951C144.071 35.3116 144.09 35.6305 144.155 35.9415C144.191 36.4657 144.037 36.9853 143.72 37.4046C143.444 37.8139 143.209 37.8497 142.697 37.9162C141.367 38.1055 140.016 37.9162 138.676 38.0237C137.868 38.0748 137.106 38.3511 136.307 38.4585C136.039 38.5201 135.764 38.5442 135.489 38.5301C135.043 38.4747 134.592 38.4627 134.143 38.4943C133.003 38.5659 131.836 38.4278 130.701 38.5506C130.296 38.5966 129.892 38.6734 129.488 38.7245C129.084 38.7757 128.7 38.7245 128.291 38.7655C127.882 38.8064 127.365 38.8831 126.92 38.9189ZM127.309 37.7832C127.609 37.8034 127.911 37.7792 128.204 37.7116C128.296 37.7116 128.414 37.6451 128.49 37.7116C129.14 37.9776 129.775 37.6809 130.424 37.7116C131.391 37.7439 132.36 37.7251 133.325 37.6553C134.389 37.5888 135.453 37.6042 136.517 37.5479C137.527 37.4236 138.545 37.3859 139.561 37.4353C139.907 37.4281 140.25 37.38 140.584 37.2921C141.21 37.2089 141.825 37.0544 142.416 36.8317C142.692 36.7242 142.876 36.5912 142.897 36.2638C142.951 35.9535 143.033 35.6487 143.142 35.3532C143.316 34.7917 143.316 34.1906 143.142 33.6291C142.939 33.1198 142.791 32.5897 142.702 32.0483C142.595 31.5586 142.426 31.0843 142.201 30.6364C142.15 30.5111 142.065 30.4027 141.956 30.3231C141.846 30.2436 141.717 30.1962 141.582 30.1862C141.562 30.1912 141.541 30.1912 141.521 30.1862C140.827 29.9171 140.083 29.8052 139.341 29.8588C138.873 29.8285 138.41 29.7462 137.96 29.6132C137.863 29.5825 137.771 29.5365 137.673 29.5825C137.116 29.8588 136.512 29.6285 135.949 29.7257C135.029 29.869 134.092 29.8588 133.171 29.9764C133.038 29.9994 132.901 29.9994 132.767 29.9764C132.149 29.8197 131.504 29.8057 130.88 29.9355C130.817 29.9411 130.753 29.9411 130.69 29.9355C129.452 29.9918 128.235 30.1964 127.022 30.3294C126.822 30.3573 126.621 30.3726 126.419 30.3755C125.861 30.3807 125.325 30.5921 124.914 30.9689C124.755 31.0854 124.627 31.2401 124.543 31.4189C124.459 31.5978 124.421 31.7949 124.434 31.9921C124.511 33.0063 124.469 34.0261 124.311 35.0309C124.203 35.6448 124.234 36.8521 124.577 37.3893C124.632 37.452 124.694 37.5086 124.761 37.5581C125.614 37.5757 126.466 37.6509 127.309 37.7832Z" fill="black"/>
<path d="M128.205 37.7121C127.912 37.7797 127.611 37.8039 127.31 37.7837C126.463 37.6578 125.609 37.5894 124.752 37.5791C124.685 37.5296 124.623 37.473 124.568 37.4103C124.225 36.8731 124.195 35.6657 124.302 35.0518C124.461 34.0471 124.502 33.0273 124.425 32.013C124.413 31.8158 124.45 31.6187 124.534 31.4399C124.618 31.2611 124.746 31.1063 124.906 30.9899C125.317 30.613 125.852 30.4016 126.41 30.3964C126.612 30.3936 126.813 30.3782 127.013 30.3504C128.226 30.2174 129.444 30.0127 130.682 29.9565C130.745 29.962 130.808 29.962 130.871 29.9565C131.495 29.8266 132.141 29.8406 132.759 29.9974C132.892 30.0204 133.029 30.0204 133.163 29.9974C134.084 29.8797 135.02 29.89 135.941 29.7467C136.503 29.6495 137.107 29.8797 137.665 29.6035C137.762 29.5574 137.854 29.6035 137.951 29.6342C138.401 29.7671 138.864 29.8495 139.332 29.8797C140.074 29.8262 140.819 29.938 141.512 30.2071C141.532 30.2121 141.553 30.2121 141.573 30.2071C141.708 30.2171 141.837 30.2646 141.947 30.3441C142.056 30.4236 142.141 30.5321 142.192 30.6573C142.42 31.0865 142.595 31.5417 142.714 32.013C142.803 32.5544 142.95 33.0845 143.154 33.5938C143.328 34.1553 143.328 34.7564 143.154 35.3179C143.045 35.6134 142.963 35.9182 142.908 36.2285C142.908 36.5559 142.704 36.6889 142.428 36.7963C141.837 37.0191 141.222 37.1736 140.596 37.2568C140.262 37.3447 139.918 37.3928 139.573 37.4C138.557 37.3506 137.539 37.3883 136.529 37.5126C135.465 37.5688 134.401 37.5535 133.337 37.62C132.371 37.6898 131.403 37.7086 130.436 37.6763C129.786 37.6763 129.152 37.9525 128.502 37.6763C128.415 37.6456 128.298 37.7121 128.205 37.7121Z" fill="#E1251B"/>
<path d="M144.994 11.5138C144.963 11.1548 144.912 10.7978 144.841 10.4446C144.719 9.6073 144.731 8.75603 144.876 7.9225C145.076 6.14219 145.015 1.96254 142.712 1.53792C141.618 1.34352 140.359 1.64535 139.229 1.64535C137.755 1.64535 136.077 1.43049 134.624 1.6914C134.503 1.68942 134.385 1.7305 134.292 1.80732C134.198 1.88414 134.134 1.99172 134.113 2.1109C133.949 2.94478 133.437 3.64565 133.432 4.49488C133.432 4.85811 133.509 5.21622 133.489 5.57433C133.468 5.93244 133.299 6.41844 133.299 6.85329C133.299 7.28814 133.263 7.87646 133.263 8.38804V12.317C133.263 12.7979 133.263 13.289 133.263 13.7699C133.263 14.1485 133.417 14.4401 133.458 14.7931C133.55 15.7088 133.12 16.6041 133.12 17.5198C133.065 18.0662 132.982 18.6092 132.87 19.1467C132.742 20.3182 133.013 21.4693 132.972 22.6357C132.922 23.2875 132.91 23.9418 132.936 24.5951C133.013 25.4392 132.91 26.4163 133.929 26.6823C134.634 26.8614 135.366 26.5033 136.067 26.6823C136.744 26.937 137.467 27.0484 138.19 27.0097C138.829 26.9279 139.474 26.5749 140.134 26.6465C140.794 26.7181 141.474 27.1581 142.042 26.8153C142.402 26.5226 142.698 26.1599 142.914 25.7493C143.129 25.3386 143.259 24.8885 143.296 24.4262C143.377 23.577 143.623 22.7227 143.705 21.8683C143.88 20.8669 144.113 19.8762 144.401 18.9011C144.561 18.2483 144.66 17.5821 144.697 16.9111C144.697 16.2358 144.575 15.5707 144.6 14.9005C144.656 14.0874 144.768 13.2789 144.933 12.4807C144.99 12.1619 145.011 11.8374 144.994 11.5138Z" fill="black"/>
<path d="M130.781 17.9592C130.781 17.9592 130.781 17.9592 130.781 17.9336C130.781 15.7952 131.191 11.0732 131.201 10.9197C131.249 10.1395 131.249 9.35695 131.201 8.57669C131.129 8.09752 131.115 7.61138 131.16 7.1289C131.17 7.00975 131.17 6.88994 131.16 6.77079C131.149 6.21286 131.031 5.6622 130.812 5.14907C130.637 4.75783 130.575 4.32544 130.633 3.9008C130.751 2.45301 130.679 1.31218 129.344 0.50899C128.387 -0.0742174 127.062 0.00252033 125.983 0.0332154C125.113 0.0741422 124.202 -0.0588699 123.343 0.0332154C121.297 0.268545 120.176 1.12289 119.895 3.17435C119.841 3.92163 119.933 4.67219 120.166 5.3844C120.312 6.2288 120.35 7.08836 120.279 7.94232C120.286 8.77635 120.19 9.60806 119.992 10.4184C119.547 12.2703 119.854 14.1939 119.762 16.0765C119.731 16.7007 119.578 17.2941 119.573 17.9182C119.567 18.5424 119.573 19.1051 119.573 19.6985C119.573 20.8547 119.163 22.4048 119.573 23.515C119.777 24.2711 119.839 25.0586 119.757 25.8376C119.758 26.2093 119.861 26.5736 120.053 26.8914C120.227 27.1626 120.238 27.403 120.565 27.5463C120.952 27.6401 121.355 27.6523 121.747 27.5821C122.511 27.595 123.275 27.554 124.034 27.4593C124.542 27.3851 125.055 27.3407 125.568 27.3263C125.968 27.3041 126.365 27.2493 126.755 27.1626C127.303 27.0296 127.876 27.0398 128.413 26.8556C128.705 26.7644 128.967 26.5975 129.174 26.372C129.381 26.1465 129.524 25.8703 129.589 25.5715C129.774 24.9883 129.589 24.4051 129.707 23.8373C129.707 23.735 129.707 23.6173 129.774 23.5406C130.234 22.7936 130.137 21.9035 130.433 21.1105C130.464 20.962 130.464 20.8088 130.433 20.6603C130.408 20.4122 130.423 20.1615 130.48 19.9185C130.572 19.2586 130.674 18.6089 130.781 17.9592Z" fill="black"/>
<path d="M123.538 26.2873C123.906 26.2873 124.274 26.2515 124.653 26.2106C125.031 26.1697 125.523 26.2413 125.952 26.2106C126.382 26.1799 126.822 26.0162 127.272 25.9957C127.472 25.9957 127.62 26.0622 127.82 25.9957C127.978 25.9163 128.118 25.8048 128.231 25.6683C128.343 25.5317 128.426 25.3732 128.474 25.2028C128.776 24.4558 128.751 23.6424 128.986 22.8802C129.181 22.0424 129.237 21.1781 129.15 20.3222C129.196 19.5641 129.33 18.814 129.549 18.0866C129.728 17.2271 129.774 16.3216 130.035 15.4775C130.076 15.1154 130.076 14.7499 130.035 14.3878C130.091 13.7074 130.091 13.0168 130.081 12.3415C130.081 11.5741 130.05 10.8068 130.05 10.0445C130.05 9.28223 129.968 8.37672 129.958 7.55307C129.956 7.0209 129.894 6.49064 129.774 5.97227C129.72 5.72646 129.685 5.47668 129.672 5.22536C129.667 4.86847 129.577 4.51781 129.411 4.20219C129.24 3.81349 129.045 3.43588 128.827 3.07159C128.676 2.87 128.572 2.63773 128.52 2.39118C128.507 2.24551 128.438 2.11064 128.327 2.01514C128.217 1.91965 128.073 1.87103 127.927 1.87959C127.155 1.82843 126.392 1.77216 125.589 1.74658C124.842 1.72711 124.097 1.65875 123.359 1.54195C123.26 1.5266 123.16 1.5266 123.062 1.54195C122.778 1.58023 122.491 1.58023 122.207 1.54195C122.092 1.51246 121.971 1.50969 121.854 1.53386C121.737 1.55803 121.627 1.6085 121.532 1.68144C121.437 1.75439 121.361 1.8479 121.307 1.95491C121.254 2.06192 121.226 2.17961 121.225 2.29909C121.182 2.71405 121.182 3.13241 121.225 3.54736C121.092 3.70595 121.149 3.90035 121.138 4.05894C121.167 4.6218 121.266 5.17877 121.435 5.71648C121.495 5.9244 121.539 6.13642 121.568 6.35085C121.577 6.82064 121.502 7.28827 121.348 7.73213C121.056 8.58784 120.917 9.48843 120.939 10.3924C120.939 11.5025 120.796 12.6126 121.005 13.7279C121.033 13.9769 121.003 14.2289 120.918 14.4646C120.834 14.9912 120.718 15.5123 120.57 16.0249C120.517 16.1898 120.497 16.3639 120.514 16.5365C120.5 17.169 120.441 17.7997 120.34 18.4243C120.303 18.6223 120.317 18.8267 120.381 19.0177C120.404 19.1136 120.404 19.2134 120.381 19.3093C120.261 19.9326 120.306 20.5767 120.514 21.1766C120.724 21.7751 120.427 22.5527 120.596 23.1922C120.698 23.5913 120.888 23.9494 120.959 24.3638C121.067 24.9879 120.923 25.8269 121.599 26.0366C122.227 26.2266 122.882 26.3113 123.538 26.2873Z" fill="#E1251B"/>
<path d="M107.064 25.376C106.675 25.0282 106.972 24.5268 106.967 23.9948C106.967 23.5497 106.727 23.3297 106.578 22.9256C106.23 21.9689 106.353 20.9201 106.194 19.9277C106.024 18.4413 106.058 16.9385 106.297 15.4615C106.401 14.5001 106.438 13.5326 106.409 12.566C106.403 12.3482 106.42 12.1304 106.46 11.9162C106.667 11.1309 106.811 10.3303 106.89 9.52202C106.914 9.38911 106.944 9.2576 106.982 9.1281C107.179 8.52828 107.284 7.90223 107.294 7.27105C107.302 6.30269 107.368 5.33569 107.494 4.37547C107.535 3.8997 107.576 3.41881 107.591 2.93792C107.542 2.56433 107.542 2.18602 107.591 1.81243C107.861 1.41574 108.27 1.13464 108.737 1.02459C109.619 0.817839 110.518 0.694515 111.423 0.65625C112.11 0.724527 112.793 0.828692 113.469 0.968317C114.199 1.09619 114.912 1.30201 115.597 1.58222C116.342 1.79975 117.024 2.19473 117.582 2.73329C118.263 3.46997 118.063 4.96891 117.981 5.88977C117.927 6.42165 117.908 6.95662 117.925 7.49103C117.966 7.95781 117.91 8.42794 117.761 8.87231C117.683 9.09192 117.65 9.32511 117.664 9.55783C117.688 9.95919 117.657 10.3619 117.572 10.7549C117.513 11.0321 117.494 11.3164 117.516 11.5991C117.567 12.2307 117.567 12.8654 117.516 13.497C117.516 14.0086 117.572 14.4946 117.582 14.9909C117.582 15.8043 117.582 16.6177 117.526 17.4311C117.526 17.9427 117.49 18.4543 117.444 18.9301C117.328 19.5869 117.304 20.2567 117.373 20.9201C117.398 21.0174 117.398 21.1196 117.373 21.2169C116.938 22.3679 117.557 23.7287 117.035 24.8593C116.702 25.5653 115.72 25.4067 115.106 25.4425C114.344 25.4835 113.643 25.7955 112.891 25.8518C112.62 25.8518 112.349 25.8262 112.078 25.8518C111.602 25.8876 111.152 26.1895 110.676 26.1895C110.2 26.1895 109.76 26.0155 109.3 26.0002C108.566 26.0179 107.841 25.8414 107.197 25.4886L107.064 25.376Z" fill="black"/>
<path d="M97.4507 26.1341C96.3917 26.1699 95.5169 26.1341 94.8927 25.1621C94.6982 24.7963 94.593 24.3895 94.5858 23.9752C94.55 23.7297 94.5449 23.4943 94.4886 23.2488C94.3037 22.6184 94.2481 21.9572 94.3249 21.3048C94.3753 21.0417 94.401 20.7745 94.4016 20.5067C94.3505 19.7035 94.3607 18.9105 94.3044 18.1125C94.2312 16.4259 94.3669 14.7368 94.7086 13.0836C94.8707 12.2412 94.924 11.3816 94.8672 10.5257C94.8436 10.3527 94.8648 10.1766 94.9286 10.0141C95.2591 9.32268 95.4718 8.58089 95.5578 7.81937C95.6755 6.98037 96.1257 6.66319 96.8879 6.47902C97.4564 6.34306 98.0345 6.25071 98.6171 6.20276C100.167 6.07771 101.726 6.29066 103.186 6.82689C103.37 6.88686 103.537 6.99016 103.673 7.12814C103.81 7.26611 103.911 7.43473 103.968 7.61985C104.252 8.56156 104.424 9.53347 104.48 10.5154C104.501 12.6812 104.321 14.8442 103.943 16.9767C103.82 17.6745 103.733 18.3779 103.682 19.0845C103.682 19.6268 103.4 20.2151 103.503 20.7522C103.629 21.2221 103.669 21.7109 103.62 22.1949C103.515 22.7441 103.363 23.2832 103.165 23.8064C103.027 24.2106 102.786 24.6096 102.684 25.0291C102.582 25.4486 102.648 25.6481 102.208 25.8016C101.768 25.9551 101.349 25.6788 100.909 25.6328C100.469 25.5867 100.203 25.8067 99.8091 25.8937C99.0319 26.0456 98.2425 26.1261 97.4507 26.1341Z" fill="black"/>
<path d="M136.574 26.027C135.909 25.98 135.286 25.6865 134.826 25.2039C134.366 24.7213 134.103 24.0844 134.088 23.4179C134.088 22.6096 134.088 21.8218 134.18 21.0237C134.272 20.1285 134.605 19.2946 134.692 18.3942C134.767 16.6968 134.73 14.9963 134.579 13.3039C134.497 11.6924 134.41 10.0246 134.83 8.48477C134.936 8.01598 134.918 7.52759 134.779 7.06768C134.714 6.79823 134.668 6.52477 134.64 6.24915C134.518 4.8781 134.64 3.9112 134.963 3.38427C135.149 3.1224 135.402 2.91447 135.695 2.78152C135.988 2.64857 136.31 2.59531 136.63 2.62712C137.113 2.64067 137.592 2.70063 138.063 2.80618L138.534 2.88803C138.909 2.93156 139.286 2.95207 139.664 2.94942C140.631 2.94942 141.71 2.98012 142.519 3.88562C142.962 4.47581 143.248 5.16969 143.348 5.90127C143.388 6.09055 143.429 6.27473 143.475 6.44866L143.516 6.59191C143.689 7.1092 143.769 7.65311 143.752 8.19829C143.717 8.51746 143.652 8.83263 143.557 9.1396C143.286 10.1218 143.465 11.1143 143.465 12.1221C143.447 12.9631 143.351 13.8005 143.179 14.6238C143.015 15.56 142.969 16.5218 142.821 17.4631C142.679 18.247 142.599 19.0406 142.58 19.8368C142.618 20.4546 142.599 21.0745 142.524 21.6888C142.409 22.1492 142.318 22.6154 142.253 23.0854C142.156 24.4053 141.608 25.6433 140.125 25.6433H139.531H139.158C138.841 25.6791 138.523 25.7354 138.191 25.7968C137.783 25.8783 137.372 25.9381 136.958 25.9759L136.574 26.027Z" fill="#E1251B"/>
<path d="M108.844 24.2831C108.977 24.4455 109.141 24.5798 109.326 24.6782C109.511 24.7765 109.714 24.837 109.923 24.8561C110.55 25.0223 111.21 25.0223 111.837 24.8561C112.059 24.7674 112.291 24.7056 112.527 24.672C112.929 24.6798 113.331 24.6593 113.73 24.6106C114.338 24.4663 114.923 24.2337 115.464 23.9199C115.531 23.8838 115.584 23.8267 115.615 23.7574C115.647 23.6881 115.655 23.6104 115.638 23.5362C115.598 23.2083 115.642 22.8755 115.766 22.5693C115.884 22.1487 115.935 21.7116 115.914 21.275C115.97 20.6846 116.072 20.0995 116.221 19.5254C116.362 18.853 116.4 18.1629 116.334 17.4791C116.307 17.044 116.319 16.6075 116.369 16.1745C116.395 15.3151 116.252 14.4505 116.369 13.5808C116.441 12.9567 116.415 12.3223 116.431 11.693C116.437 11.4258 116.48 11.1608 116.559 10.9052C116.633 10.6199 116.654 10.3233 116.62 10.0304C116.618 9.66465 116.652 9.2996 116.722 8.94071C116.777 8.60261 116.793 8.25922 116.768 7.91754C116.743 7.47081 116.783 7.02283 116.886 6.58742C116.964 5.97953 116.92 5.36228 116.758 4.77129C116.676 4.36714 116.62 3.80439 116.247 3.55883C115.873 3.31327 115.423 3.13422 115.044 2.86819C114.529 2.50144 113.917 2.295 113.284 2.27475C112.602 2.22221 111.916 2.24451 111.238 2.34126C110.503 2.36069 109.779 2.51502 109.1 2.79657C108.736 2.99609 108.736 3.23142 108.624 3.63557C108.378 4.54619 107.897 5.34426 108.066 6.34697C108.135 6.68455 108.135 7.03257 108.066 7.37014C108.006 7.53345 107.986 7.70917 108.01 7.88173C107.97 8.22671 107.907 8.56857 107.821 8.9049C107.434 10.0923 107.205 11.3257 107.14 12.573C107.14 12.8697 107.14 13.1766 107.14 13.4734C107.177 13.8903 107.144 14.3104 107.043 14.7165C107.013 14.7931 106.998 14.8747 106.997 14.9569C107.048 15.9443 106.757 16.901 106.767 17.8781C106.79 18.5269 106.86 19.1732 106.977 19.8119C107.12 20.8351 107.345 22.1038 107.918 22.9428C108.166 23.2486 108.396 23.5679 108.609 23.8995C108.676 24.0336 108.755 24.1619 108.844 24.2831Z" fill="#E1251B"/>
<path d="M99.0287 24.8459C99.2251 24.8669 99.4225 24.818 99.5864 24.7078C99.7227 24.6124 99.8856 24.5623 100.052 24.5645C100.113 24.5777 100.175 24.5777 100.236 24.5645C100.789 24.1348 101.459 23.8534 101.832 23.2191C101.886 23.1202 101.914 23.0094 101.914 22.8968C101.96 22.5796 102.206 22.334 102.267 22.0475C102.421 21.4732 102.503 20.8821 102.513 20.2877C102.483 19.5257 102.567 18.7635 102.763 18.0265C102.954 17.3232 103.066 16.6008 103.096 15.8727C103.127 15.4993 103.198 15.1258 103.249 14.7626C103.432 13.6634 103.528 12.5515 103.536 11.4373C103.472 10.467 103.32 9.50465 103.08 8.56216C103.014 8.3456 102.892 8.15011 102.727 7.99492C102.562 7.83973 102.359 7.7302 102.139 7.67712C101.538 7.39251 100.904 7.18454 100.251 7.0581C99.6158 7.0249 98.9789 7.0249 98.3432 7.0581C98.1737 7.03596 98.0014 7.05255 97.8393 7.1066C97.6771 7.16065 97.5293 7.25077 97.407 7.37017C97.1563 7.58503 96.8954 7.73851 96.6192 7.93803C96.0411 8.39334 96.1076 9.35 96.1076 10.0151C96.1729 10.5976 96.19 11.1845 96.1588 11.7698C96.0871 12.174 95.8006 12.4911 95.6983 12.8851C95.596 13.279 95.6983 13.8008 95.6114 14.251C95.5142 14.8188 95.33 15.3662 95.2532 15.9341C95.1706 16.6729 95.1364 17.4163 95.1509 18.1595C95.1312 18.6507 95.1398 19.1426 95.1765 19.6329C95.2072 19.9193 95.2533 20.2058 95.2993 20.4872C95.3572 21.1061 95.3794 21.7279 95.3658 22.3494C95.4 22.6898 95.4916 23.0219 95.6369 23.3316C95.7546 23.6437 95.8416 24.1502 96.1485 24.3548C96.4183 24.4632 96.7029 24.5304 96.9926 24.5543C97.3098 24.6157 97.6321 24.6566 97.9493 24.7129C98.2665 24.7692 98.6758 24.7589 99.0287 24.8459Z" fill="#E1251B"/>
<path d="M3.6109 60.3692C3.72333 60.0809 3.92028 59.8333 4.17591 59.6589C4.43154 59.4846 4.7339 59.3915 5.04334 59.392C5.42477 59.3954 5.79473 59.5229 6.09721 59.7553H6.28138H6.37346C6.54623 59.7445 6.71755 59.7171 6.88505 59.6734C7.02565 59.6382 7.16985 59.6193 7.31478 59.6171C7.39826 59.612 7.48198 59.612 7.56546 59.6171H7.67289C7.77742 59.6131 7.88163 59.6028 7.98496 59.5865C7.91479 59.4585 7.86475 59.3204 7.8366 59.1772C7.64219 57.2946 7.87752 54.9413 8.031 52.9052C8.15532 51.6455 8.18268 50.3782 8.11285 49.1143C8.15378 48.8432 9.40716 48.2548 9.44809 48.526C9.47901 49.1988 9.62433 49.8614 9.87782 50.4854C10.1899 51.309 10.6247 52.6442 10.6247 52.6442C10.8191 53.1916 9.95456 54.179 11.9958 53.9386C12.2148 53.8928 12.4373 53.8655 12.6608 53.8567C13.0412 53.8451 13.4218 53.8726 13.7966 53.9386C14.0154 53.9788 14.2414 53.9514 14.4443 53.86C14.6472 53.7686 14.8174 53.6176 14.9323 53.427C15.0204 53.1721 15.0871 52.9102 15.1318 52.6442C15.1318 52.6442 15.4797 51.662 15.715 51.0737C16.2266 49.7845 16.6972 48.173 16.6972 48.173C16.774 47.9019 17.6744 47.8609 17.6744 48.1372C17.6744 48.1372 17.7562 49.1962 17.792 51.0379C17.833 52.5266 17.7562 54.3274 17.7562 55.7393C17.7153 57.3866 17.5976 59.9292 17.5976 59.9292C17.5906 60.0805 17.6172 60.2315 17.6756 60.3712C17.734 60.5109 17.8227 60.636 17.9352 60.7373C18.0478 60.8386 18.1815 60.9137 18.3266 60.9571C18.4717 61.0004 18.6246 61.0111 18.7743 60.9882L20.0277 60.8705C21.1647 60.8428 22.3024 60.882 23.4348 60.9882C23.5808 61.0003 23.7277 60.9818 23.8661 60.934C24.0045 60.8861 24.1315 60.81 24.2388 60.7103C24.3461 60.6107 24.4315 60.4898 24.4895 60.3553C24.5475 60.2208 24.5769 60.0757 24.5757 59.9292C24.6397 58.7786 24.6003 57.6247 24.458 56.4811C23.9055 53.386 24.4938 49.5082 24.4938 45.9425C24.5347 42.3 24.2227 39.0054 24.4938 36.6163C24.6158 35.7075 24.6432 34.7886 24.5757 33.8742C24.5676 33.5888 24.4479 33.3179 24.2422 33.1198C24.0365 32.9218 23.7613 32.8124 23.4758 32.8152L22.1456 32.9329C21.0461 32.9609 19.9458 32.9216 18.851 32.8152C18.0274 32.7743 17.7562 33.4393 17.2856 34.1453C16.7454 34.7255 16.3077 35.3933 15.9913 36.12C15.6025 36.9846 15.4797 38.0794 15.0909 38.8263C14.4258 40.0388 13.2492 41.8958 13.2492 41.8958C13.2121 41.9562 13.1602 42.0059 13.0984 42.0405C13.0366 42.075 12.967 42.0932 12.8962 42.0932C12.8254 42.0932 12.7558 42.075 12.694 42.0405C12.6322 42.0059 12.5803 41.9562 12.5432 41.8958C12.5432 41.8958 11.9958 40.5862 11.2335 39.2151C10.9952 38.6668 10.6647 38.1633 10.2564 37.7264C9.12067 36.6316 8.53235 34.043 8.53235 34.043C8.41469 33.8077 8.33283 33.4547 8.21517 33.2603C7.89671 32.968 7.47557 32.8135 7.04364 32.8306C7.04364 32.8306 5.7084 32.7129 4.88475 32.7129C3.86158 32.7129 2.32682 32.8306 2.32682 32.8306C1.69757 32.8664 1.10925 33.2603 1.19111 33.8895C1.19111 33.8895 1.26784 34.6723 1.30877 35.1429C1.5134 37.8083 1.45201 40.9289 1.45201 43.9985C1.45201 47.9939 1.29854 51.9945 1.21668 54.972C1.13483 57.9494 1.18087 59.9446 1.18087 59.9446C1.1757 60.1368 1.22479 60.3265 1.32251 60.4921C1.42023 60.6577 1.56263 60.7924 1.73339 60.8808L1.83059 60.845C2.38776 60.573 2.99232 60.4114 3.6109 60.3692Z" fill="black"/>
<path d="M32.7788 59.8936C33.0039 59.8373 33.2392 59.776 33.4848 59.7248C33.675 59.683 33.8684 59.6574 34.0629 59.6481H34.1294C34.413 59.5293 34.7133 59.4551 35.0196 59.4281H35.173C35.2844 59.4075 35.3974 59.3972 35.5107 59.3974C35.6284 59.3974 35.7307 59.3974 35.8074 59.3974H35.8535H35.9558H36.1962C36.4885 59.4046 36.7789 59.4475 37.0608 59.5253L37.2347 59.5662C37.3626 59.5662 37.4956 59.5662 37.6286 59.5662C37.9541 59.5687 38.2789 59.5944 38.6007 59.6429C38.4089 58.8231 38.2924 57.9874 38.2528 57.1464C38.2119 53.9541 38.8616 49.4061 38.8616 45.8404C38.9025 42.51 38.5495 39.3739 38.5495 37.1434C38.5495 35.1482 38.6672 33.8949 38.6672 33.8949C38.6605 33.609 38.5411 33.3374 38.3351 33.139C38.1291 32.9407 37.8532 32.8318 37.5673 32.8359C36.9769 32.7867 36.3842 32.7713 35.7921 32.7898C35.0132 32.8857 34.2284 32.925 33.4439 32.9075C33.2086 32.8666 32.8556 32.8308 32.8556 32.8308C32.7074 32.8112 32.5568 32.8243 32.4142 32.8692C32.2717 32.9141 32.1407 32.9897 32.0305 33.0906C31.9203 33.1916 31.8335 33.3154 31.7763 33.4535C31.7191 33.5915 31.6929 33.7404 31.6994 33.8897C31.6994 33.8897 31.6585 35.2966 31.7352 37.5322C31.7761 39.686 31.9347 42.5867 31.9705 45.7636C32.0114 50.1121 32.0114 54.8903 31.7761 58.8091C31.7352 59.2439 31.6994 59.9448 31.6994 59.9448C31.691 60.0447 31.7014 60.1454 31.7301 60.2415C31.9007 60.1368 32.0873 60.0607 32.2826 60.0164C32.4565 59.9806 32.6202 59.9397 32.7788 59.8936Z" fill="black"/>
<path d="M59.3238 45.763C58.3706 44.8175 57.3328 43.9613 56.2236 43.2051C55.7938 42.9288 55.2004 42.7702 54.7348 42.4581C54.387 42.187 53.328 41.7522 52.8164 41.3224C52.3048 40.8927 52.3867 40.422 52.4276 39.9104C52.3999 39.6442 52.4619 39.3763 52.6036 39.1493C52.7454 38.9223 52.9589 38.749 53.2103 38.6571C53.7975 38.5038 54.4062 38.4502 55.0111 38.4985C56.1468 38.4985 56.5458 37.9869 57.5997 38.1864C58.1471 38.3041 59.7126 39.2454 60.3009 39.2454C61.4775 39.2454 61.4366 38.3041 61.4775 38.0329C61.4775 38.0329 61.5952 37.3269 61.6361 36.8563C61.6368 36.1218 61.5838 35.3883 61.4775 34.6616C61.4366 34.0733 60.6948 33.4849 59.5949 33.2087C59.0066 33.0552 58.2648 33.091 57.5997 32.9734C56.3821 32.779 55.1697 32.5078 54.6172 32.5078C52.2281 32.5078 50.1152 32.7431 48.4782 33.6793C47.6136 34.1909 47.1838 35.0504 46.5955 35.7973C45.6184 37.0098 44.7947 38.3552 44.7947 40.3044C44.8165 41.3065 45.0428 42.2936 45.4598 43.2051C45.9202 44.5071 46.7182 45.6635 47.7722 46.5559C49.22 47.7326 51.1026 48.5153 52.4736 49.4157C54.08 50.4389 55.1799 51.5337 55.1799 53.0224C55.1799 53.8051 55.5329 54.5878 54.6274 54.9817C54.1158 55.2171 52.6322 55.2529 51.8086 55.2529C51.3379 55.2529 50.5552 55.0176 49.7622 54.8999C48.9693 54.7822 48.2275 54.7822 47.7159 54.6646C47.2043 54.5469 46.7746 54.1939 46.2272 54.1939C46.0539 54.1877 45.8811 54.2166 45.7192 54.279C45.5574 54.3414 45.4099 54.4359 45.2856 54.5569C45.1613 54.6778 45.0628 54.8227 44.996 54.9828C44.9292 55.1428 44.8956 55.3148 44.8971 55.4882C44.7481 56.2634 44.6829 57.0524 44.7027 57.8415C44.7463 58.2488 44.8112 58.6535 44.8971 59.054C45.0147 59.719 44.8971 60.0771 45.956 60.5069C47.1471 60.8261 48.3711 61.0064 49.6036 61.044L49.9311 61.085C50.0367 61.0487 50.1393 61.0043 50.238 60.9519L50.6115 60.7882C50.8659 60.6784 51.1296 60.5911 51.3993 60.5273C51.7614 60.4426 52.1289 60.3828 52.4992 60.3483H52.6936C52.9331 60.3471 53.1713 60.3833 53.3996 60.4557C53.5661 60.4092 53.7384 60.3868 53.9112 60.3892C54.2722 60.3979 54.6247 60.5002 54.9344 60.6859H54.9804L55.3692 60.9161C55.8194 60.7985 56.2594 60.6706 56.6942 60.5273C58.2648 60.0567 59.1242 58.3736 60.1423 57.3555C61.5133 55.9845 62.7309 55.1608 62.7002 52.9661C62.7002 51.0477 62.5058 50.1831 61.7231 48.9297C61.0443 47.7877 60.2394 46.7255 59.3238 45.763Z" fill="black"/>
<path d="M86.765 49.6271C86.0181 45.6317 83.7466 41.2781 83.1174 37.2417C82.9639 36.1059 82.4932 34.2642 82.4932 34.2642C82.217 32.9341 81.9049 33.0876 81.0403 33.1694C80.0952 32.7535 79.0904 32.4893 78.0629 32.3867C77.1978 32.442 76.3407 32.586 75.505 32.8165C74.7632 32.9341 74.2107 32.9699 73.9395 34.2642C73.3163 36.5965 72.8446 38.9667 72.5276 41.3599C72.016 43.2784 71.0798 45.4526 70.5682 47.4989C70.0975 49.3048 69.7855 51.341 69.3557 52.9064C68.6856 55.3774 67.5908 59.2194 67.5908 59.2194C67.4322 59.7668 66.9615 61.0201 68.4144 60.9792C69.4031 60.8726 70.3979 60.8333 71.3918 60.8615C71.9034 60.9025 72.6862 60.9792 72.6862 60.9792C72.8843 61.0041 73.0854 60.9894 73.2778 60.9358C73.4701 60.8822 73.6499 60.7908 73.8065 60.667C73.9632 60.5432 74.0937 60.3894 74.1903 60.2146C74.2869 60.0399 74.3477 59.8476 74.3693 59.6491C74.3696 59.2556 74.3952 58.8626 74.446 58.4724C74.57 57.885 74.7411 57.3084 74.9576 56.7484C74.9864 56.6498 75.0417 56.5609 75.1175 56.4915C75.1932 56.422 75.2866 56.3746 75.3873 56.3545C75.3873 56.3545 77.9453 55.6127 78.9173 55.6536C79.8177 55.6894 81.071 55.9657 81.3422 56.7484C81.5401 57.2348 81.7109 57.7318 81.8538 58.2371C81.9058 58.7207 81.8799 59.2095 81.777 59.6849C81.7361 60.5495 82.6774 61.0611 83.7722 60.9792C83.7722 60.9792 85.2251 60.8257 86.1664 60.8257C86.8217 60.8434 87.4757 60.8947 88.1258 60.9792C89.2206 61.0611 89.1848 59.956 89.0262 59.2552C89.0364 59.2807 88.2128 54.9732 86.765 49.6271ZM79.746 50.4508C79.2065 50.5766 78.657 50.6553 78.1039 50.6861C77.6131 50.6546 77.1265 50.5758 76.6509 50.4508C76.4975 50.4099 76.3389 50.3689 76.3798 50.2155C76.3798 50.2155 76.7328 47.7445 77.0858 46.1791C77.3569 44.8847 77.9043 42.8486 77.9043 42.8486C77.9862 42.4956 78.375 42.378 78.4927 42.8486C78.7266 43.6586 78.9112 44.4821 79.0452 45.3145C79.1219 45.9437 79.081 46.6497 79.1986 47.1971C79.434 48.3738 79.9046 50.2155 79.9046 50.2155C79.9178 50.2422 79.9238 50.2718 79.9222 50.3015C79.9206 50.3312 79.9114 50.3601 79.8955 50.3852C79.8796 50.4104 79.8575 50.431 79.8313 50.4452C79.8052 50.4594 79.7758 50.4666 79.746 50.4661V50.4508Z" fill="black"/>
<path d="M113.761 59.0096C113.453 58.0849 112.99 57.2198 112.39 56.4517C111.643 55.6689 111.449 54.216 110.901 53.0394C110.195 51.5507 109.366 50.1029 108.824 48.9467C108.118 47.4119 107.724 46.3223 107.724 46.3223C107.607 46.0834 107.546 45.8209 107.546 45.5549C107.546 45.2889 107.607 45.0264 107.724 44.7875C107.724 44.7875 108.394 43.2528 108.865 42.3217C109.534 40.8997 110.361 39.5577 111.331 38.3211C112.221 37.2621 112.828 35.9949 113.096 34.6377C113.643 33.5019 113.449 32.796 112.666 32.8369C111.562 32.9841 110.45 33.0627 109.336 33.0722C108.43 33.0313 107.059 32.8369 107.059 32.8369C106.775 32.7724 106.477 32.8118 106.219 32.9478C105.961 33.0838 105.76 33.3076 105.652 33.5787C105.184 34.6342 104.791 35.7215 104.476 36.8324C104.123 38.0857 103.181 39.2215 102.787 40.3214C102.552 41.0274 102.163 42.1631 102.163 42.1631C102.046 42.5161 101.734 42.3217 101.734 42.1631C101.734 42.1631 101.575 39.6921 101.575 38.0704C101.575 37.2877 101.693 36.3105 101.734 35.4869C101.769 34.5814 101.734 33.8805 101.734 33.8805C101.728 33.7331 101.692 33.5883 101.63 33.4548C101.567 33.3212 101.478 33.2015 101.369 33.1028C101.259 33.0041 101.131 32.9284 100.991 32.8801C100.852 32.8318 100.704 32.8119 100.557 32.8215C100.557 32.8215 99.4212 32.9392 98.7152 32.9392C97.6153 32.975 95.8912 32.8215 95.8912 32.8215C95.7447 32.8052 95.5963 32.8207 95.4563 32.8671C95.3163 32.9134 95.1879 32.9895 95.0801 33.0901C94.9722 33.1906 94.8873 33.3134 94.8313 33.4498C94.7753 33.5862 94.7494 33.7332 94.7555 33.8805C94.7555 33.8805 94.8323 35.4869 94.9141 37.9732C94.9499 39.9326 94.2849 43.8513 94.8323 45.4577C95.1853 46.4809 95.0676 54.5895 94.8323 58.585C94.643 59.018 94.6158 59.5046 94.7555 59.956C94.7536 60.1022 94.7823 60.2472 94.8397 60.3817C94.8971 60.5162 94.982 60.6372 95.089 60.7369C95.1959 60.8366 95.3225 60.9129 95.4607 60.9608C95.5989 61.0087 95.7455 61.0271 95.8912 61.015C95.8912 61.015 96.674 61.0559 97.5795 61.015C98.0501 61.015 98.6333 60.6262 99.0682 60.662C99.6039 60.7062 100.131 60.8251 100.634 61.015C101.181 61.1327 102.046 60.7797 102.005 60.1913C101.798 58.7892 101.668 57.3768 101.616 55.9605C101.616 55.1011 101.734 54.0421 101.734 53.0598C101.778 52.4068 101.764 51.7511 101.693 51.1005C101.693 50.9061 102.787 50.6298 102.828 51.0237C102.828 51.0237 102.399 51.4177 103.181 53.0701C103.611 54.0523 104.593 55.1164 104.946 56.0475C105.458 57.3827 106.2 59.5774 106.2 59.5774C106.295 59.9638 106.508 60.3109 106.81 60.5704C107.111 60.8299 107.487 60.9889 107.883 61.0252C107.883 61.0252 109.53 61.2247 110.589 61.2247C110.978 61.2247 111.489 61.0252 111.96 60.9894C112.417 60.9652 112.876 60.9772 113.331 61.0252C114.574 61.0457 114.308 60.0276 113.761 59.0096Z" fill="black"/>
<path d="M34.6447 60.9266H34.5065C34.4589 60.9315 34.4109 60.9315 34.3633 60.9266C34.1638 60.9521 33.9591 60.9521 33.7647 60.9931C33.3708 61.08 32.982 61.1926 32.5881 61.2847C32.3579 61.3409 32.3016 61.387 32.2862 61.6223C32.2948 61.7986 32.3559 61.9683 32.4617 62.1096C32.5674 62.2509 32.713 62.3573 32.8797 62.4153C33.1634 62.4807 33.4323 62.5987 33.6726 62.7632C33.7392 62.8157 33.8158 62.854 33.8977 62.8757C34.3503 62.9682 34.7913 63.1106 35.2125 63.3003C35.7241 63.5254 36.2357 63.4947 36.7473 63.7249C36.8165 63.748 36.8892 63.7584 36.9621 63.7556H37.0031C37.264 63.7556 37.5146 63.8886 37.8011 63.8886C37.8705 63.8884 37.9394 63.8781 38.0058 63.8579C38.036 63.8644 38.0652 63.8747 38.0927 63.8886C38.4969 64.0779 38.9369 64.0063 39.3359 64.2416C39.3666 64.2416 39.4075 64.2416 39.4382 64.2416C39.5739 64.2743 39.7131 64.2898 39.8526 64.2877H40.4153C40.7018 64.2877 40.9883 64.3286 41.2748 64.3746C41.5613 64.4207 41.6022 64.5025 41.6738 64.743C41.6738 64.8197 41.6738 64.9067 41.7148 64.9834C41.6962 65.4087 41.7133 65.8348 41.7659 66.2573C41.7659 66.288 41.7659 66.3238 41.7659 66.3545C41.6994 66.6921 41.6124 67.0298 41.5664 67.3776C41.4385 68.3036 41.5664 69.91 41.106 70.6671C40.8457 71.0475 40.5361 71.3916 40.1851 71.6903C39.8475 72.0228 39.4842 72.3298 39.121 72.6367C39.0343 72.6912 38.9393 72.7309 38.8396 72.7544L38.2206 73.0102C38.1132 73.0562 38.0109 73.1125 37.9034 73.1535C37.6867 73.2177 37.4732 73.2928 37.264 73.3785C36.9806 73.5772 36.6548 73.7068 36.3124 73.7571C36.2387 73.7738 36.1691 73.8051 36.1078 73.8492C35.9292 73.9628 35.7429 74.0637 35.5502 74.151C35.3967 74.2124 33.9131 74.4529 33.5703 74.5654C33.5703 74.637 32.143 74.5654 32.0356 74.6524C31.1198 74.8673 32.1174 75.6398 32.5165 75.916C32.6151 75.9981 32.7365 76.0481 32.8643 76.0592H32.9667C33.0178 76.0414 33.0712 76.0311 33.1252 76.0286C33.2276 76.0286 33.2685 76.1002 33.3503 76.2946C33.3747 76.3759 33.4237 76.4477 33.4906 76.4999C33.5575 76.5522 33.639 76.5823 33.7238 76.5862H33.9642H34.0359C34.2727 76.578 34.5058 76.6462 34.7009 76.7806C34.8281 76.8761 34.9819 76.9297 35.1409 76.9341C35.1953 76.9394 35.2502 76.9394 35.3046 76.9341C35.3744 76.9138 35.4468 76.9035 35.5195 76.9034C35.654 76.9126 35.7852 76.9502 35.9042 77.0137C36.0232 77.0772 36.1275 77.1651 36.2101 77.2717C36.293 77.3557 36.4005 77.4113 36.5171 77.4303H36.7626C37.1018 77.4098 37.437 77.3462 37.7602 77.241C37.9269 77.1943 38.0987 77.1685 38.2718 77.1643C38.3825 77.1652 38.4926 77.1807 38.5992 77.2103C38.6837 77.2365 38.7716 77.2503 38.8601 77.2512H38.9982C39.341 77.2103 39.6684 77.1233 40.0214 77.108C40.329 77.1109 40.6332 77.0445 40.9116 76.9136C41.1295 76.7761 41.3609 76.6612 41.6022 76.5708C42.0375 76.3945 42.4597 76.1877 42.8658 75.9518C43.2828 75.6918 43.6573 75.3692 43.976 74.9952C44.5529 74.4235 44.9632 73.7054 45.1628 72.9181C45.2882 72.4448 45.3873 71.9649 45.4596 71.4806C45.5492 70.9111 45.5492 70.3311 45.4596 69.7616C45.4084 69.3831 45.2907 66.2368 45.2959 66.1038C45.2959 65.7048 45.3317 65.3057 45.3572 64.9067C45.376 64.0923 45.2549 63.2808 44.9991 62.5074C44.8968 62.1595 44.8866 61.7758 44.5285 61.5149C44.5117 61.4976 44.4995 61.4766 44.4927 61.4535C44.3648 61.0596 43.9811 60.9419 43.7048 60.7936C43.4286 60.6452 43.0398 60.6452 42.7175 60.4815C42.6991 60.4762 42.6796 60.4762 42.6612 60.4815H42.6203C42.431 60.6401 42.1087 60.6298 42.0371 60.9368C42.0032 61.0272 41.9352 61.1006 41.8478 61.1414C41.6833 61.2345 41.4908 61.2654 41.3055 61.2284H41.1981C41.0855 61.2284 40.9678 61.2284 40.8553 61.2284C40.7925 61.2307 40.7298 61.2203 40.6711 61.1977C40.2578 61.1033 39.8364 61.0485 39.4126 61.034C39.0954 60.9675 38.7783 60.9726 38.456 60.9317L38.0262 60.8754C37.8675 60.9548 37.6921 60.9951 37.5146 60.9931C37.5146 60.9931 35.7906 60.9266 34.6447 60.9266Z" fill="#E1251B"/>
<path d="M4.80378 61.1218C4.66054 61.4697 4.21546 61.5106 3.93409 61.7153H3.68853C3.17563 61.7432 2.67326 61.8718 2.21005 62.0938C1.56029 62.3989 0.928326 62.7405 0.317183 63.117C0.102317 63.2295 0.0562744 63.4239 0.153476 63.69C0.233823 63.9061 0.233823 64.144 0.153476 64.3602C0.107433 64.4829 0.0562744 64.6006 0 64.7387C0.0396227 64.7922 0.0841534 64.8419 0.133012 64.8871C0.47971 65.1593 0.863971 65.3798 1.27385 65.5419C1.36974 65.5892 1.47407 65.6171 1.5808 65.6238C1.62738 65.6249 1.6737 65.6164 1.71684 65.5988C1.75998 65.5812 1.79901 65.5549 1.83147 65.5215C1.86261 65.4856 1.90115 65.457 1.94443 65.4376C1.98772 65.4182 2.03471 65.4084 2.08215 65.4089C2.18121 65.4122 2.27719 65.4442 2.35841 65.501C2.42444 65.5432 2.50016 65.5678 2.57839 65.5726C2.63828 65.5713 2.69668 65.5536 2.74721 65.5215C2.80572 65.4824 2.86731 65.4482 2.93138 65.4191C2.96531 65.4142 2.99977 65.4142 3.0337 65.4191C3.08046 65.4176 3.12703 65.4259 3.17036 65.4435C3.21369 65.4612 3.25281 65.4877 3.28516 65.5215C3.31751 65.5553 3.34236 65.5956 3.3581 65.6396C3.37383 65.6837 3.38009 65.7306 3.37646 65.7772C3.3712 66.0997 3.3142 66.4193 3.20764 66.7237C3.11691 66.8987 3.04324 67.082 2.98766 67.2711C2.9365 67.4552 2.92627 67.6599 2.88022 67.8492C2.72675 68.4886 2.56816 69.1179 2.41468 69.7574C2.35841 70.0183 2.3226 70.269 2.26632 70.5554C2.21005 70.8419 2.15889 71.0977 2.0975 71.3689C2.0533 71.5151 2.01743 71.6637 1.99007 71.8139C1.94022 72.4257 1.83578 73.0318 1.678 73.625C1.5501 74.1058 1.72404 74.3309 2.25609 74.7402C2.70418 75.0772 3.20569 75.3366 3.73969 75.5076C3.835 75.5427 3.935 75.5634 4.03641 75.569C4.11356 75.5712 4.18862 75.5437 4.24616 75.4922C4.4434 75.2976 4.62634 75.089 4.79355 74.8681C4.89075 74.7351 5.0033 74.5816 5.17213 74.5816H5.25909C5.63255 74.6839 5.96508 74.5816 6.359 74.8067C6.39551 74.83 6.43861 74.8408 6.48178 74.8374C6.53964 74.8427 6.59786 74.8427 6.65572 74.8374C6.76316 74.8374 6.86547 74.8374 6.97291 74.8374C7.1764 74.8341 7.37729 74.8835 7.55611 74.9807C7.64719 75.0354 7.75169 75.0637 7.85795 75.0625C7.94838 75.0615 8.03747 75.0406 8.11886 75.0011C8.21649 74.9494 8.32555 74.923 8.43604 74.9244C8.5257 74.9272 8.61483 74.9392 8.70206 74.9602C8.81321 74.9836 8.92619 74.9973 9.03971 75.0011H9.12156C9.24943 74.9988 9.37354 75.0444 9.46944 75.129C9.55054 75.1994 9.65369 75.2392 9.76104 75.2416C9.82095 75.2425 9.88032 75.2303 9.93498 75.2058C10.0844 75.1251 10.2401 75.0566 10.4005 75.0011C10.7996 74.8783 11.1986 74.776 11.6027 74.6635C11.6561 74.6474 11.7109 74.6371 11.7665 74.6328H11.966C12.3092 74.6269 12.6447 74.5298 12.938 74.3514C13.5365 74.0086 14.0993 73.625 14.6774 73.2617C14.8155 73.1696 14.969 73.0929 15.0969 72.9957C15.567 72.596 16.057 72.2204 16.5651 71.8702C16.8011 71.7103 17.016 71.5212 17.2046 71.3075C17.6036 70.9084 17.9106 70.4173 18.504 70.2229C18.559 70.2001 18.6055 70.1608 18.637 70.1104C18.9273 69.7223 19.1889 69.3137 19.4198 68.8877C19.7139 68.3553 19.8885 67.7652 19.9314 67.1585C19.9565 66.7545 19.8882 66.3501 19.7318 65.9768C19.6316 65.7009 19.5119 65.4325 19.3737 65.1736C19.2174 64.8752 19.0096 64.6067 18.7598 64.3806C18.4708 64.1489 18.2114 63.8826 17.9873 63.5877C17.718 63.217 17.354 62.9254 16.9335 62.7435C16.5651 62.5645 16.1917 62.4161 15.8233 62.232C15.455 62.0478 14.9946 61.8125 14.5802 61.6283C14.4197 61.5532 14.2457 61.5114 14.0686 61.5055H13.9458C13.5567 61.4824 13.1719 61.412 12.7999 61.2958C12.0087 61.117 11.2048 61.0007 10.3954 60.9479H10.3596C10.2931 60.9479 10.2317 60.9479 10.1601 60.9479H10.0833H9.75593C9.41828 60.9479 9.07552 60.8916 8.73276 60.8916H8.6816C8.31837 60.8916 7.99608 60.9837 7.63285 60.9837C7.52736 60.9936 7.42116 60.9936 7.31567 60.9837H7.27474C7.22391 60.9755 7.17209 60.9755 7.12126 60.9837C6.86714 61.0504 6.60628 61.0882 6.34366 61.0962C6.25684 61.1034 6.16957 61.1034 6.08275 61.0962H5.95485C5.61209 61.0962 5.24375 61.132 4.93168 61.132L4.80378 61.1218ZM5.52512 72.4432C5.61477 72.1676 5.63411 71.8739 5.58139 71.5888C5.54047 71.4303 5.67859 71.2921 5.72464 71.1335C5.77068 70.9749 5.80649 70.7754 5.84742 70.6219C5.89494 70.3388 5.96508 70.06 6.05717 69.7881C6.18844 69.3525 6.27752 68.9054 6.32319 68.4528C6.33009 68.3585 6.34204 68.2645 6.359 68.1715C6.42972 67.8682 6.44875 67.5551 6.41528 67.2455C6.41528 66.8311 6.47155 66.4321 6.50736 66.033C6.56364 65.5215 6.62503 64.9792 6.67107 64.4522C6.67942 64.2521 6.75139 64.0599 6.87652 63.9034C7.00165 63.747 7.17341 63.6346 7.36683 63.5825C7.73071 63.4727 8.1041 63.3974 8.48208 63.3574C8.68672 63.3267 8.876 63.2807 9.07552 63.2398V63.2909C9.37224 63.2909 9.65873 63.2295 9.95545 63.2091C10.0629 63.2091 10.1652 63.2091 10.2726 63.2091C10.5662 63.205 10.8584 63.25 11.1372 63.3421C11.3058 63.3802 11.4767 63.4075 11.6488 63.424C11.9046 63.47 12.1604 63.5314 12.4264 63.5723C12.851 63.6439 13.2807 63.7156 13.7002 63.7565C13.8808 63.7823 14.0546 63.8431 14.2118 63.9355C14.3757 64.0166 14.547 64.0817 14.7234 64.1299C14.9894 64.2118 15.235 64.2578 15.5113 64.355C15.6374 64.3848 15.7491 64.4581 15.8267 64.5619C15.9043 64.6657 15.943 64.7935 15.9359 64.9229C15.9391 65.0284 15.9253 65.1338 15.8949 65.235C15.7893 65.5212 15.6538 65.7956 15.4908 66.0535C15.1173 66.5651 14.7132 67.0767 14.2988 67.5371C14.1389 67.6925 13.9679 67.8362 13.7872 67.9668C13.5007 68.238 13.2398 68.5296 12.9431 68.7905C12.5338 69.1588 12.1092 69.5118 11.6897 69.8597C11.4186 70.0797 11.1474 70.2997 10.861 70.4992C10.6717 70.6373 10.4568 70.7447 10.2573 70.8624C9.79174 71.1335 9.33643 71.4251 8.85554 71.6758C8.37465 71.9265 7.96538 72.08 7.51519 72.2846L6.76316 72.6427L6.63014 72.6478C6.48178 72.7041 6.31808 72.745 6.17483 72.8115C6.10966 72.8469 6.03668 72.8654 5.96252 72.8654C5.88837 72.8654 5.81539 72.8469 5.75022 72.8115C5.55581 72.7195 5.49442 72.612 5.52512 72.4432Z" fill="#E1251B"/>
<path d="M33.8411 71.1488C33.9181 70.9411 33.9545 70.7205 33.9485 70.4991C33.9485 70.3865 33.9485 70.2689 33.9485 70.1614C34.0213 69.6304 33.9918 69.0904 33.8615 68.5704C33.81 68.3758 33.7468 68.1845 33.6722 67.9974C33.5918 67.4336 33.3968 66.8921 33.0993 66.4064C32.8873 66.0139 32.639 65.6423 32.3575 65.2963C31.8715 64.6773 31.4213 64.0275 30.879 63.4494C30.6986 63.1974 30.4752 62.9792 30.2191 62.8049C29.6307 62.4877 29.0475 62.15 28.4694 61.7817C28.3559 61.7095 28.2253 61.6689 28.0909 61.664C27.9954 61.6662 27.9021 61.6926 27.8197 61.7408C27.7498 61.7813 27.6703 61.8025 27.5895 61.8021C27.4887 61.7988 27.3903 61.7707 27.303 61.7203C27.1747 61.655 27.0326 61.6217 26.8886 61.6231H26.8017C26.493 61.6488 26.1869 61.6984 25.8859 61.7714C25.6777 61.8227 25.474 61.8911 25.2771 61.9761C24.9982 62.1167 24.7092 62.2364 24.4126 62.3342C24.3121 62.3463 24.2183 62.3908 24.1454 62.4609C24.0724 62.5311 24.0244 62.6231 24.0084 62.723C23.9554 62.9552 23.8279 63.1636 23.6452 63.3164C23.2578 63.5959 22.9822 64.0038 22.8676 64.4675C22.8384 64.6172 22.7674 64.7555 22.6629 64.8665C22.4157 65.1847 22.2411 65.5532 22.1514 65.946C21.9921 66.4036 21.8589 66.8699 21.7523 67.3426C21.6076 67.7048 21.5246 68.0887 21.5068 68.4783C21.5068 68.7546 21.4812 69.0257 21.4812 69.2969C21.4771 69.4142 21.4909 69.5315 21.5221 69.6447C21.6398 70.1563 21.7625 70.6423 21.9007 71.1386C21.9876 71.4506 22.1258 71.7525 22.2127 72.0645C22.2728 72.2767 22.3854 72.4703 22.5402 72.6273C22.972 73.1166 23.4757 73.5375 24.034 73.8756C24.1794 73.9618 24.3458 74.006 24.5149 74.0034H24.5609C24.7065 74.0084 24.851 73.9762 24.9807 73.91C25.1105 73.8438 25.2213 73.7457 25.3027 73.6249C25.3553 73.5543 25.4242 73.4975 25.5034 73.4592C25.5827 73.4209 25.67 73.4022 25.758 73.4049C25.8759 73.4064 25.9917 73.4363 26.0957 73.4919C26.3427 73.6522 26.636 73.7259 26.9296 73.7016C27.2963 73.7129 27.6619 73.747 28.0243 73.8039C28.0976 73.8087 28.1711 73.8087 28.2443 73.8039C28.3461 73.8075 28.4458 73.7749 28.5257 73.7118C28.7544 73.5533 29.0088 73.4356 29.2777 73.364C29.7315 73.2691 30.168 73.1052 30.572 72.878C30.7085 72.7561 30.8773 72.6762 31.058 72.6477C31.1511 72.6492 31.2417 72.6776 31.319 72.7296H31.3497C31.6214 72.7348 31.8914 72.6843 32.143 72.5814C32.3946 72.4785 32.6225 72.3252 32.8128 72.1311C32.8785 72.0351 32.9662 71.9561 33.0686 71.9008C33.3959 71.7336 33.6651 71.4715 33.8411 71.1488ZM29.7484 66.6264C29.6921 66.9436 29.641 67.2659 29.5642 67.5779C29.3241 68.1328 28.9254 68.6045 28.4183 68.9336C27.9681 69.1587 27.5281 69.3992 27.0779 69.6243C26.8631 69.7368 26.6328 69.834 26.4129 69.9363L25.359 70.4121C25.206 70.4912 25.0469 70.5579 24.8832 70.6116H24.7707C24.6223 70.6116 24.5149 70.5196 24.433 70.3456C24.3932 70.2568 24.3623 70.1643 24.3409 70.0694C24.3223 69.9884 24.3087 69.9064 24.3 69.8238C24.3 69.6089 24.3 69.3941 24.3 69.1741C24.3081 69.0817 24.2941 68.9888 24.2591 68.9029C24.143 68.6829 24.1138 68.4273 24.1772 68.1867C24.2786 67.7017 24.3368 67.2087 24.3512 66.7134C24.3485 66.2576 24.4408 65.8064 24.6223 65.3884C24.6465 65.3051 24.6827 65.2259 24.7297 65.153C24.8834 64.9209 25.0136 64.6742 25.1185 64.4163C25.2881 64.1239 25.4983 63.8569 25.7427 63.6234C25.8441 63.5611 25.9613 63.5292 26.0803 63.5313C26.2952 63.5006 26.5254 63.5006 26.7352 63.4597C26.8073 63.4423 26.881 63.432 26.9551 63.429C27.0429 63.4292 27.1279 63.46 27.1956 63.516C27.2323 63.546 27.2765 63.5654 27.3235 63.5722C27.523 63.5907 27.7166 63.6497 27.8925 63.7456C28.0685 63.8415 28.223 63.9722 28.3466 64.1299C28.7048 64.5033 29.0168 64.9228 29.3391 65.3321C29.54 65.6668 29.6867 66.0311 29.774 66.4115C29.7826 66.4842 29.7739 66.5578 29.7484 66.6264Z" fill="#E1251B"/>
<path d="M49.8588 62.7549C49.8058 62.9871 49.6782 63.1955 49.4955 63.3483C49.1081 63.6278 48.8325 64.0357 48.7179 64.4994C48.6892 64.6503 48.6162 64.7892 48.5082 64.8984C48.2607 65.2165 48.086 65.585 47.9966 65.9779C47.8373 66.4355 47.7041 66.9018 47.5975 67.3745C47.4529 67.7367 47.3699 68.1206 47.352 68.5102C47.352 68.7865 47.3264 69.0576 47.3213 69.3288C47.3223 69.4459 47.336 69.5625 47.3622 69.6766C47.485 70.1882 47.6027 70.6742 47.7459 71.1705C47.8329 71.4825 47.971 71.7844 48.0529 72.0964C48.1167 72.3081 48.2308 72.5012 48.3854 72.6592C48.8161 73.1497 49.32 73.5708 49.8792 73.9075C50.0228 73.9935 50.1876 74.0378 50.355 74.0354H50.4061C50.5486 74.0402 50.6901 74.0096 50.8178 73.9462C50.9455 73.8828 51.0555 73.7886 51.1377 73.6721C51.19 73.6012 51.2588 73.5441 51.3382 73.5058C51.4175 73.4675 51.505 73.4491 51.593 73.4521C51.7094 73.4531 51.8236 73.483 51.9256 73.5391C52.1744 73.6998 52.4694 73.7736 52.7646 73.7489C53.1312 73.7606 53.4968 73.7948 53.8593 73.8512C53.9326 73.856 54.0061 73.856 54.0793 73.8512C54.1809 73.8539 54.2804 73.8214 54.3607 73.7591C54.5894 73.6006 54.8438 73.4829 55.1127 73.4112C55.5651 73.3172 56.0001 73.1532 56.4019 72.9252C56.5454 72.7988 56.7237 72.7186 56.9135 72.695C57.008 72.6972 57.1001 72.7255 57.1795 72.7769H57.2102C57.4813 72.7825 57.7507 72.7323 58.0015 72.6293C58.2524 72.5264 58.4793 72.3728 58.6682 72.1783C58.7371 72.0832 58.8262 72.0046 58.9292 71.9481C59.2533 71.7617 59.5136 71.4817 59.6761 71.1449C59.753 70.9372 59.7895 70.7166 59.7835 70.4952C59.7835 70.3826 59.7835 70.265 59.7835 70.1575C59.8614 69.6267 59.8318 69.0857 59.6965 68.5665C59.6468 68.372 59.5853 68.1806 59.5124 67.9935C59.4296 67.4302 59.2347 66.8892 58.9394 66.4025C58.7256 66.0111 58.4774 65.6396 58.1976 65.2924C57.7116 64.6733 57.2563 64.0236 56.7191 63.4455C56.5355 63.1946 56.3106 62.9766 56.054 62.8009C55.4657 62.4838 54.8876 62.1461 54.3095 61.7778C54.196 61.7056 54.0654 61.665 53.931 61.6601C53.8354 61.6616 53.742 61.688 53.6598 61.7368C53.5875 61.7759 53.5067 61.797 53.4245 61.7982C53.3253 61.7953 53.2284 61.7672 53.1431 61.7164C53.0148 61.6511 52.8727 61.6178 52.7287 61.6192H52.6725C52.3622 61.6453 52.0544 61.6949 51.7516 61.7675C51.5453 61.8195 51.3434 61.888 51.1479 61.9722C50.869 62.1128 50.58 62.2325 50.2834 62.3303C50.1739 62.3396 50.0712 62.3873 49.9934 62.465C49.9157 62.5427 49.868 62.6454 49.8588 62.7549ZM50.5443 65.1645C50.6979 64.9324 50.8281 64.6856 50.9331 64.4278C51.101 64.1342 51.3114 63.8671 51.5572 63.6348C51.6237 63.5632 51.7772 63.5581 51.8897 63.5427C52.1097 63.512 52.3348 63.512 52.5497 63.4711C52.6202 63.4541 52.6921 63.4438 52.7646 63.4404C52.8527 63.4388 52.9383 63.4698 53.005 63.5274C53.044 63.5568 53.0897 63.5762 53.138 63.5837C53.3375 63.6022 53.5311 63.6612 53.7071 63.757C53.883 63.8529 54.0375 63.9837 54.1612 64.1413C54.5193 64.5148 54.8314 64.9343 55.1537 65.3435C55.3547 65.6775 55.4999 66.0422 55.5834 66.423C55.6039 66.4896 55.6039 66.5609 55.5834 66.6276C55.5271 66.9448 55.4811 67.2671 55.4043 67.5791C55.1621 68.1328 54.7639 68.6039 54.2584 68.9348C53.8082 69.1599 53.3682 69.4004 52.918 69.6255C52.6981 69.738 52.4729 69.8352 52.2479 69.9376L51.1991 70.4133C51.0461 70.4924 50.887 70.5591 50.7233 70.6128H50.6057C50.4624 70.6128 50.355 70.5208 50.2731 70.3468C50.2339 70.2573 50.2015 70.1649 50.1759 70.0706C50.159 69.9895 50.1471 69.9075 50.1401 69.825C50.1401 69.6101 50.1401 69.3953 50.1401 69.1753C50.153 69.0833 50.1406 68.9896 50.1043 68.9041C49.9893 68.6839 49.9584 68.4293 50.0173 68.1879C50.1204 67.7031 50.1803 67.21 50.1964 66.7146C50.1913 66.2586 50.2837 65.8068 50.4675 65.3896C50.4811 65.311 50.507 65.235 50.5443 65.1645Z" fill="#E1251B"/>
</svg>
