<svg xmlns="http://www.w3.org/2000/svg" width="632" height="437" viewBox="0 0 632 437" fill="none"><g filter="url(#filter0_d)"><path d="M24.8883 421.816C17.6418 421.619 13.146 412.936 17.9179 407.498c39.5653-45.174 76.0151-90.94 108.1271-133.864C208.074 164.024 261.856 72.9748 267.18 57.5319 275.61 33.1588 324.364 18.16 347.731 42.5331 363.506 58.943 443.839 193.508 514.353 293.458c34.211 48.45 66.057 88.73 87.205 103.433C659.955 437.595 128.086 424.688 24.8883 421.816z" fill="#4c4141"/></g><path d="M440.111 179.427C440.111 182.278 439.884 183.956 439.519 184.133 439.154 184.311 438.533 184.183 437.774 183.778 430.754 180.147 409.182 155.073 405.8 155.073 404.213 155.073 403.967 161.517 403.829 168.977 403.661 179.042 403.71 190.972 400.871 191.347 396.01 191.978 364.529 138.199 359.846 138.199 357.874 138.199 356.109 145.018 354.552 153.109 352.58 163.135 351.052 175.134 349.957 178.558 349.876 178.877 349.735 179.179 349.543 179.446 347.67 181.321 327.064 140.074 321.444 136.325c-5.62-3.75-13.073 17.939-13.073 17.939C308.055 155.488 297.979 194.445 295.219 196.29 294.065 197.06 292.921 193.764 291.65 189.521 289.806 183.383 287.706 176.22 284.916 175.706 283.644 175.46 280.627 177.917 278.507 183.689 271.803 201.954 261.924 215.266 260.563 213.204 259.577 211.753 258.503 200.691 258.7 179.338 258.877 159.445 258.542 140.37 255.742 139.759H255.574C249.797 139.048 237.088 165.414 237.088 163.549 236.844 162.185 236.246 160.909 235.353 159.849 233.904 157.876 233.628 155.113 231.468 155.113 229.556 155.113 216.837 164.151 206.731 172.026c-9.553 7.44-18.397 14.683-18.397 14.683C190.645 184.85 192.312 182.308 193.096 179.446 198.42 170.467 213.643 152.804 223.068 137.262 224.981 134.134 385.303 95.8178 386.989 98.8275c17.342 30.7675 41.872 60.0845 53.122 80.5995z" fill="#3a3232"/><path d="M451.084 199.645C450.838 199.27 449.595 197.741 447.693 195.442L446.894 194.455 446.194 193.616 443.916 190.922C440.544 186.975 436.275 182.042 431.809 176.91 430.587 175.509 429.344 174.098 428.082 172.697L427.865 172.46C426.554 170.97 425.223 169.5 423.922 168.059L422.936 166.974C422.187 166.145 421.427 165.316 420.678 164.517L419.101 162.829C418.795 162.484 418.479 162.158 418.174 161.842 417.868 161.527 417.572 161.191 417.267 160.856L417.158 160.747l-1.666-1.756L414.417 157.876C413.934 157.372 413.431 156.889 412.988 156.425 411.647 155.073 410.414 153.869 409.31 152.863 409.133 152.695 408.955 152.517 408.788 152.369L408.669 152.271 408.127 151.777C407.506 151.245 406.944 150.791 406.451 150.406L406.057 150.11C405.683 149.835 405.283 149.597 404.864 149.399 403.819 148.955 403.217 149.853 402.892 151.679 402.892 151.945 402.823 152.231 402.803 152.527 402.704 153.689 402.677 154.856 402.724 156.021c0 .256.0.513000000000005.0.779000000000025C402.843 159.958 403.217 163.846 403.71 167.931 403.71 168.266 403.789 168.602 403.819 168.917 403.848 169.233 403.888 169.48 403.917 169.756 404.055 171.059 404.213 172.381 404.381 173.703 404.499 174.759 404.627 175.815 404.755 176.871 404.844 177.66 404.933 178.42 405.021 179.19 405.11 179.959 405.169 180.473 405.238 181.094L405.298 181.607C405.396 182.594 405.495 183.453 405.574 184.321 405.574 184.795 405.662 185.239 405.692 185.683 405.692 185.91 405.692 186.117 405.751 186.334 405.86 187.587 405.929 188.732 405.978 189.778 405.978 189.926 405.978 190.084 405.978 190.232V190.439C405.978 190.607 405.978 190.784 405.978 190.952c0 2.852-.26600000000002 4.559-1.173 4.381H404.657L404.519 195.264 404.351 195.156C404.284 195.116 404.221 195.07 404.164 195.017 404.094 194.97 404.028 194.918 403.966 194.86 402.503 193.437 401.182 191.873 400.023 190.192L399.382 189.324 399.303 189.205C398.889 188.643 398.455 188.041 398.012 187.419L397.292 186.383C396.957 185.91 396.612 185.396 396.306 184.893L396.207 184.755C395.813 184.203 395.428 183.63 395.024 183.038 392.747 179.673 390.203 175.825 387.57 171.819L386.821 170.684 384.849 167.724 383.656 165.908C382.779 164.576 381.901 163.234 381.014 161.902 380.797 161.576 380.59 161.24 380.373 160.915L378.707 158.408C378.234 157.698 377.721 156.988 377.297 156.297L375.907 154.225 374.99 152.863C372.841 149.685 370.77 146.705 368.858 144.071L367.773 142.6C367.251 141.88 366.718 141.18 366.225 140.538L365.693 139.838C362.893 136.265 360.674 133.917 359.403 133.581H359.304 359.097 358.969C358.717 133.629 358.484 133.749 358.298 133.927L358.111 134.134C358.044 134.206 357.981 134.281 357.924 134.361 357.798 134.543 357.686 134.734 357.588 134.933 357.529 135.052 357.46 135.18 357.401 135.318 357.342 135.456 357.174 135.871 357.066 136.186 356.718 137.266 356.441 138.367 356.238 139.482 356.188 139.729 356.149 139.976 356.1 140.232 355.962 141.002 355.843 141.811 355.715 142.67 355.587 143.528 355.488 144.268 355.4 145.117 355.4 145.196 355.4 145.284 355.4 145.354 355.321 145.975 355.262 146.617 355.193 147.258 355.193 147.584 355.133 147.919 355.094 148.245 355.025 148.896 354.956 149.567 354.907 150.218 354.907 150.712 354.808 151.205 354.769 151.679 354.729 152.152 354.7 152.468 354.67 152.873 354.532 154.471 354.394 156.09 354.266 157.688 354.217 158.27 354.177 158.852 354.118 159.425 354.123 159.471 354.123 159.517 354.118 159.563 354.118 160.066 354.029 160.55 353.99 161.063 353.832 162.957 353.655 164.803 353.467 166.539 353.378 167.467 353.27 168.375 353.162 169.233 353.083 169.815 353.014 170.368 352.925 170.911 352.925 171.187 352.846 171.444 352.807 171.71 352.767 171.976 352.738 172.115 352.708 172.312 352.678 172.509 352.708 172.49 352.708 172.569 352.619 173.032 352.54 173.467 352.452 173.881 352.363 174.295 352.225 174.868 352.116 175.331 352.067 175.47 352.038 175.598 351.998 175.716 351.986 175.79 351.966 175.863 351.939 175.933 351.794 176.44 351.602 176.932 351.367 177.404 351.29 177.557 351.205 177.705 351.111 177.848 351.051 177.946 350.981 178.039 350.904 178.124 350.86 178.181 350.81 178.234 350.756 178.282v0L350.687 178.341C350.592 178.423 350.481 178.483 350.362 178.519H350.273C350.097 178.577 349.907 178.577 349.731 178.519c-5.62-1.875-25.289-59.058-31.846-57.233C317.773 121.319 317.666 121.369 317.57 121.434L317.422 121.553C317.354 121.603 317.291 121.659 317.234 121.721L316.978 122.036C316.414 122.856 315.956 123.745 315.617 124.681 315.479 125.036 315.332 125.411 315.194 125.806 315.055 126.2 314.927 126.566 314.799 126.97 314.799 127.098 314.72 127.227 314.671 127.365 314.079 129.22 313.468 131.44 312.857 133.937 312.679 134.637 312.502 135.367 312.324 136.117 312.255 136.463 312.167 136.808 312.098 137.163 312.029 137.519 311.891 138.071 311.782 138.515 311.398 140.203 311.023 141.979 310.639 143.804 310.53 144.337 310.422 144.88 310.303 145.432 310.106 146.419 309.899 147.406 309.692 148.393 309.593 148.935 309.485 149.478 309.376 150.021 308.065 156.662 306.754 163.836 305.433 170.743 305.334 171.335 305.216 171.927 305.107 172.519 303.964 178.677 302.859 184.587 301.795 189.699 301.706 190.143 301.617 190.587 301.529 191.011 301.4 191.633 301.272 192.235 301.144 192.827 300.947 193.754 300.75 194.642 300.552 195.501 300.549 195.57 300.549 195.639 300.552 195.708 300.454 196.162 300.345 196.616 300.237 197.04 300.03 197.928 299.823 198.747 299.626 199.517L299.478 200.089C299.022 202.029 298.361 203.915 297.506 205.714 297.433 205.854 297.35 205.989 297.259 206.119 297.17 206.244 297.067 206.36 296.954 206.464 296.917 206.509 296.87 206.543 296.816 206.563L296.727 206.612C296.665 206.646 296.595 206.663 296.525 206.663 296.454 206.663 296.385 206.646 296.323 206.612 296.167 206.524 296.027 206.41 295.909 206.277 295.862 206.245 295.822 206.205 295.79 206.158 295.537 205.855 295.318 205.524 295.14 205.171 295.031 204.954 294.923 204.727 294.824 204.471 294.508 203.677 294.248 202.863 294.045 202.033 293.957 201.728 293.888 201.392 293.809 201.047 293.809 200.859 293.72 200.662 293.68 200.464 293.592 200.07 293.513 199.665 293.424 199.261 293.424 199.201 293.424 199.132 293.424 199.073 293.227 198.086 293.04 196.952 292.852 195.817 292.616 194.386 292.389 192.856 292.142 191.386 292.07 190.893 291.991 190.399 291.906 189.906 291.906 189.663 291.866 189.416 291.788 189.166 291.709 188.682 291.63 188.179 291.541 187.706L291.482 187.311C291.344 186.571 291.216 185.841 291.078 185.13 290.88 184.084 290.664 183.088 290.427 182.17 290.348 181.824 290.249 181.479 290.171 181.183 290.092 180.887 289.934 180.325 289.806 179.91 289.747 179.713 289.678 179.515 289.618 179.328 289.559 179.14 289.49 178.953 289.431 178.765L289.333 178.499C289.273 178.361 289.234 178.233 289.175 178.104 289.066 177.789 288.928 177.502 288.8 177.216 288.733 177.061 288.657 176.91 288.573 176.762 288.538 176.685 288.498 176.609 288.455 176.535 288.455 176.447 288.356 176.348 288.307 176.269 288.04 175.77 287.709 175.309 287.321 174.897 287.177 174.749 287.022 174.61 286.858 174.483 286.37 174.104 285.77 173.896 285.152 173.891 285.084 173.881 285.014 173.881 284.945 173.891c-7.493.75-18.585 42.135-25.082 38.415C253.366 208.586 265.177 140.913 259.153 138.298H259.045 258.926 258.641C258.427 138.303 258.215 138.336 258.01 138.397 257.863 138.434 257.721 138.487 257.586 138.555L257.29 138.703C255.602 139.915 254.199 141.481 253.179 143.291 253.06 143.479 252.932 143.666 252.814 143.864 250.605 147.357 248.278 152.034 246.021 156.484L245.567 157.392 244.581 159.277C244.473 159.484 244.364 159.691 244.266 159.898L243.625 161.102 243.122 162.089C242.826 162.612 242.55 163.125 242.264 163.619L241.998 164.082C241.762 164.487 241.535 164.882 241.298 165.247 241.19 165.434 241.091 165.612 240.973 165.789 240.707 166.214 240.44 166.608 240.174 166.983L239.74 167.605C239.131 168.498 238.366 169.273 237.483 169.894 237.401 169.945 237.315 169.988 237.226 170.023 237.141 170.07 237.052 170.11 236.96 170.141 236.901 170.15 236.841 170.15 236.783 170.141H236.644 236.418C236.182 170.145 235.948 170.105 235.728 170.023 235.596 169.973 235.473 169.903 235.363 169.815 235.045 169.461 234.807 169.042 234.666 168.588 234.525 168.133 234.483 167.653 234.544 167.181c0-.247000000000014.0-.494.0-.75C234.544 166.174 234.594 165.77 234.643 165.444 234.722 164.665 234.87 163.796 235.028 162.908 235.077 162.592 235.146 162.257 235.205 161.921 235.333 161.26 235.452 160.589 235.59 159.948 235.59 159.849 235.59 159.77 235.59 159.671 235.655 159.362 235.714 159.056 235.767 158.754 235.935 157.816 236.083 156.899 236.181 156.021 236.181 155.734 236.25 155.468 236.27 155.201 236.29 154.935 236.27 154.807 236.27 154.619 236.437 152.103 236.063 150.129 234.426 149.587 234.312 149.565 234.195 149.565 234.081 149.587 233.966 149.573 233.851 149.573 233.736 149.587 233.617 149.599 233.501 149.629 233.391 149.676 233.303 149.694 233.218 149.721 233.135 149.755 233.056 149.781 232.98 149.814 232.908 149.853 232.608 149.969 232.318 150.107 232.04 150.268 231.559 150.526 231.092 150.809 230.64 151.116L230.108 151.481C227.822 153.118 225.624 154.874 223.522 156.741L221.964 158.103 220.811 159.089C220.505 159.366 220.189 159.642 219.825 159.938L219.588 160.145C219.036 160.648 218.474 161.132 217.912 161.685 209.748 169.174 200.313 178.46 193.589 184.518L192.435 185.505C187.417 189.946 184.213 192.195 184.735 189.837 184.759 189.735 184.792 189.636 184.834 189.541 184.834 189.423 184.923 189.284 184.992 189.127 185.061 188.969 185.13 188.811 185.228 188.623 185.264 188.52 185.31 188.421 185.366 188.327L185.672 187.715C186.076 186.936 186.599 185.969 187.249 184.834 187.368 184.607 187.506 184.37 187.644 184.143S187.841 183.778 187.949 183.601L188.61 182.456C189.754 180.482 191.104 178.193 192.652 175.628 192.83 175.341 192.997 175.055 193.165 174.769L193.658 173.96 195.068 171.621 195.709 170.565l1.084-1.786L198.42 166.105 199.86 163.747l7.887-12.828C208.299 150.001 208.861 149.084 209.433 148.156 210.853 145.827 212.299 143.449 213.771 141.022 215.684 137.884 217.623 134.687 219.588 131.43c18.733-30.955 39.309-66.2019 46.122-84.457C269.062 38.023 271.31 34.2634 271.408 27.3067 271.468 23.1623 271.99 19.2744 273.745 19.2744 277.492 19.2744 283.111 24.899 293.464 10.8376 297.792 4.91699 302.8 24.2477 311.21 24.899 323.387 25.8858 334.626 8.96272 348.676 19.2744 351.18 21.1197 368.591 51.2062 388.349 86.3153L393.368 95.1962 398.465 104.284 400.851 108.547C404.321 114.764 407.753 121 411.193 127.128L413.638 131.519C415.295 134.486 416.918 137.413 418.509 140.301L420.481 143.933 423.172 148.807C426.249 154.343 429.167 159.662 431.898 164.596 432.401 165.523 432.884 166.441 433.406 167.339 433.712 167.911 434.018 168.464 434.333 169.026V169.125C435.457 171.187 436.561 173.17 437.606 175.045 437.693 175.186 437.772 175.331 437.843 175.48L438.484 176.644C438.78 177.177 439.056 177.7 439.351 178.213 439.647 178.726 439.914 179.2 440.18 179.742 440.722 180.729 441.264 181.716 441.767 182.634 442.014 183.107 442.27 183.561 442.526 184.015l2.435 4.441L445.583 189.61C447.219 192.57 448.54 195.008 449.457 196.725 449.556 196.942 449.674 197.139 449.773 197.327 450.039 197.81 450.256 198.224 450.433 198.57 450.502 198.708 450.571 198.817 450.631 198.935L450.907 199.458 450.985 199.606C451.021 199.611 451.055 199.625 451.084 199.645z" fill="#f2ece6"/><path d="M451.084 199.646C450.838 199.271 449.595 197.741 447.693 195.442L446.894 194.456 446.194 193.617 443.916 190.923C440.544 186.976 436.275 182.042 431.809 176.911 430.577 175.51 429.335 174.099 428.082 172.697L427.865 172.461C426.554 170.971 425.223 169.5 423.922 168.06L422.936 166.974C422.187 166.145 421.427 165.316 420.678 164.517L419.101 162.83C418.795 162.484 418.479 162.159 418.174 161.843 417.868 161.527 417.563 161.192 417.267 160.856L417.158 160.748 415.492 158.991 414.417 157.876 412.988 156.426C411.647 155.074 410.414 153.87 409.31 152.863L408.788 152.37 408.669 152.271 408.127 151.778C407.506 151.245 406.944 150.791 406.451 150.406L406.057 150.11C405.683 149.835 405.283 149.597 404.864 149.4 403.819 148.956 403.217 149.854 402.892 151.679 402.892 151.946 402.833 152.222 402.803 152.528 402.704 153.689 402.677 154.856 402.724 156.021 402.724 156.278 402.724 156.534 402.724 156.801 402.843 159.958 403.217 163.846 403.71 167.931 403.71 168.267 403.779 168.592 403.819 168.918 403.858 169.244 403.878 169.471 403.917 169.757 404.055 171.059 404.213 172.382 404.381 173.704 404.499 174.76 404.627 175.816 404.755 176.871 404.844 177.661 404.933 178.421 405.021 179.19 405.11 179.96 405.169 180.473 405.238 181.095L405.298 181.608C405.396 182.595 405.495 183.453 405.574 184.322 405.574 184.795 405.662 185.239 405.692 185.683 405.692 185.91 405.692 186.117 405.751 186.334 405.86 187.588 405.929 188.732 405.978 189.778 405.978 189.926 405.978 190.084 405.978 190.232V190.439C405.978 190.607 405.978 190.785 405.978 190.953 405.978 193.804 405.712 195.511 404.805 195.334H404.657L404.519 195.265 404.351 195.156C404.284 195.117 404.221 195.07 404.164 195.018 404.094 194.971 404.028 194.918 403.966 194.86 402.503 193.437 401.182 191.874 400.023 190.193L399.382 189.324 399.303 189.206l-1.291-1.786L397.292 186.384C396.957 185.91 396.612 185.397 396.306 184.894L396.207 184.756 395.024 183.039C392.747 179.674 390.203 175.825 387.57 171.819L386.821 170.684 384.849 167.724 383.656 165.908C382.779 164.576 381.901 163.234 381.014 161.902L380.373 160.915l-1.666-2.506C378.234 157.689 377.721 156.988 377.297 156.297L375.907 154.225 374.99 152.863C372.841 149.686 370.77 146.706 368.858 144.071 368.493 143.568 368.138 143.085 367.773 142.601 367.251 141.881 366.718 141.18 366.225 140.539L365.693 139.838C362.893 136.266 360.674 133.917 359.403 133.582H359.304 359.097 358.969C358.717 133.63 358.484 133.75 358.298 133.927L358.111 134.135C358.041 134.204 357.978 134.28 357.924 134.362 357.798 134.544 357.686 134.735 357.588 134.934L357.401 135.319C357.283 135.575 357.174 135.871 357.066 136.187 356.718 137.266 356.441 138.367 356.238 139.483 356.238 139.72 356.149 139.966 356.1 140.233 355.962 141.002 355.843 141.812 355.715 142.67 355.587 143.529 355.488 144.269 355.4 145.117 355.4 145.196 355.4 145.285 355.4 145.354 355.321 145.986 355.262 146.617 355.193 147.259 355.193 147.584 355.133 147.92 355.094 148.245 355.025 148.897 354.956 149.568 354.907 150.219 354.907 150.712 354.808 151.206 354.769 151.679 354.729 152.153 354.7 152.479 354.67 152.873 354.532 154.472 354.394 156.09 354.266 157.689 354.217 158.271 354.177 158.853 354.118 159.425 354.123 159.471 354.123 159.518 354.118 159.564 354.118 160.067 354.029 160.55 353.99 161.063 353.832 162.958 353.655 164.803 353.467 166.54 353.369 167.468 353.27 168.375 353.162 169.234 353.083 169.816 353.014 170.369 352.925 170.911 352.925 171.188 352.846 171.444 352.807 171.711 352.767 171.977 352.738 172.115 352.708 172.313 352.678 172.51 352.708 172.49 352.708 172.569 352.619 173.033 352.54 173.467 352.452 173.882 352.363 174.296 352.225 174.868 352.116 175.332 352.067 175.47 352.038 175.598 351.998 175.717 351.986 175.791 351.966 175.864 351.939 175.934 351.794 176.441 351.602 176.933 351.367 177.404 351.29 177.557 351.205 177.705 351.111 177.848 351.051 177.947 350.981 178.039 350.904 178.125 350.86 178.182 350.81 178.235 350.756 178.283v0L350.687 178.342C350.592 178.423 350.481 178.484 350.362 178.519H350.273C350.097 178.578 349.907 178.578 349.731 178.519c-5.62-1.875-25.289-59.058-31.846-57.232C317.773 121.32 317.666 121.37 317.57 121.435L317.422 121.553C317.354 121.603 317.291 121.659 317.234 121.721L316.978 122.037C316.414 122.857 315.956 123.745 315.617 124.681 315.479 125.037 315.332 125.412 315.194 125.806 315.055 126.201 314.927 126.566 314.799 126.971 314.799 127.099 314.72 127.227 314.671 127.365 314.079 129.22 313.468 131.441 312.857 133.937 312.679 134.638 312.502 135.368 312.324 136.118 312.255 136.463 312.167 136.809 312.098 137.164 312.029 137.519 311.891 138.072 311.782 138.516 311.398 140.203 311.023 141.979 310.639 143.805 310.53 144.338 310.422 144.88 310.303 145.433 310.106 146.42 309.899 147.407 309.692 148.393 309.593 148.936 309.485 149.479 309.376 150.022 308.065 156.662 306.754 163.836 305.433 170.744 305.334 171.336 305.216 171.938 305.107 172.52 303.964 178.677 302.859 184.588 301.795 189.699 301.706 190.153 301.607 190.587 301.529 191.012 301.4 191.633 301.272 192.235 301.144 192.827L300.552 195.502C300.549 195.571 300.549 195.64 300.552 195.709L300.237 197.041C300.03 197.929 299.823 198.748 299.626 199.518L299.478 200.09C299.022 202.03 298.361 203.915 297.506 205.715 297.427 205.863 297.338 206.001 297.259 206.119 297.17 206.245 297.067 206.36 296.954 206.465 296.917 206.509 296.87 206.543 296.816 206.563L296.727 206.613C296.665 206.646 296.595 206.664 296.525 206.664 296.454 206.664 296.385 206.646 296.323 206.613 296.167 206.524 296.027 206.411 295.909 206.277 295.862 206.245 295.822 206.205 295.79 206.159 295.537 205.855 295.318 205.524 295.14 205.172 295.031 204.955 294.923 204.728 294.824 204.471 294.508 203.678 294.248 202.864 294.045 202.034 293.957 201.728 293.888 201.393 293.809 201.047 293.809 200.86 293.72 200.662 293.68 200.465 293.592 200.07 293.513 199.666 293.424 199.261 293.424 199.202 293.424 199.133 293.424 199.074 293.227 198.087 293.03 196.952 292.852 195.817 292.616 194.386 292.389 192.857 292.142 191.387 292.07 190.893 291.991 190.4 291.906 189.907 291.906 189.663 291.866 189.416 291.788 189.167 291.709 188.683 291.63 188.18 291.541 187.706L291.482 187.311C291.344 186.571 291.216 185.841 291.078 185.131 290.88 184.085 290.664 183.088 290.427 182.17 290.348 181.825 290.259 181.489 290.171 181.184 290.082 180.878 289.934 180.325 289.806 179.911 289.747 179.713 289.678 179.516 289.618 179.328 289.559 179.141 289.49 178.944 289.431 178.766L289.333 178.5C289.273 178.352 289.234 178.233 289.175 178.105 289.066 177.789 288.928 177.503 288.8 177.217 288.672 176.931 288.662 176.911 288.573 176.763 288.538 176.685 288.498 176.609 288.455 176.536 288.455 176.447 288.356 176.348 288.307 176.269 288.04 175.771 287.709 175.31 287.321 174.898 287.179 174.747 287.024 174.608 286.858 174.483 286.37 174.104 285.77 173.896 285.152 173.891 285.084 173.881 285.014 173.881 284.945 173.891c-7.493.75-18.585 42.135-25.082 38.415C253.366 208.586 265.177 140.914 259.153 138.299 259.117 138.291 259.081 138.291 259.045 138.299H258.926 258.641C258.275 138.312 257.916 138.399 257.586 138.555L257.29 138.703C255.602 139.915 254.199 141.481 253.179 143.292 253.06 143.469 252.932 143.667 252.814 143.864 250.605 147.357 248.278 152.034 246.021 156.485L245.567 157.393 244.581 159.277C244.473 159.485 244.364 159.692 244.266 159.899L243.625 161.103 243.122 162.09C242.826 162.613 242.55 163.126 242.264 163.619L241.998 164.083C241.762 164.487 241.535 164.882 241.298 165.247 241.19 165.435 241.091 165.612 240.973 165.79 240.707 166.214 240.44 166.609 240.174 166.984L239.74 167.606C239.131 168.498 238.366 169.274 237.483 169.895 237.401 169.946 237.315 169.988 237.226 170.023 237.141 170.071 237.052 170.111 236.96 170.142 236.901 170.151 236.841 170.151 236.783 170.142H236.644 236.418C236.182 170.146 235.948 170.106 235.728 170.023 235.596 169.974 235.473 169.904 235.363 169.816 235.045 169.462 234.807 169.043 234.666 168.588 234.525 168.134 234.483 167.654 234.544 167.181c0-.246000000000009.0-.493000000000023.0-.75C234.544 166.175 234.594 165.77 234.643 165.445 234.722 164.665 234.87 163.797 235.028 162.909 235.077 162.593 235.146 162.257 235.205 161.922 235.333 161.261 235.452 160.59 235.59 159.948 235.59 159.85 235.59 159.771 235.59 159.672L235.767 158.754C235.935 157.817 236.083 156.899 236.181 156.021 236.181 155.735 236.25 155.468 236.27 155.202 236.29 154.936 236.27 154.807 236.27 154.62 236.437 152.104 236.063 150.13 234.426 149.587 234.312 149.565 234.195 149.565 234.081 149.587 233.966 149.574 233.851 149.574 233.736 149.587 233.617 149.599 233.501 149.629 233.391 149.676L233.135 149.755C233.056 149.781 232.98 149.814 232.908 149.854 232.608 149.969 232.318 150.108 232.04 150.268 231.559 150.526 231.092 150.81 230.64 151.117L230.108 151.482C227.822 153.119 225.624 154.875 223.522 156.741L221.964 158.103 220.811 159.09C220.505 159.366 220.189 159.642 219.825 159.938L219.588 160.146 217.912 161.685C209.748 169.175 200.313 178.46 193.589 184.519L192.435 185.506C187.417 189.946 184.213 192.196 184.735 189.837 184.759 189.736 184.792 189.637 184.834 189.541 184.879 189.4 184.931 189.262 184.992 189.127 185.061 188.979 185.13 188.811 185.228 188.624 185.264 188.521 185.31 188.421 185.366 188.328L185.672 187.716C186.076 186.936 186.599 185.969 187.249 184.835 187.368 184.608 187.506 184.371 187.644 184.144S187.841 183.779 187.949 183.601L188.61 182.457C189.754 180.483 191.104 178.194 192.652 175.628 192.83 175.342 192.997 175.056 193.165 174.77L193.658 173.96 195.068 171.622 195.709 170.566l1.084-1.786L198.42 166.106 199.86 163.747l7.887-12.828L209.433 148.156C210.853 145.828 212.299 143.45 213.771 141.022 218.987 138.93 224.409 138.062 228.777 139.266 239.277 142.226 250.319 130.829 256.886 122.392 263.452 113.955 265.315 145.828 269.062 150.515 272.808 155.202 281.238 131.766 286.809 128.017 292.379 124.267 287.794 158.014 291.492 155.202 295.189 152.39 308.351 116.718 313.971 114.893 319.591 113.067 335.513 135.516 341.133 131.766c5.62-3.749 13.113-25.31 18.733-22.498s19.669 21.561 25.289 24.373C389.966 136.049 383.597 96.5881 388.3 86.2764L393.319 95.1573 398.416 104.245 400.802 108.508C404.272 114.725 407.703 120.961 411.144 127.089L413.589 131.48C415.246 134.447 416.869 137.374 418.46 140.262L420.432 143.894 423.123 148.768C426.199 154.304 429.118 159.623 431.849 164.557 432.351 165.484 432.835 166.402 433.357 167.3 433.663 167.872 433.968 168.425 434.284 168.987V169.086C435.418 171.148 436.522 173.132 437.557 175.006 437.644 175.147 437.723 175.292 437.794 175.441L438.435 176.605C438.73 177.138 439.006 177.661 439.302 178.174 439.598 178.687 439.864 179.161 440.13 179.703 440.683 180.69 441.215 181.677 441.718 182.595 441.964 183.068 442.221 183.522 442.477 183.976l2.435 4.441L445.533 189.571C447.17 192.531 448.491 194.969 449.408 196.686 449.516 196.903 449.625 197.1 449.723 197.288 449.99 197.771 450.207 198.186 450.384 198.531L450.581 198.896 450.857 199.419 450.936 199.567C450.994 199.573 451.047 199.602 451.084 199.646v0z" fill="#dad6d3"/><path d="M24.8883 421.817C17.6418 421.619 13.146 412.936 17.9179 407.499 57.4832 362.324 93.933 316.558 126.045 273.634c19.896-17.288 45.51-36.51 54.955-38.879C199.733 230.068 215.656 213.194 221.276 208.507 226.895 203.82 203.529 242.255 192.24 251.639 180.951 261.023 148.317 275.035 151.028 283.511c7.493 23.436 56.198-21.56 61.818-25.31C218.466 254.451 199.733 291.948 173.507 309.759 161.016 318.246 129.486 378.192 143.535 384.754 157.585 391.316 208.163 378.192 216.592 373.504 225.022 368.817 222.212 404.44 241.882 418.501c19.669 14.061 33.728-148.114 39.348-159.363C286.85 247.889 284.04 280.699 287.786 293.823 291.533 306.947 298.089 304.135 303.709 307.885 309.329 311.634 276.547 350.069 287.786 374.442c11.24 24.373 106.55 35.77 104.903 29.998-34.655-121.866-79.347-171.698-46.831-135.927 18.732 20.623 13.576-66.568 14.986-72.192C362.48 189.769 376.697 284.853 387.069 286.324 394.71 287.409 387.069 263.825 403.929 228.193 405.634 224.601 381.45 335.07 406.739 366.943 432.028 398.815 525.701 390.378 522.891 374.442 520.081 358.506 478.859 339.757 479.796 330.383 480.733 321.008 494.782 336.007 494.782 331.32s-39.338-69.369-62.754-87.19C419.891 234.903 419.851 231.006 440.457 242.255 444.815 244.633 460.176 267.575 514.402 293.507 548.614 341.958 580.459 382.237 601.607 396.94 659.955 437.595 128.086 424.688 24.8883 421.817z" fill="#3a3232"/><path d="M334.616 36.9574s10.303 8.4369-5.62 25.3106C325.358 66.1262 340.492 56.3474 343.687 53.6436 346.881 50.9399 343.943 50.6833 341.271 43.6181 338.599 36.5528 334.616 36.9574 334.616 36.9574z" fill="#dad6d3"/><path d="M260.623 86.6411S277.482 89.4534 280.342 81.9539L285.961 66.9551S285.025 85.7036 285.025 89.4533 270.975 92.2656 269.102 91.3282C267.229 90.3908 268.116 92.2656 266.292 95.0779 264.646 97.5448 264.419 90.3908 262.546 88.5159L260.623 86.6411z" fill="#dad6d3"/><defs><filter id="filter0_d" x=".945312" y=".118164" width="630.078" height="435.912" filterUnits="userSpaceOnUse" color-interpolation-filters="sRGB"><feFlood flood-opacity="0" result="BackgroundImageFix"/><feColorMatrix in="SourceAlpha" type="matrix" values="0 0 0 0 0 0 0 0 0 0 0 0 0 0 0 0 0 0 127 0"/><feOffset dx="5" dy="-10"/><feGaussianBlur stdDeviation="10"/><feColorMatrix type="matrix" values="0 0 0 0 0.580392 0 0 0 0 0.580392 0 0 0 0 0.580392 0 0 0 0.25 0"/><feBlend mode="normal" in2="BackgroundImageFix" result="effect1_dropShadow"/><feBlend mode="normal" in="SourceGraphic" in2="effect1_dropShadow" result="shape"/></filter></defs></svg>