<?xml version="1.0" standalone="no"?>
<!DOCTYPE svg PUBLIC "-//W3C//DTD SVG 20010904//EN"
 "http://www.w3.org/TR/2001/REC-SVG-20010904/DTD/svg10.dtd">
<svg version="1.0" xmlns="http://www.w3.org/2000/svg"
 width="280.000000pt" height="281.000000pt" viewBox="0 0 280.000000 281.000000"
 preserveAspectRatio="xMidYMid meet">

<g transform="translate(0.000000,281.000000) scale(0.100000,-0.100000)"
fill="#000000" stroke="none">
<path d="M1005 2804 c-343 -26 -564 -92 -731 -217 -147 -111 -230 -289 -254
-546 -5 -58 -10 -311 -12 -561 -2 -393 0 -470 15 -562 48 -296 129 -470 291
-630 95 -94 151 -130 274 -179 217 -85 442 -111 779 -90 114 7 325 17 468 21
207 6 281 12 365 29 360 76 533 263 579 626 6 44 11 339 13 655 2 518 0 585
-16 680 -60 345 -182 539 -411 653 -134 67 -267 93 -540 107 -217 11 -745 20
-820 14z m517 -404 c198 -11 459 -42 558 -66 143 -35 242 -106 295 -211 46
-93 55 -165 65 -498 4 -170 14 -396 21 -501 25 -374 -16 -501 -186 -574 -73
-31 -256 -77 -395 -99 -415 -66 -783 -52 -1020 40 -165 63 -325 206 -350 311
-5 24 -19 108 -30 188 -63 467 -49 809 41 1027 107 256 284 359 659 382 69 5
134 9 145 9 11 1 100 -3 197 -8z m-1008 -240 c-10 -16 -20 -28 -22 -26 -4 5
28 56 35 56 2 0 -4 -13 -13 -30z"/>
<path d="M1962 2133 c-77 -38 -99 -125 -50 -197 37 -54 74 -76 128 -76 86 0
144 57 144 141 0 111 -120 182 -222 132z"/>
<path d="M1474 1888 c-174 -18 -363 -138 -432 -274 -96 -189 -53 -418 109
-568 206 -192 550 -185 749 14 71 72 102 132 130 253 20 87 21 107 12 165 -16
93 -71 201 -141 271 -108 111 -253 158 -427 139z m312 -453 c32 -67 31 -103
-5 -145 l-28 -34 -5 109 c-3 61 -9 119 -14 130 -17 44 29 -10 52 -60z"/>
</g>
</svg>
