<svg width="54" height="55" viewBox="0 0 54 55" fill="none" xmlns="http://www.w3.org/2000/svg">
<g clip-path="url(#clip0_1_30795)">
<path d="M9.48191 25.1951C9.3185 20.0243 7.18766 12.2415 12.9992 9.80584C17.5591 7.89288 24.5223 8.27548 29.3676 8.5167C35.0598 8.79943 42.7363 8.70605 44.6972 14.9014C46.2405 19.7753 45.7062 25.7956 45.4624 30.8198C45.1641 36.9296 44.1408 42.8202 37.7379 45.3363C32.7175 47.3102 25.9359 46.4815 20.6004 46.4283C18.7847 46.4101 16.2013 46.8602 14.418 46.3634C8.67522 44.7643 8.60649 39.4483 8.24854 34.6912C7.84813 28.7126 8.49328 22.7101 10.155 16.9532C11.4895 12.1195 3.98426 10.0561 2.65103 14.8846C0.0270561 23.954 -0.329225 33.529 1.61349 42.7684C3.54201 51.4824 7.85168 54.0218 16.4749 54.1735C24.6948 54.3174 35.1311 55.5612 42.7518 51.7262C49.894 48.1324 52.6188 40.5351 53.109 33.0985C53.6032 25.6088 54.5214 14.904 50.6812 8.03944C47.103 1.63005 36.917 1.23449 30.527 0.811698C23.2215 0.327946 12.7203 -0.0792869 6.40691 4.41843C-0.278717 9.1911 1.46953 18.0815 1.70038 25.1951C1.8625 30.1895 9.64402 30.2116 9.48191 25.1951Z" fill="black"/>
<path d="M2.34839 13.6368C1.77774 15.7211 1.34408 17.8404 1.05017 19.9813C0.815429 22.1186 1.38218 24.1055 1.37181 26.2195C1.34846 31.2269 9.12999 31.2334 9.15333 26.2195C9.16111 24.3857 8.58658 22.605 8.75258 20.7724C8.99243 19.0572 9.35961 17.3622 9.85107 15.7015C11.0442 10.8393 3.54285 8.76426 2.34839 13.6329V13.6368Z" fill="black"/>
<path d="M9.46394 24.3052C9.38482 21.1628 9.90878 17.2305 8.73507 14.2605C7.16968 10.2985 1.28555 10.6759 1.09231 15.2955C0.880915 20.395 0.119623 25.8239 1.52419 30.8054C2.87947 35.6182 10.3899 33.573 9.02817 28.7368C7.84019 24.5257 8.69357 19.6233 8.87384 15.2955L1.23108 16.333C2.12855 18.6039 1.62016 21.8761 1.68241 24.3091C1.8121 29.3074 9.59363 29.3269 9.46394 24.3091V24.3052Z" fill="black"/>
<path d="M45.5122 24.322L45.6911 33.2824C45.791 38.3054 53.2483 38.2769 53.4727 33.2824L53.889 24.0354H46.1074C45.9272 29.1284 45.9518 34.281 45.5576 39.3598C45.2878 42.8329 44.2697 44.4528 40.7589 45.1207C37.9142 45.6137 35.0096 45.6575 32.1513 45.2504C27.1906 44.6512 27.2334 52.4379 32.1513 53.0319C38.3104 53.7764 48.0917 53.5351 51.596 47.3462C53.26 44.4074 53.282 40.85 53.4117 37.5713C53.5842 33.0619 53.7307 28.55 53.8903 24.0393C54.0667 19.0241 46.3331 19.0487 46.1087 24.0393L45.6924 33.2863H53.474L53.295 24.3259C53.1951 19.325 45.4136 19.3081 45.5135 24.3259L45.5122 24.322Z" fill="black"/>
<path d="M7.67506 23.2986C7.57543 24.3635 7.70184 25.4374 8.04602 26.4501C8.39021 27.4627 8.9444 28.3913 9.67232 29.1749C10.1563 29.6649 10.7627 30.0161 11.4286 30.192C12.0944 30.3679 12.7953 30.3619 13.458 30.1749C16.913 28.8157 17.9285 24.5086 18.9518 21.2339C19.9128 18.1576 21.818 13.1411 19.9725 10.0998C17.424 5.90038 13.0988 8.87422 11.0535 11.6911C8.85178 14.8391 7.50001 18.5023 7.12906 22.3259C6.80613 24.8925 9.86816 26.6822 12.0574 26.0766C15.559 25.1091 17.3955 21.3493 18.7923 18.2536C20.0892 15.3692 21.6844 11.2696 19.0516 8.68487C18.5649 8.19913 17.9583 7.85078 17.2934 7.67516C16.6286 7.49955 15.9291 7.50293 15.2659 7.68495C10.2948 9.20494 9.67751 16.4794 10.7384 20.6723C11.964 25.5241 19.4706 23.4685 18.2411 18.6037C17.995 17.8026 17.9334 16.9562 18.0608 16.1279C18.3448 14.5612 19.5886 14.4886 17.3254 15.1837L13.5397 14.1838L13.8238 14.4614L12.6838 11.7093C12.6021 13.0954 12.1793 14.44 11.453 15.6234C11.1638 16.1966 10.837 16.7556 10.5101 17.3094C10.262 17.7227 10.0082 18.1329 9.74884 18.5402C9.33988 19.0823 9.41899 19.0927 9.98618 18.5713L14.9145 22.3233C15.1739 20.2677 16.2425 16.4093 18.1723 15.2239H14.2401L14.6499 15.425L12.8614 13.0983C13.3076 14.3252 11.9445 17.5078 11.597 18.6751C11.1202 20.6573 10.3726 22.5644 9.37533 24.3426L11.7007 22.549L11.3894 22.6722L15.1752 23.6721C15.5124 24.4554 15.6062 24.3309 15.4566 23.2986C15.6057 18.2886 7.82421 18.2938 7.67506 23.2986Z" fill="black"/>
<path d="M16.7683 10.2422C14.9063 15.1178 14.5113 20.4317 15.6322 25.529C15.7945 26.1012 16.0852 26.629 16.4821 27.0721C16.8789 27.5152 17.3716 27.862 17.9226 28.0861C18.4736 28.3103 19.0684 28.4059 19.6619 28.3658C20.2554 28.3256 20.8319 28.1507 21.3477 27.8544C26.3758 24.5342 26.9997 15.1795 28.5197 9.82716L22.808 12.146C21.17 11.2265 22.4423 19.0327 22.5331 19.9276C22.6351 22.4434 23.0922 24.9322 23.8909 27.32C25.149 30.5494 30.5429 31.4585 31.3936 27.32C31.8476 25.1153 32.1536 22.9248 32.4389 20.6979C32.5686 19.6513 34.2015 13.1421 32.4389 13.6155L28.6545 12.6142C30.1667 14.404 30.2212 19.0249 30.6284 21.2777C31.0591 23.979 31.7341 26.6356 32.6452 29.2148C33.85 32.4571 39.3775 33.3481 40.1491 29.2148C40.5761 26.8514 40.8524 24.4633 40.9766 22.0649C41.0829 20.257 42.7274 14.1783 40.1543 15.1251L36.3686 14.1239C38.0767 15.6477 39.9559 34.5153 38.1843 34.7592L41.97 35.7604C39.5214 33.0991 40.843 28.0632 39.6654 24.9129C39.4114 24.108 38.9142 23.4015 38.2424 22.8906C37.5705 22.3797 36.7569 22.0894 35.9134 22.0597C33.0978 21.8717 31.5285 24.1024 30.0319 26.1671C27.0386 30.2978 24.4551 34.7838 21.703 39.0753L28.9541 41.0388C29.4975 36.2688 32.1199 27.4108 26.075 24.8818C19.1066 21.9663 15.3481 31.4559 11.3108 34.8681L17.8175 36.5813C17.5179 34.4907 21.6564 27.7701 22.5201 25.7131C24.1957 21.7238 18.6125 19.7875 16.0173 21.9274C11.2187 25.883 5.09208 32.5103 5.34498 39.1881C5.35877 39.8674 5.54809 40.5316 5.89453 41.116C6.24098 41.7005 6.73277 42.1853 7.32207 42.5235C7.91138 42.8616 8.57815 43.0415 9.25756 43.0456C9.93697 43.0498 10.6059 42.8781 11.1993 42.5472C11.8789 42.1892 17.6424 37.96 18.2701 38.3127C18.8459 38.637 17.6709 45.6598 17.8214 46.7738C17.9907 47.4297 18.3327 48.0282 18.8116 48.5071C19.2906 48.9861 19.8891 49.328 20.5449 49.4974C26.0348 50.9369 29.2511 44.3538 31.1498 40.2503C32.8786 36.5152 28.2227 32.0201 25.0387 35.536C21.9961 38.895 18.8913 45.1332 23.367 48.7049C28.5145 52.8136 36.6565 47.0864 41.6134 45.4756L37.2207 39.7601C37.0204 40.4861 36.6631 41.1592 36.1741 41.732C35.6852 42.3048 35.0764 42.7633 34.3908 43.075L40.2399 46.4379C40.3201 43.4062 40.9161 40.4102 42.0024 37.5787L34.3597 36.5411C34.3838 38.295 34.1794 40.0446 33.7514 41.7457H41.2541C40.4267 38.7731 39.0688 35.0847 36.0794 33.6646C35.561 33.3813 34.9861 33.2169 34.3964 33.1833C33.8066 33.1498 33.2168 33.2478 32.6696 33.4705C32.1225 33.6931 31.6317 34.0346 31.2329 34.4704C30.8341 34.9062 30.5372 35.4252 30.3639 35.9899C29.2148 38.7212 30.5727 41.8066 32.0499 44.1437C33.9953 47.2031 39.572 46.233 39.301 42.1801L39.0805 38.9067C38.7459 33.9369 30.9631 33.9006 31.299 38.9067L31.5194 42.1801L38.7692 40.2166C37.8363 39.5552 37.5337 38.8358 37.8614 38.0585L32.1458 40.3839C32.6299 40.8185 33.0211 41.3463 33.2961 41.9358C33.5711 42.5252 33.7242 43.1642 33.7462 43.8143C34.7293 47.3471 40.463 47.6921 41.2489 43.8143C41.7442 41.4184 42.0409 38.9858 42.136 36.5411C42.3137 31.9072 35.9393 31.5999 34.4933 35.5036C33.2037 39.0077 32.5157 42.7045 32.4584 46.4379C32.4681 47.1189 32.6548 47.7855 33.0003 48.3724C33.3458 48.9593 33.8381 49.4461 34.4287 49.785C35.0194 50.1239 35.6881 50.3033 36.3691 50.3053C37.0501 50.3074 37.72 50.1322 38.3127 49.797C40.8051 48.4324 42.78 46.2866 43.9336 43.6898C45.2305 40.8469 43.0607 36.8277 39.5396 37.9742C37.8043 38.5397 36.1676 39.1933 34.4881 39.8937C33.1133 40.4669 27.687 44.1735 30.5338 41.035L24.424 36.3219C24.3008 36.5813 21.3114 41.6536 22.6083 41.9934L25.3253 44.7104C24.6898 40.0311 28.1902 32.5051 21.3749 30.6051C16.1341 29.1396 11.5248 33.5984 7.27091 35.8291L13.1265 39.1894C12.9605 34.8097 18.5256 29.8983 21.5189 27.4303L15.0161 23.6458C13.0409 28.3485 9.56905 33.4415 10.3148 38.6512C10.7713 41.8222 14.8644 42.0232 16.8175 40.367C18.0043 39.3607 19.08 38.2303 20.0261 36.995L21.122 35.4738C22.6783 34.6334 23.1266 33.6222 22.4669 32.4403C22.2231 31.3872 22.1155 31.3297 22.144 32.2678C22.1022 33.1669 22.0117 34.0631 21.8729 34.9524C21.6576 36.9795 21.4112 39.0053 21.1804 41.0311C20.7122 45.1332 26.5367 45.9451 28.4302 42.9946C28.993 42.1179 36.3414 29.862 35.9212 29.8335L32.1692 26.9802C33.7942 31.3275 32.4805 36.7071 35.8109 40.5382C38.0754 43.1476 41.2801 42.7287 43.4874 40.3165C47.229 36.226 46.7064 29.3627 46.1824 24.3241C45.7026 19.7616 45.5923 11.9398 41.8727 8.61842C41.3866 8.13177 40.7801 7.78272 40.115 7.60684C39.45 7.43096 38.7502 7.43453 38.087 7.6172C31.4364 10.0645 33.6399 21.8185 32.6465 27.1423H40.1504C37.816 20.8769 38.6304 12.4015 34.1561 7.1127C33.6728 6.62214 33.0666 6.27041 32.4009 6.09428C31.7351 5.91815 31.0343 5.92409 30.3717 6.11148C23.8456 7.8688 24.9181 20.2479 23.8871 25.2514H31.3897C29.3886 20.1104 32.2885 8.54191 26.7312 5.4267C26.2145 5.13498 25.6385 4.9638 25.0464 4.92598C24.4542 4.88815 23.8611 4.98465 23.3115 5.20827C22.7619 5.43189 22.2699 5.77683 21.8724 6.21733C21.4748 6.65783 21.1819 7.18248 21.0157 7.75208L19.0469 14.7165C18.6916 15.9668 18.1624 20.6487 17.4271 21.135L23.1426 23.4604C22.4024 19.7124 22.798 15.8287 24.2787 12.3069C26.0503 7.62498 18.5282 5.59919 16.7683 10.2422Z" fill="black"/>
<path d="M13.4654 43.1507C15.0051 45.645 16.7032 48.038 18.5493 50.3149L23.2649 44.2051C21.7653 43.0388 20.38 41.7325 19.1277 40.3039C18.369 39.5712 17.5974 38.8514 16.8529 38.0992C16.5702 37.8151 15.8815 36.6726 15.9451 37.382C15.9179 36.3587 15.4993 35.3848 14.7754 34.6609C14.0516 33.9371 13.0776 33.5184 12.0543 33.4912C11.0247 33.4987 10.0395 33.911 9.31141 34.639C8.58336 35.3671 8.17104 36.3524 8.16357 37.382C8.47484 40.6126 10.2386 42.5308 12.4823 44.7005C14.5565 46.9921 16.851 49.0741 19.3327 50.9166C20.1482 51.3877 21.1072 51.5459 22.0308 51.3616C22.9544 51.1774 23.7794 50.6633 24.3517 49.9154C24.9116 49.1647 25.1882 48.2403 25.1324 47.3055C25.0766 46.3706 24.6922 45.4856 24.047 44.8068C22.6399 43.028 21.3482 41.1609 20.1795 39.2171C17.574 34.949 10.8417 38.8553 13.4602 43.1442L13.4654 43.1507Z" fill="black"/>
<path d="M27.1547 40.9226C26.9344 41.9598 26.9665 43.0349 27.2481 44.0572C27.5443 45.0516 28.1115 45.9439 28.8861 46.6342C29.632 47.3388 30.6112 47.7442 31.6369 47.7729C32.6673 47.7653 33.6544 47.3569 34.389 46.6342C35.7079 45.1959 36.0581 42.523 34.389 41.1314C34.2528 41.0185 33.8974 40.6022 34.3202 41.1314C34.7249 41.6411 34.4331 41.2234 34.3604 41.0548L34.7495 41.9847C34.6927 41.8134 34.6519 41.6371 34.6276 41.4582L34.7664 42.4957C34.7553 42.3758 34.7553 42.2551 34.7664 42.1352L34.6276 43.1727L34.6548 42.9937C34.896 41.9803 34.7576 40.9136 34.2658 39.9953C34.0079 39.554 33.6656 39.1678 33.2585 38.8588C32.8514 38.5499 32.3873 38.3241 31.8929 38.1945C31.3985 38.0649 30.8835 38.034 30.3771 38.1036C29.8708 38.1731 29.3831 38.3417 28.9419 38.5998C28.5032 38.8478 28.1188 39.1814 27.8116 39.5809C27.5044 39.9804 27.2806 40.4375 27.1534 40.9252L27.1547 40.9226Z" fill="black"/>
<path d="M35.2021 9.04854C13.4398 6.36262 18.0231 34.035 22.6441 47.0379C24.3093 51.7237 31.8302 49.7044 30.1467 44.9693C28.066 39.4025 26.8798 33.5414 26.6321 27.6036C26.5711 25.4961 26.3403 22.329 27.0017 20.3032C28.4737 15.7951 31.6499 16.3917 35.2021 16.8301C40.1603 17.4435 40.1162 9.6568 35.2021 9.04854Z" fill="white"/>
<path d="M14.5251 32.7713C20.9266 32.9486 27.3327 32.6886 33.6988 31.9931C38.6271 31.4562 38.6789 23.6695 33.6988 24.2116C27.3327 24.9071 20.9266 25.1671 14.5251 24.9898C9.51638 24.851 9.52027 32.6325 14.5251 32.7713Z" fill="white"/>
</g>
<defs>
<clipPath id="clip0_1_30795">
<rect width="53.5226" height="53.9454" fill="white" transform="translate(0.369629 0.527344)"/>
</clipPath>
</defs>
</svg>
