<svg width="57" height="55" viewBox="0 0 57 55" fill="none" xmlns="http://www.w3.org/2000/svg">
<g clip-path="url(#clip0_1_30643)">
<path d="M10.5425 20.2279C10.2715 16.8523 9.76135 13.2441 12.3928 10.8083C14.9952 8.39625 19.4492 9.06634 22.7931 9.04652C27.1797 9.0214 31.6324 8.86412 36.0098 9.23023C43.3649 9.84613 48.4705 12.1776 48.8406 19.9635C49.097 25.3388 48.9913 30.7656 49.0349 36.1461C49.0666 40.1442 49.6019 42.9223 44.898 45.074C42.9155 45.982 40.3475 45.756 38.2342 45.8485C32.7889 46.0904 27.3013 46.1657 21.856 45.9357C18.3232 45.7851 13.544 46.1617 11.046 42.9276C9.82215 41.3416 9.53799 37.6515 9.1785 35.7998C7.94587 29.2361 7.84039 22.5104 8.86658 15.9113C9.60408 10.9193 1.9648 8.765 1.21542 13.8032C-0.382371 23.4249 0.115336 33.278 2.67454 42.6897C5.13814 51.2806 9.54724 52.9908 18.0839 53.6596C31.7183 54.7169 56.6081 57.7264 56.9742 38.2859C57.0733 33.023 56.8737 27.7231 56.7957 22.4602C56.7402 18.7185 56.8935 14.8857 55.3128 11.4097C52.3417 4.87532 44.791 2.26765 38.1311 1.51034C29.7173 0.545515 17.9835 -0.50125 9.95564 2.59146C2.7512 5.36698 2.06922 13.4649 2.61242 20.2279C3.0195 25.2806 10.9522 25.3242 10.5425 20.2279Z" fill="black"/>
<path d="M18.544 11.0664C13.778 14.3495 6.77181 19.2027 5.4779 25.2004C5.30792 25.8745 5.31577 26.5812 5.50067 27.2514C5.68556 27.9215 6.04118 28.5323 6.53277 29.0238C7.02435 29.5154 7.63508 29.871 8.30524 30.0559C8.97541 30.2408 9.68209 30.2487 10.3562 30.0787C14.3463 29.2104 15.3653 24.4563 17.147 21.3358C19.1903 17.7568 22.09 13.0093 26.4449 12.2057C31.4567 11.2806 29.3341 3.636 24.3369 4.55853C19.9753 5.36475 16.6817 8.50108 14.0119 11.8647C12.6383 13.5916 11.3973 15.4198 10.2994 17.3338C9.68875 18.3991 9.12439 19.4908 8.58119 20.5917L8.05252 21.698C7.2366 22.8752 7.30225 23.1197 8.24945 22.4315L13.1264 27.3085C13.9194 23.6567 19.6753 19.8913 22.546 17.914C26.7225 15.0381 22.7614 8.16141 18.544 11.0664Z" fill="black"/>
<path d="M18.2485 4.78854C13.425 9.44866 10.3052 15.5928 9.38885 22.2368C8.47247 28.8808 9.81254 35.6401 13.1944 41.4319C15.6699 45.8952 22.5214 41.9011 20.042 37.4299C17.5168 33.1595 16.5189 28.1573 17.212 23.2448C17.9051 18.3322 20.2482 13.8015 23.8563 10.3964C27.4804 6.7922 21.8738 1.18434 18.2485 4.78854Z" fill="black"/>
<path d="M12.5684 6.17457C8.67077 10.2308 3.84534 17.3546 5.44853 23.3642C6.22039 26.2587 8.00068 26.4371 9.88539 28.302C12.4045 30.792 13.631 34.5271 16.347 37.1691L21.9549 31.5613C18.426 28.7038 14.609 25.4089 10.1127 24.3436C9.43717 24.1531 8.7229 24.1473 8.04434 24.3267C7.36579 24.5062 6.74779 24.8644 6.25475 25.3639C0.563625 32.5604 9.72679 48.3373 17.707 50.3792C18.3811 50.5488 19.0876 50.5407 19.7576 50.3556C20.4276 50.1706 21.0381 49.815 21.5296 49.3235C22.0211 48.832 22.3767 48.2215 22.5617 47.5515C22.7468 46.8815 22.7549 46.175 22.5853 45.5009C22.4105 44.0639 21.7677 42.7243 20.7562 41.6886C19.7447 40.653 18.4206 39.9789 16.9881 39.7702C16.1504 39.5664 15.2693 39.6387 14.4761 39.9764C13.6829 40.3141 13.02 40.899 12.5863 41.644C12.1526 42.3891 11.9712 43.2543 12.0692 44.1108C12.1672 44.9673 12.5393 45.7692 13.1301 46.397C16.3986 50.2008 20.6636 50.1228 25.3635 49.5479C32.5309 48.6703 39.6878 47.6751 46.8486 46.738C51.7388 46.0983 52.1195 38.7974 46.8486 38.808C40.8918 38.8212 35.3025 39.2428 30.0832 42.3342C27.2456 44.0141 27.6421 48.7959 31.0295 49.5823C38.0238 51.204 46.7469 47.2033 50.4845 40.9425C54.854 33.6284 47.8544 22.7999 46.0939 15.5664C45.0366 11.2049 38.2961 12.1657 38.3053 16.6237C38.3238 22.6545 37.2652 33.6403 42.3007 38.1828C42.9329 38.7813 43.7386 39.1637 44.602 39.2751C45.4653 39.3865 46.3417 39.2211 47.105 38.8027C52.5107 35.9889 51.9569 24.785 51.5419 19.7151C51.0595 13.8363 49.106 5.96971 41.669 6.55521C34.9285 7.08388 31.0956 14.8447 29.5202 20.5068C28.0663 25.7472 25.6662 35.7298 31.3956 39.1278C32.0022 39.4845 32.693 39.6725 33.3966 39.6725C34.1003 39.6725 34.7911 39.4845 35.3976 39.1278C40.6843 35.7629 39.668 25.9547 38.904 20.6548C38.2115 15.8386 36.7021 6.32524 29.9484 6.67548C23.5158 7.00986 19.3895 15.7237 17.8049 20.9575C16.4356 25.4789 14.6765 35.0439 19.5918 38.204C30.7044 45.341 39.9971 16.8801 32.3895 9.65585C20.7205 -1.43959 8.89413 23.6828 10.2713 32.9001C12.9741 50.9938 40.001 37.2154 37.778 23.3933C37.603 22.7269 37.2536 22.1191 36.7658 21.6324C36.278 21.1458 35.6693 20.7978 35.0025 20.6244C31.0374 19.6094 28.8236 22.3624 27.4227 25.7036C25.4534 30.4048 33.123 32.456 35.0699 27.8117L32.8944 28.2703L30.1255 25.5014C30.4665 27.6161 24.2758 33.0085 22.3276 33.2398C17.259 33.8438 17.9476 27.7522 19.2296 24.3C19.8274 22.2629 20.8738 20.3856 22.2919 18.8058C23.4101 17.8304 26.3548 16.481 27.498 18.6234C29.1673 21.7518 24.1449 26.8931 23.718 29.4188C22.4686 30.4198 22.4585 30.87 23.6876 30.7696C24.5864 31.1634 24.8599 30.8665 24.5084 29.8788C25.0727 29.0263 24.7093 26.1424 24.9445 24.9978C25.1798 23.8533 28.1165 14.8844 29.7396 15.3298C30.2603 15.4739 31.2344 22.7312 31.2925 23.3642C31.4615 25.1846 31.4739 27.0161 31.3295 28.8386C31.3048 29.7576 31.1888 30.6718 30.9833 31.5679C30.407 33.479 30.5431 33.7178 31.3917 32.2842H35.3937C34.4685 31.7397 37.8586 18.0802 39.7896 16.8365C40.5879 14.9377 41.7699 15.1373 43.3356 17.4352C43.6274 19.3018 43.7732 21.1882 43.7718 23.0774C43.7718 24.1493 43.7718 31.6102 43.099 31.9591L47.9046 32.5763C45.2758 30.1973 46.242 19.8116 46.2327 16.625L38.4441 17.6824C39.6823 22.4537 41.1824 27.1532 42.9378 31.7595C44.911 37.1942 39.4512 43.4035 33.1297 41.9364L34.0773 49.1831C38.0423 46.8358 42.347 46.7499 46.8407 46.7394V38.8093L32.9459 40.6266C29.7237 41.0469 21.1831 43.6347 18.7366 40.7892L14.88 47.4161L14.9381 47.609L19.8151 42.732C17.518 42.1439 16.0113 39.0314 14.9606 37.1493C14.3355 36.0272 11.8613 30.9718 11.8626 30.9705L8.00465 31.9908C11.0445 32.7085 14.0024 35.2699 16.347 37.1691C20.2262 40.3094 25.6952 35.1985 21.9549 31.5613C19.0472 28.7395 18.2318 24.5419 15.1893 22.0082C13.0746 20.2491 13.3601 21.5826 13.4922 19.6028C13.6839 16.7321 16.318 13.7147 18.1749 11.7824C21.7117 8.10157 16.1118 2.4871 12.5684 6.17457Z" fill="black"/>
<path d="M26.9371 26.1857C29.3397 26.0176 31.6063 25.0088 33.3393 23.3362C36.5536 20.3307 32.2145 14.3977 28.535 17.1098C23.3501 20.9307 27.6587 29.7344 29.895 34.3444C32.0229 38.727 37.1338 47.6589 43.1263 43.2128C47.1798 40.206 43.2293 33.3201 39.1242 36.3652C40.4803 35.3594 38.9128 34.2505 38.3167 33.2593C37.4895 31.8925 36.7616 30.468 36.1386 28.9969C35.179 26.7117 33.8058 23.4022 34.0345 20.8765L32.0705 24.301L32.537 23.956L27.7327 17.7296L26.9397 18.2583C21.9425 18.8848 21.8804 26.8227 26.9397 26.1883L26.9371 26.1857Z" fill="black"/>
<path d="M37.3071 28.0292C34.1735 32.0835 30.3364 35.5414 25.9791 38.2378L31.3979 43.6633C33.3347 40.9648 35.433 38.3859 37.6812 35.9407C40.0985 33.2141 37.8239 27.8878 33.8232 29.3139C31.6244 30.1006 29.5417 31.18 27.6312 32.5229C26.1443 33.5538 23.9635 35.7042 22.1264 36.0068L26.6042 37.8294C27.0985 39.1079 27.5594 39.0806 27.9867 37.7475C30.8309 33.4943 23.9649 29.5201 21.1391 33.7454C19.6721 35.9394 17.9301 39.3586 19.7566 41.8314C20.2264 42.5574 20.9078 43.1215 21.7087 43.4475C22.5096 43.7735 23.3913 43.8456 24.2345 43.654C28.6251 42.9311 31.7878 38.4387 35.9313 36.9611L32.0733 30.3342C29.3802 33.2885 26.868 36.4028 24.5504 39.6599C22.2705 42.9641 26.7245 47.1274 29.9758 45.0854C35.4522 41.6286 40.2547 37.2053 44.1494 32.0312C47.2461 27.9777 40.3615 24.0232 37.3019 28.0292H37.3071Z" fill="black"/>
<path d="M31.5533 13.4414C33.831 14.0018 36.0897 14.6274 38.3295 15.3182C39.3436 15.5978 40.4272 15.463 41.3419 14.9436C42.2566 14.4242 42.9276 13.5627 43.2071 12.5486C43.4867 11.5346 43.3519 10.451 42.8325 9.53624C42.3131 8.6215 41.4516 7.95056 40.4376 7.67102C38.196 6.9811 35.9373 6.35551 33.6613 5.79424C32.6473 5.53574 31.5725 5.68052 30.6629 6.19814C29.7534 6.71575 29.08 7.56588 28.7844 8.56975C28.5172 9.58343 28.6573 10.6614 29.1748 11.5731C29.6923 12.4848 30.546 13.1577 31.5533 13.448V13.4414Z" fill="black"/>
<path d="M21.0248 25.5209C20.5692 27.5357 20.5987 29.6299 21.1107 31.631C21.2491 32.1332 21.4851 32.6031 21.8051 33.014C22.1251 33.425 22.523 33.7688 22.9759 34.026C23.4288 34.2832 23.928 34.4486 24.4448 34.5129C24.9617 34.5772 25.4862 34.539 25.9883 34.4006C26.4904 34.2622 26.9604 34.0262 27.3713 33.7062C27.7822 33.3861 28.1261 32.9883 28.3833 32.5354C28.6405 32.0824 28.8059 31.5833 28.8702 31.0664C28.9345 30.5496 28.8963 30.0251 28.7579 29.523C28.7228 29.2357 28.6604 28.9525 28.5715 28.6771C28.635 29.2058 28.6548 29.3194 28.6284 29.0141C28.6165 28.8701 28.6085 28.726 28.6059 28.5819C28.6059 28.4088 28.5266 27.8127 28.6336 27.7162L28.5609 28.1973C28.5913 28.0057 28.627 27.8167 28.6706 27.629C28.9502 26.6151 28.8155 25.5317 28.2962 24.6171C27.777 23.7024 26.9156 23.0316 25.9017 22.752C24.8878 22.4725 23.8044 22.6072 22.8898 23.1264C21.9752 23.6457 21.3043 24.507 21.0248 25.5209Z" fill="black"/>
<path d="M9.40217 19.6817C9.14602 16.8578 9.74465 14.0222 11.1203 11.5428C13.2205 7.76812 7.86638 3.14094 4.89658 6.73854C2.48502 9.4887 1.19236 13.0432 1.27387 16.7L9.0625 15.6426C8.63031 13.5465 10.8269 12.0384 12.3667 11.1186C16.7322 8.499 12.75 1.63952 8.35804 4.27494C3.46785 7.20641 0.203318 11.8746 1.41529 17.756C2.32064 22.1466 9.32551 21.1421 9.20391 16.6987C9.07383 15.1357 9.53774 13.5811 10.5031 12.3451L4.27672 7.54079C2.17878 11.228 1.20397 15.4479 1.47212 19.6817C1.81576 24.7463 9.74844 24.7847 9.40217 19.6817Z" fill="black"/>
<path d="M10.5463 29.6223C22.9556 23.8091 35.8683 19.1376 49.1246 15.6655L46.6134 13.7543C46.8606 22.9122 38.6054 33.8015 33.7773 41.2451C32.3843 43.3915 35.8153 45.3806 37.2004 43.2461C42.5453 35.0095 50.8546 23.9947 50.5784 13.757C50.5737 13.4531 50.5001 13.1542 50.3631 12.8829C50.2261 12.6115 50.0292 12.3749 49.7874 12.1907C49.5456 12.0066 49.2651 11.8797 48.9672 11.8197C48.6692 11.7598 48.3615 11.7682 48.0672 11.8445C34.4864 15.422 21.2592 20.2276 8.54922 26.2018C6.24157 27.2843 8.25184 30.7035 10.5502 29.625L10.5463 29.6223Z" fill="white"/>
<path d="M8.4097 30.2888C10.8995 33.0393 13.6387 35.5533 16.5922 37.7986C17.0469 38.0604 17.5865 38.1326 18.0941 37.9995C18.6017 37.8664 19.0365 37.5388 19.3043 37.0875C19.5572 36.6307 19.6245 36.0941 19.4921 35.589C19.3597 35.0839 19.0377 34.6493 18.5932 34.3754C15.9272 32.3112 13.4567 30.0062 11.213 27.4895C9.50404 25.5876 6.70606 28.3988 8.4097 30.2928V30.2888Z" fill="white"/>
<path d="M15.078 36.6914L19.458 48.0763C20.3647 50.4328 24.2002 49.4099 23.2816 47.019L18.9016 35.6354C17.9949 33.2788 14.1595 34.3005 15.078 36.6914Z" fill="white"/>
<path d="M24.5129 47.2446L26.658 39.5155C26.7274 39.2645 26.7467 39.0023 26.7148 38.7439C26.6829 38.4854 26.6004 38.2358 26.472 38.0093C26.3437 37.7827 26.1719 37.5837 25.9666 37.4235C25.7613 37.2633 25.5265 37.1451 25.2755 37.0757C25.0245 37.0063 24.7623 36.9869 24.5039 37.0188C24.2454 37.0507 23.9958 37.1332 23.7693 37.2616C23.5427 37.39 23.3437 37.5617 23.1835 37.767C23.0233 37.9723 22.9051 38.2072 22.8357 38.4582L20.688 46.1899C20.6185 46.441 20.5992 46.7033 20.6312 46.9618C20.6631 47.2203 20.7457 47.47 20.8741 47.6966C21.1335 48.1543 21.5641 48.4902 22.0711 48.6304C22.5781 48.7706 23.1201 48.7037 23.5778 48.4443C24.0355 48.1849 24.3713 47.7543 24.5116 47.2473L24.5129 47.2446Z" fill="white"/>
<path d="M24.0682 38.5912C27.409 40.5672 30.9288 42.2235 34.5808 43.5382L33.127 41.6258L33.1653 42.35C33.2975 44.889 37.2625 44.9048 37.1303 42.35L37.092 41.6258C37.0786 41.1956 36.9314 40.7802 36.6708 40.4376C36.4102 40.0951 36.0492 39.8423 35.6381 39.7146C32.3139 38.504 29.1117 36.9812 26.0745 35.1668C25.6204 34.9007 25.0792 34.8259 24.57 34.9589C24.0607 35.0919 23.6252 35.4217 23.3591 35.8758C23.0931 36.3299 23.0183 36.8711 23.1513 37.3804C23.2843 37.8896 23.6141 38.3252 24.0682 38.5912Z" fill="white"/>
<path d="M24.0735 49.1015C26.8213 47.0205 29.4618 44.8016 31.9851 42.4535C32.2827 42.1401 32.4706 41.7388 32.5207 41.3096C32.5708 40.8804 32.4803 40.4465 32.2628 40.0731C32.0454 39.6997 31.7127 39.4069 31.3147 39.2386C30.9166 39.0704 30.4748 39.0358 30.0554 39.14L26.4037 40.4432L28.332 43.7579L29.9788 41.9539C30.273 41.6397 30.4582 41.239 30.5066 40.8112C30.5551 40.3835 30.4643 39.9515 30.2478 39.5795C30.0313 39.2074 29.7005 38.9151 29.3047 38.746C28.9088 38.5768 28.469 38.5398 28.0505 38.6404C27.2663 38.7685 26.5168 39.0558 25.848 39.4848C25.1793 39.9137 24.6055 40.4751 24.1621 41.1344C22.621 43.1672 26.0627 45.1457 27.5852 43.1354C27.7807 42.9278 28.0157 42.7613 28.2766 42.646C28.5374 42.5307 28.8187 42.4688 29.1038 42.464L27.1755 39.1493L25.5287 40.9534C24.2903 42.3107 25.4772 44.9739 27.4583 44.2668L31.1101 42.9636L29.1805 39.6489C26.9146 41.7767 24.5422 43.7882 22.0725 45.6757C21.6314 45.9529 21.3123 46.3877 21.1802 46.8917C21.0482 47.3957 21.113 47.9311 21.3615 48.3891C21.629 48.8406 22.0638 49.1685 22.5715 49.3016C23.0792 49.4347 23.6189 49.3636 24.0735 49.1015Z" fill="white"/>
<path d="M24.9473 40.902C26.697 42.4304 28.5607 43.8231 30.5222 45.0679C31.9601 45.9667 33.8105 47.3729 35.5802 47.4139C36.288 47.3951 36.9753 47.1723 37.5596 46.7723C38.1439 46.3724 38.6002 45.8122 38.8738 45.1591C40.0925 42.8474 41.1395 40.4492 42.0062 37.9838C42.9393 35.6048 39.1077 34.5778 38.1826 36.9264C37.6076 38.3882 37.005 39.8341 36.3481 41.2668C36.1492 41.9391 35.846 42.576 35.4494 43.1542L35.7414 43.4489C35.3291 43.2436 34.9207 43.0286 34.5163 42.8039C32.1008 41.476 29.8333 39.8952 27.7519 38.0882C25.8276 36.4295 23.0111 39.2222 24.9473 40.8928V40.902Z" fill="white"/>
<path d="M38.938 44.4063C41.7576 38.7671 44.4855 33.0888 47.1218 27.3712C49.0964 23.0679 51.1067 18.9931 51.0802 14.169C51.0802 13.6432 50.8713 13.139 50.4996 12.7672C50.1278 12.3954 49.6235 12.1865 49.0977 12.1865C48.5719 12.1865 48.0677 12.3954 47.6959 12.7672C47.3241 13.139 47.1152 13.6432 47.1152 14.169C47.1443 19.5879 44.0674 24.6261 41.8285 29.404C39.7817 33.7664 37.6771 38.1014 35.5149 42.4092C34.3769 44.6851 37.7961 46.6954 38.938 44.4102V44.4063Z" fill="white"/>
<path d="M18.5838 35.3709C27.2013 27.3522 37.1474 20.8931 47.9778 16.2819C50.3158 15.2788 48.2976 11.8623 45.9754 12.8575C34.8449 17.6299 24.6277 24.299 15.7792 32.5676C13.9077 34.3096 16.7162 37.1089 18.5838 35.3709Z" fill="white"/>
<path d="M15.5825 32.5364C19.4587 29.6085 23.5749 27.0128 27.8873 24.7769C28.2558 24.5517 28.5414 24.2131 28.7012 23.8119C28.8611 23.4107 28.8865 22.9685 28.7738 22.5516C28.6611 22.1347 28.4163 21.7656 28.0761 21.4996C27.7359 21.2336 27.3186 21.085 26.8868 21.0762C21.805 21.4185 16.6425 24.9302 12.2691 27.3449C10.013 28.5912 11.9982 31.8729 14.2701 30.7693L19.1326 28.4154C21.1455 27.4374 19.7352 24.0936 17.6047 24.7914C16.5204 25.152 15.4555 25.5685 14.4142 26.0391C12.0894 27.0779 14.1036 30.4957 16.4165 29.4635C17.1429 29.1241 17.894 28.8405 18.6634 28.615L17.1355 24.991L12.2691 27.3581L14.2701 30.7825C16.1733 29.7318 18.0911 28.7141 20.0392 27.7506C22.1235 26.7197 24.5409 25.213 26.8868 25.0544L25.885 21.3603C21.5728 23.5961 17.4571 26.1918 13.5815 29.1199C11.5699 30.6385 13.5432 34.0828 15.5825 32.543V32.5364Z" fill="white"/>
<path d="M15.3081 33.5684C15.1836 35.6212 15.6417 37.6674 16.6298 39.471C17.8312 41.7245 21.2556 39.7235 20.0542 37.47C19.4222 36.2723 19.1509 34.9171 19.2731 33.5684C19.2731 33.0427 19.0643 32.5384 18.6925 32.1666C18.3207 31.7948 17.8164 31.5859 17.2906 31.5859C16.7648 31.5859 16.2606 31.7948 15.8888 32.1666C15.517 32.5384 15.3081 33.0427 15.3081 33.5684Z" fill="white"/>
<path d="M27.7133 37.6654C28.6464 35.6829 31.0043 34.3163 32.6511 32.9748L38.2894 28.3806L48.9394 19.7025C50.9219 18.0901 48.0988 15.3 46.1362 16.8993L34.2318 26.5977C31.0796 29.167 26.0533 31.9214 24.2902 35.6631C23.2078 37.9588 26.6256 39.9744 27.7133 37.6654Z" fill="white"/>
<path d="M30.4255 38.4756C31.401 37.1288 32.5701 35.9335 33.8948 34.9282L30.9872 32.6893C30.2613 34.6338 29.8513 36.6818 29.7725 38.7558C29.7781 39.1027 29.8735 39.4421 30.0495 39.7411C30.2254 40.04 30.476 40.2881 30.7766 40.4613C31.0771 40.6344 31.4175 40.7266 31.7644 40.7288C32.1113 40.731 32.4528 40.6432 32.7556 40.474C33.4149 40.1474 34.0002 39.6889 34.4751 39.1269C34.9501 38.5649 35.3045 37.9114 35.5165 37.2068C36.3307 34.7829 32.5031 33.7427 31.6929 36.1495C31.6148 36.3606 31.4898 36.5512 31.3272 36.7069C31.1647 36.8626 30.9688 36.9793 30.7546 37.0482L33.7376 38.7598C33.8242 37.0424 34.1866 35.3502 34.8108 33.748C35.3963 32.2043 33.2565 30.4835 31.9031 31.5091C30.0312 32.9089 28.3824 34.5844 27.0129 36.4786C26.7517 36.9337 26.6799 37.4732 26.8129 37.9809C26.9459 38.4885 27.2731 38.9234 27.724 39.192C28.1809 39.4456 28.7181 39.5131 29.2236 39.3803C29.7291 39.2476 30.1639 38.925 30.4373 38.4796L30.4255 38.4756Z" fill="white"/>
<path d="M37.8339 26.0357L33.8332 35.9179C32.8763 38.2824 36.7105 39.3106 37.6568 36.9752L41.6575 27.0931C42.6144 24.7286 38.7803 23.7003 37.8339 26.0357Z" fill="white"/>
<path d="M41.9645 23.2601L39.3872 29.2076C39.1388 29.6654 39.0741 30.2005 39.2061 30.7043C39.3382 31.2081 39.6572 31.6427 40.0983 31.9197C40.5533 32.1812 41.093 32.2532 41.6007 32.1202C42.1084 31.9872 42.5434 31.6597 42.8117 31.2086L45.389 25.2611C45.6377 24.8034 45.7027 24.2681 45.5705 23.7642C45.4384 23.2603 45.1192 22.8258 44.6779 22.549C44.2229 22.2875 43.6832 22.2154 43.1755 22.3485C42.6678 22.4815 42.2328 22.809 41.9645 23.2601Z" fill="white"/>
<path d="M14.3729 34.7262C16.5516 38.2177 18.0882 42.0707 18.9102 46.1032C19.0505 46.6102 19.3863 47.0408 19.844 47.3002C20.3017 47.5596 20.8437 47.6265 21.3507 47.4863C21.8578 47.3461 22.2883 47.0102 22.5477 46.5525C22.8071 46.0949 22.8741 45.5529 22.7338 45.0458C21.6051 40.7332 20.3707 36.4206 17.7974 32.7212C16.3436 30.6409 12.9072 32.6208 14.3729 34.7223V34.7262Z" fill="white"/>
<path d="M25.7534 44.0838C25.8974 42.2758 25.7084 39.6747 26.3878 37.9962C27.2614 35.8366 30.8709 33.747 32.556 32.469C35.8681 29.9578 39.2767 27.5854 42.7501 25.3015C44.8727 23.9045 42.8888 20.4695 40.7491 21.8771C35.9073 25.0614 31.2171 28.4537 26.6785 32.0539C25.0449 33.3545 23.4642 34.4528 22.732 36.4604C21.8941 38.7548 21.9787 41.6929 21.7883 44.0838C21.5848 46.628 25.5498 46.6148 25.7534 44.0838Z" fill="white"/>
<path d="M22.026 49.5959C22.5518 49.5959 23.056 49.387 23.4278 49.0152C23.7996 48.6434 24.0085 48.1392 24.0085 47.6134C24.0085 47.0876 23.7996 46.5833 23.4278 46.2115C23.056 45.8397 22.5518 45.6309 22.026 45.6309C21.5002 45.6309 20.9959 45.8397 20.6241 46.2115C20.2523 46.5833 20.0435 47.0876 20.0435 47.6134C20.0435 48.1392 20.2523 48.6434 20.6241 49.0152C20.9959 49.387 21.5002 49.5959 22.026 49.5959Z" fill="white"/>
<path d="M9.61532 30.1154C10.1411 30.1154 10.6454 29.9065 11.0172 29.5347C11.389 29.163 11.5978 28.6587 11.5978 28.1329C11.5978 27.6071 11.389 27.1028 11.0172 26.7311C10.6454 26.3593 10.1411 26.1504 9.61532 26.1504C9.08953 26.1504 8.58527 26.3593 8.21348 26.7311C7.84168 27.1028 7.63281 27.6071 7.63281 28.1329C7.63281 28.6587 7.84168 29.163 8.21348 29.5347C8.58527 29.9065 9.08953 30.1154 9.61532 30.1154Z" fill="white"/>
<path d="M9.35897 30.2043H9.44488C9.97068 30.2043 10.4749 29.9954 10.8467 29.6236C11.2185 29.2518 11.4274 28.7476 11.4274 28.2218C11.4274 27.696 11.2185 27.1917 10.8467 26.8199C10.4749 26.4481 9.97068 26.2393 9.44488 26.2393H9.35897C8.83318 26.2393 8.32892 26.4481 7.95713 26.8199C7.58534 27.1917 7.37646 27.696 7.37646 28.2218C7.37646 28.7476 7.58534 29.2518 7.95713 29.6236C8.32892 29.9954 8.83318 30.2043 9.35897 30.2043Z" fill="white"/>
<path d="M22.5484 49.4299C23.0742 49.4299 23.5785 49.221 23.9503 48.8492C24.3221 48.4774 24.5309 47.9731 24.5309 47.4474C24.5309 46.9216 24.3221 46.4173 23.9503 46.0455C23.5785 45.6737 23.0742 45.4648 22.5484 45.4648C22.0226 45.4648 21.5184 45.6737 21.1466 46.0455C20.7748 46.4173 20.5659 46.9216 20.5659 47.4474C20.5659 47.9731 20.7748 48.4774 21.1466 48.8492C21.5184 49.221 22.0226 49.4299 22.5484 49.4299Z" fill="white"/>
<path d="M22.7149 49.5959C23.2407 49.5959 23.745 49.387 24.1168 49.0152C24.4886 48.6434 24.6974 48.1392 24.6974 47.6134C24.6974 47.0876 24.4886 46.5833 24.1168 46.2115C23.745 45.8397 23.2407 45.6309 22.7149 45.6309C22.1891 45.6309 21.6849 45.8397 21.3131 46.2115C20.9413 46.5833 20.7324 47.0876 20.7324 47.6134C20.7324 48.1392 20.9413 48.6434 21.3131 49.0152C21.6849 49.387 22.1891 49.5959 22.7149 49.5959Z" fill="white"/>
<path d="M43.6756 18.2879L44.0404 18.3223C43.8527 18.3051 44.3946 18.2985 44.0999 18.3117L44.2809 18.4135L43.969 18.0989C43.8976 17.939 44.0457 17.1909 43.8831 17.6086L47.7768 18.1373C47.7365 17.5281 47.5657 16.9348 47.2759 16.3976C46.9861 15.8603 46.584 15.3918 46.0971 15.0237C45.6101 14.6555 45.0496 14.3965 44.4537 14.2642C43.8578 14.1319 43.2404 14.1294 42.6434 14.2568C42.2259 14.3739 41.8581 14.624 41.5957 14.9692C41.3333 15.3144 41.1907 15.7357 41.1895 16.1693C41.2069 16.5984 41.3557 17.0118 41.6157 17.3537C41.8757 17.6955 42.2344 17.9492 42.6434 18.0804C42.2997 17.9483 42.8125 18.1994 42.8416 18.2126C42.5601 18.0434 42.9738 18.3448 43.0227 18.3791C43.287 18.617 42.9936 18.2298 43.1787 18.5681C43.2183 18.6408 43.4337 19.1179 43.3108 18.773L46.9335 17.2451C46.5301 16.472 45.9133 15.8308 45.1564 15.3976C44.3995 14.9645 43.5342 14.7575 42.6632 14.8014C42.1825 14.7998 41.7176 14.973 41.3551 15.2886C40.9925 15.6043 40.757 16.0409 40.6923 16.5172C40.6277 16.9935 40.7383 17.4771 41.0036 17.878C41.2689 18.2789 41.6708 18.5697 42.1345 18.6963L44.3893 19.5752C44.8965 19.7129 45.4375 19.6446 45.8945 19.3851C46.3515 19.1257 46.6874 18.6962 46.8291 18.1901C46.9536 17.6836 46.8794 17.1487 46.6218 16.6953C46.3642 16.2418 45.9428 15.9041 45.444 15.7516L43.1892 14.8727L42.6606 18.7664C42.7927 18.7584 43.2077 18.7994 42.8667 18.732C42.9871 18.7568 43.1055 18.7904 43.2209 18.8325C43.0597 18.7637 43.0412 18.7624 43.1654 18.8325C43.2897 18.9025 43.2751 18.8906 43.1443 18.7849C43.216 18.8427 43.2831 18.9059 43.3452 18.9739C43.439 19.0756 43.4324 19.0598 43.324 18.9289C43.3925 19.0312 43.4521 19.1391 43.5025 19.2514C43.7448 19.6679 44.1305 19.9819 44.5875 20.1346C45.0445 20.2873 45.5415 20.2684 45.9856 20.0814C46.4296 19.8943 46.7904 19.5519 47.0004 19.1183C47.2103 18.6846 47.2552 18.1892 47.1265 17.7249C46.8435 16.9299 46.3889 16.2071 45.795 15.6077C45.2011 15.0083 44.4825 14.5471 43.6901 14.2568V18.0791C43.4549 18.1002 43.4536 18.1069 43.6901 18.1002C43.454 18.0606 43.4509 18.0676 43.6809 18.1214L43.5434 18.0527C43.6504 18.1041 43.753 18.1642 43.8501 18.2324C43.7064 18.1214 43.6853 18.1135 43.7866 18.2086C43.8818 18.3104 43.8712 18.2906 43.7562 18.1478C43.8664 18.3496 43.8774 18.3496 43.7893 18.1478C43.8465 18.3752 43.8558 18.3721 43.817 18.1386C43.8322 18.6095 44.0136 19.0598 44.3292 19.4096C44.6448 19.7594 45.0741 19.9862 45.541 20.0495C46.0079 20.1129 46.4821 20.0088 46.8795 19.7558C47.2769 19.5027 47.5719 19.1171 47.712 18.6672C47.8922 18.0987 47.9057 17.4904 47.7509 16.9144C47.596 16.3384 47.2794 15.8188 46.8384 15.4173C45.9446 14.6979 44.8281 14.3124 43.6809 14.3269C43.1557 14.329 42.6527 14.5385 42.2813 14.9098C41.91 15.2812 41.7005 15.7842 41.6984 16.3094C41.7114 16.8311 41.9245 17.3278 42.2935 17.6968C42.6625 18.0658 43.1592 18.2788 43.6809 18.2919L43.6756 18.2879Z" fill="white"/>
<path d="M42.1223 18.4894C42.2459 18.4746 42.3707 18.4711 42.495 18.4788C42.2765 18.4471 42.2835 18.4585 42.5161 18.5132C42.3311 18.4286 42.343 18.4418 42.5479 18.5515C42.3972 18.4255 42.4064 18.4418 42.5756 18.6004C42.4619 18.4537 42.4699 18.4828 42.5968 18.6889C42.5681 18.6611 42.5476 18.6259 42.5373 18.5873C42.5271 18.5487 42.5275 18.508 42.5386 18.4695C42.5294 18.7127 42.5386 18.7405 42.5769 18.5502C42.5504 18.6836 42.511 18.8142 42.4593 18.9401C42.3462 19.3615 42.374 19.8083 42.5384 20.2125C42.7028 20.6167 42.9948 20.9561 43.3699 21.179C43.7508 21.3917 44.19 21.4764 44.6226 21.4205C45.0553 21.3645 45.4585 21.171 45.7727 20.8684C46.3976 20.2329 46.7512 19.3796 46.7589 18.4884C46.7665 17.5972 46.4276 16.7379 45.8137 16.0919C45.1457 15.4683 44.2905 15.0827 43.3809 14.995C42.4714 14.9073 41.5583 15.1224 40.7834 15.6068C40.3722 15.852 40.0637 16.2378 39.9148 16.6928C39.7658 17.1479 39.7866 17.6414 39.9732 18.0823C40.166 18.5182 40.5061 18.8722 40.9339 19.0822C41.3617 19.2923 41.8499 19.3449 42.3126 19.2308C42.1077 19.2599 41.8487 19.1581 42.1302 19.2784C41.9597 19.1938 41.9372 19.1846 42.0628 19.252C42.1884 19.3194 42.1685 19.3048 42.0271 19.1938L42.1593 19.3141C42.0456 19.1357 42.0509 19.141 42.1738 19.3326C42.0165 18.9771 42.1923 19.6181 42.1527 19.17C42.1638 19.6923 42.3762 20.1902 42.7457 20.5596C43.1151 20.929 43.6129 21.1414 44.1352 21.1525C44.6592 21.1467 45.16 20.936 45.5306 20.5654C45.9011 20.1949 46.1119 19.694 46.1177 19.17C46.0912 18.6163 45.9511 18.0739 45.706 17.5766C45.4609 17.0793 45.116 16.6378 44.6929 16.2795C44.2211 15.8877 43.6678 15.6061 43.0733 15.4552C42.4788 15.3043 41.8582 15.2879 41.2566 15.4072L42.7844 19.0313C42.8783 18.9797 43.0356 18.8898 42.8466 18.9863C43.3501 18.722 42.7025 19.0299 42.9959 18.9361C43.1162 18.9361 43.1281 18.9361 43.021 18.9149C42.914 18.8938 42.9259 18.8912 43.0435 18.9149C43.1611 18.9387 43.1664 18.9467 43.0752 18.9149C43.0033 18.8921 42.9414 18.8455 42.8994 18.7828C42.791 18.6903 42.758 18.5541 42.8796 18.7577C42.791 18.6083 42.8148 18.5171 42.8426 18.7312C42.8294 18.6268 42.8875 18.2026 42.8241 18.3704C42.7197 18.6348 43.3633 17.6964 42.9695 18.0664L46.2829 19.9948C46.4957 19.3523 46.5488 18.6677 46.4375 18.0001C46.3262 17.3326 46.0538 16.7022 45.6441 16.1636C45.2343 15.625 44.6995 15.1943 44.0858 14.9089C43.4722 14.6235 42.7982 14.492 42.1223 14.5257C41.5965 14.5257 41.0922 14.7345 40.7204 15.1063C40.3486 15.4781 40.1398 15.9824 40.1398 16.5082C40.1398 17.034 40.3486 17.5382 40.7204 17.91C41.0922 18.2818 41.5965 18.4894 42.1223 18.4894Z" fill="white"/>
<path d="M37.3819 34.964L39.1728 31.2012C39.3981 30.7852 39.468 30.3027 39.37 29.8398C39.272 29.377 39.0125 28.9642 38.6379 28.6753C38.2632 28.3864 37.798 28.2403 37.3255 28.2631C36.853 28.2859 36.404 28.4761 36.0589 28.7997C34.2086 30.4452 31.256 33.0397 33.2834 35.5892C33.6566 35.9583 34.1602 36.1653 34.6851 36.1653C35.2099 36.1653 35.7136 35.9583 36.0867 35.5892C36.4471 35.2115 36.6482 34.7096 36.6482 34.1875C36.6482 33.6655 36.4471 33.1635 36.0867 32.7859L35.9677 32.6352L36.4779 33.5102C36.2638 34.3111 36.2638 34.5001 36.4779 34.0772C36.3867 34.1234 36.4449 34.0507 36.655 33.8591C36.8585 33.5948 37.0925 33.3489 37.3158 33.1044C37.8046 32.5785 38.3193 32.0774 38.8582 31.603L35.747 29.2002L33.9562 32.963C33.7048 33.4201 33.6384 33.9563 33.7707 34.4609C33.903 34.9655 34.2239 35.4001 34.6672 35.6751C35.1221 35.9362 35.6615 36.008 36.1689 35.875C36.6763 35.7419 37.111 35.4148 37.3793 34.964H37.3819Z" fill="white"/>
<path d="M33.1754 38.0071C32.7518 38.6601 32.5281 39.4227 32.5318 40.2011C32.5318 40.7269 32.7407 41.2311 33.1124 41.6029C33.4842 41.9747 33.9885 42.1836 34.5143 42.1836C35.0401 42.1836 35.5443 41.9747 35.9161 41.6029C36.2879 41.2311 36.4968 40.7269 36.4968 40.2011C36.5034 39.7477 36.3475 40.3848 36.5986 40.0094C36.73 39.7847 36.816 39.5362 36.8514 39.2782C36.8869 39.0203 36.8712 38.7578 36.8052 38.5059C36.7392 38.254 36.6243 38.0176 36.467 37.8101C36.3096 37.6026 36.1129 37.4282 35.8882 37.2967C35.6634 37.1652 35.4149 37.0793 35.157 37.0439C34.899 37.0084 34.6366 37.0241 34.3847 37.0901C34.1328 37.156 33.8963 37.271 33.6889 37.4283C33.4814 37.5857 33.3069 37.7823 33.1754 38.0071Z" fill="white"/>
<path d="M37.7877 31.0843L36.9114 32.8024C36.6581 33.2591 36.5906 33.7959 36.7231 34.3011C36.8555 34.8062 37.1777 35.2409 37.6225 35.5145C38.0776 35.7746 38.6166 35.8458 39.1237 35.7129C39.6308 35.5799 40.0656 35.2534 40.3345 34.8035L41.2108 33.0853C41.4641 32.6286 41.5316 32.0918 41.3992 31.5866C41.2667 31.0815 40.9446 30.6468 40.4998 30.3732C40.0446 30.1131 39.5056 30.0419 38.9985 30.1748C38.4914 30.3078 38.0567 30.6343 37.7877 31.0843Z" fill="white"/>
<path d="M27.806 24.5139L30.9159 23.3244C31.4159 23.1722 31.8383 22.8337 32.0959 22.3789C32.3534 21.9241 32.4264 21.3877 32.2997 20.8806C32.1564 20.3758 31.8204 19.9476 31.3642 19.6885C30.908 19.4293 30.3681 19.36 29.8612 19.4955L26.7526 20.685C26.253 20.8375 25.8309 21.1758 25.5732 21.6301C25.3155 22.0845 25.2419 22.6204 25.3675 23.1275C25.5104 23.6324 25.8464 24.0609 26.3027 24.3201C26.759 24.5793 27.2991 24.6497 27.806 24.5139Z" fill="white"/>
<path d="M12.9675 16.4172C16.3573 13.33 20.3326 10.9551 24.6577 9.43344C25.1647 9.29323 25.5953 8.95734 25.8547 8.49966C26.1141 8.04199 26.181 7.50001 26.0408 6.99297C25.9006 6.48593 25.5647 6.05536 25.107 5.79597C24.6493 5.53658 24.1074 5.46963 23.6003 5.60984C18.919 6.79935 15.3412 9.92114 11.9022 13.1526C11.6607 13.3995 11.4874 13.7048 11.3993 14.0388C11.3111 14.3727 11.3112 14.7237 11.3993 15.0577C11.4875 15.3916 11.6608 15.6969 11.9023 15.9437C12.1438 16.1906 12.4453 16.3706 12.7771 16.4661C15.3504 16.9947 17.8273 15.5515 20.0649 14.3937C22.1557 13.3112 25.1692 11.9922 26.2172 9.73346C26.6878 8.72106 26.4168 7.01742 25.0277 6.82578C22.7003 6.49536 20.6385 7.61217 18.5436 8.55453C15.9679 9.72557 13.4817 11.0844 11.1052 12.62C8.9628 13.9919 10.9493 17.4243 13.1062 16.0431C14.8266 14.9333 16.6036 13.9138 18.4299 12.9887C19.6472 12.3768 22.5998 10.4485 23.981 10.6454L22.7915 7.73773C22.1306 9.16911 19.7926 10.0573 18.4617 10.7683C17.3567 11.3578 15.1192 12.9121 13.8279 12.6491L14.7028 15.9625C17.6488 13.187 20.6345 10.4564 24.6524 9.43873L23.595 5.61513C18.6262 7.35067 14.0582 10.0702 10.1642 13.6112C8.24381 15.3003 11.0576 18.0957 12.9675 16.4145V16.4172Z" fill="white"/>
<path d="M16.1635 21.0235C20.4034 18.0074 25.1681 16.469 30.0992 14.9728C34.9683 13.4939 32.8932 5.83744 27.9912 7.32565C22.4679 9.00153 16.9076 10.8003 12.1602 14.1772C8.03653 17.11 11.9923 23.9906 16.1635 21.0235Z" fill="black"/>
<path d="M18.3203 9.69322C21.0667 9.49793 23.8145 10.054 26.2688 11.3017C30.7956 13.645 34.8108 6.80801 30.2722 4.45543C26.6011 2.50431 22.4734 1.57454 18.3203 1.76318C13.2424 2.02751 13.2107 9.95755 18.3203 9.69322Z" fill="black"/>
<path d="M17.1081 2.08726C14.6294 2.14724 12.2115 2.86669 10.1032 4.17154C9.20675 4.71295 8.55629 5.58208 8.2896 6.5948C8.02291 7.60753 8.16095 8.6843 8.67447 9.59701C9.21641 10.4911 10.0848 11.1394 11.0961 11.4048C12.1073 11.6702 13.1822 11.5319 14.0933 11.0191C14.4683 10.7835 14.8552 10.5673 15.2524 10.3715C14.6379 10.6768 15.2379 10.3874 15.5445 10.2935C15.8512 10.1997 16.1855 10.1257 16.5107 10.0503C16.9688 9.97104 16.9464 9.97104 16.4433 10.0503C16.664 10.0305 16.8847 10.0186 17.1041 10.016C18.1508 10.0003 19.1502 9.57751 19.8904 8.83729C20.6306 8.09708 21.0534 7.09766 21.0691 6.05096C21.0541 5.00405 20.6315 4.00424 19.8912 3.26388C19.1508 2.52353 18.151 2.10096 17.1041 2.08594L17.1081 2.08726Z" fill="black"/>
<path d="M4.78055 9.43703C3.88117 11.237 3.24639 13.1574 2.89584 15.1387C2.59054 17.038 3.369 19.6866 5.67136 20.0157C7.25537 20.3299 8.89347 20.233 10.4294 19.7342C11.431 19.4352 12.2783 18.7606 12.7943 17.8516C13.3103 16.9425 13.4551 15.8692 13.1983 14.8559C12.9083 13.8487 12.2356 12.995 11.3241 12.4775C10.4126 11.96 9.33482 11.8199 8.32131 12.087C8.01647 12.2345 7.68897 12.3297 7.35253 12.3685L7.72524 12.2985C7.26001 12.2782 7.27631 12.3015 7.77414 12.3685L10.5497 17.2468C10.669 16.478 10.8399 15.7181 11.0611 14.9722C11.1576 14.651 11.2713 14.3404 11.3783 14.0232C11.544 13.6012 11.5356 13.6082 11.3532 14.0444C11.4413 13.8408 11.5352 13.6391 11.6347 13.4391C12.141 12.5263 12.2756 11.4535 12.0104 10.444C11.7452 9.43452 11.1008 8.56629 10.2113 8.0202C9.30093 7.50406 8.22497 7.36388 7.21274 7.62953C6.20051 7.89518 5.33205 8.54565 4.79245 9.44232L4.78055 9.43703Z" fill="black"/>
<path d="M10.6816 12.9586C13.5748 11.2232 16.7514 10.0116 20.0655 9.37949C21.0749 9.09236 21.9312 8.42048 22.4503 7.50841C22.9693 6.59635 23.1096 5.51698 22.841 4.50252C22.5431 3.49928 21.8682 2.65043 20.9579 2.13416C20.0476 1.61788 18.9726 1.47432 17.9587 1.73361C13.9749 2.532 10.159 4.01293 6.67958 6.11099C2.30749 8.73187 6.28969 15.594 10.6816 12.9586Z" fill="black"/>
<path d="M11.6457 13.6995C12.025 13.2885 12.4162 12.8893 12.8352 12.51C13.0202 12.3422 13.2079 12.1809 13.3982 12.021C13.9084 11.5901 12.67 12.5074 13.6295 11.8452C14.5486 11.208 15.5215 10.6521 16.5372 10.1839C17.4409 9.65071 18.0975 8.78221 18.3641 7.76737C18.6307 6.75252 18.4857 5.67346 17.9606 4.765C17.4098 3.88078 16.5416 3.24081 15.534 2.97638C14.5264 2.71194 13.4558 2.84307 12.5418 3.34288C10.086 4.48725 7.87953 6.10402 6.04839 8.1009C5.32054 8.85257 4.91357 9.85786 4.91357 10.9042C4.91357 11.9505 5.32054 12.9558 6.04839 13.7074C6.79948 14.4369 7.80529 14.845 8.85232 14.845C9.89935 14.845 10.9052 14.4369 11.6562 13.7074L11.6457 13.6995Z" fill="black"/>
<path d="M10.8365 15.1177C11.9362 13.7535 13.139 12.4757 14.4341 11.2954L11.3202 8.89392C10.3501 10.1944 9.33773 11.458 8.29626 12.699L11.0995 15.5036C13.3549 12.5557 16.2988 10.2059 19.6732 8.65998C21.9875 7.59075 19.9759 4.16629 17.6722 5.23553C13.9913 6.93172 10.7747 9.4922 8.29626 12.699C6.77501 14.6683 9.42893 17.4888 11.0995 15.5036C12.3622 14.0057 13.5768 12.4695 14.7434 10.8949C16.143 9.01815 13.2142 7.04754 11.6295 8.49213C10.3345 9.67208 9.13217 10.9499 8.03324 12.3144C6.44724 14.2824 9.23332 17.1055 10.8365 15.1177Z" fill="black"/>
<path d="M16.3444 16.7424C18.1881 14.9475 20.9583 12.513 23.6241 12.1919C26.1261 11.8892 26.1565 7.92021 23.6241 8.22684C19.7437 8.69735 16.2783 11.2759 13.5398 13.9391C11.7079 15.7207 14.5125 18.524 16.3444 16.7424Z" fill="black"/>
<path d="M22.8827 33.8334C22.8932 33.5572 24.3193 32.6809 24.5387 32.5117C25.3648 31.8681 26.1935 31.2257 27.0314 30.5966C28.5897 29.4283 30.177 28.3062 31.8079 27.2435C33.9385 25.8558 31.9533 22.4221 29.8069 23.8191C27.4914 25.3284 25.2749 26.9686 23.0889 28.6577C21.261 30.0693 19.0115 31.2945 18.9177 33.8361C18.8238 36.3776 22.7888 36.3842 22.8827 33.8361V33.8334Z" fill="black"/>
<path d="M33.1527 25.9559C34.5225 25.2883 35.8574 24.5512 37.1521 23.7474C39.3156 22.4032 37.3265 18.9722 35.151 20.3229C33.8565 21.1269 32.5216 21.8641 31.1517 22.5314C30.7015 22.8002 30.3747 23.2349 30.2415 23.742C30.1083 24.2491 30.1793 24.7882 30.4393 25.2435C30.712 25.6897 31.1468 26.013 31.6526 26.1458C32.1584 26.2785 32.6959 26.2105 33.1527 25.9559Z" fill="black"/>
<path d="M38.967 22.4678L40.2424 21.6656C40.6968 21.4002 41.0273 20.9652 41.161 20.4562C41.2947 19.9472 41.2208 19.406 40.9554 18.9515C40.6901 18.4971 40.255 18.1666 39.7461 18.0329C39.2371 17.8992 38.6958 17.9731 38.2414 18.2385L36.9646 19.0421C36.7399 19.1735 36.5432 19.348 36.3858 19.5555C36.2285 19.763 36.1136 19.9994 36.0476 20.2513C35.9816 20.5032 35.9659 20.7656 36.0014 21.0236C36.0368 21.2816 36.1227 21.53 36.2542 21.7548C36.3857 21.9796 36.5602 22.1762 36.7676 22.3336C36.9751 22.4909 37.2116 22.6059 37.4635 22.6718C37.7154 22.7378 37.9778 22.7535 38.2358 22.718C38.4937 22.6826 38.7422 22.5967 38.967 22.4652V22.4678Z" fill="black"/>
<path d="M21.3655 27.112C24.856 24.9577 28.8329 23.8422 32.4675 21.9826C34.4315 20.9795 33.0372 17.4889 30.941 18.3599C27.4851 19.6367 24.1906 21.3139 21.1249 23.3572C19.0737 24.8348 21.0509 28.2764 23.126 26.7816C25.8928 24.9081 28.8691 23.3645 31.9944 22.1822L30.4705 18.5595C26.8306 20.4191 22.859 21.5319 19.3684 23.6889C17.2009 25.0264 19.19 28.4575 21.3694 27.112H21.3655Z" fill="white"/>
<path d="M22.2265 28.1304C28.2182 24.4132 34.5086 21.2006 41.0326 18.5258C43.364 17.5742 42.3437 13.7374 39.9753 14.7022C33.1258 17.486 26.5198 20.8348 20.2255 24.7138C18.0593 26.0527 20.0484 29.4838 22.2265 28.137V28.1304Z" fill="white"/>
<path d="M18.871 28.9083L30.548 24.2019C34.4218 22.6396 39.2314 19.8113 43.4277 19.5972C45.9666 19.465 45.9811 15.5 43.4277 15.6321C39.1653 15.8502 35.2095 18.0746 31.2894 19.654L17.8163 25.0847C15.4796 26.0258 16.4946 29.8626 18.8736 28.9083H18.871Z" fill="white"/>
<path d="M22.1747 27.7891C24.5544 26.2591 27.0523 24.9213 29.6447 23.7884L27.2433 20.6745C25.7857 21.7877 24.243 22.7846 22.6293 23.6562C20.7089 24.7136 22.02 28.0984 24.1572 27.2803C26.3332 26.4023 28.4323 25.3444 30.4325 24.1175L28.4301 20.6957C26.2972 21.9811 24.0871 23.134 21.8125 24.1479C19.4864 25.1841 21.5006 28.6019 23.8135 27.571C26.0887 26.5579 28.2992 25.4054 30.4325 24.1201C30.8866 23.8546 31.2166 23.4196 31.35 22.9107C31.4833 22.4019 31.409 21.8609 31.1435 21.4068C30.878 20.9526 30.443 20.6226 29.9341 20.4893C29.4252 20.3559 28.8842 20.4302 28.4301 20.6957C26.7341 21.7633 24.952 22.6877 23.1025 23.4593L24.6303 27.082C26.5294 26.0259 28.3415 24.8203 30.0492 23.4765C31.9762 21.9804 29.5205 19.5458 27.6464 20.3626C25.0544 21.497 22.5566 22.8352 20.1763 24.3647C18.0365 25.7392 20.0216 29.1729 22.1773 27.7891H22.1747Z" fill="white"/>
<path d="M15.4341 35.4748C16.5047 37.8284 17.3722 40.2692 18.0272 42.7704C18.1674 43.2775 18.5033 43.7081 18.961 43.9675C19.4187 44.2268 19.9606 44.2938 20.4677 44.1536C20.9747 44.0134 21.4053 43.6775 21.6647 43.2198C21.9241 42.7621 21.991 42.2202 21.8508 41.7131C21.0898 38.8856 20.0888 36.1283 18.8585 33.4712C17.8012 31.1543 14.3767 33.1672 15.4341 35.4722V35.4748Z" fill="white"/>
<path d="M17.7805 31.6766C25.9762 27.3127 34.3855 23.3626 42.9769 19.841C45.307 18.8868 44.2867 15.0499 41.9195 16.0174C33.0095 19.6571 24.2874 23.7409 15.7861 28.2535C13.5313 29.4509 15.5323 32.8793 17.7871 31.6766H17.7805Z" fill="white"/>
<path d="M39.0369 29.7039C41.1701 27.009 43.0772 24.17 44.9514 21.2927C46.3695 19.1173 43.0059 17.2762 41.5282 19.2917C39.0435 22.6823 36.4327 25.9715 33.696 29.1593C32.0452 31.089 34.8366 33.9055 36.4993 31.9639C39.4528 28.5144 42.2723 24.9573 44.958 21.2927L41.5282 19.2957C39.8418 21.8848 38.154 24.4793 36.2336 26.9032C34.6661 28.8857 37.4535 31.7075 39.0369 29.7078V29.7039Z" fill="white"/>
<path d="M36.0517 31.5057C38.8404 28.3126 41.7397 25.2225 44.7496 22.2355C45.1221 21.8636 45.3315 21.359 45.3319 20.8326C45.3322 20.3063 45.1235 19.8014 44.7516 19.4289C44.3797 19.0565 43.8751 18.8471 43.3487 18.8467C42.8224 18.8463 42.3175 19.055 41.945 19.4269C38.936 22.4139 36.0372 25.5044 33.2484 28.6985C31.5765 30.6136 34.3705 33.4288 36.0517 31.5018V31.5057Z" fill="white"/>
</g>
<defs>
<clipPath id="clip0_1_30643">
<rect width="56.676" height="53.9454" fill="white" transform="translate(0.32373 0.527344)"/>
</clipPath>
</defs>
</svg>
