<svg width="53" height="55" viewBox="0 0 53 55" fill="none" xmlns="http://www.w3.org/2000/svg">
<g clip-path="url(#clip0_1_30701)">
<path d="M8.90734 30.0627C8.28086 25.0299 7.43813 18.0731 9.44601 13.2054C11.8733 7.32465 21.0097 8.4164 26.4999 8.47406C32.1238 8.53435 41.7032 7.45178 43.7412 13.8712C45.2287 18.5541 44.8159 24.4087 44.9417 29.2659C45.0649 34.0195 46.2524 41.1126 41.2235 43.8925C36.8132 46.3328 29.61 45.5701 24.6834 45.5137C18.2875 45.439 12.5443 45.7404 10.2167 38.5582C8.56002 33.4468 8.6439 28.0103 8.93224 22.6996C9.20092 17.6432 1.33716 17.6576 1.06848 22.6996C0.642527 30.6944 0.860091 39.722 5.34113 46.6959C9.70158 53.4823 17.429 53.2949 24.6834 53.3735C31.9377 53.4522 41.5904 54.1258 47.5551 49.0721C53.3953 44.1257 52.985 36.2135 52.8055 29.2619C52.6233 22.2173 53.3297 12.3221 49.0545 6.23289C44.5079 -0.236363 33.4174 0.677144 26.4999 0.610302C19.6951 0.54477 9.06331 -0.345146 4.26772 5.67063C-0.527863 11.6864 0.161527 22.984 1.04358 30.0627C1.65957 35.0182 9.5312 35.0798 8.90734 30.0627Z" fill="black"/>
<path d="M0.812862 22.3667C-0.175351 30.566 -0.312967 43.9921 6.84175 49.7759C14.2809 55.7943 28.6073 54.6724 37.3217 52.8847C42.2746 51.8676 40.1789 44.2856 35.2312 45.3014C29.5379 46.4704 17.3949 47.6841 12.2835 44.0917C6.98592 40.3708 8.01607 27.8438 8.67663 22.3667C9.27951 17.3536 1.41051 17.3968 0.812862 22.3667Z" fill="black"/>
<path d="M24.7822 52.0411C29.7141 52.9834 34.4573 53.6544 39.4337 52.6479L36.4035 45.4604C34.876 45.8353 33.3046 46.0007 31.7325 45.9519C30.0286 46.1092 28.3366 46.2324 26.6354 46.3451C23.0063 46.581 20.9512 51.7606 24.6511 53.6715C27.1531 54.9651 29.967 54.4421 32.6237 53.8471C35.4376 53.2167 38.4704 51.3215 41.2882 51.0646L38.5084 49.9126L38.8885 50.2193L37.878 46.3936C38.4127 44.5128 37.8059 45.4172 36.2502 45.7632C35.2017 45.9951 34.1086 46.1708 33.0483 46.3123C30.8614 46.7207 28.6067 46.5674 26.4952 45.8667C21.7271 44.1445 19.6734 51.7396 24.3982 53.45C28.4389 54.91 32.6119 54.3465 36.7469 53.6348C39.9855 53.0791 44.4233 52.0922 45.4508 48.484C45.6436 47.8145 45.6514 47.1053 45.4735 46.4317C45.2956 45.7581 44.9385 45.1453 44.4403 44.6583C41.7339 42.484 39.4403 43.4211 36.4297 44.4499C35.009 44.9348 33.5935 45.4447 32.1479 45.851C31.2474 46.1196 30.3308 46.3306 29.4035 46.4827C28.3707 46.636 27.1597 46.1328 28.6105 46.8759L26.6263 54.2036C31.0509 53.9153 36.2712 54.0725 40.3642 52.2468C44.6448 50.3386 41.4442 44.2284 37.3341 45.0607C33.8334 45.7697 30.3209 45.1157 26.8635 44.4552C21.9185 43.5102 19.7992 51.0882 24.773 52.0371L24.7822 52.0411Z" fill="black"/>
<path d="M15.3419 16.529C14.703 19.1104 14.3947 21.7625 14.4245 24.4216C14.4822 29.1399 20.5504 29.3889 22.148 25.4701C23.9436 21.0625 27.5544 12.1699 22.7103 8.546C16.6971 4.0453 12.0195 12.0873 10.161 16.6955C8.71147 20.2984 5.38641 31.1438 12.9409 30.2788C15.9986 29.9289 16.9081 27.0245 17.9357 24.5723L22.7129 13.1699C24.5373 8.81861 17.8937 6.73864 15.5267 10.141C12.1388 15.01 8.28683 22.5789 9.4559 28.7519C10.7443 35.5384 17.6866 34.8293 21.9069 31.3195C25.802 28.0822 20.2135 22.5461 16.3459 25.7598C15.314 26.284 15.5848 26.6222 17.1585 26.7742L17.3079 25.6707C17.954 24.6942 18.0209 22.6182 18.4219 21.4531C19.3721 18.8373 20.6827 16.367 22.3158 14.1135L15.1335 11.0821C13.3432 15.3521 11.9304 20.3797 9.44018 24.2853L11.7901 22.478L13.085 22.4635L15.8373 25.2159C15.6355 23.9917 16.7102 21.6247 17.1126 20.457C17.4204 19.5756 17.7838 18.7145 18.2004 17.879C19.0156 16.2263 19.9278 16.1345 18.3315 14.5513C16.6617 12.8973 17.2371 13.6692 17.0025 15.1673C16.8714 16.0375 16.6696 16.8986 16.4586 17.7518C15.967 19.6734 15.3371 21.5569 14.5739 23.3875L22.2974 24.436C22.259 22.4826 22.4736 20.5323 22.9357 18.6339C24.131 13.7177 16.5503 11.6207 15.3524 16.5369L15.3419 16.529Z" fill="black"/>
<path d="M27.0736 13.1939C34.3882 17.2333 37.6097 26.1482 41.1353 33.2845C42.8181 36.6922 48.8142 35.1627 48.4617 31.3003C47.6596 22.4915 47.4132 13.7182 43.7906 5.52415C41.75 0.904188 34.9714 4.9016 37.0003 9.49273C39.9898 16.2543 39.9374 24.0486 40.5979 31.3003L47.9256 29.316C43.7211 20.8021 39.7552 11.2149 31.0435 6.40358C26.6096 3.95664 22.6384 10.7496 27.0736 13.1939Z" fill="black"/>
<path d="M22.0574 6.52034C16.8843 8.86374 12.301 12.9699 7.69943 16.2832L12.4636 22.4589L20.1609 12.7602C20.8006 12.0754 21.1761 11.1854 21.2203 10.2493C21.2645 9.31315 20.9746 8.39178 20.4022 7.64967C19.8299 6.90755 19.0124 6.39301 18.0958 6.19791C17.1791 6.00281 16.223 6.13985 15.3981 6.58456C11.0028 8.61656 7.13769 11.6387 4.10569 15.4143C3.52151 16.0369 3.1538 16.8315 3.05721 17.6798C2.96062 18.5282 3.1403 19.385 3.56954 20.1231C3.99879 20.8612 4.6547 21.4411 5.43982 21.7767C6.22494 22.1122 7.09737 22.1856 7.92748 21.9857L17.5147 20.0198C18.17 19.8887 25.7232 18.0643 25.5358 17.8743L24.524 14.0486C23.3142 17.5624 19.0416 20.9949 16.8004 23.8783C14.5719 26.6717 12.8095 29.8069 11.5815 33.1628C10.5225 36.0711 13.7113 38.7146 16.419 37.999C25.2946 35.6556 28.6668 24.548 36.8334 21.0919L32.0692 20.4772C31.9237 20.333 24.7559 34.632 24.0076 36.8168C22.6117 40.8968 27.8254 42.8798 30.579 40.6425C34.9946 37.0553 37.8242 31.7303 42.8885 28.9779L37.1125 24.5375C35.1951 29.8914 32.5397 35.2965 32.2999 41.0423C32.1374 44.9256 37.7941 46.4158 39.6263 43.0265C41.3519 39.8315 43.3187 36.7728 45.5097 33.8771L38.182 31.8915L38.0509 34.1759C35.9041 38.7277 42.6814 42.7238 44.8413 38.1445C45.8866 36.2374 46.3057 34.0498 46.0392 31.8915C45.515 27.9373 41.1702 26.649 38.7128 29.9072C36.5252 32.8046 34.561 35.8641 32.8373 39.0593L40.1689 41.0475C40.3707 36.2244 43.0982 31.1077 44.6997 26.6306C45.9147 23.2387 41.7403 20.6594 38.9238 22.1902C33.1571 25.3252 30.0115 31.0317 25.0312 35.0842L31.6026 38.9099C33.6197 33.012 43.646 20.8468 37.642 14.9254C37.0134 14.3346 36.2144 13.9571 35.3588 13.8467C34.5032 13.7364 33.6346 13.8987 32.8766 14.3107C29.579 15.7078 26.8883 18.8704 24.3837 21.3684C21.7362 24.0067 18.1242 29.4288 14.3404 30.4288L19.1766 35.265C21.8765 27.8547 29.5803 23.5244 32.119 16.1482C32.3054 15.4774 32.309 14.769 32.1295 14.0963C31.95 13.4237 31.5939 12.8112 31.0981 12.3225C28.4886 9.68813 26.0023 10.3185 22.617 10.9739C17.0127 12.0591 11.4295 13.2635 5.84096 14.4077L9.66406 20.9726C12.2534 17.7106 15.5765 15.106 19.3627 13.371L14.5999 7.19924L6.90388 16.8979C4.39796 20.0565 7.7073 25.9242 11.668 23.0736C16.2696 19.7603 20.8529 15.6528 26.0272 13.3107C30.6302 11.2268 26.6367 4.44693 22.0574 6.52034Z" fill="black"/>
<path d="M19.104 15.906L18.4185 15.6189C17.7485 15.4334 17.0412 15.4291 16.3689 15.6067C15.6967 15.7842 15.0838 16.1372 14.5928 16.6294C10.5495 20.0292 14.4145 24.9047 16.6072 28.1813C20.1448 33.4197 24.2011 38.2884 28.7148 42.7135L34.2718 37.1539C30.5007 33.5084 26.5075 30.0999 22.315 26.948C19.2075 24.6164 15.944 21.3451 11.83 22.1052C11.1714 22.2835 10.5712 22.6315 10.0893 23.1145C9.60746 23.5975 9.26087 24.1986 9.08422 24.8576C7.1956 31.2796 16.9952 39.6257 21.3176 43.129C24.0608 45.3571 29.3124 43.3911 27.8891 39.3033C26.3845 34.9782 23.6217 34.1132 19.9375 32.0503C16.661 30.2154 17.4146 26.0424 13.2651 24.8562C12.2589 24.5877 11.1874 24.7259 10.2822 25.2409C9.37703 25.7559 8.71083 26.6064 8.42759 27.6086C7.21133 34.2928 11.3568 40.0753 15.6072 44.8879C18.5823 48.2562 24.0699 43.9101 21.7816 40.1224C19.1459 35.758 16.1852 31.5719 15.1157 26.5103C14.159 21.9847 7.63466 23.3136 7.3922 27.5588C6.94396 35.3832 14.0515 45.804 21.7881 47.9914C24.5103 48.7621 27.644 48.3401 28.9533 45.5012C30.6231 41.88 27.4264 39.0792 24.7095 37.1761C20.8445 34.4736 17.2022 40.1644 19.9454 43.3518C22.4551 46.302 25.5467 48.7025 29.0267 50.403C29.5501 50.6917 30.1314 50.8598 30.7281 50.895C31.3248 50.9302 31.9218 50.8315 32.4754 50.6063C33.0291 50.381 33.5254 50.0348 33.9281 49.5931C34.3307 49.1513 34.6295 48.6251 34.8027 48.053C36.2142 44.3951 33.0412 40.2784 31.475 37.0949L25.2993 41.859C28.4907 44.3492 32.4553 49.1985 36.939 47.9914C37.7553 47.7397 38.4724 47.2386 38.9895 46.5586C39.5066 45.8786 39.7979 45.0537 39.8224 44.1998C39.9098 42.4577 39.6085 40.718 38.9403 39.1067C37.3911 34.3111 29.7947 36.3622 31.357 41.1971C31.808 42.1311 32.0149 43.1642 31.9586 44.1998L34.842 40.4082L34.1133 40.6047L37.1434 40.9979C34.9096 39.6223 32.8041 38.0484 30.8524 36.2954C27.3989 33.6008 22.6046 36.8485 24.6767 41.0595C24.9769 41.669 27.3793 45.5235 27.2115 45.9587L32.9874 43.6087C30.1123 42.2113 27.5609 40.2283 25.4972 37.7869L20.7331 43.9626L22.1669 45.4816V41.5169L21.8602 42.1723L24.2102 40.3701C22.4277 41.0451 19.3006 36.6584 18.4827 35.5864C16.5954 33.1132 15.0751 30.7842 15.2599 27.5496L7.53637 28.5981C8.74739 34.3268 12.0095 39.1447 14.9965 44.0897L21.1656 39.3216C19.3556 37.2718 15.4316 32.8734 16.0096 29.6938L11.1734 32.4461L11.9597 32.6702L9.6124 30.8497C10.9545 32.8838 10.4813 34.8812 12.6334 36.7934C14.2468 38.2273 19.6505 39.492 20.3097 41.3806L26.8812 37.5549C24.8593 35.9505 22.9718 34.1836 21.2377 32.2718C20.775 31.7475 16.6977 26.8419 16.6701 26.9349L13.9178 29.6872L14.6164 29.5562L11.5862 29.163C17.9427 32.1446 23.7043 37.8904 28.7082 42.7135C32.3531 46.226 37.8826 40.7201 34.2692 37.1539C31.3886 34.3473 28.7051 31.3454 26.2377 28.1695C24.8747 26.3884 20.6964 21.197 20.6466 19.9571L19.4958 22.7383L20.1512 22.1904L16.3267 23.2022L17.0122 23.4893C21.6715 25.446 23.7056 17.8392 19.1092 15.906H19.104Z" fill="black"/>
<path d="M38.2557 44.5776C43.3161 44.5776 43.3239 36.7139 38.2557 36.7139C33.1875 36.7139 33.1875 44.5776 38.2557 44.5776Z" fill="black"/>
<path d="M33.1278 16.0278C38.1881 16.0278 38.196 8.16406 33.1278 8.16406C28.0596 8.16406 28.0596 16.0278 33.1278 16.0278Z" fill="black"/>
<path d="M34.3251 17.396C39.3854 17.396 39.3933 9.53223 34.3251 9.53223C29.2569 9.53223 29.2569 17.396 34.3251 17.396Z" fill="black"/>
<path d="M29.8838 12.9504V13.1221C29.8838 14.1649 30.298 15.165 31.0354 15.9024C31.7728 16.6398 32.7729 17.054 33.8157 17.054C34.8585 17.054 35.8586 16.6398 36.5959 15.9024C37.3333 15.165 37.7476 14.1649 37.7476 13.1221V12.9504C37.7476 11.9076 37.3333 10.9075 36.5959 10.1702C35.8586 9.43281 34.8585 9.01855 33.8157 9.01855C32.7729 9.01855 31.7728 9.43281 31.0354 10.1702C30.298 10.9075 29.8838 11.9076 29.8838 12.9504Z" fill="black"/>
<path d="M29.1963 12.2678V12.6099C29.1963 13.6527 29.6105 14.6528 30.3479 15.3902C31.0853 16.1275 32.0854 16.5418 33.1282 16.5418C34.171 16.5418 35.1711 16.1275 35.9084 15.3902C36.6458 14.6528 37.0601 13.6527 37.0601 12.6099V12.2678C37.0601 11.225 36.6458 10.2249 35.9084 9.48756C35.1711 8.75019 34.171 8.33594 33.1282 8.33594C32.0854 8.33594 31.0853 8.75019 30.3479 9.48756C29.6105 10.2249 29.1963 11.225 29.1963 12.2678Z" fill="black"/>
<path d="M29.8504 13.4851L30.0221 13.9976C30.1594 14.4954 30.3933 14.9614 30.7107 15.3688C31.028 15.7762 31.4225 16.1171 31.8716 16.3721C32.3206 16.6271 32.8155 16.7911 33.328 16.8548C33.8405 16.9185 34.3605 16.8806 34.8583 16.7434C35.3562 16.6061 35.8221 16.3721 36.2295 16.0548C36.6369 15.7375 36.9779 15.343 37.2328 14.8939C37.4878 14.4448 37.6518 13.9499 37.7155 13.4375C37.7792 12.925 37.7414 12.405 37.6041 11.9071L37.4337 11.3947C37.1565 10.3891 36.4912 9.53479 35.5841 9.01973C34.677 8.50468 33.6024 8.37106 32.5968 8.64827C31.5912 8.92548 30.7369 9.59082 30.2219 10.4979C29.7068 11.405 29.5732 12.4795 29.8504 13.4851Z" fill="black"/>
<path d="M29.4116 14.442C30.2932 15.0737 31.1228 15.7749 31.8926 16.539C32.08 16.729 32.2609 16.9256 32.4378 17.1248C32.6147 17.3241 32.6121 17.3254 32.4378 17.1026L32.6606 17.4263C32.7917 17.6504 32.9306 17.8719 33.0538 18.0999C33.5702 19.0318 32.9227 17.5914 33.2334 18.6242C33.5114 19.6298 34.1776 20.4838 35.0853 20.9982C35.993 21.5126 37.0679 21.6454 38.0735 21.3673C39.0791 21.0893 39.9331 20.4231 40.4475 19.5154C40.9619 18.6077 41.0947 17.5328 40.8166 16.5272C39.6253 12.5468 36.5899 10.0212 33.3749 7.64245C32.4726 7.12356 31.4022 6.98075 30.3954 7.2449C29.3885 7.50906 28.5262 8.15895 27.9948 9.054C27.4941 9.95938 27.3614 11.0228 27.6242 12.0235C27.8871 13.0242 28.5253 13.8851 29.4063 14.4276L29.4116 14.442Z" fill="black"/>
<path d="M28.6192 13.3716C29.7039 13.9196 30.6595 14.692 31.4227 15.6377C32.0258 16.4549 32.528 17.3421 32.9181 18.2799C33.2158 19.2724 33.8844 20.1122 34.785 20.6247C35.6855 21.1372 36.7489 21.2832 37.7543 21.0322C38.7558 20.7484 39.6056 20.0823 40.1205 19.1776C40.6354 18.2729 40.7741 17.202 40.5066 16.196C39.1461 12.1258 36.3271 8.70313 32.5931 6.58781C31.6888 6.0827 30.624 5.94742 29.6222 6.21034C28.6203 6.47327 27.7592 7.11398 27.2195 7.99805C26.708 8.90089 26.5692 9.96775 26.8326 10.9714C27.096 11.9751 27.7408 12.8363 28.6297 13.3716H28.6192Z" fill="black"/>
<path d="M39.2607 34.3024C39.0284 35.7404 38.6777 37.1568 38.2122 38.5371C38.0719 38.9447 37.8426 39.3523 37.7259 39.756C37.4835 40.5987 37.4966 39.8713 37.8989 39.7848C37.4011 39.922 36.9352 40.156 36.5278 40.4734C36.1203 40.7907 35.7794 41.1851 35.5244 41.6342C35.0095 42.5412 34.876 43.6156 35.1532 44.621C35.4304 45.6264 36.0957 46.4806 37.0026 46.9955C37.9096 47.5104 38.984 47.644 39.9894 47.3668C44.6657 46.355 46.1664 40.4427 46.844 36.3929C47.0905 35.3886 46.9435 34.328 46.4329 33.4287C45.9223 32.5294 45.087 31.8596 44.0982 31.5567C43.093 31.2876 42.0223 31.4247 41.1174 31.9385C40.2125 32.4522 39.546 33.3014 39.262 34.3024H39.2607Z" fill="black"/>
<path d="M9.20689 33.7043C10.4336 37.0101 12.6688 39.8464 15.5962 41.8119C16.4975 42.3302 17.5666 42.4728 18.5722 42.2089C19.5779 41.945 20.4392 41.2957 20.9698 40.4016C21.4699 39.4963 21.6025 38.4331 21.3399 37.4326C21.0774 36.4322 20.4398 35.5711 19.5595 35.0281C19.3629 34.897 19.1663 34.7659 18.9763 34.6191C19.5373 35.0621 18.9173 34.5287 18.8164 34.4343C18.427 34.0686 18.0603 33.6795 17.7181 33.2692C18.1519 33.783 17.4324 32.8144 17.3105 32.6139C17.1572 32.3596 17.0169 32.0988 16.8845 31.8275C16.8151 31.6886 16.5202 30.9415 16.7849 31.6244C16.4881 30.631 15.8194 29.7904 14.9183 29.2777C14.0172 28.765 12.953 28.6197 11.9474 28.872C10.0889 29.4736 8.40872 31.6558 9.19509 33.7096L9.20689 33.7043Z" fill="black"/>
<path d="M35.9483 16.1579L34.099 14.5851L41.4254 12.6009L40.2105 10.0949C38.8409 5.1945 31.5603 7.25743 32.6272 12.1919C35.3376 24.7268 21.2549 25.9824 13.8918 30.6534C7.9887 34.3887 10.7345 40.5211 12.5143 45.744L19.7005 42.7138C18.2284 39.5281 16.272 36.5894 13.9009 34.0021C11.3125 31.1187 6.09091 34.1397 7.32946 37.8278C8.10238 40.1966 9.34218 42.3866 10.9756 44.2682C14.0648 47.9603 18.8289 43.2499 17.1513 39.5028C15.8567 36.6146 14.0439 33.988 11.8026 31.753C8.52606 28.4057 3.78028 32.6351 5.62695 36.5172C6.61104 38.565 7.89176 40.4565 9.42777 42.1306C12.7869 45.9314 18.3309 40.3495 14.9875 36.5696C13.8598 35.4233 12.9847 34.0536 12.4186 32.5486L6.23508 37.3167C8.00758 39.0728 9.4085 41.1677 10.3544 43.4766L16.5301 38.7112L14.9062 35.7413L8.33471 39.5644C10.2244 41.6823 11.7677 44.0855 12.9075 46.685C14.7502 50.7204 21.5209 47.8646 20.0937 43.6562C19.61 42.2276 17.7044 39.0506 18.3335 37.7911C19.0478 36.3599 21.8001 36.0231 23.3466 35.3979C26.8351 34.1007 30.0975 32.2621 33.0138 29.9496C39.0217 24.9247 41.8723 17.7923 40.2105 10.0949L32.6272 12.1919C32.9734 13.7799 33.6583 15.2744 34.6351 16.5734C36.6443 19.4895 42.3062 18.8014 41.9628 14.5878C41.2118 5.38848 31.1934 6.74498 28.365 14.0766C26.538 18.7923 34.1396 20.8421 35.9483 16.1579Z" fill="black"/>
<path d="M11.4373 33.9762C10.9742 30.9221 10.8254 27.8286 10.993 24.7442C11.2866 22.2356 12.3036 18.7035 14.6759 17.2277C15.8554 16.4925 18.3456 16.7834 19.7401 16.7192C23.0298 16.5672 26.347 16.6445 29.6393 16.6117C31.2422 16.596 32.8529 16.5305 34.4545 16.5711C38.2344 16.6694 40.3694 16.0468 42.1794 19.8791C43.6997 23.2308 44.2675 26.9365 43.8203 30.5896C43.0824 35.0981 39.216 34.6197 35.2868 34.9684C32.617 35.2056 10.7269 37.2593 11.7715 31.8517C12.2473 29.3799 8.45955 28.3209 7.97986 30.8032C5.78456 42.1821 24.288 39.5844 30.5226 39.241C34.6642 39.0103 42.2711 39.5752 45.7679 36.7508C49.4979 33.7298 47.6735 26.6459 47.3957 22.6078C47.1178 18.5698 46.84 15.1163 42.659 13.5907C36.5673 11.3627 28.5593 12.6825 22.2133 12.7611C17.803 12.8148 12.3836 12.4911 9.2066 16.1845C5.43724 20.5633 7.00999 28.8019 7.50541 33.9762C7.74394 36.4743 11.6771 36.4979 11.4373 33.9762Z" fill="white"/>
<path d="M11.3107 21.4973C11 24.3978 10.3487 27.9863 11.3906 30.7844C11.5112 31.1956 11.7602 31.5574 12.1012 31.8168C12.4422 32.0762 12.8574 32.2197 13.2858 32.2261C18.1888 31.6888 19.3147 22.0032 20.101 18.3151C20.1699 18.0662 20.189 17.8061 20.1574 17.5497C20.1257 17.2934 20.0438 17.0458 19.9165 16.821C19.7891 16.5963 19.6187 16.3989 19.4151 16.24C19.2114 16.0811 18.9784 15.9639 18.7295 15.8951C18.4805 15.8262 18.2204 15.8071 17.9641 15.8388C17.7077 15.8704 17.4601 15.9523 17.2354 16.0796C17.0106 16.207 16.8132 16.3774 16.6543 16.581C16.4955 16.7847 16.3782 17.0177 16.3094 17.2666C14.9175 21.0675 10.7812 31.3008 14.3985 34.7871C14.6433 35.0341 14.9496 35.2113 15.2858 35.3003C15.622 35.3892 15.9758 35.3867 16.3107 35.293C21.0159 33.5787 22.6306 23.1212 23.4195 19.0229C23.5586 18.5202 23.4923 17.983 23.2352 17.5292C22.9781 17.0755 22.5513 16.7425 22.0486 16.6035C21.546 16.4644 21.0087 16.5307 20.555 16.7878C20.1013 17.0449 19.7683 17.4717 19.6292 17.9744C18.5807 20.9652 15.2845 32.1069 20.5047 33.4267C26.5467 34.9535 28.6883 20.593 29.3383 17.4213C29.4072 17.1723 29.4263 16.9122 29.3947 16.6559C29.363 16.3995 29.2811 16.1519 29.1538 15.9272C29.0264 15.7025 28.856 15.505 28.6524 15.3461C28.4487 15.1873 28.2157 15.0701 27.9668 15.0012C27.7178 14.9324 27.4577 14.9132 27.2014 14.9449C26.945 14.9766 26.6974 15.0584 26.4727 15.1858C26.2479 15.3131 26.0505 15.4835 25.8916 15.6872C25.7328 15.8909 25.6155 16.1238 25.5467 16.3728C23.9058 20.7581 21.6712 30.4109 27.413 32.7556C27.7478 32.8537 28.103 32.8585 28.4403 32.7693C28.7775 32.6801 29.084 32.5005 29.3265 32.2497C32.898 28.2969 32.8652 22.1579 32.1523 17.188L28.3606 18.2365C29.3397 22.4816 31.7682 31.1173 36.7486 32.2235C37.0838 32.3159 37.4375 32.3178 37.7737 32.2289C38.1098 32.1401 38.4164 31.9636 38.6621 31.7176C42.1104 27.5524 37.3515 19.9089 35.666 15.6952L32.0723 17.2103C35.2151 22.1603 38.7578 26.8448 42.6648 31.2169C44.1589 32.8906 46.9034 30.7294 45.7526 28.8355C43.7789 25.5889 41.9871 22.2351 40.3856 18.7896L37.2978 21.171C39.0995 23.4117 40.3558 26.0405 40.9675 28.85C41.5573 31.31 45.349 30.2681 44.7592 27.8015C43.9538 24.3411 42.3501 21.1172 40.0763 18.3872C38.5874 16.5235 36.1182 18.8984 36.9885 20.7699C38.5904 24.2152 40.3822 27.569 42.3555 30.8159L45.4446 28.4437C41.7637 24.3197 38.4266 19.9012 35.4668 15.2325C34.3371 13.4514 31.0107 14.5772 31.8744 16.7476C33.0388 20.2046 34.3952 23.5939 35.9373 26.8997C34.3762 23.7922 33.1099 20.5451 32.1549 17.2011C31.5716 14.6742 28.0172 15.8145 28.3632 18.2496C28.796 20.6272 28.7568 23.0667 28.2479 25.4292C27.7499 27.8172 27.5825 28.1016 27.7459 26.2824C26.9753 23.6415 28.4012 19.9233 29.337 17.4292L25.5454 16.3807C24.974 19.167 24.3147 25.6573 22.1548 27.6992C21.3278 28.4856 21.8638 26.7608 21.852 26.1422C21.9547 23.6956 22.4871 21.2862 23.4248 19.0242L19.6345 17.9757C19.2533 20.0806 18.7527 22.1622 18.1351 24.2103C17.5348 26.1265 14.1456 31.4581 16.118 31.8814C18.1168 32.3113 17.6187 27.2248 18.0053 25.3624C18.5306 22.9651 19.2302 20.6096 20.101 18.3151L16.3107 17.2666C15.8848 19.2732 15.426 21.2444 14.8127 23.2038C14.392 24.5511 12.0708 28.424 13.2884 28.2903L15.1836 29.732C14.295 27.3427 14.9817 23.943 15.2452 21.4908C15.5152 18.9783 11.582 19.0006 11.3133 21.4908L11.3107 21.4973Z" fill="white"/>
<path d="M18.5729 19.2508C17.5795 20.4566 16.8319 21.8454 16.3724 23.3386C15.6175 25.8288 19.2322 26.6571 20.164 24.3871C21.0936 22.585 21.7899 20.6718 22.2361 18.6938C22.291 18.285 22.24 17.8689 22.0878 17.4855C21.9357 17.1021 21.6876 16.7642 21.3674 16.5042C21.0472 16.2443 20.6655 16.0709 20.259 16.0008C19.8526 15.9307 19.4349 15.9663 19.0461 16.104C17.5336 16.5837 16.4314 18.3124 15.6018 19.564C14.5715 21.1482 13.781 22.8759 13.2557 24.6912C12.6502 26.7148 15.126 27.779 16.5415 26.6047C17.2692 25.9805 17.8046 25.1624 18.0854 24.2456C18.9268 21.8537 15.1286 20.8249 14.2951 23.1971C14.1835 23.4547 13.9972 23.6729 13.7603 23.8236L17.0461 25.7358C17.3916 24.5495 17.8801 23.4096 18.5009 22.3413C18.8126 21.7997 19.1589 21.2787 19.5376 20.7816C19.725 20.547 19.919 20.3163 20.1195 20.0922C20.8377 19.4989 20.4266 19.3159 18.8862 19.5431L18.3108 18.1525C18.1702 18.983 17.8911 19.784 17.4851 20.5221C17.1286 21.4671 16.7551 22.4055 16.3724 23.3413L20.164 24.3898C20.4055 23.5345 20.809 22.7336 21.3528 22.0306C21.7067 21.6543 21.9037 21.1573 21.9037 20.6407C21.9037 20.1242 21.7067 19.6271 21.3528 19.2508C20.9828 18.8848 20.4833 18.6795 19.9629 18.6795C19.4424 18.6795 18.943 18.8848 18.5729 19.2508Z" fill="white"/>
<path d="M17.2163 15.6521C14.595 16.0649 13.2844 19.6508 12.4076 21.7767C12.2924 22.1947 12.3186 22.639 12.4822 23.0405C12.6457 23.4421 12.9374 23.7783 13.3119 23.9969C13.6897 24.207 14.1249 24.2905 14.5537 24.2354C14.9825 24.1802 15.3823 23.9891 15.6946 23.6902C16.1751 23.2504 16.5721 22.7273 16.8663 22.1463C17.1172 21.6933 17.1839 21.1611 17.0526 20.6603C16.9213 20.1594 16.602 19.7284 16.1612 19.4568C15.7098 19.1989 15.1753 19.1283 14.6725 19.2601C14.1696 19.392 13.7385 19.7158 13.4718 20.162C13.3397 20.4471 13.1495 20.7015 12.9135 20.909L16.1992 22.8225C16.5184 22.0649 16.8875 21.3294 17.3041 20.6207C17.498 20.2865 17.7156 19.9654 17.9135 19.6364C17.9902 19.547 18.0725 19.4625 18.1599 19.3834C17.9056 19.5145 17.9397 19.5302 18.2608 19.4437C18.7616 19.302 19.1864 18.9689 19.4434 18.5163C19.7005 18.0638 19.7691 17.5283 19.6344 17.0256C19.4851 16.5298 19.1506 16.1104 18.7003 15.8547C18.2501 15.5989 17.7186 15.5263 17.2163 15.6521Z" fill="white"/>
<path d="M12.1121 26.8268C9.84996 31.3669 16.4726 36.9305 20.8317 35.5923C21.1594 35.4957 21.4566 35.3163 21.6947 35.0713C21.9328 34.8263 22.1037 34.5241 22.1909 34.1938C22.2781 33.8635 22.2787 33.5163 22.1926 33.1857C22.1065 32.8552 21.9366 32.5524 21.6993 32.3066C19.4189 30.0575 15.0925 27.0641 11.639 27.9972C8.41745 28.8622 9.20514 32.342 11.2458 33.9685C13.909 36.0956 19.4582 37.6382 22.3258 35.0458C25.4307 32.2371 22.9602 28.2305 20.7085 25.9317C20.3663 25.6123 19.9217 25.4249 19.4541 25.403C18.9865 25.3811 18.5264 25.5261 18.1558 25.8121C17.7852 26.0981 17.5284 26.5065 17.4311 26.9644C17.3338 27.4222 17.4024 27.8998 17.6246 28.3118C18.8684 30.7509 24.1699 38.7771 27.609 35.4848C29.0507 34.11 28.3822 32.1978 27.7151 30.5857C26.3538 27.4466 24.8224 24.3839 23.1279 21.4113L19.7334 23.3956C22.1672 26.8439 24.9654 30.9724 29.3586 31.84C31.8305 32.3289 32.8882 28.5398 30.4071 28.0483C27.1882 27.4127 24.9025 23.9277 23.1305 21.4113C22.8674 20.9612 22.4362 20.634 21.9319 20.5018C21.4275 20.3695 20.8913 20.4431 20.4411 20.7062C19.991 20.9693 19.6638 21.4005 19.5316 21.9049C19.4661 22.1546 19.4505 22.4148 19.4855 22.6706C19.5206 22.9264 19.6057 23.1727 19.736 23.3956C20.331 24.4834 24.9117 32.6447 24.6011 32.8937L26.5146 32.3878C24.01 31.5805 22.1253 28.4966 21.0217 26.3327L17.926 28.7128C18.2592 28.9834 18.4931 29.3568 18.5911 29.7745C18.6892 30.1923 18.6459 30.6308 18.468 31.0213C18.29 31.4118 17.9875 31.7322 17.6079 31.9323C17.2283 32.1324 16.793 32.2009 16.3703 32.127C16.1606 32.1034 12.9548 30.5071 13.487 31.9815C14.2964 32.3301 15.1283 32.6239 15.9771 32.861C17.0674 33.448 18.0607 34.1995 18.9221 35.089L19.7898 31.8033C18.9444 32.0654 14.9863 29.8662 15.5106 28.8138C16.6351 26.5555 13.2445 24.5621 12.116 26.8295L12.1121 26.8268Z" fill="white"/>
<path d="M33.6939 18.7337L33.669 18.6026L33.4698 20.1164L33.5537 19.9984L32.3741 20.9014L32.5144 20.8529H31.4659L31.6703 20.9303L30.8027 20.4244C32.5956 22.0679 34.1959 23.9893 35.8683 25.7573C37.6101 27.5987 40.3873 24.815 38.6481 22.9762C37.1121 21.3523 35.5983 19.6996 34.0399 18.1032C33.7372 17.687 33.3174 17.3703 32.834 17.1936C32.3505 17.0169 31.8254 16.9882 31.3256 17.1111C30.7889 17.284 30.3399 17.6581 30.0731 18.1549C29.8062 18.6517 29.7422 19.2326 29.8944 19.7756C30.3925 22.254 34.1828 21.2055 33.6861 18.7271L33.6939 18.7337Z" fill="white"/>
<path d="M26.897 18.5247C25.1641 20.5394 23.7441 22.8033 22.6846 25.2404C21.703 27.5261 25.0346 29.5458 26.0791 27.2246C27.281 24.5536 28.5025 21.8904 29.6834 19.2102C30.4907 17.3753 30.6008 15.2573 28.2574 14.623L29.6296 15.9926L29.4199 15.3189C29.3354 15.0319 29.1874 14.7677 28.9869 14.5456C28.7865 14.3236 28.5386 14.1495 28.2617 14.0362C27.9848 13.9229 27.686 13.8734 27.3874 13.8913C27.0888 13.9091 26.798 13.9939 26.5366 14.1393C24.8865 15.0175 24.3373 17.2285 23.6781 18.8681C22.8094 21.0511 22.0689 23.2829 21.4605 25.5523C20.8969 27.6244 24.1591 29.1722 25.0529 27.0674C25.9101 25.0516 26.8236 23.0625 27.7934 21.1001C28.9114 18.8393 25.5208 16.8445 24.3989 19.1158C23.4282 21.0791 22.5147 23.0682 21.6584 25.0831L25.2469 26.6087C25.6912 24.9691 26.1879 23.3491 26.7659 21.7593C27.0464 20.9861 27.8301 17.9153 28.5169 17.5496L25.6335 16.37C26.0005 17.543 26.3754 18.1879 27.6152 18.5234L26.4356 17.6204C26.163 17.1302 25.492 18.9992 25.5051 18.969L24.5693 21.0581L22.6899 25.2404L26.0844 27.2246C26.9812 25.083 28.1934 23.0875 29.6808 21.3045C31.3046 19.3845 28.5366 16.5863 26.8996 18.5247H26.897Z" fill="white"/>
<path d="M21.9061 18.4831C22.4475 17.7551 23.1795 17.1909 24.0214 16.8527L21.6387 13.7649L19.18 16.4503C18.8213 16.8242 18.6211 17.3222 18.6211 17.8403C18.6211 18.3583 18.8213 18.8563 19.18 19.2302C19.5511 19.594 20.0501 19.7978 20.5699 19.7978C21.0896 19.7978 21.5886 19.594 21.9598 19.2302L24.4198 16.5447C24.7511 16.2044 24.9489 15.7563 24.9771 15.2823C25.0052 14.8082 24.8619 14.3398 24.5732 13.9628C24.278 13.5929 23.8616 13.3394 23.3975 13.2468C22.9335 13.1542 22.4516 13.2286 22.0371 13.4569C20.9074 13.9714 19.9114 14.7391 19.1262 15.7007C18.7711 16.0766 18.5732 16.5741 18.5732 17.0912C18.5732 17.6084 18.7711 18.1059 19.1262 18.4818C19.4969 18.8466 19.9961 19.051 20.5161 19.051C21.0362 19.051 21.5354 18.8479 21.9061 18.4831Z" fill="white"/>
<path d="M20.7061 17.8547C20.9845 18.5939 21.1814 19.3612 21.2933 20.1431C21.435 20.6438 21.7682 21.0686 22.2207 21.3257C22.6732 21.5827 23.2087 21.6513 23.7114 21.5166C24.209 21.3692 24.6305 21.0355 24.8881 20.585C25.1457 20.1346 25.2195 19.6021 25.0941 19.0985C24.9013 17.9855 24.5697 16.901 24.1072 15.8704C23.8421 15.4224 23.411 15.097 22.9075 14.965C22.4039 14.833 21.8686 14.905 21.4178 15.1653C20.9777 15.4375 20.6591 15.8685 20.5279 16.3691C20.3966 16.8697 20.4628 17.4015 20.7127 17.8547H20.7061Z" fill="white"/>
<path d="M23.3155 26.8703C25.9927 29.4952 28.8829 31.8936 31.9565 34.0408C34.043 35.5047 35.9591 32.1142 33.9408 30.6449C32.0797 29.2924 29.1517 26.3002 26.8516 28.5663C24.7769 30.6096 27.191 33.5467 28.6406 35.1666L29.0338 32.0788C28.0609 31.5253 27.0541 31.0337 26.0193 30.6069C24.7968 30.1872 23.5333 29.8977 22.25 29.7432C20.5462 29.586 18.5291 30.1194 18.1032 32.0722C17.1228 36.5716 25.0822 36.8665 27.7848 36.9962C30.3575 37.1208 30.2422 33.3396 27.7848 33.0644L26.6956 32.7511L26.1714 36.6135C32.1452 36.9386 37.2252 31.2111 32.8752 25.911C31.6695 24.4431 29.6825 25.8061 29.52 27.3015C29.4627 27.8305 29.5991 28.3623 29.904 28.7983C31.2474 30.9359 34.6511 28.9647 33.2999 26.814L33.4519 27.3015L30.0954 28.6921C32.4021 31.5021 28.0849 32.7852 26.1714 32.6817C23.8227 32.5506 23.6904 35.8154 25.6471 36.5428C26.333 36.7951 27.0516 36.9478 27.7808 36.9962V33.0644C27.3876 33.046 22.0141 32.7039 21.8909 32.0722L21.693 33.5873C21.921 33.1548 26.8765 35.1037 27.617 35.4078C28.1398 35.6823 28.7193 35.8313 29.3096 35.8429C29.9 35.8545 30.4849 35.7284 31.0181 35.4746C31.2741 35.3197 31.4919 35.1089 31.6551 34.858C31.8183 34.6071 31.9227 34.3225 31.9605 34.0257C31.9983 33.7288 31.9685 33.4271 31.8734 33.1434C31.7783 32.8596 31.6203 32.6009 31.4113 32.3868C31.0495 31.9818 29.9512 30.8376 29.9945 30.1482L29.4191 31.5375L29.8267 31.1561L28.4375 31.7315C29.3549 31.6384 31.216 33.5087 31.9473 34.0408L33.9316 30.6449C31.1397 28.6814 28.5155 26.4895 26.0862 24.0918C24.2801 22.3159 21.499 25.0944 23.3063 26.8716L23.3155 26.8703Z" fill="white"/>
<path d="M33.3248 18.4218C35.9746 20.1412 38.1146 22.54 39.5215 25.3681C40.6683 27.625 44.0615 25.6303 42.9173 23.3839C41.1687 19.9712 38.5426 17.0859 35.3091 15.0247C33.1767 13.6485 31.2029 17.0522 33.3248 18.4218Z" fill="white"/>
<path d="M35.9855 18.9607C37.2686 19.8568 38.1777 21.1931 38.5399 22.7157C39.1677 25.1652 42.962 24.1272 42.3315 21.6672C41.6771 19.1654 40.1244 16.9922 37.9698 15.5623C35.8728 14.1324 33.9068 17.5387 35.9855 18.9581V18.9607Z" fill="white"/>
<path d="M42.0299 20.1252C41.7008 22.4291 41.2373 24.7117 40.642 26.9615C40.5731 27.2104 40.554 27.4705 40.5856 27.7269C40.6173 27.9832 40.6992 28.2308 40.8265 28.4556C40.9539 28.6803 41.1243 28.8777 41.3279 29.0366C41.5316 29.1955 41.7646 29.3127 42.0135 29.3815C42.2625 29.4504 42.5226 29.4695 42.7789 29.4378C43.0353 29.4062 43.2829 29.3243 43.5076 29.197C43.7323 29.0696 43.9298 28.8992 44.0887 28.6956C44.2475 28.4919 44.3647 28.2589 44.4336 28.01C45.0289 25.7602 45.4923 23.4775 45.8216 21.1737C45.9421 20.6715 45.8673 20.1421 45.6123 19.693C45.3572 19.2438 44.9411 18.9082 44.448 18.7543C43.9453 18.6192 43.4096 18.6877 42.957 18.9448C42.5044 19.2019 42.1713 19.6269 42.0299 20.1278V20.1252Z" fill="white"/>
<path d="M33.4437 25.2745C32.7006 26.8473 31.9352 28.399 31.2157 29.9757C30.9178 30.426 30.7514 30.9505 30.7352 31.4902C30.719 32.0299 30.8536 32.5634 31.1239 33.0308C31.347 33.4008 31.6837 33.6887 32.0839 33.8514C32.4841 34.0142 32.9262 34.0431 33.3441 33.9338C34.6399 33.3898 35.8452 32.6513 36.9182 31.7438L40.9536 28.9482L38.5709 25.8604L32.7229 32.3676C32.3648 32.7384 32.1666 33.235 32.1711 33.7505C32.1756 34.2659 32.3823 34.759 32.7468 35.1235C33.1113 35.488 33.6044 35.6948 34.1199 35.6993C34.6354 35.7037 35.132 35.5056 35.5027 35.1475C37.2579 33.6059 39.1565 32.2358 41.1725 31.0557L38.7911 27.9678C37.5971 29.2801 36.328 30.522 34.9903 31.6874C34.7807 31.9013 34.6224 32.1599 34.527 32.4438C34.4316 32.7277 34.4017 33.0294 34.4395 33.3265C34.4773 33.6236 34.5819 33.9082 34.7454 34.1591C34.9089 34.41 35.127 34.6206 35.3835 34.7752C35.9356 35.0841 36.5632 35.2317 37.1951 35.2014C37.827 35.171 38.4376 34.9639 38.9576 34.6036C40.7584 33.7346 42.5212 32.7778 44.301 31.867L41.9183 28.7791C40.8121 30.1527 39.6605 31.4856 38.4634 32.7778C37.2485 34.0885 38.4307 36.85 40.377 36.0636C41.8285 35.4993 43.2095 34.7683 44.4923 33.8853C46.55 32.4436 44.5867 29.036 42.508 30.4908C41.5205 31.2039 40.4546 31.8015 39.3311 32.2719L41.2446 35.5577C42.4469 34.2628 43.5994 32.9277 44.702 31.5524C45.023 31.2102 45.2116 30.765 45.2342 30.2964C45.2568 29.8278 45.1119 29.3665 44.8254 28.995C44.5389 28.6236 44.1296 28.3662 43.6706 28.269C43.2117 28.1718 42.7331 28.2411 42.3206 28.4646L39.4674 29.9246C39.2524 30.0347 36.8802 31.0767 37.3612 31.3794L37.7544 34.4672C39.0928 33.3026 40.3619 32.0606 41.5552 30.7477C41.8744 30.4058 42.0619 29.9618 42.0844 29.4947C42.1069 29.0276 41.9629 28.5676 41.678 28.1967C41.3931 27.8258 40.9859 27.568 40.5288 27.4692C40.0716 27.3704 39.5943 27.437 39.1817 27.6572C36.8818 29.0174 34.7169 30.5938 32.7163 32.365L35.4962 35.1448L41.3468 28.6415C42.7584 27.0688 40.896 24.2142 38.9641 25.5537L35.601 27.8853C34.6047 28.7842 33.4921 29.545 32.293 30.1474L34.5119 31.0504L34.335 30.7542L34.5329 32.2693C35.1423 30.5311 35.9146 28.8543 36.8396 27.2614C37.9182 24.9862 34.5289 22.9875 33.4437 25.2745Z" fill="white"/>
<path d="M25.9744 26.4132L26.4869 27.0973C26.7609 27.5354 27.1918 27.8524 27.6917 27.9834C28.1915 28.1145 28.7226 28.0497 29.1763 27.8024C29.6238 27.5369 29.9487 27.1057 30.0806 26.6024C30.2126 26.099 30.141 25.564 29.8814 25.113L29.3689 24.4289C29.0954 23.9903 28.6644 23.6729 28.1644 23.5418C27.6643 23.4107 27.1331 23.4758 26.6795 23.7237C26.232 23.9893 25.9071 24.4204 25.7752 24.9238C25.6432 25.4271 25.7148 25.9622 25.9744 26.4132Z" fill="white"/>
<path d="M25.8638 24.5753V24.7457C25.8638 25.2671 26.0709 25.7671 26.4396 26.1358C26.8083 26.5045 27.3083 26.7116 27.8297 26.7116C28.3511 26.7116 28.8512 26.5045 29.2198 26.1358C29.5885 25.7671 29.7957 25.2671 29.7957 24.7457V24.5753C29.7957 24.0539 29.5885 23.5539 29.2198 23.1852C28.8512 22.8165 28.3511 22.6094 27.8297 22.6094C27.3083 22.6094 26.8083 22.8165 26.4396 23.1852C26.0709 23.5539 25.8638 24.0539 25.8638 24.5753Z" fill="white"/>
<path d="M20.8068 21.6652C20.6858 23.9916 20.6945 26.3229 20.833 28.6482C20.9497 30.5028 21.0349 31.9563 22.913 32.7321C25.2498 33.6955 26.2682 29.8933 23.9615 28.9405L23.6732 28.8212L24.8527 29.7243C24.3665 28.8474 24.6823 26.8697 24.6653 25.8553C24.643 24.4568 24.6797 23.061 24.7479 21.6613C24.8789 19.1318 20.9471 19.1383 20.816 21.6613L20.8068 21.6652Z" fill="black"/>
<path d="M25.1695 21.4981L25.1852 21.0053L23.7435 22.9004C24.7776 22.5833 27.218 24.1599 28.1105 24.5715C28.9205 24.945 31.581 25.8035 31.948 26.6606L31.7501 25.1455C31.5955 25.8742 28.8182 26.8493 28.1092 27.2098C26.6832 27.9385 25.2337 28.6161 23.771 29.2675C21.463 30.2924 23.4617 33.6816 25.7553 32.662C28.4717 31.5387 31.1003 30.2139 33.6191 28.6986C35.2377 27.6632 36.2967 25.8375 35.0214 24.0682C33.8039 22.3801 30.9179 21.5361 29.0948 20.7195C27.1288 19.8349 24.9204 18.4286 22.7042 19.1101C22.2944 19.233 21.9341 19.4827 21.6751 19.8232C21.416 20.1637 21.2716 20.5775 21.2625 21.0053L21.2376 21.4981C21.1563 24.0289 25.0882 24.0263 25.1695 21.4981Z" fill="black"/>
<path d="M23.307 23.7261C23.176 25.831 24.5941 29.5138 27.311 28.8716C27.7336 28.7621 28.1262 28.5591 28.4599 28.2776C28.7936 27.9961 29.0598 27.6433 29.2389 27.2451C29.37 26.7956 30.0423 26.7327 28.7147 27.0957C27.5784 27.4063 28.1013 27.4417 28.7999 27.6357C29.525 27.8023 30.2778 27.8085 31.0056 27.654C33.2652 27.3002 32.6112 23.8532 30.4814 23.7929C28.1772 23.7386 25.8919 24.2195 23.8051 25.1979C23.3579 25.4638 23.0331 25.8948 22.901 26.3979C22.7688 26.9011 22.8398 27.4361 23.0986 27.8873C23.3705 28.3283 23.8017 28.6475 24.3028 28.7789C24.8038 28.9102 25.3362 28.8434 25.7893 28.5925C27.2658 27.946 28.8714 27.6491 30.4814 27.7248L29.9571 23.8624C29.6229 23.9148 29.117 23.5361 28.7461 23.4941C28.1694 23.4229 27.5857 23.55 27.0908 23.8545C26.6782 24.1268 26.3287 24.4843 26.0659 24.903C25.9797 25.013 25.905 25.1316 25.8431 25.2569C25.6557 25.7104 25.8706 24.8939 26.6177 24.9856L27.6098 25.2477C27.2389 25.0525 27.2166 24.1521 27.2376 23.7169C27.3975 21.19 23.4656 21.1992 23.3057 23.7169L23.307 23.7261Z" fill="black"/>
<path d="M23.2106 25.6268L21.9826 27.657C21.7195 28.1071 21.6459 28.6434 21.7781 29.1477C21.9104 29.6521 22.2376 30.0833 22.6877 30.3464C23.1378 30.6095 23.6741 30.6831 24.1784 30.5508C24.6828 30.4186 25.114 30.0914 25.3771 29.6413L26.6052 27.6085C26.7355 27.3856 26.8206 27.1393 26.8556 26.8835C26.8907 26.6277 26.8751 26.3675 26.8096 26.1178C26.7441 25.868 26.6301 25.6336 26.474 25.428C26.318 25.2223 26.1229 25.0494 25.9 24.9191C25.6772 24.7888 25.4308 24.7037 25.175 24.6686C24.9192 24.6335 24.659 24.6492 24.4093 24.7147C24.1596 24.7801 23.9252 24.8942 23.7195 25.0502C23.5138 25.2063 23.3409 25.4013 23.2106 25.6242V25.6268Z" fill="black"/>
<path d="M23.0762 29.0324C22.7156 29.2302 22.4184 29.5261 22.2192 29.8859C22.0199 30.2457 21.9267 30.6546 21.9504 31.0652C21.964 31.5823 22.1755 32.0745 22.5412 32.4403C22.907 32.806 23.3992 33.0175 23.9163 33.0311C24.8652 32.9892 26.0264 32.1582 25.8823 31.0652L25.8639 30.9341L25.6018 31.9262L25.6608 31.7952L24.9557 32.5003L25.0723 32.4269C25.2952 32.2966 25.4902 32.1237 25.6463 31.918C25.8024 31.7124 25.9164 31.478 25.9819 31.2282C26.0473 30.9785 26.063 30.7183 26.0279 30.4625C25.9928 30.2068 25.9077 29.9604 25.7774 29.7375C25.6471 29.5146 25.4742 29.3196 25.2685 29.1635C25.0629 29.0074 24.8285 28.8934 24.5787 28.8279C24.329 28.7625 24.0688 28.7468 23.813 28.7819C23.5573 28.817 23.3109 28.9021 23.088 29.0324H23.0762Z" fill="black"/>
<path d="M37.8864 18.9595C39.0083 20.121 40.0529 21.3548 41.0135 22.6528C41.2871 23.0915 41.7181 23.4088 42.2181 23.5399C42.7181 23.671 43.2494 23.6059 43.7029 23.358C44.1504 23.0924 44.4754 22.6614 44.6076 22.1581C44.7397 21.6548 44.6686 21.1198 44.4094 20.6686C43.2609 19.0926 42.011 17.5931 40.6675 16.1797C38.9139 14.3448 36.1354 17.1312 37.8864 18.9595Z" fill="black"/>
<path d="M10.0929 29.9146C11.4276 32.3969 13.0186 34.7325 14.84 36.8832C16.4691 38.823 19.2384 36.0287 17.6198 34.1034C16.0315 32.195 14.6465 30.1261 13.4874 27.9303C12.296 25.7023 8.90021 27.68 10.0929 29.9146Z" fill="black"/>
<path d="M13.5233 35.5731C14.71 34.4507 15.9715 33.4103 17.2992 32.459L14.4158 30.2388C13.7789 32.1654 11.8575 33.8168 12.0161 35.9387C12.1131 37.2572 13.6766 38.6098 14.9742 37.6426L18.6308 34.902L15.9414 32.2126L14.2035 35.1366C14.018 35.4751 13.9352 35.8603 13.965 36.2451C13.9949 36.63 14.1362 36.9978 14.3717 37.3036C14.6072 37.6094 14.9267 37.84 15.2911 37.9673C15.6555 38.0945 16.0491 38.1128 16.4237 38.02C17.1953 37.7904 17.9343 37.4631 18.6229 37.0462L15.6649 35.349C15.6956 35.4911 15.6973 35.638 15.6698 35.7808C15.6423 35.9236 15.5862 36.0593 15.505 36.1799L19.1747 37.172L19.2009 36.7081C19.349 34.1799 15.4171 34.1891 15.269 36.7081L15.2428 37.172C15.2516 37.6002 15.3989 38.014 15.6627 38.3514C15.9265 38.6887 16.2925 38.9315 16.7059 39.0433C17.1193 39.155 17.5578 39.1298 17.9557 38.9713C18.3535 38.8128 18.6893 38.5296 18.9126 38.1642C19.4289 37.3198 19.6724 36.3367 19.6098 35.349C19.6047 35.0049 19.5104 34.668 19.3359 34.3713C19.1615 34.0747 18.913 33.8284 18.6148 33.6567C18.3166 33.4849 17.9789 33.3936 17.6348 33.3915C17.2907 33.3895 16.952 33.4769 16.6518 33.6451C16.259 33.8925 15.835 34.0865 15.3909 34.2218L17.6111 37.1052L19.349 34.1759C20.2874 32.594 18.3005 30.2598 16.6596 31.4865L13.003 34.2257L15.9611 35.923C15.9139 35.2677 16.7763 34.4525 17.0882 33.8981C17.5487 33.0599 17.9266 32.179 18.2166 31.2677C18.3101 30.8929 18.2922 30.499 18.1651 30.1343C18.0381 29.7695 17.8074 29.4497 17.5014 29.2141C17.1954 28.9785 16.8273 28.8372 16.4422 28.8076C16.0571 28.778 15.6717 28.8614 15.3333 29.0475C13.7202 30.1906 12.1867 31.4421 10.7435 32.7932C8.89547 34.5298 11.6805 37.307 13.5233 35.5731Z" fill="white"/>
<path d="M7.36754 27.5264C7.97343 29.6423 8.83659 31.6758 9.93768 33.5815C10.2019 34.0316 10.634 34.3584 11.1391 34.4899C11.6442 34.6214 12.1809 34.5468 12.631 34.2827C13.0812 34.0185 13.4079 33.5863 13.5394 33.0812C13.6709 32.5761 13.5964 32.0395 13.3322 31.5893C12.3994 29.9819 11.6695 28.2649 11.1592 26.4779C11.0201 25.9751 10.6871 25.5481 10.2332 25.2909C9.77936 25.0337 9.24192 24.9673 8.73911 25.1063C8.23631 25.2454 7.80933 25.5784 7.55211 26.0323C7.29489 26.4861 7.2285 27.0236 7.36754 27.5264Z" fill="white"/>
<path d="M10.9065 28.671L13.3089 27.8427C13.8039 27.6934 14.2226 27.3595 14.4782 26.9102C14.7339 26.4608 14.807 25.9303 14.6824 25.4285C14.5395 24.9282 14.2059 24.504 13.7535 24.2471C13.301 23.9903 12.7658 23.9213 12.263 24.055L9.86062 24.8833C9.3648 25.0325 8.94556 25.3671 8.69001 25.8174C8.43446 26.2677 8.36225 26.7992 8.48839 27.3014C8.63101 27.8016 8.96432 28.2257 9.41657 28.4826C9.86882 28.7395 10.4038 28.8086 10.9065 28.6749V28.671Z" fill="white"/>
<path d="M11.7041 26.6488C12.3157 28.6121 13.0112 30.5458 13.7906 32.4497C13.9429 32.9435 14.2779 33.3606 14.7273 33.6159C15.1767 33.8712 15.7065 33.9453 16.2087 33.8232C16.7096 33.6818 17.1347 33.3487 17.3918 32.8961C17.6489 32.4435 17.7173 31.9078 17.5822 31.4051C16.8037 29.4994 16.1082 27.5654 15.4957 25.6029C14.7447 23.1953 10.9478 24.2229 11.7041 26.6514V26.6488Z" fill="white"/>
<path d="M15.0016 18.8489C15.523 18.8489 16.023 18.6417 16.3917 18.2731C16.7604 17.9044 16.9675 17.4043 16.9675 16.8829C16.9675 16.3615 16.7604 15.8615 16.3917 15.4928C16.023 15.1241 15.523 14.917 15.0016 14.917C14.4802 14.917 13.9801 15.1241 13.6115 15.4928C13.2428 15.8615 13.0356 16.3615 13.0356 16.8829C13.0356 17.4043 13.2428 17.9044 13.6115 18.2731C13.9801 18.6417 14.4802 18.8489 15.0016 18.8489Z" fill="white"/>
<path d="M31.4412 33.4535L30.0166 34.0551L32.0009 37.4509L34.6051 36.2359L32.6195 32.8414L30.9498 33.6724C30.7269 33.8027 30.5318 33.9756 30.3758 34.1812C30.2197 34.3869 30.1057 34.6213 30.0402 34.871C29.9747 35.1208 29.9591 35.3809 29.9942 35.6367C30.0292 35.8925 30.1144 36.1389 30.2446 36.3618C30.3749 36.5847 30.5479 36.7797 30.7535 36.9358C30.9592 37.0918 31.1936 37.2058 31.4433 37.2713C31.693 37.3368 31.9532 37.3524 32.209 37.3174C32.4648 37.2823 32.7112 37.1972 32.9341 37.0669L34.6051 36.2359C35.051 35.969 35.3746 35.5379 35.5064 35.0351C35.6382 34.5324 35.5678 33.998 35.3102 33.5465C35.0391 33.1049 34.6078 32.7849 34.1065 32.6536C33.6051 32.5222 33.0724 32.5895 32.6195 32.8414L30.0166 34.0551C29.5698 34.3216 29.2455 34.7529 29.1136 35.2562C28.9818 35.7595 29.0528 36.2944 29.3115 36.7458C29.5842 37.1854 30.0151 37.5036 30.5155 37.6348C31.0159 37.766 31.5476 37.7002 32.0009 37.4509L33.4255 36.848C33.8733 36.5827 34.1984 36.1516 34.3304 35.6481C34.4624 35.1447 34.3906 34.6095 34.1307 34.1586C33.8582 33.7188 33.4272 33.4004 32.9267 33.2691C32.4262 33.1379 31.8945 33.2039 31.4412 33.4535Z" fill="white"/>
<path d="M42.5912 25.9444C42.5912 25.314 43.1823 24.6797 43.5087 24.1095C44.0542 23.2513 44.3513 22.2587 44.3671 21.2419C44.3553 20.8162 44.2066 20.4056 43.9431 20.071C43.6796 19.7364 43.3153 19.4956 42.9043 19.3843C42.4932 19.273 42.0572 19.297 41.6609 19.4529C41.2646 19.6088 40.929 19.8882 40.7039 20.2497C39.6759 21.896 39.0958 23.7822 39.0211 25.7216C39.032 26.1478 39.1802 26.5591 39.4436 26.8944C39.707 27.2296 40.0715 27.4709 40.4831 27.5823C40.8946 27.6938 41.3311 27.6695 41.7277 27.513C42.1243 27.3565 42.4597 27.0762 42.6843 26.7138C43.6757 24.9814 44.4212 23.1195 44.8992 21.1816C45.01 20.7257 44.9548 20.2452 44.7436 19.8263C44.5325 19.4073 44.179 19.0773 43.7467 18.8951C43.3143 18.713 42.8312 18.6907 42.3839 18.8323C41.9366 18.9739 41.5543 19.2701 41.3055 19.6678L40.1259 21.5197C38.7629 23.6613 42.1653 25.6351 43.5205 23.504L44.7 21.6521L41.1063 20.137C40.7184 21.7438 40.1065 23.288 39.2884 24.7242L42.9582 25.7164C43.0262 24.4732 43.4214 23.2701 44.1037 22.2288L40.4405 21.2366C40.4483 21.8828 39.8625 22.5014 39.5309 23.0715C38.9849 23.9307 38.6839 24.9227 38.6606 25.9405C38.6606 26.4619 38.8678 26.9619 39.2365 27.3306C39.6051 27.6993 40.1052 27.9064 40.6266 27.9064C41.148 27.9064 41.648 27.6993 42.0167 27.3306C42.3854 26.9619 42.5925 26.4619 42.5925 25.9405L42.5912 25.9444Z" fill="white"/>
<path d="M42.4348 21.1747C42.4506 21.2808 42.5541 21.8169 42.3693 21.8824C42.3352 21.8955 42.7822 21.3581 42.406 21.7933C42.6131 21.5508 42.8333 21.3214 43.0377 21.0764C43.7046 20.3788 44.0878 19.4578 44.1125 18.4931C44.1088 18.1084 43.9924 17.7332 43.7776 17.4141C43.5628 17.0949 43.2591 16.8458 42.9041 16.6976C42.5445 16.5533 42.1513 16.5149 41.7706 16.5869C41.39 16.6589 41.0379 16.8382 40.7559 17.1038L37.9735 19.3817L41.2592 21.2952C41.604 20.529 42.0444 19.8094 42.5698 19.1537C42.7898 18.7789 42.8794 18.3418 42.8247 17.9107C42.7699 17.4796 42.5738 17.0788 42.2671 16.7709C41.9526 16.4758 41.5531 16.2873 41.1253 16.2323C40.6976 16.1772 40.2633 16.2584 39.8844 16.4643C38.9411 16.9191 38.1588 17.6506 37.6419 18.5613C36.5318 20.442 39.2146 22.6465 40.7297 20.944L41.9945 19.5206C42.1822 19.3393 42.332 19.1224 42.435 18.8825C42.5381 18.6427 42.5923 18.3847 42.5946 18.1236C42.5969 17.8626 42.5471 17.6037 42.4483 17.3621C42.3494 17.1205 42.2034 16.901 42.0188 16.7164C41.8343 16.5318 41.6148 16.3859 41.3732 16.287C41.1315 16.1882 40.8727 16.1384 40.6116 16.1407C40.3506 16.143 40.0926 16.1972 39.8528 16.3002C39.6129 16.4033 39.396 16.553 39.2146 16.7408L38.4138 17.3791C38.0478 17.7491 37.8425 18.2485 37.8425 18.769C37.8425 19.2895 38.0478 19.7889 38.4138 20.1589C38.7882 20.5166 39.286 20.7163 39.8038 20.7163C40.3215 20.7163 40.8194 20.5166 41.1937 20.1589L41.9945 19.5206L39.2146 16.7408L37.942 18.1576L41.0285 20.5403C41.1596 20.345 41.1806 20.3031 41.0797 20.4171C41.1704 20.3095 41.2685 20.2084 41.3732 20.1144C41.2487 20.1995 41.2854 20.1786 41.4846 20.0475C41.6061 19.9763 41.7322 19.9132 41.8621 19.8588L39.1727 17.172C38.4712 18.1189 37.8983 19.1546 37.4689 20.252C37.3536 20.6698 37.3796 21.1141 37.5429 21.5156C37.7062 21.9171 37.9977 22.2534 38.3719 22.4722C38.7509 22.6781 39.1851 22.7592 39.6129 22.7042C40.0406 22.6491 40.4401 22.4606 40.7546 22.1655L43.5371 19.8863L40.1819 18.4957C40.1819 18.9715 40.3496 18.0305 40.2592 18.2598C40.2235 18.326 40.1837 18.3899 40.1399 18.4512C40.2776 18.2795 40.2998 18.2493 40.2081 18.3594C39.9866 18.6216 39.7468 18.868 39.5292 19.1353C39.1557 19.548 38.8817 20.0408 38.7284 20.5758C38.575 21.1109 38.5463 21.674 38.6445 22.2218C38.7862 22.7223 39.1192 23.1468 39.5715 23.4036C40.0238 23.6604 40.559 23.7288 41.0613 23.5941C41.557 23.4445 41.9761 23.11 42.2319 22.6598C42.4876 22.2096 42.5603 21.6783 42.4348 21.176V21.1747Z" fill="white"/>
<path d="M34.5819 18.3388C35.2975 19.1435 36.0026 19.9561 36.6972 20.7765L39.4771 17.9967C38.8427 17.4648 38.2595 16.8746 37.7352 16.2339C37.3973 15.8969 36.9484 15.6943 36.4721 15.6639C35.9958 15.6336 35.5248 15.7775 35.1468 16.0688C34.7688 16.3602 34.5097 16.7791 34.4178 17.2474C34.326 17.7157 34.4075 18.2014 34.6474 18.614L35.5399 19.9246C35.8124 20.3648 36.2437 20.6834 36.7444 20.8147C37.2452 20.9459 37.7773 20.8797 38.2307 20.6297C38.677 20.3627 39.0008 19.9314 39.1326 19.4283C39.2644 18.9253 39.1938 18.3906 38.9358 17.939L38.0419 16.6349L34.9541 19.0177C35.4796 19.6573 36.0631 20.247 36.6972 20.7791C37.068 21.1373 37.5646 21.3354 38.0801 21.3309C38.5955 21.3265 39.0886 21.1197 39.4531 20.7552C39.8176 20.3907 40.0244 19.8976 40.0289 19.3821C40.0333 18.8667 39.8352 18.3701 39.4771 17.9993C38.7824 17.1771 38.0778 16.3645 37.363 15.5615C37.1805 15.3789 36.9638 15.2341 36.7253 15.1352C36.4868 15.0363 36.2311 14.9854 35.9729 14.9854C35.4515 14.9852 34.9513 15.1923 34.5825 15.5609C34.3999 15.7434 34.255 15.9601 34.1562 16.1986C34.0573 16.4372 34.0064 16.6928 34.0063 16.951C34.0062 17.4724 34.2132 17.9726 34.5819 18.3414V18.3388Z" fill="white"/>
<path d="M42.6753 14.8272L42.3332 14.6555C41.8801 14.4046 41.3477 14.3378 40.8466 14.4691C40.3455 14.6004 39.9143 14.9197 39.6425 15.3606C39.3846 15.812 39.3139 16.3465 39.4458 16.8494C39.5776 17.3522 39.9014 17.7833 40.3476 18.05L40.6897 18.2217C41.1426 18.4726 41.6748 18.5393 42.1757 18.408C42.6765 18.2767 43.1075 17.9575 43.3791 17.5166C43.6373 17.0653 43.7082 16.5307 43.5763 16.0278C43.4444 15.5248 43.1217 15.0937 42.6753 14.8272Z" fill="white"/>
<path d="M26.0443 17.9026C25.8595 17.993 25.9381 17.8514 25.9722 17.9314C25.9722 17.9314 26.0416 17.9484 26.1806 17.9956C26.6833 18.1307 27.2189 18.0622 27.6716 17.8052C28.1242 17.5481 28.4573 17.123 28.5987 16.6221C28.7248 16.1197 28.6524 15.5881 28.3966 15.1377C28.1407 14.6874 27.7212 14.3529 27.2251 14.204C26.7041 14.0398 26.1554 13.982 25.6117 14.0343C25.0679 14.0865 24.5402 14.2476 24.06 14.508C23.6133 14.7743 23.289 15.2053 23.1569 15.7083C23.0248 16.2113 23.0954 16.746 23.3536 17.1974C23.6245 17.6394 24.0557 17.9595 24.5572 18.0909C25.0586 18.2223 25.5914 18.1548 26.0443 17.9026Z" fill="white"/>
<path d="M11.7743 27.212C11.6648 29.025 12.0939 30.8298 13.0076 32.3995C13.1379 32.6224 13.3108 32.8174 13.5164 32.9735C13.7221 33.1295 13.9565 33.2436 14.2062 33.309C14.456 33.3745 14.7162 33.3902 14.9719 33.3551C15.2277 33.32 15.4741 33.2349 15.697 33.1046C15.9199 32.9743 16.1149 32.8014 16.271 32.5957C16.427 32.3901 16.541 32.1557 16.6065 31.9059C16.672 31.6562 16.6876 31.396 16.6526 31.1402C16.6175 30.8845 16.5324 30.6381 16.4021 30.4152C15.5463 28.6983 13.5842 25.0495 11.2277 26.7101C9.12287 28.1937 11.0665 31.2842 12.2435 32.7232C12.6142 33.0884 13.1137 33.293 13.634 33.293C14.1544 33.293 14.6539 33.0884 15.0246 32.7232C15.3827 32.3488 15.5826 31.8507 15.5826 31.3326C15.5826 30.8146 15.3827 30.3165 15.0246 29.9421C14.8188 29.6836 14.6429 29.4026 14.5004 29.1046C14.4401 28.9827 14.4244 28.9552 14.3693 28.8293C14.2382 28.4991 14.3313 28.1858 14.1858 28.8739L13.6812 29.7415L13.8005 29.6446L11.8975 30.1478L12.0639 30.1845L11.2028 29.6813C11.9635 30.4724 12.5768 31.3929 13.0141 32.3995L16.4086 30.4152C15.8543 29.4439 15.6114 28.3258 15.7127 27.212C15.7127 26.6906 15.5056 26.1906 15.1369 25.8219C14.7682 25.4532 14.2682 25.2461 13.7468 25.2461C13.2254 25.2461 12.7253 25.4532 12.3566 25.8219C11.9879 26.1906 11.7808 26.6906 11.7808 27.212H11.7743Z" fill="white"/>
<path d="M7.99764 32.9871C8.00069 33.5971 8.15537 34.1968 8.44776 34.7321C8.74014 35.2675 9.16106 35.7217 9.67262 36.054C10.0843 36.2938 10.5696 36.3747 11.0368 36.2812C11.5041 36.1878 11.9209 35.9265 12.2087 35.5468C12.4937 35.1684 12.6347 34.7009 12.6064 34.228C12.5781 33.7551 12.3822 33.3078 12.054 32.9661L11.4525 32.2584C11.2075 32.0193 10.9047 31.8478 10.5737 31.7606C10.2426 31.6734 9.89464 31.6735 9.56367 31.7609C9.23269 31.8483 8.93002 32.02 8.68519 32.2593C8.44035 32.4985 8.26172 32.7972 8.16671 33.126C8.01033 33.6778 8.00635 34.2616 8.1552 34.8155C8.30405 35.3693 8.60016 35.8725 9.01207 36.2715C9.32325 36.5663 9.72161 36.7522 10.1474 36.8014C10.5732 36.8506 11.0034 36.7604 11.3736 36.5444C11.7438 36.3284 12.034 35.9981 12.2006 35.6032C12.3673 35.2083 12.4014 34.77 12.2978 34.3541C12.191 33.8835 11.9896 33.4395 11.706 33.049C11.4223 32.6586 11.0623 32.3299 10.6477 32.0828C8.93081 30.9792 7.05399 33.1195 7.95701 34.7735L8.37117 35.5297C8.61995 35.9278 9.00238 36.2243 9.44993 36.366C9.89747 36.5077 10.3809 36.4854 10.8134 36.303C11.246 36.1207 11.5995 35.7902 11.8105 35.3708C12.0215 34.9515 12.0762 34.4707 11.9649 34.0146C11.7475 33.2882 11.3545 32.6265 10.8207 32.088C10.5101 31.7915 10.1116 31.6039 9.68521 31.5535C9.25878 31.503 8.8275 31.5924 8.45629 31.8083C8.08507 32.0241 7.79401 32.3547 7.62691 32.7503C7.45981 33.1458 7.42571 33.5849 7.52975 34.0015C7.79398 34.8925 8.29496 35.6952 8.9793 36.324C9.32095 36.6454 9.76584 36.8347 10.2343 36.8581C10.7028 36.8815 11.1643 36.7373 11.5363 36.4515C11.9082 36.1656 12.1663 35.7568 12.2642 35.298C12.3622 34.8393 12.2938 34.3607 12.0711 33.9478C11.7675 33.4013 11.3329 32.9387 10.8063 32.6018C10.4305 32.385 9.99385 32.2977 9.56356 32.3534C9.13328 32.409 8.7332 32.6045 8.42491 32.9098C8.12484 33.2214 7.93291 33.6213 7.87745 34.0503C7.82199 34.4793 7.90594 34.9148 8.11691 35.2925C8.59753 36.1323 9.32875 36.8007 10.2082 37.2043C11.0876 37.6078 12.0712 37.7262 13.0213 37.5429C13.5218 37.4017 13.9465 37.069 14.2034 36.6169C14.4602 36.1647 14.5285 35.6296 14.3935 35.1274C14.2439 34.6316 13.9095 34.2122 13.4595 33.9561C13.0094 33.6999 12.478 33.6266 11.9754 33.7512C12.4158 33.6909 11.7316 33.6621 12.1353 33.7407C12.0188 33.7176 11.9041 33.6865 11.7919 33.6477C11.9584 33.7237 11.9793 33.7289 11.8548 33.6647C11.7753 33.6237 11.6986 33.5773 11.6255 33.5258C11.7631 33.6359 11.7814 33.6437 11.6792 33.5507C11.577 33.4576 11.5914 33.4707 11.6962 33.6123C11.6275 33.5152 11.5662 33.4131 11.5127 33.3069L8.82334 35.9976C8.71455 35.9203 8.50879 35.6044 8.67524 35.9255L11.7631 33.5428C11.6624 33.4597 11.5678 33.3694 11.48 33.2728C11.5612 33.3934 11.5652 33.3973 11.4905 33.2846C11.4356 33.2036 11.3861 33.1191 11.3424 33.0317C11.4066 33.2034 11.4 33.1785 11.3253 32.9557L8.03958 34.8652C8.20559 35.0348 8.23486 35.0631 8.12739 34.9504C8.24928 35.1575 8.25846 35.1929 8.17327 35.0566L11.7657 33.5415L11.3528 32.7853L8.66344 35.4786C8.52058 35.3869 8.42622 35.0002 8.50748 35.3987L11.7932 33.4865C11.8689 33.5819 11.9227 33.6927 11.951 33.8111C11.9793 33.9295 11.9814 34.0526 11.957 34.1719L8.6713 35.0382L9.27419 35.746L11.6569 32.6582C11.7536 32.7289 11.8356 32.818 11.8981 32.9203C11.9492 32.9937 11.9308 33.4026 11.9295 32.9845C11.9295 32.7263 11.8787 32.4707 11.7799 32.2322C11.6811 31.9936 11.5363 31.7769 11.3537 31.5944C11.1712 31.4118 10.9544 31.267 10.7159 31.1682C10.4774 31.0694 10.2218 31.0186 9.96358 31.0186C9.70541 31.0186 9.44977 31.0694 9.21125 31.1682C8.97273 31.267 8.75601 31.4118 8.57345 31.5944C8.3909 31.7769 8.24609 31.9936 8.14729 32.2322C8.04849 32.4707 7.99764 32.7263 7.99764 32.9845V32.9871Z" fill="white"/>
<path d="M31.5787 37.6066C34.1987 37.1014 36.782 36.4219 39.3114 35.5725C41.6981 34.7717 40.6745 30.9735 38.2629 31.7822C35.7346 32.6307 33.1526 33.3102 30.5342 33.8163C28.0518 34.296 29.103 38.0863 31.5827 37.6079L31.5787 37.6066Z" fill="black"/>
<path d="M37.7692 30.04C37.522 30.9059 37.4682 31.8155 37.6116 32.7045C37.7549 33.5934 38.092 34.44 38.5988 35.1843C38.7996 35.5135 39.0915 35.7775 39.4394 35.9441C39.7872 36.1106 40.1758 36.1727 40.5582 36.1227C40.9401 36.0777 41.2999 35.9196 41.5912 35.6685C41.8824 35.4174 42.0919 35.0849 42.1926 34.7137C42.3994 33.3301 42.3671 31.9212 42.0969 30.5486C42.0281 30.2996 41.9109 30.0666 41.752 29.863C41.5931 29.6593 41.3957 29.4889 41.1709 29.3616C40.9462 29.2342 40.6986 29.1524 40.4422 29.1207C40.1859 29.089 39.9258 29.1082 39.6768 29.177C39.4279 29.2458 39.1949 29.3631 38.9912 29.5219C38.7876 29.6808 38.6172 29.8782 38.4898 30.103C38.3625 30.3277 38.2806 30.5753 38.2489 30.8317C38.2173 31.088 38.2364 31.3481 38.3053 31.5971C38.4475 32.2796 38.4798 32.9804 38.4009 33.6731L41.9947 33.2039C41.7492 32.9171 41.5806 32.5727 41.5047 32.2029C41.4288 31.8331 41.4482 31.4501 41.5609 31.0899C41.6297 30.8409 41.6488 30.5808 41.6172 30.3245C41.5855 30.0681 41.5036 29.8205 41.3763 29.5958C41.2489 29.371 41.0785 29.1736 40.8749 29.0147C40.6712 28.8558 40.4382 28.7386 40.1893 28.6698C39.9403 28.6009 39.6802 28.5818 39.4239 28.6135C39.1675 28.6451 38.9199 28.727 38.6952 28.8544C38.4705 28.9817 38.273 29.1521 38.1141 29.3558C37.9553 29.5594 37.8381 29.7911 37.7692 30.04Z" fill="white"/>
<path d="M28.7491 37.4584C32.8395 37.8634 37.103 39.368 40.7728 36.693C42.7977 35.2173 40.837 31.8031 38.7885 33.2985C35.8736 35.423 32.0021 33.849 28.7491 33.5265C26.234 33.2788 26.251 37.212 28.7491 37.4584Z" fill="white"/>
<path d="M35.7 32.6047C36.5693 33.3596 37.3994 34.1539 38.1902 34.9874C38.3728 35.17 38.5895 35.3147 38.8281 35.4135C39.0667 35.5122 39.3223 35.563 39.5805 35.563C39.8387 35.5629 40.0944 35.512 40.3329 35.4131C40.5714 35.3143 40.7881 35.1694 40.9706 34.9868C41.1532 34.8042 41.2979 34.5874 41.3967 34.3488C41.4954 34.1103 41.5462 33.8546 41.5462 33.5964C41.5461 33.3382 41.4952 33.0826 41.3963 32.844C41.2975 32.6055 41.1526 32.3888 40.97 32.2063C40.1766 31.3727 39.3466 30.5789 38.4798 29.8249C38.1052 29.4678 37.6075 29.2686 37.0899 29.2686C36.5723 29.2686 36.0746 29.4678 35.7 29.8249C35.3358 30.1959 35.1318 30.695 35.1318 31.2148C35.1318 31.7346 35.3358 32.2337 35.7 32.6047Z" fill="white"/>
<path d="M35.0552 32.3463C36.177 33.4379 37.5277 34.2661 39.0094 34.771C39.5119 34.9068 40.0478 34.8389 40.5005 34.5819C40.9533 34.325 41.2864 33.8998 41.4275 33.3987C41.5533 32.8966 41.4809 32.3652 41.2254 31.915C40.9699 31.4647 40.5509 31.1302 40.0553 30.9806C39.6393 30.8362 39.243 30.6402 38.8757 30.3974C38.4945 30.1687 38.1465 29.8887 37.8416 29.5652C37.4728 29.1957 36.9723 28.9878 36.4503 28.9873C35.9282 28.9868 35.4273 29.1937 35.0578 29.5625C34.6883 29.9313 34.4805 30.4318 34.48 30.9539C34.4795 31.4759 34.6864 31.9768 35.0552 32.3463Z" fill="white"/>
<path d="M33.7594 33.5172C35.1266 33.6474 36.4807 33.8903 37.8079 34.2433L36.9403 30.9575C36.3246 31.5491 35.7684 32.1997 35.2797 32.8999C35.021 33.3513 34.95 33.8862 35.0819 34.3895C35.2138 34.8927 35.538 35.3241 35.9848 35.5906C36.4379 35.8424 36.9707 35.9095 37.4721 35.7779C37.9734 35.6463 38.4046 35.3261 38.6755 34.8842C38.9867 34.4681 39.3379 34.0836 39.724 33.7361C39.9628 33.4909 40.1339 33.1881 40.2209 32.8572C40.3079 32.5262 40.3077 32.1784 40.2203 31.8476C40.1329 31.5167 39.9614 31.2142 39.7224 30.9693C39.4834 30.7244 39.185 30.5456 38.8564 30.4503C37.1853 30.0224 35.4819 29.7326 33.7633 29.584C33.2432 29.5881 32.7455 29.7965 32.3777 30.1643C32.0099 30.5321 31.8015 31.0298 31.7974 31.5499C31.8081 32.068 32.0186 32.5618 32.385 32.9282C32.7514 33.2946 33.2453 33.5052 33.7633 33.5159L33.7594 33.5172Z" fill="white"/>
<path d="M30.1628 36.1849C30.4438 35.9948 30.7536 35.8514 31.0803 35.7603C31.5831 35.6212 32.0101 35.2881 32.2673 34.8343C32.5245 34.3804 32.5909 33.843 32.4519 33.3402C32.3128 32.8374 31.9797 32.4104 31.5259 32.1532C31.072 31.896 30.5346 31.8296 30.0318 31.9686C29.0639 32.2752 28.1639 32.7646 27.3804 33.4103C27.0144 33.7803 26.8091 34.2798 26.8091 34.8002C26.8091 35.3207 27.0144 35.8201 27.3804 36.1901C27.7554 36.547 28.2533 36.7461 28.771 36.7461C29.2887 36.7461 29.7865 36.547 30.1615 36.1901L30.1628 36.1849Z" fill="white"/>
<path d="M30.0755 32.8879L29.9444 33.019C29.6009 33.3923 29.4151 33.884 29.4257 34.3912C29.4364 34.8984 29.6426 35.3818 30.0014 35.7404C30.3602 36.0991 30.8438 36.3051 31.351 36.3155C31.8582 36.3259 32.3498 36.1398 32.7229 35.7962L32.854 35.6651C33.1975 35.2918 33.3833 34.8001 33.3727 34.2929C33.3621 33.7857 33.1558 33.3023 32.797 32.9436C32.4382 32.585 31.9546 32.379 31.4474 32.3686C30.9402 32.3582 30.4487 32.5443 30.0755 32.8879Z" fill="white"/>
<path d="M34.1534 33.6858C34.6748 33.6858 35.1749 33.4787 35.5436 33.11C35.9123 32.7413 36.1194 32.2412 36.1194 31.7198C36.1194 31.1984 35.9123 30.6984 35.5436 30.3297C35.1749 29.961 34.6748 29.7539 34.1534 29.7539C33.632 29.7539 33.132 29.961 32.7633 30.3297C32.3946 30.6984 32.1875 31.1984 32.1875 31.7198C32.1875 32.2412 32.3946 32.7413 32.7633 33.11C33.132 33.4787 33.632 33.6858 34.1534 33.6858Z" fill="white"/>
<path d="M33.6412 33.6858C34.1626 33.6858 34.6627 33.4787 35.0314 33.11C35.4 32.7413 35.6072 32.2412 35.6072 31.7198C35.6072 31.1984 35.4 30.6984 35.0314 30.3297C34.6627 29.961 34.1626 29.7539 33.6412 29.7539C33.1198 29.7539 32.6198 29.961 32.2511 30.3297C31.8824 30.6984 31.6753 31.1984 31.6753 31.7198C31.6753 32.2412 31.8824 32.7413 32.2511 33.11C32.6198 33.4787 33.1198 33.6858 33.6412 33.6858Z" fill="white"/>
<path d="M37.2422 15.0744L37.7665 15.5108L35.0823 18.2028C36.5175 18.9746 37.9089 19.8252 39.2501 20.7507C39.7014 21.009 40.236 21.0798 40.7389 20.9479C41.2419 20.816 41.673 20.492 41.9395 20.0456C42.1921 19.5928 42.2598 19.0599 42.1283 18.5584C41.9969 18.0568 41.6766 17.6256 41.2344 17.3549C39.8933 16.4308 38.5019 15.582 37.0666 14.8123C36.6908 14.6068 36.2585 14.5286 35.8345 14.5894C35.4105 14.6503 35.0176 14.8469 34.7147 15.1498C34.4118 15.4526 34.2152 15.8455 34.1544 16.2695C34.0935 16.6935 34.1717 17.1258 34.3772 17.5017C34.556 17.8539 34.813 18.1605 35.1285 18.3981C35.4441 18.6357 35.8098 18.798 36.1977 18.8726C36.6997 18.9954 37.2297 18.9217 37.6792 18.6666C38.1287 18.4115 38.4637 17.9943 38.6158 17.5003C38.7521 16.9966 38.6844 16.4594 38.4273 16.0053C38.1701 15.5511 37.7443 15.2166 37.2422 15.0744Z" fill="white"/>
<path d="M39.0925 17.8548C38.9558 17.9267 38.8051 17.9679 38.6508 17.9754C38.4966 17.983 38.3426 17.9568 38.1995 17.8986C38.0565 17.8404 37.9278 17.7517 37.8226 17.6387C37.7174 17.5256 37.6382 17.3909 37.5905 17.2441C37.6593 17.493 37.7766 17.726 37.9354 17.9297C38.0943 18.1333 38.2918 18.3037 38.5165 18.4311C38.7412 18.5584 38.9888 18.6403 39.2452 18.672C39.5015 18.7036 39.7616 18.6845 40.0106 18.6156C40.2595 18.5468 40.4925 18.4296 40.6962 18.2707C40.8998 18.1118 41.0702 17.9144 41.1976 17.6897C41.3249 17.4649 41.4068 17.2173 41.4385 16.961C41.4701 16.7046 41.451 16.4445 41.3821 16.1956C41.2599 15.7682 41.042 15.3743 40.7452 15.0434C40.4483 14.7126 40.0801 14.4536 39.6684 14.286C39.2568 14.1183 38.8124 14.0464 38.3688 14.0757C37.9253 14.105 37.4942 14.2347 37.1082 14.4551C36.6579 14.7182 36.3305 15.1494 36.1982 15.6539C36.0658 16.1584 36.1393 16.6948 36.4024 17.1451C36.6655 17.5954 37.0968 17.9228 37.6013 18.0551C38.1058 18.1875 38.6422 18.114 39.0925 17.8509V17.8548Z" fill="white"/>
<path d="M31.2557 37.4638C35.1198 36.6058 38.8683 35.2917 42.4222 33.5489C44.6975 32.4427 42.7066 29.0508 40.438 30.1544C37.1816 31.7276 33.75 32.9085 30.2151 33.6721C27.7445 34.2147 28.7891 38.0064 31.2636 37.4638H31.2557Z" fill="black"/>
<path d="M29.1953 37.6727C32.9699 34.7893 37.6082 32.8129 41.7707 30.5508C43.9988 29.3411 42.0119 25.9452 39.7864 27.1549C35.6239 29.4184 30.9856 31.3974 27.211 34.2769C25.2267 35.792 27.1821 39.2088 29.1953 37.6727Z" fill="white"/>
<path d="M38.3761 37.7928C40.9654 36.2027 43.3104 34.2457 45.3382 31.9828C45.6927 31.6066 45.8902 31.1092 45.8902 30.5922C45.8902 30.0753 45.6927 29.5779 45.3382 29.2017C44.9674 28.8365 44.4679 28.6318 43.9476 28.6318C43.4272 28.6318 42.9277 28.8365 42.557 29.2017C40.7689 31.2265 38.6935 32.9782 36.3971 34.4009C34.3158 35.8151 36.2804 39.2227 38.3814 37.7968L38.3761 37.7928Z" fill="white"/>
<path d="M30.3934 38.6922C33.6034 38.5597 36.7893 38.0763 39.8941 37.2505C40.3969 37.1115 40.8239 36.7784 41.0811 36.3245C41.3384 35.8707 41.4047 35.3332 41.2657 34.8304C41.1267 34.3276 40.7936 33.9006 40.3397 33.6434C39.8859 33.3862 39.3484 33.3198 38.8456 33.4589C36.0835 34.2009 33.2482 34.6369 30.3908 34.759C27.8704 34.8665 27.8573 38.7983 30.3908 38.6909L30.3934 38.6922Z" fill="white"/>
<path d="M37.5453 37.8996L40.9529 36.1879C41.4032 35.9248 41.7306 35.4935 41.8629 34.989C41.9953 34.4846 41.9218 33.9482 41.6587 33.4978C41.3955 33.0475 40.9643 32.7202 40.4598 32.5878C39.9553 32.4555 39.4189 32.5289 38.9686 32.7921L35.5505 34.5051C35.1004 34.7682 34.7732 35.1994 34.6409 35.7037C34.5087 36.2081 34.5822 36.7443 34.8454 37.1945C35.1085 37.6446 35.5397 37.9718 36.044 38.104C36.5484 38.2362 37.0846 38.1627 37.5348 37.8996H37.5453Z" fill="white"/>
<path d="M33.3945 37.4713C33.6317 37.3403 33.9463 37.1777 34.0066 37.1528C34.3114 37.0327 34.6235 36.9321 34.9411 36.8514L33.0275 33.5657L32.9764 33.6076C32.6107 33.978 32.4055 34.4776 32.4055 34.9982C32.4055 35.5187 32.6107 36.0183 32.9764 36.3887C33.3508 36.7465 33.8486 36.9461 34.3663 36.9461C34.8841 36.9461 35.3819 36.7465 35.7563 36.3887L35.8087 36.3455C36.1143 36.0371 36.3098 35.6366 36.3653 35.206C36.4207 34.7754 36.3329 34.3385 36.1154 33.9628C35.8913 33.5939 35.5544 33.3069 35.1546 33.1442C34.7547 32.9816 34.3132 32.952 33.8952 33.0598C33.0271 33.297 32.191 33.6385 31.405 34.0768C30.9548 34.3399 30.6277 34.7711 30.4954 35.2755C30.3632 35.7798 30.4367 36.3161 30.6999 36.7662C30.963 37.2163 31.3942 37.5435 31.8985 37.6758C32.4029 37.808 32.9391 37.7345 33.3893 37.4713H33.3945Z" fill="white"/>
<path d="M35.8335 37.4937L38.6605 36.8384C38.9095 36.7695 39.1425 36.6523 39.3461 36.4934C39.5498 36.3346 39.7202 36.1371 39.8475 35.9124C39.9749 35.6877 40.0567 35.4401 40.0884 35.1837C40.1201 34.9274 40.1009 34.6673 40.0321 34.4183C39.9633 34.1693 39.846 33.9364 39.6872 33.7327C39.5283 33.529 39.3309 33.3587 39.1061 33.2313C38.8814 33.1039 38.6338 33.0221 38.3774 32.9904C38.1211 32.9588 37.861 32.9779 37.612 33.0467L34.785 33.702C34.536 33.7709 34.3031 33.8881 34.0994 34.047C33.8957 34.2059 33.7254 34.4033 33.598 34.628C33.4706 34.8527 33.3888 35.1004 33.3571 35.3567C33.3255 35.6131 33.3446 35.8732 33.4134 36.1221C33.5525 36.6249 33.8856 37.0519 34.3394 37.3091C34.5641 37.4365 34.8117 37.5183 35.0681 37.55C35.3245 37.5817 35.5845 37.5625 35.8335 37.4937Z" fill="white"/>
<path d="M40.4321 36.1673L40.5212 36.0362L39.8161 36.7413L39.9406 36.6535C40.3801 36.3804 40.6981 35.9491 40.8293 35.4486C40.9604 34.9481 40.8947 34.4164 40.6457 33.9628C40.3795 33.5161 39.9484 33.1918 39.4453 33.06C38.9423 32.9281 38.4075 32.9991 37.9563 33.2577C37.5988 33.5069 37.2882 33.8175 37.0389 34.1751C36.78 34.6262 36.7088 35.1611 36.8407 35.6642C36.9726 36.1674 37.297 36.5985 37.744 36.8645C38.197 37.1161 38.7296 37.1832 39.2309 37.0519C39.7321 36.9205 40.1634 36.6008 40.4347 36.1594L40.4321 36.1673Z" fill="white"/>
<path d="M39.7244 36.6634C39.8521 36.5628 39.9861 36.4704 40.1255 36.3868C40.1871 36.3515 40.5554 36.2073 40.2775 36.3069C40.7733 36.1571 41.1925 35.8223 41.4482 35.3719C41.7039 34.9215 41.7765 34.39 41.6511 33.8875C41.5084 33.3874 41.1751 32.9633 40.7228 32.7066C40.2705 32.4499 39.7354 32.3812 39.2329 32.5153C38.6987 32.6865 38.1945 32.9403 37.7388 33.2676C37.3014 33.5425 36.985 33.9736 36.854 34.4734C36.723 34.9732 36.7873 35.5041 37.0337 35.9583C37.2995 36.4059 37.7309 36.7308 38.2344 36.8628C38.738 36.9947 39.2733 36.9231 39.7244 36.6634Z" fill="white"/>
<path d="M39.6346 29.16C38.0059 30.1622 36.334 31.0866 34.6188 31.9332L36.6031 35.3291L40.826 33.0027C43.0422 31.7812 41.0606 28.3841 38.8417 29.6069L34.6202 31.9332C32.3855 33.1652 34.358 36.4392 36.6044 35.3291C38.3196 34.4824 39.9915 33.558 41.6202 32.5558C43.771 31.2307 41.7985 27.8284 39.6359 29.16H39.6346Z" fill="white"/>
<path d="M11.9412 17.2568C11.215 18.6664 10.9961 20.2829 11.3213 21.8348C11.4312 22.2019 11.6449 22.5293 11.9367 22.7776C12.2284 23.0259 12.5858 23.1845 12.9657 23.2343C13.3456 23.284 13.7318 23.2228 14.0777 23.0579C14.4236 22.8931 14.7144 22.6317 14.915 22.3053C15.5073 21.223 15.7928 19.9994 15.7407 18.7666C15.7289 18.3409 15.5802 17.9304 15.3167 17.5958C15.0532 17.2612 14.6889 17.0204 14.2779 16.9091C13.8668 16.7977 13.4308 16.8218 13.0345 16.9777C12.6382 17.1335 12.3026 17.413 12.0775 17.7745C11.1659 19.4376 10.9186 21.3845 11.3855 23.2228C11.995 25.6776 15.7879 24.6383 15.1772 22.1743C14.962 21.3598 15.0676 20.4938 15.472 19.7549L11.8088 18.7627C11.8637 19.2978 11.7636 19.8373 11.5205 20.3171L15.1129 20.7863C15.0154 20.2599 15.0937 19.716 15.3357 19.2385C15.5864 18.7853 15.6529 18.253 15.5217 17.752C15.3904 17.251 15.0713 16.8198 14.6306 16.5478C14.1793 16.2898 13.6448 16.2192 13.1419 16.3511C12.6391 16.4829 12.208 16.8067 11.9412 17.2529V17.2568Z" fill="white"/>
<path d="M9.60379 22.5014C8.91203 27.2861 9.65074 32.1684 11.727 36.5343C12.7991 38.824 16.1831 36.8305 15.1228 34.55C13.5024 31.1221 12.9049 27.2996 13.402 23.5407C13.7349 21.0676 9.94717 20.002 9.61034 22.4922L9.60379 22.5014Z" fill="white"/>
<path d="M8.81644 25.5804C7.47436 29.3262 7.73518 35.279 11.4272 37.5831C13.578 38.9291 15.5531 35.5294 13.4115 34.1886C11.4377 32.9527 11.9488 28.4638 12.6081 26.625C13.4639 24.2396 9.66573 23.2173 8.81644 25.5765V25.5804Z" fill="white"/>
<path d="M7.58946 27.337C6.48198 34.8731 8.73757 39.2087 16.5974 39.864C23.465 40.2981 30.3595 39.9905 37.1611 38.9466C40.5308 38.4905 43.3407 38.2847 45.0354 35.1641C46.2425 32.936 42.8493 30.9531 41.6409 33.1798C39.6749 36.805 28.0733 35.9531 24.3249 36.0383C18.3222 36.1694 10.0718 37.2899 11.3811 28.3882C11.7455 25.9124 7.95775 24.8495 7.58946 27.3397V27.337Z" fill="white"/>
<path d="M13.9572 17.9426C17.0529 15.4787 22.053 16.1667 25.7463 16.1078C29.6546 16.0462 34.0688 15.3777 37.5761 17.4262C37.7993 17.5562 38.0459 17.6409 38.3019 17.6755C38.5579 17.7102 38.8181 17.694 39.0679 17.6281C39.3176 17.5621 39.5519 17.4476 39.7574 17.2911C39.9629 17.1346 40.1355 16.9391 40.2655 16.7159C40.3954 16.4927 40.4801 16.246 40.5147 15.99C40.5494 15.7341 40.5332 15.4738 40.4673 15.2241C40.4013 14.9743 40.2868 14.74 40.1303 14.5346C39.9738 14.3291 39.7783 14.1564 39.5551 14.0265C34.7975 11.248 29.0976 12.1182 23.7987 12.2021C19.1552 12.2768 14.935 12.1628 11.1722 15.1589C9.19311 16.7316 11.9913 19.4997 13.952 17.9387L13.9572 17.9426Z" fill="white"/>
<path d="M42.0334 19.2419C42.6014 20.5423 42.7877 21.9773 42.5708 23.3796C42.4483 23.8818 42.5223 24.4118 42.7776 24.8612C43.0329 25.3107 43.4502 25.6457 43.9443 25.7977C44.4468 25.9324 44.9822 25.864 45.4346 25.6073C45.8871 25.3505 46.2204 24.926 46.3624 24.4255C46.7768 21.9965 46.4512 19.4991 45.4279 17.2576C45.1626 16.8099 44.7315 16.4847 44.228 16.3528C43.7246 16.2208 43.1894 16.2925 42.7385 16.5525C42.2979 16.8243 41.9789 17.2553 41.8476 17.7561C41.7163 18.2568 41.7828 18.7889 42.0334 19.2419Z" fill="white"/>
<path d="M43.2217 19.5852C44.2781 21.6822 43.6595 24.1003 43.1562 26.2694C42.5835 28.7321 46.3738 29.7832 46.9479 27.3179C47.7172 24.0033 48.2008 20.7648 46.6176 17.6036C45.4813 15.3427 42.0881 17.3309 43.2217 19.5892V19.5852Z" fill="white"/>
<path d="M43.6701 21.4808C44.1679 23.8855 44.106 26.3725 43.4892 28.7495C43.0331 31.2227 46.8221 32.2882 47.2808 29.798C48.0589 26.7335 48.1208 23.5311 47.4617 20.4388C47.3227 19.936 46.9896 19.509 46.5357 19.2518C46.0819 18.9946 45.5444 18.9282 45.0416 19.0672C44.5388 19.2063 44.1119 19.5394 43.8546 19.9932C43.5974 20.4471 43.531 20.9845 43.6701 21.4873V21.4808Z" fill="white"/>
<path d="M43.8464 24.5936C44.1617 26.194 44.1354 27.843 43.7691 29.4325C43.2121 31.8965 47.0024 32.9489 47.5607 30.481C48.0799 28.2031 48.1058 25.8405 47.6367 23.5517C47.144 21.072 43.3536 22.1218 43.8464 24.6002V24.5936Z" fill="white"/>
<path d="M24.8542 48.4723C30.5307 49.9594 36.5236 49.7009 42.0509 47.7304C42.3781 47.6332 42.6748 47.4534 42.9124 47.2084C43.15 46.9634 43.3206 46.6613 43.4077 46.3313C43.4949 46.0013 43.4957 45.6544 43.41 45.324C43.3243 44.9936 43.1551 44.6908 42.9186 44.4447C41.5948 43.1341 40.5214 43.252 38.6905 43.3582C35.891 43.5207 33.0902 43.8431 30.3025 44.1446C28.0508 44.3857 21.7401 43.7697 21.0154 46.8392C20.4348 49.3006 24.2251 50.3504 24.807 47.8877C24.423 49.5181 26.5003 48.5076 27.5108 48.391C29.1386 48.2023 30.7673 48.0275 32.3968 47.8667C33.3405 47.7711 39.4847 46.5849 40.1387 47.2337L41.0064 43.948C36.1618 45.7196 30.8935 45.9783 25.8988 44.6898C23.4453 44.0685 22.3981 47.8602 24.8503 48.4814L24.8542 48.4723Z" fill="white"/>
<path d="M12.2847 9.94368C16.2623 8.98112 20.3218 8.39617 24.4093 8.19661C26.5338 8.09176 27.1891 4.85058 24.9336 4.33419C20.17 3.23778 15.1792 3.71938 10.7132 5.70642C8.46028 6.85846 10.4511 10.2517 12.6975 9.10094C16.2375 7.63022 20.1457 7.29053 23.8864 8.12846L24.4106 4.26735C19.9704 4.4798 15.5602 5.11127 11.2388 6.15334C8.78007 6.74575 9.82202 10.5387 12.2873 9.94368H12.2847Z" fill="white"/>
<path d="M9.0368 13.1404C16.925 10.9737 25.1052 10.0625 33.2769 10.4405C35.8077 10.5532 35.8011 6.62136 33.2769 6.50865C24.7513 6.12354 16.2183 7.08241 7.99092 9.35009C7.48829 9.48913 7.06148 9.82214 6.80439 10.2759C6.54729 10.7296 6.48097 11.2669 6.62001 11.7695C6.75905 12.2721 7.09206 12.6989 7.54579 12.956C7.99952 13.2131 8.5368 13.2795 9.03942 13.1404H9.0368Z" fill="black"/>
<path d="M8.78588 10.5578C14.8148 5.27594 22.7742 6.26809 29.9106 8.38213C32.3418 9.10166 33.3811 5.30871 30.9591 4.59048C22.3325 2.03738 13.149 1.51313 6.00473 7.77662C4.09908 9.44898 6.88941 12.2196 8.78588 10.5578Z" fill="black"/>
<path d="M21.9769 4.91322L21.9323 4.85948V7.63932L21.9808 7.58952C22.3496 7.22037 22.5567 6.71983 22.5564 6.19802C22.5562 5.6762 22.3487 5.17586 21.9795 4.80706C21.7967 4.62444 21.5798 4.47962 21.341 4.38086C21.1023 4.28209 20.8464 4.23132 20.588 4.23145C20.0662 4.23169 19.5659 4.43922 19.1971 4.80837L19.1486 4.85948C18.7929 5.23487 18.5947 5.7323 18.5947 6.2494C18.5947 6.7665 18.7929 7.26393 19.1486 7.63932L19.1931 7.69437C19.5636 8.05943 20.0629 8.26407 20.5831 8.26407C21.1032 8.26407 21.6025 8.05943 21.973 7.69437C22.3317 7.32028 22.5319 6.82206 22.5319 6.30379C22.5319 5.78552 22.3317 5.2873 21.973 4.91322H21.9769Z" fill="black"/>
<path d="M18.9244 8.42114C19.4458 8.42114 19.9459 8.21401 20.3146 7.84533C20.6833 7.47664 20.8904 6.9766 20.8904 6.4552C20.8904 5.9338 20.6833 5.43375 20.3146 5.06507C19.9459 4.69638 19.4458 4.48926 18.9244 4.48926C18.403 4.48926 17.903 4.69638 17.5343 5.06507C17.1656 5.43375 16.9585 5.9338 16.9585 6.4552C16.9585 6.9766 17.1656 7.47664 17.5343 7.84533C17.903 8.21401 18.403 8.42114 18.9244 8.42114Z" fill="black"/>
<path d="M21.6163 50.1603C29.2636 50.2614 36.8693 49.0193 44.087 46.4905C46.4606 45.6622 45.4396 41.8614 43.0385 42.7002C36.1597 45.1225 28.9086 46.3168 21.6163 46.2284C21.0949 46.2284 20.5949 46.4355 20.2262 46.8042C19.8575 47.1729 19.6504 47.6729 19.6504 48.1943C19.6504 48.7157 19.8575 49.2158 20.2262 49.5845C20.5949 49.9531 21.0949 50.1603 21.6163 50.1603Z" fill="black"/>
<path d="M20.6926 48.5253C26.9941 46.7271 34.5655 47.1622 41.1016 46.6681C43.6089 46.4781 43.6285 42.5449 41.1016 42.7363C34.2274 43.2605 26.3007 42.8359 19.6467 44.735C19.3978 44.8038 19.1649 44.921 18.9613 45.0798C18.7578 45.2387 18.5874 45.4361 18.4601 45.6607C18.3328 45.8854 18.251 46.1329 18.2194 46.3892C18.1878 46.6455 18.2069 46.9055 18.2758 47.1544C18.3446 47.4033 18.4618 47.6361 18.6206 47.8397C18.7795 48.0433 18.9769 48.2136 19.2015 48.3409C19.6553 48.598 20.1926 48.6643 20.6952 48.5253H20.6926Z" fill="black"/>
</g>
<defs>
<clipPath id="clip0_1_30701">
<rect width="52.5666" height="53.9454" fill="white" transform="translate(0.324219 0.527344)"/>
</clipPath>
</defs>
</svg>
