<svg width="142" height="134" viewBox="0 0 142 134" fill="none" xmlns="http://www.w3.org/2000/svg">
<path d="M40.2897 123.96C33.5154 98.3212 27.4355 72.0512 17.4847 47.4426C16.7014 45.5055 20.4059 50.4582 21.745 52.07C29.1423 60.9737 37.3528 69.1919 45.9283 76.9836C52.922 83.338 60.275 89.1581 68.0232 94.5842C71.0868 96.7298 80.6529 102.566 77.2954 100.906C61.5108 93.0988 48.2726 85.9362 29.8478 86.1144C22.384 86.1867 12.9815 86.377 6.29108 90.2461C6.09371 90.3602 -0.267318 94.7598 2.8662 94.7908C11.3341 94.8746 20.9098 89.0295 28.0101 85.2881C40.1439 78.8944 51.6342 71.3693 63.0111 63.7624C64.7297 62.6133 72.2637 56.6791 68.6079 63.3493C64.2823 71.2414 59.1148 78.6645 54.7829 86.5689C49.0694 96.9946 43.3957 107.722 39.3708 118.919C38.5339 121.248 37.6729 123.792 37.5748 126.315C37.4561 129.367 38.251 127.254 39.5378 127.678" stroke="#E1251B" stroke-width="3" stroke-linecap="round"/>
<path d="M108.801 119.531C106.151 125.818 118.301 133.577 121.319 128.177C124.322 122.804 116.665 119.451 112.579 119.046C107.737 118.567 103.697 121.841 105.394 127.059C107.162 132.494 115.528 134.056 118.356 128.624C120.493 124.519 117.172 121.692 113.208 121.692C109.872 121.692 107.704 126.689 111.579 127.469C113.187 127.793 118.842 125.284 116.356 123.183C113.447 120.724 112.315 125.94 112.134 127.581" stroke="#E1251B" stroke-width="3" stroke-linecap="round"/>
<path d="M127.872 29.813C127.872 25.7803 126.942 22.487 125.798 18.5537C124.246 13.2179 122.23 7.79243 121.255 2.30682C120.948 0.584288 126.542 6.65433 127.082 7.14633C130.457 10.2205 137.01 12.89 139.724 16.2821C140.249 16.9382 138.042 16.4605 137.205 16.3809C132.809 15.9622 128.485 15.0643 124.069 14.8007C120.3 14.5756 108.984 15.492 112.761 15.492C118.27 15.492 124.749 10.4413 129.255 7.78831C132.111 6.10659 139.172 0.147727 135.279 6.9982C132.067 12.6515 130.007 18.5627 128.958 24.9735C128.713 26.4712 128.472 28.8232 128.958 25.6649C129.901 19.536 131.155 13.347 132.711 7.34388C133.953 2.55471 130.833 9.40359 130.539 10.8007C128.867 18.7411 129.452 13.8109 129.65 8.67721C129.694 7.52017 130.172 10.9368 130.539 12.0352" stroke="#E1251B" stroke-width="3" stroke-linecap="round"/>
</svg>
