<svg width="787" height="114" viewBox="0 0 787 114" fill="none" xmlns="http://www.w3.org/2000/svg">
<path d="M136.279 80.2233C136.313 85.4135 137.115 90.2976 138.684 95.2708C140.152 99.9263 139.567 94.9669 139.306 93.6035C139.047 92.251 136.967 80.6403 135.592 80.4734C135.048 80.4074 137.961 91.6754 138.383 92.7073C138.485 92.9574 139.586 96.2336 140.057 96.1879C140.709 96.1246 139.284 92.2195 139.242 92.1238C137.898 89.1071 135.605 84.0715 131.943 83.0161C129.612 82.3443 126.585 82.8494 124.172 82.8494C123.87 82.8494 122.636 82.8848 124.172 82.8285C128.109 82.6843 131.985 82.4786 135.764 81.3071C139.969 80.0035 144.889 77.2222 149.417 77.2222" stroke="black" stroke-width="3" stroke-linecap="round"/>
<path d="M159.546 84.3203C159.98 83.833 159.999 83.4696 159.385 83.0612C156.265 80.9863 151.38 86.5578 149.815 88.5785C144.033 96.0446 157.789 97.0578 161.91 93.5006C166.488 89.5485 165.543 82.2218 159.133 81.2068C154.175 80.4218 147.483 85.6744 149.333 91.0968C150.793 95.3738 158.102 98.2921 161.359 94.3935C163.853 91.4072 166.091 82.6635 161.29 80.3826C160.024 79.7815 161.217 81.0448 161.451 81.2984C162.879 82.8474 164.038 84.6141 165.398 86.2205C167.946 89.2307 170.417 91.3258 174.417 91.3258" stroke="black" stroke-width="3" stroke-linecap="round"/>
<path d="M177.853 78.2222C178.798 83.9796 180.307 89.5986 181.577 95.282C182.262 98.3464 180.97 92.9519 180.924 92.7994C179.734 88.8756 178.509 84.9036 177.723 80.8643C177.006 77.1855 177.745 81.7894 177.962 82.6864C178.691 85.6988 179.915 88.5543 180.902 91.4783C181.155 92.2297 181.595 94.1449 182.078 93.5282C182.658 92.7867 182.537 90.1117 181.381 90.1117" stroke="black" stroke-width="3" stroke-linecap="round"/>
<path d="M179.417 89.8105C181.239 86.1234 183.552 82.8609 186.038 79.5604C187.928 77.052 186.461 78.6959 185.857 79.4732C183.545 82.45 180.697 86.6361 179.848 90.3121C179.379 92.3393 182.354 91.3409 183.997 91.3807C188.089 91.48 192.178 92.7223 196.061 93.9106C201.052 95.4379 186.045 90.9072 180.914 89.8978C180.201 89.7575 180.483 89.8266 181.004 89.985C183.402 90.7133 185.858 91.2801 188.329 91.7297C192.14 92.4233 195.809 92.2904 199.417 93.7361" stroke="black" stroke-width="3" stroke-linecap="round"/>
<path d="M235.417 77.2222C235.669 79.2782 236.611 81.3027 237.302 83.2171C240.25 91.3898 237.137 82.7176 239.877 90.3829C240.106 91.0234 240.322 91.6686 240.566 92.3031C240.878 93.1136 240.825 92.7583 240.727 92.1626C239.989 87.6527 237.96 82.7467 235.923 78.6741C235.339 77.5062 235.486 78.7158 235.601 79.2829C236.18 82.1359 237.248 84.923 238.36 87.5962C239.434 90.1813 240.86 92.7491 241.532 95.488C241.648 95.9624 241.736 96.8089 241.578 95.605C240.698 88.8837 238.382 77.6905 248.612 77.6905C253.657 77.6905 256.071 85.0952 257.486 88.931C258.051 90.4628 259.417 96.0657 259.417 91.5538" stroke="black" stroke-width="3" stroke-linecap="round"/>
<path d="M240.417 90.1787C240.997 86.0932 243.653 83.3368 246.975 81.1657C250.235 79.0351 253.157 80.8257 255.577 83.4306C258.379 86.4487 259.066 91.2114 259.417 95.2222" stroke="black" stroke-width="3" stroke-linecap="round"/>
<path d="M264.755 81.4731C268.064 87.6893 271.043 94.1213 273.777 100.6C274.84 103.118 275.882 105.918 276.21 108.648C276.293 109.336 276.021 109.425 275.525 108.81C272.874 105.522 271.222 101.181 269.526 97.3848C268.104 94.2028 261.357 83.3051 267.046 81.2881C269.695 80.3489 273.51 79.5973 276.139 80.9874C279.166 82.5878 279.024 87.0474 278.477 89.8915C278.059 92.0652 276.815 94.2472 274.58 95.0258C274.08 95.1999 269.478 95.1189 269.715 94.887C270.235 94.3776 272.853 94.8044 273.541 94.7252C276.372 94.399 278.602 92.9742 279.776 90.4003C281.945 85.6473 278.326 80.7171 273.163 80.3167C264.595 79.6522 263.741 87.3379 264.755 93.5456" stroke="black" stroke-width="3" stroke-linecap="round"/>
<path d="M281.417 81.8093C284.17 85.2552 286.625 86.5747 291.006 87.3928C292.617 87.6937 297.539 88.7096 299.064 86.805C300.792 84.6485 299.554 80.2339 297.343 79.0664C294.7 77.6706 290.37 76.2372 287.634 78.1358C284.657 80.2026 283.995 84.2415 285.219 87.4907C288.419 95.9876 300.9 92.0083 301.408 83.6949C301.661 79.5535 296.594 77.9491 293.469 77.5726C288.203 76.938 286.316 79.2889 285.291 84.0133" stroke="black" stroke-width="3" stroke-linecap="round"/>
<path d="M305.417 76.5657C309.683 78.9781 314.078 81.1419 318.451 83.3385C319.635 83.9334 321.204 84.7279 322.489 85.3277C322.7 85.426 323.241 85.5775 323.063 85.7303C320.952 87.5455 312.152 80.9399 310.557 79.8811C309.121 78.9278 307.215 77.8674 306.014 76.5657C304.808 75.2594 309.224 78.0302 310.695 79.0049C315.166 81.9676 319.87 84.4068 324.417 87.2222" stroke="black" stroke-width="3" stroke-linecap="round"/>
<path d="M319.417 74.2222C314.984 78.8386 305.574 95.4018 309.251 90.2343C311.739 86.7368 313.451 82.788 316.147 79.3078C316.638 78.6731 320.849 73.2935 317.521 76.2653C313.589 79.7769 311.472 84.9006 309.18 89.4126" stroke="black" stroke-width="3" stroke-linecap="round"/>
<path d="M329.657 81.8192C328.654 86.2342 336 91.6913 340.245 89.3567C342.94 87.8743 345.016 84.9298 343.789 81.8192C340.041 72.3141 321.607 80.0679 327.608 88.887C332.717 96.3947 352.045 90.2082 347.817 80.4325C345.96 76.1385 338.948 74.0314 334.721 75.9145C331.538 77.3321 329.754 80.7295 328.966 83.8769C328.25 86.7403 328.973 87.604 330.071 89.8711" stroke="black" stroke-width="3" stroke-linecap="round"/>
<path d="M363.992 76.2097C359.729 72.0085 350.449 82.2654 356.295 87.219C362.174 92.2 367.712 87.0354 370.417 81.0755" stroke="black" stroke-width="3" stroke-linecap="round"/>
<path d="M368.09 76.2842C363.566 75.8179 354.781 77.944 354.431 83.8867C354.202 87.7994 356.734 91.3051 360.578 91.8843C366.073 92.7124 370.648 86.8838 369.956 81.5152C369.886 80.9722 367.204 76.8529 366.883 78.6556C366.438 81.1586 368.741 84.3568 369.637 86.5138C372.072 92.3698 373.337 98.9497 373.416 105.299C373.44 107.204 372.995 113.793 369.592 110.135C366.916 107.258 367.693 102.112 368.909 98.8823" stroke="black" stroke-width="3" stroke-linecap="round"/>
<path d="M367.806 97.9619C366.085 103.352 368.096 107.308 370.917 111.74" stroke="black" stroke-width="3" stroke-linecap="round"/>
<path d="M387.518 74.5617C388.307 78.5333 389.793 82.1915 391.414 85.8949C392.503 88.3822 392.612 87.9522 392.139 85.9853C391.458 83.1591 390.241 80.437 389.013 77.8127C388.751 77.2518 387.796 74.4698 386.929 74.223C386.59 74.1263 389.728 82.1336 390.282 83.0052C393.851 88.6296 392.179 81.3326 390.757 78.8737C387.843 73.8338 380.202 72.461 379.455 79.6639C379.088 83.1961 381.427 84.7163 384.846 84.6081C385.119 84.5995 390.304 82.863 389.376 82.373C385.929 80.5543 382.561 88.6354 381.607 90.7488C380.74 92.6673 385.026 87.9684 385.48 87.4753C386.174 86.7204 391.066 81.0024 387.541 83.9308C385.477 85.6447 383.558 87.831 382.037 90.0264C381.565 90.707 379.211 95.0932 379.772 94.0675C380.906 91.9949 382.442 90.1863 383.645 88.1526C383.979 87.5875 385.923 85.1096 385.072 85.5337" stroke="black" stroke-width="3" stroke-linecap="round"/>
<path d="M402.417 77.5939C402.498 79.2862 402.859 80.9722 403.131 82.641C403.332 83.8726 403.483 91.191 404.774 91.9239C404.995 92.0496 404.898 88.2665 404.893 88.1837C404.717 84.9341 404.679 81.6415 404.322 78.405C403.843 74.0713 403.258 77.1366 403.274 79.4865C403.31 84.6062 404.002 89.311 405.417 94.2222" stroke="black" stroke-width="3" stroke-linecap="round"/>
<path d="M394.892 75.679C393.459 76.4948 395.668 76.5176 396.292 76.5363C401.967 76.7068 418.94 75.6704 413.276 75.2932C408.126 74.9503 402.65 75.8902 397.737 77.2222" stroke="black" stroke-width="3" stroke-linecap="round"/>
<path d="M423.129 75.2222C422.56 78.8384 422.707 81.9561 423.538 85.5653C424.029 87.6979 424.893 92.7615 427.772 93.3584C431.247 94.0791 434.149 91.8837 435.156 88.7111C437.432 81.5447 424.12 83.9808 422.552 89.8074C420.979 95.6514 433.689 96.3019 432.799 88.0438C432.448 84.7902 427.859 84.6177 425.823 86.3279C423.76 88.0607 423.562 90.7551 423.562 93.2392" stroke="black" stroke-width="3" stroke-linecap="round"/>
<path d="M420.417 78.2222C420.99 84.4436 422.643 90.3249 424.417 96.2222" stroke="black" stroke-width="3" stroke-linecap="round"/>
<path d="M479.862 71.2957C480.134 76.7442 480.954 82.0972 482.035 87.4439C482.582 90.1507 483.102 91.4766 482.874 88.4316C482.54 83.9724 481.994 77.8012 480.331 73.6414C478.911 70.092 480.875 81.3482 482.084 84.9748C482.47 86.1327 482.914 87.2979 483.368 88.4316C483.702 89.2677 482.951 86.6586 482.528 85.8637C481.919 84.7192 480.077 82.8814 481.738 82.2093C486.792 80.1651 492.384 78.7387 497.664 77.3698C501.28 76.4325 490.67 80.0752 487.022 80.876C485.672 81.1724 478.137 81.9624 483.318 81.9624C487.137 81.9624 490.956 81.9624 494.775 81.9624C495.725 81.9624 494.127 81.7026 494.035 81.6661C492.387 81.0188 491.727 79.6521 491.516 77.9624C491.38 76.876 492.14 71.5658 491.319 70.9501C490.462 70.3075 491.031 73.098 491.17 74.1599C491.593 77.3773 492.644 80.5631 493.639 83.6414C493.911 84.482 496.257 90.9976 496.257 86.9007C496.257 81.4846 495.291 65.2964 494.973 70.7032C494.644 76.2959 496.293 81.4799 498.035 86.7032C498.057 86.7714 498.539 88.2614 498.677 88.555C498.771 88.7565 498.698 88.1058 498.652 87.8884C498.044 85.0538 496.913 82.4257 495.862 79.7402" stroke="black" stroke-width="3" stroke-linecap="round"/>
<path d="M515.417 81.0732C515.417 77.5657 512.147 75.2824 508.824 74.6781C506.786 74.3075 505.183 76.9621 504.503 78.5053C502.325 83.447 503.218 92.5601 510.552 92.0362C515.777 91.663 522.975 81.151 517.441 77.172C513.042 74.0081 506.131 74.7618 505.046 80.6781C504.14 85.6223 506.626 91.0979 512.33 91.0979C518.04 91.0979 524.147 83.1918 521.441 77.6164C520.996 76.6995 519.945 75.609 519.022 75.1473C518.113 74.693 519.145 77.9319 519.219 78.2337C520.312 82.7026 523.122 90.2031 528.306 90.851" stroke="black" stroke-width="3" stroke-linecap="round"/>
<path d="M530.973 77.0732C531.328 80.8975 536.383 93.0055 541.985 90.5547C544.695 89.369 544.5 84.7774 544.207 82.4066C544.107 81.5966 541.639 77.4479 541.639 79.1473C541.639 81.8198 543.431 85.3336 545.294 87.1967C550.084 91.987 550 78.2584 548.059 78.2584C546.518 78.2584 551.212 86.4202 552.059 87.0979C554.435 88.9983 557.831 90.0434 560.306 88.6288" stroke="black" stroke-width="3" stroke-linecap="round"/>
<path d="M530.973 79.7398C531.101 83.4577 537.041 90.5706 540.973 90.3324C544.837 90.0981 544.308 82.928 543.343 80.4558C543.188 80.0574 539.997 76.5368 539.886 76.925C539.194 79.3487 542.764 83.1131 544.133 84.678C544.619 85.2328 548.765 90.4406 549.985 88.678C551.652 86.2703 551.759 79.0088 549.985 76.6287C547.38 73.1339 547.735 76.3688 548.504 79.0484C549.869 83.8087 552.089 86.9336 556.75 88.6286" stroke="black" stroke-width="3" stroke-linecap="round"/>
<path d="M565.195 77.9623C565.419 81.7635 566.889 92.9465 567.392 89.1722C567.918 85.2266 565.886 80.2419 564.405 76.703C563.136 73.6709 563.472 79.8945 563.516 80.5302C563.765 84.1648 564.983 87.4224 566.973 90.4067" stroke="black" stroke-width="3" stroke-linecap="round"/>
<path d="M560.75 66.4067C559.422 68.2335 561.474 68.4975 560.503 65.8635C559.573 63.3369 559.417 69.0599 559.417 69.5178" stroke="black" stroke-width="3" stroke-linecap="round"/>
<path d="M602.528 73.3511C602.85 76.6032 603.591 79.6019 604.553 82.7338C604.924 83.9429 605.318 85.1457 605.738 86.3387C606.034 87.1791 606.308 89.4463 606.874 88.7585C608.236 87.1049 604.819 79.2695 604.158 77.5486C602.972 74.4596 603.85 80.8 603.96 81.3511C604.53 84.1984 605.684 86.7727 606.973 89.3511" stroke="black" stroke-width="3" stroke-linecap="round"/>
<path d="M595.417 75.5736C593.814 75.1598 593.895 75.1291 595.615 75.1291C601.048 75.1291 606.444 74.6075 611.861 74.2402" stroke="black" stroke-width="3" stroke-linecap="round"/>
<path d="M617.194 76.4622C615.561 74.2162 617.635 82.0336 618.38 84.7091C619.775 89.7239 624.186 104.656 623.318 99.5239C622.053 92.0474 615.433 82.9361 617.935 75.2029C618.661 72.9604 621.597 73.2107 623.367 73.919C626.332 75.1049 627.552 78.7286 627.762 81.6721C628.001 85.0149 625.34 86.2322 622.38 86.5857C621.994 86.6317 617.933 86.8351 618.528 86.24" stroke="black" stroke-width="3" stroke-linecap="round"/>
<path d="M632.306 83.5735C634.359 82.7666 642.534 78.7305 642.33 76.6105C642.118 74.3982 636.961 73.0217 635.195 73.45C631.982 74.2287 632.506 80.3378 633.318 82.6105C635.216 87.9248 641.662 87.1118 645.195 84.4623" stroke="black" stroke-width="3" stroke-linecap="round"/>
<path d="M617.195 78.6843C618.34 86.3989 620.951 93.7185 624.405 100.709C625.166 102.25 626.274 102.819 625.516 100.734C622.973 93.7425 617.386 87.2144 616.8 79.5978C616.322 73.3825 621.647 74.7472 624.8 78.4867C628.393 82.749 625.122 85.8795 620.75 87.1287" stroke="black" stroke-width="3" stroke-linecap="round"/>
<path d="M632.028 85.2398C634.38 84.3392 644.49 80.9279 643.51 77.6596C642.576 74.5484 636.05 73.6487 633.51 74.425C630.261 75.4176 631.701 82.0612 633.065 83.9065C637.309 89.6449 645.096 87.3603 649.806 83.9065" stroke="black" stroke-width="3" stroke-linecap="round"/>
<path d="M652.028 77.6844C651.098 80.7424 652.814 84.9793 653.757 87.8572C653.838 88.1057 653.83 88.4905 654.078 88.5732C654.79 88.8107 653.885 87.0807 653.707 86.351C653.024 83.543 652.159 80.7789 651.436 77.9806C650.426 74.0767 651.414 80.9897 651.633 81.8078C652.348 84.467 653.459 87.0444 654.251 89.6844" stroke="black" stroke-width="3" stroke-linecap="round"/>
<path d="M652.917 84.3508C654.496 82.1144 659.427 83.0533 661.757 83.0174C662.045 83.013 662.353 83.0998 662.621 82.9927C663.365 82.695 661.025 82.8387 660.226 82.7705C658.037 82.5837 655.849 82.393 653.658 82.2273C650.621 81.9976 655.031 82.1286 655.683 82.1286C657.628 82.1286 662.121 82.8911 663.288 80.7705C664.795 78.0306 660.614 68.8749 660.078 71.9557C659.166 77.2008 661.603 85.5408 664.917 89.6841" stroke="black" stroke-width="3" stroke-linecap="round"/>
<path d="M668.917 73.6842C670.277 76.0086 671.631 78.5606 673.707 80.3508C675.146 81.5908 671.204 77.4899 669.855 76.1533C664.989 71.3319 668.733 77.3605 670.497 79.4126C672.081 81.2535 676.779 85.5029 679.139 82.3755C681.011 79.8958 682.296 76.6104 683.09 73.6348C683.89 70.6355 681.698 79.688 681.164 82.7459C681.027 83.5293 680.151 91.2139 680.571 87.9558C681.106 83.8161 684.549 71.7716 683.979 75.9064C683.301 80.8205 682.019 85.6421 681.362 90.5731" stroke="black" stroke-width="3" stroke-linecap="round"/>
<path d="M690.25 77.2399C690.429 79.9268 691.263 82.6229 692.003 85.1905C694.116 92.5198 692.129 83.7651 691.633 81.5855C691.464 80.8448 690.299 75.8135 690.299 76.5979C690.299 79.4821 691.268 82.3841 692.003 85.1411C692.243 86.0396 693.218 89.1777 692.719 86.2769C692.213 83.3347 691.465 80.4253 691.238 77.4374C690.999 74.3022 695.984 69.6123 698.299 73.5362C700.923 77.9817 695.38 82.8272 692.151 84.6967C690.278 85.7814 690.58 85.3794 692.373 84.7954C695.431 83.8 698.926 83.4473 702.127 83.5362C706.017 83.6442 708.307 86.0242 703.83 87.9065C702.849 88.3189 694.25 91.0176 696.028 89.2399" stroke="black" stroke-width="3" stroke-linecap="round"/>
<path d="M720.862 80.1289C721.298 79.9473 723.14 78.8717 721.726 78.4252C719.499 77.7218 714.056 77.601 712.862 80.1289C709.936 86.3239 714.329 92.2783 720.812 92.0548C727.107 91.8377 728.101 84.0736 723.43 80.7708C719.162 77.7535 712.043 79.5213 711.627 85.24C711.25 90.4237 716.311 93.6226 721.059 91.7091C724.973 90.1321 728.795 82.221 725.306 78.5486C724.929 78.1514 724.438 78.386 724.491 78.919C724.698 80.9824 725.898 83.4858 726.936 85.24C728.76 88.3221 731.939 91.676 735.529 92.5733" stroke="black" stroke-width="3" stroke-linecap="round"/>
<path d="M688.862 77.4621C687.252 77.5693 689.244 82.3094 689.306 82.4991C689.956 84.4699 691.132 87.4755 691.973 89.4127C692.238 90.0239 692.514 90.6327 692.837 91.2151C693.306 92.0596 693.265 91.5141 693.208 90.9682C692.688 86.0353 691.201 81.2079 690.738 76.2275C690.015 68.4345 701.964 73.7298 698.788 79.3386C696.66 83.0968 692.656 84.9041 688.812 86.3015C685.235 87.6023 696.187 84.2791 699.973 83.8818C703.584 83.5029 706.766 85.3482 702.961 88.7213C699.827 91.4992 694.999 91.2398 691.084 91.2398" stroke="black" stroke-width="3" stroke-linecap="round"/>
<path d="M739.973 75.5733C739.973 71.9829 740.704 82.721 741.281 86.2646C741.288 86.3054 742.247 92.0087 742.121 91.5239C741.585 89.4692 740.94 87.4381 740.195 85.4498C739.492 83.5766 737.659 77.9698 737.75 79.9683C737.942 84.185 739.864 88.5261 740.861 92.6103C741.459 95.0562 741.93 94.1636 741.257 92.1905C740.607 90.2875 739.36 88.2804 739.108 86.2646C738.654 82.6311 747.73 83.2077 750.096 83.1288C751.791 83.0723 749.982 82.6674 749.553 81.993C748.81 80.8258 749.64 79.3578 749.948 78.2152C750.326 76.8121 750.223 74.7549 748.96 73.7955C748.025 73.0846 748.844 79.521 748.96 80.1165C749.485 82.8013 750.012 87.2722 751.701 89.5239C751.845 89.7157 751.735 85.9968 751.726 85.8942C751.485 83.3159 751.228 80.7298 750.862 78.1658C750.349 74.5763 750.003 74.7951 750.294 78.3387C750.613 82.2344 751.778 85.9616 752.417 89.7955" stroke="black" stroke-width="3" stroke-linecap="round"/>
<path d="M754.639 75.129C755.558 80.1268 756.472 85.8445 758.639 90.4871C760.162 93.7511 757.74 83.3253 756.91 79.8204C756.73 79.0573 755.724 74.4056 756.021 77.9685C756.35 81.9084 758.084 85.5 759.33 89.2031C760.97 94.0765 758.984 87.7946 758.639 86.2401C758.579 85.9713 757.671 84.2529 757.849 84.1167C759.205 83.0729 762.915 83.543 764.565 83.3513C765.269 83.2694 767.961 83.3766 767.849 82.1414C767.654 79.9965 765.751 77.3612 764.96 75.3266C764.578 74.3454 763.528 71.459 763.528 72.5117C763.528 75.5782 764.858 79.0816 765.775 81.9685C765.948 82.514 767.646 88.2154 768.17 88.2154C768.694 88.2154 766.063 77.5752 765.849 76.6105C765.434 74.7464 765.208 72.7407 765.33 75.9685C765.45 79.1592 765.869 82.2706 766.639 85.3512" stroke="black" stroke-width="3" stroke-linecap="round"/>
<path d="M782.195 72.9068C782.533 77.9812 783.779 82.8618 784.713 87.845C784.911 88.8968 784.984 89.6796 784.812 88.2154C784.435 85.0129 783.535 81.898 782.738 78.7833C782.324 77.1639 782.19 73.0215 780.861 71.771C780.343 71.2835 780.917 75.3564 780.936 75.4253C781.799 78.7159 783.028 82.0523 784.368 85.1784C785.577 88.0001 785.244 85.0526 785.034 83.7216C784.615 81.0661 784.028 77.8068 782.615 75.4747C781.551 73.7198 777.589 71.7415 775.874 73.6475C773.565 76.213 772.092 82.7161 776.442 83.7463C778.049 84.127 779.921 84.022 781.355 83.129C781.679 82.9277 782.743 81.6788 781.652 81.7957C777.469 82.2437 774.817 90.5967 773.75 93.7957" stroke="black" stroke-width="3" stroke-linecap="round"/>
<path d="M30.9723 2C23.7709 9.56604 16.965 17.4645 10.4785 25.6543C7.76682 29.078 4.61793 32.6345 3.31795 36.9136C0.562929 45.9822 2.36355 54.8282 6.52783 63.2346C12.1593 74.6029 21.1994 83.1529 33.7377 86.0494C45.3683 88.7362 58.8231 86.217 67.8118 78C70.6414 75.4133 76.1806 67.267 71.4167 63.8766C66.8738 60.6433 61.0687 62.3057 58.1822 66.7901C53.1081 74.673 55.8438 83.0376 62.3797 89.0617C69.757 95.8615 78.479 98.8654 88.3056 99.3333" stroke="black" stroke-width="3" stroke-linecap="round"/>
<path d="M4.30566 17.5557C11.9186 13.0321 19.8374 8.96031 27.318 4.22242C27.9613 3.815 31.2679 1.67533 31.3427 2.04959C31.4562 2.6172 30.6346 3.29023 30.5279 3.87673C30.1557 5.92394 30.0835 7.97422 30.0835 10.0496C30.0835 16.1323 29.1012 24.0359 31.8612 29.5557" stroke="black" stroke-width="3" stroke-linecap="round"/>
</svg>
