<svg width="204" height="34" viewBox="0 0 204 34" fill="none" xmlns="http://www.w3.org/2000/svg">
<path d="M28.4204 2.87354C27.5327 1.85672 26.9862 1.37772 27.0003 3.4244C27.0556 11.4652 27.9214 19.8747 29.0515 27.7653C29.6084 31.6536 29.831 28.0613 29.8404 26.7669C29.8433 26.3779 29.8456 25.9889 29.8473 25.5998M29.8473 25.5998C29.8545 23.95 29.8511 22.2997 29.832 20.6498M29.8473 25.5998C29.6995 23.6459 29.5467 20.8688 29.4098 18.3898M29.8473 25.5998C30.0212 27.8999 30.1881 29.0593 30.3138 27.2489C30.4649 25.0723 30.1589 22.78 29.832 20.6498M29.832 20.6498C29.7998 17.8663 29.723 15.084 29.5774 12.307C29.4529 9.93156 29.2822 7.5898 28.9686 5.26725M29.832 20.6498C29.8173 20.5539 29.8026 20.4584 29.7878 20.3632C29.7372 20.0364 29.5952 19.3282 29.4098 18.3898M28.9686 5.26725C28.8451 4.3519 28.6994 3.43953 28.5256 2.52927C28.5005 2.39803 28.5625 3.64955 28.6563 5.37269M28.9686 5.26725C28.8584 5.29539 28.7538 5.33017 28.6563 5.37269M28.9686 5.26725C30.0573 4.98946 31.7 5.35887 32.4965 5.31798C34.3887 5.22083 36.2574 4.77859 38.1505 4.73269C41.7335 4.64583 39.0405 23.2448 40.7276 27.6621M28.6563 5.37269C28.8361 8.67508 29.1326 13.7097 29.1567 14.0628C29.229 15.1208 29.3156 16.6848 29.4098 18.3898M28.6563 5.37269C28.5064 5.43809 28.3734 5.52181 28.2626 5.62783C27.1361 6.70558 28.6438 14.5127 29.4098 18.3898M47.828 5.35244C47.828 7.70918 47.7625 9.27745 47.6609 10.271M47.6609 10.271C47.0964 15.791 45.4172 3.57256 47.6609 10.271ZM47.6609 10.271C47.959 11.1609 48.3263 12.3848 48.7747 14.0284M62.9753 5.3523C62.9753 8.10921 63.7407 10.4768 64.474 13.0329M64.474 13.0329C64.5359 13.2485 64.5975 13.4654 64.6584 13.684C65.197 15.6173 66.0825 17.921 66.8833 20.2937M64.474 13.0329C64.1982 10.7978 64.0285 8.53183 63.9588 6.28023M64.474 13.0329C64.6999 14.8626 64.9969 16.6717 65.3684 18.4351C65.7603 20.2949 66.2367 26.6754 67.6037 27.8685C68.0487 28.2569 67.695 26.4633 67.63 25.7684C67.4583 23.9323 67.183 22.1099 66.8833 20.2937M66.8833 20.2937C67.2759 21.4569 67.6481 22.6367 67.9492 23.7976M66.8833 20.2937C66.6158 18.6726 66.3287 17.0564 66.0784 15.4398C65.7239 13.1497 65.2086 9.04106 63.9588 6.28023M67.9492 23.7976C68.3729 25.4315 68.6556 27.0281 68.6556 28.4882C68.6556 30.238 68.2931 26.5145 67.9492 23.7976ZM67.9492 23.7976C67.8565 23.0652 67.7651 22.406 67.6826 21.9468C66.6621 16.2687 65.2857 10.609 64.5006 4.8703C64.4169 4.25859 63.9221 1.79011 63.9221 3.90629C63.9221 4.69449 63.9342 5.48646 63.9588 6.28023M63.9588 6.28023C62.9885 4.13696 61.5756 2.80597 59.4515 3.76858C56.1694 5.25598 54.4521 12.3364 56.6639 16.0595C57.7382 17.8678 59.9722 17.9887 61.5553 17.6433C62.3058 17.4795 64.8192 15.4194 64.3954 16.3006C62.6125 20.0077 60.7808 26.9295 57.7684 28.9014M77.6494 5.972C77.6494 6.17759 77.6502 6.38318 77.6517 6.58879M77.6517 6.58879C77.7043 13.8468 78.6706 21.1154 79.4639 28.2816C79.9154 32.3604 79.9807 27.7358 79.911 26.6291C79.5951 21.6149 79.4654 16.5877 78.8328 11.6183C78.7386 10.8782 78.2157 5.86538 77.6517 6.58879ZM77.6517 6.58879L77.6494 6.59171M71.4957 8.45114C70.1907 5.7816 71.1156 5.53089 73.3628 5.35259C76.2192 5.12594 79.1272 4.80173 81.9884 4.80173C82.0649 4.80173 82.1201 4.80472 82.1564 4.81035M82.1564 4.81035C82.4404 4.85447 81.5589 5.06087 80.5837 5.26439M82.1564 4.81035C81.6286 4.98726 81.105 5.13724 80.5837 5.26439M82.1564 4.81035C82.2318 4.78508 82.3073 4.75926 82.3828 4.73288M80.5837 5.26439C79.9957 5.38712 79.3735 5.50881 78.9524 5.59325M80.5837 5.26439C80.0382 5.39745 79.4951 5.5055 78.9524 5.59325M78.9524 5.59325C78.8903 5.60568 78.8327 5.61731 78.7801 5.62801C78.0445 5.77783 76.8194 5.86662 75.5797 5.91823M78.9524 5.59325C77.8333 5.77417 76.7155 5.86877 75.5797 5.91823M75.5797 5.91823C75.3979 5.92579 75.2158 5.93256 75.0349 5.93861M75.5797 5.91823C75.3986 5.92611 75.217 5.93285 75.0349 5.93861M75.0349 5.93861C72.6554 6.0181 70.4805 5.9723 71.9164 5.9723C72.9817 5.9723 74.0166 5.97079 75.0349 5.93861ZM90.9034 4.73299C90.9034 11.941 92.2296 19.2442 93.8224 26.1131C94.5053 29.0581 94.1658 23.6012 94.1643 23.5654C94.139 22.9861 94.1091 22.4068 94.0748 21.8274M94.0748 21.8274C94.0737 21.8078 94.0725 21.7882 94.0713 21.7686M94.0748 21.8274C94.2646 22.5589 94.3121 22.7443 94.0713 21.7686M94.0748 21.8274C93.7058 20.4051 92.7989 16.9181 92.4286 15.8878C92.3971 15.8001 92.5007 15.7157 92.7148 15.6364M94.0713 21.7686C93.9453 19.6542 93.7621 17.5404 93.5376 15.4365M94.0713 21.7686C94.0379 21.6331 93.9988 21.4751 93.9539 21.2931C93.5033 19.4698 93.081 17.5697 92.7148 15.6364M93.5376 15.4365C93.3866 14.0208 93.2169 12.6096 93.0334 11.2055C92.9674 10.6998 91.3154 2.17466 91.4556 5.38712C91.6023 8.74836 92.0722 12.2435 92.7148 15.6364M93.5376 15.4365C93.1866 15.4983 92.9065 15.5653 92.7148 15.6364M93.5376 15.4365C95.7582 15.0455 100.812 14.8631 104.206 15.1906M104.206 15.1906C104.989 15.2661 105.683 15.3687 106.234 15.5021M104.206 15.1906C103.531 11.2816 102.858 7.07264 103.237 3.35583C103.385 1.89894 103.684 5.42311 103.684 5.69698C103.684 8.29362 103.308 11.7013 104.447 13.9942C104.71 14.5254 105.523 15.0978 106.234 15.5021M104.206 15.1906C104.441 16.549 104.676 17.8713 104.867 19.1241C105.213 21.3844 105.951 27.9564 106.419 25.7343C107.038 22.7968 106.918 19.2472 106.603 15.7817M106.234 15.5021C106.35 15.53 106.459 15.5593 106.561 15.59M106.234 15.5021C106.355 15.5705 106.472 15.6342 106.584 15.692M106.561 15.59C106.57 15.5926 106.578 15.5951 106.587 15.5977M106.561 15.59C106.132 13.6234 105.824 11.61 105.683 9.55296C105.459 6.30403 105.25 2.94878 105.788 8.31354C106.006 10.4968 106.348 13.0205 106.587 15.5977M106.561 15.59C106.569 15.624 106.576 15.658 106.584 15.692M106.587 15.5977C106.867 15.6835 107.096 15.7799 107.26 15.8878C107.695 16.1723 107.254 16.0385 106.596 15.6983M106.587 15.5977C106.59 15.6312 106.593 15.6648 106.596 15.6983M106.596 15.6983C106.592 15.6962 106.588 15.6941 106.584 15.692M106.596 15.6983C106.598 15.7261 106.601 15.7539 106.603 15.7817M106.584 15.692C106.59 15.7219 106.597 15.7518 106.603 15.7817M106.603 15.7817C107.084 17.941 107.709 20.0435 108.417 22.0849M113.151 5.972C113.151 8.01685 113.353 10.0028 113.654 11.9728M113.654 11.9728C113.91 13.6476 114.237 15.3109 114.571 16.9891C115.046 19.3716 116.398 25.3502 115.886 19.468C115.55 15.6067 114.79 11.8166 114.124 8.0377C113.594 5.02816 113.624 9.57006 113.624 10.31C113.624 10.8078 113.633 11.369 113.654 11.9728ZM113.654 11.9728C113.809 16.3059 114.652 22.8311 118.121 23.8404C124.259 25.626 125.887 12.6339 126.405 7.21142M124.038 6.59224C121.071 8.53455 128.328 25.8098 131.139 26.423M136.819 5.3526C137.198 7.39145 137.607 9.40409 138.056 11.4033M138.056 11.4033C138.475 13.2736 138.928 15.1321 139.422 16.9894C139.943 18.9461 142.78 26.6956 141 20.4323C140.15 17.4413 139.168 14.3118 138.056 11.4033ZM138.056 11.4033C137.824 10.7988 137.587 10.2039 137.345 9.62172C137.313 9.54632 136.002 6.94837 135.898 7.69373C135.139 13.1614 139.079 29.9965 145.339 24.7702C148.588 22.0579 149.991 17.6766 150.069 12.9075M150.069 12.9075C150.072 12.7651 150.073 12.6223 150.073 12.4793C150.073 10.6472 150.401 8.22418 149.547 6.62645C148.498 4.6643 148.087 5.01745 148.469 7.34944C148.79 9.31581 149.377 11.1402 150.069 12.9075ZM150.069 12.9075C151.769 17.2472 154.102 21.2422 154.701 26.1474L154.705 26.181C154.799 26.9457 155.19 30.1373 154.596 30.6231C153.938 31.1611 153.86 30.0152 153.86 29.5214M176.581 7.83157C175.467 6.13039 175.071 8.79466 175.019 12.6726M175.019 12.6726C174.993 14.5795 175.05 16.78 175.146 18.8991M175.019 12.6726C176.658 19.1501 177.55 29.2674 176.476 25.0458C176.241 24.1231 175.909 22.9533 175.523 21.643M175.019 12.6726C174.622 11.1051 174.181 9.75085 173.714 8.86442C173.101 7.70045 172.412 6.90783 171.685 6.41727M175.146 18.8991C175.174 19.5027 175.204 20.0996 175.237 20.6813M175.146 18.8991C175.292 19.8241 175.418 20.7429 175.523 21.643M175.146 18.8991C174.804 16.7272 174.351 14.5217 173.798 12.4473M175.237 20.6813C175.517 25.6598 175.951 29.5209 175.897 26.8361C175.865 25.2576 175.738 23.4899 175.523 21.643M175.237 20.6813C174.561 18.4241 173.762 15.8553 173.022 13.4504M175.237 20.6813C175.335 21.0089 175.431 21.3299 175.523 21.643M173.798 12.4473C173.779 12.3762 173.76 12.3053 173.741 12.2345M173.798 12.4473C173.556 12.7833 173.296 13.1203 173.022 13.4504M173.798 12.4473C173.832 12.4006 173.865 12.3539 173.898 12.3073C174.035 12.1149 173.95 12.1161 173.741 12.2345M173.741 12.2345C173.159 10.0853 172.47 8.08435 171.685 6.41727M173.741 12.2345C173.533 12.3524 173.202 12.5867 172.841 12.8616M171.685 6.41727C171.592 6.21822 171.497 6.02393 171.4 5.83472C170.592 4.24804 170.511 4.5668 170.849 5.98746M171.685 6.41727C171.411 6.23229 171.132 6.09026 170.849 5.98746M170.849 5.98746C171.191 7.42656 171.962 9.99634 172.841 12.8616M170.849 5.98746C164.775 3.77888 157.176 19.6792 168.429 16.8518C168.741 16.7733 169.053 16.6592 169.362 16.515M172.841 12.8616C172.901 13.0566 172.961 13.2529 173.022 13.4504M172.841 12.8616C172.14 13.3969 171.33 14.0866 171.111 14.373C170.589 15.0568 169.989 15.7705 169.362 16.515M173.022 13.4504C171.964 14.7244 170.688 15.8961 169.362 16.515M169.362 16.515C167.098 19.2008 164.472 22.2861 163.8 25.8032M152.913 30.7606C151.943 31.1069 151.011 31.5907 150.073 32" stroke="black" stroke-width="4" stroke-linecap="round"/>
</svg>
