<svg width="237" height="34" viewBox="0 0 237 34" fill="none" xmlns="http://www.w3.org/2000/svg">
<path d="M30.4636 2C30.2951 4.21659 30.2732 6.545 30.4073 8.89314M30.4073 8.89314C30.6478 13.1018 31.3893 17.3738 32.6858 21.1789C33.7902 24.42 30.2971 14.7418 28.7352 11.686C28.6055 11.4322 27.9242 9.93509 27.4846 9.16862M30.4073 8.89314C30.0153 8.92279 29.6225 8.94441 29.2291 8.95656C28.4346 8.98111 27.8538 9.02418 27.4846 9.16862M30.4073 8.89314C34.2964 8.59907 38.1216 7.51544 41.9945 7.04833C46.5108 6.50363 44.7283 6.39357 44.6859 9.05318C44.6604 10.6496 44.5972 12.2873 44.6376 13.9111M27.4846 9.16862C27.1734 8.62592 26.9834 8.44953 27.1962 9.34014M27.4846 9.16862C27.367 9.21462 27.2709 9.2709 27.1962 9.34014M27.1962 9.34014C27.2245 9.45857 27.2599 9.59586 27.3031 9.75367C27.5787 10.7602 27.8912 11.7689 28.2317 12.7765M27.1962 9.34014C26.8556 9.65573 26.9593 10.2405 27.5007 11.3479C27.7349 11.827 27.9799 12.3027 28.2317 12.7765M28.2317 12.7765C29.4571 16.4026 31.0458 20.0131 32.5871 23.4494C33.4326 25.3346 33.9813 26.1749 33.2785 23.4494C32.2925 19.6257 30.08 16.2546 28.2317 12.7765ZM44.6376 13.9111C44.6637 14.9596 44.733 16.0023 44.8834 17.0242C45.0272 18.0014 46.9014 23.2476 46.834 22.1934C46.6574 19.4294 45.6961 16.5671 44.6376 13.9111ZM44.6376 13.9111C44.3682 13.2349 44.0924 12.572 43.8217 11.9276C43.7138 11.6709 41.8449 6.86618 41.6735 8.23193C41.0961 12.8312 42.7802 18.2441 44.6365 22.3866C45.0608 23.3336 46.3777 26.9088 47.3525 25.4784M56.6858 10.2607C56.0062 13.2778 56.3725 17.3624 57.913 20.4555M57.913 20.4555C59.1377 22.9147 61.1048 24.7471 63.8786 24.9179M57.913 20.4555C57.1732 16.6023 57.3183 12.398 59.6981 9.14956C62.7665 4.96118 69.435 8.29391 72.1673 11.2752C75.307 14.7011 76.9974 21.9134 72.587 25.1883C70.0213 27.0935 66.5741 26.488 63.8786 24.9179M57.913 20.4555C58.1617 21.7512 58.5105 23.0072 58.908 24.1738M63.8786 24.9179C64.6452 24.9651 65.4735 24.8854 66.3648 24.6569C70.9555 23.48 75.7637 16.3383 71.229 12.5071C68.586 10.2741 63.527 8.84579 60.4142 11.0095C56.8071 13.5167 58.847 20.0152 61.0315 22.5796C61.774 23.4513 62.7618 24.2674 63.8786 24.9179ZM81.1303 7.21777C81.2707 8.63677 81.4205 10.0552 81.5798 11.4728M81.5798 11.4728C81.8973 14.2983 82.2528 17.1204 82.6477 19.9367M81.5798 11.4728C82.0935 13.6189 82.5043 15.7875 82.8587 17.9666C82.9636 18.6115 83.0811 20.2675 83.1628 21.6939M81.5798 11.4728C81.3665 10.5817 81.1355 9.6945 80.8834 8.81199C80.5398 7.60888 80.2209 7.50649 80.2414 8.90861C80.2745 11.1773 80.932 13.3481 81.5995 15.5029C81.959 16.6636 82.2507 18.3478 82.6477 19.9367M82.6477 19.9367C82.8403 21.3105 83.0423 22.6829 83.2538 24.0536C83.2892 24.2835 83.2434 23.1004 83.1628 21.6939M82.6477 19.9367C82.8005 20.5483 82.9689 21.1458 83.1628 21.6939M83.1628 21.6939C83.3971 22.3559 83.6685 22.9458 83.9945 23.4014C85.3074 25.2363 83.4988 18.9188 82.8093 16.7831C82.4683 15.7268 89.632 15.2413 93.123 15.0944M93.123 15.0944C93.9469 15.0597 94.5662 15.0439 94.834 15.0439C95.2454 15.0439 97.7769 15.3748 96.9328 14.4159C95.7702 13.0951 94.8672 11.827 93.9204 10.3579C92.5777 8.27429 90.9381 6.7009 91.8464 10.3821C92.1873 11.7637 92.5998 13.416 93.123 15.0944ZM93.123 15.0944C94.0446 18.0511 95.3095 21.0888 97.1303 22.87M102.019 9.82617C100.524 10.7405 102.447 16.0348 102.711 16.9277C103.111 18.2862 107.026 29.3429 105.723 22.5074C105.627 22.0055 105.475 21.3803 105.285 20.6814M105.285 20.6814C104.025 16.05 101.084 8.18295 101.673 11.517C102.125 14.0709 103.428 17.8108 105.285 20.6814ZM105.285 20.6814C106.224 22.1318 107.304 23.3602 108.488 24.1016C111.769 26.1554 117.143 24.0875 119.352 21.5654M99.797 10.2609C103.209 10.2609 106.614 9.997 110.019 9.82617M104.241 17.2174C107.885 17.2174 111.322 16.4978 114.908 15.9131M134.464 11.9999C129.961 10.5316 124.299 11.9664 123.106 16.8308C122.116 20.8627 125.175 24.1604 128.991 24.0011M128.991 24.0011C129.606 23.9754 130.242 23.8597 130.883 23.6425C132.189 23.2002 133.859 21.818 135.09 20.1639M128.991 24.0011C125.675 23.6773 123.911 20.3855 124.315 17.0241C124.923 11.9734 130.731 11.1456 134.809 13.0627C137.467 14.3121 137.118 16.9124 135.712 19.24M128.991 24.0011C129.631 24.0636 130.329 24.0155 131.081 23.8357C132.902 23.4001 134.328 21.9279 135.09 20.1639M135.09 20.1639C135.314 19.8635 135.523 19.5543 135.712 19.24M135.09 20.1639C135.282 19.7206 135.432 19.2589 135.535 18.7906M135.712 19.24C135.654 19.0901 135.595 18.9404 135.535 18.7906M135.712 19.24C136.305 20.752 136.86 22.2744 137.056 23.9082C137.462 27.2869 137.205 30.8162 133.575 32M135.535 18.7906C135.877 17.2467 135.719 15.6309 134.908 14.3671C133.923 12.8321 134.109 14.6057 134.315 15.3574C134.637 16.5297 135.088 17.66 135.535 18.7906ZM141.575 12.0002C142.379 14.2554 143.205 16.4943 144.167 18.691C144.427 19.2839 144.685 19.8786 144.982 20.4543C145.4 21.2636 145.45 21.0968 145.278 20.3577C144.698 17.8605 143.937 14.5123 142.217 12.4833C139.691 9.50397 143.033 20.4572 145.13 23.7394M138.019 2.43457C138.086 2.59389 138.149 2.73924 138.208 2.87153M138.208 2.87153C139.723 6.25099 138.818 1.11516 138.208 2.87153ZM138.208 2.87153C138.14 3.06762 138.076 3.34961 138.019 3.73894M154.908 8.08691C154.881 8.87038 154.832 9.65466 154.765 10.4393M154.765 10.4393C154.434 14.3098 153.684 18.1893 153.204 22.0242C153.008 23.5924 153.13 20.8174 153.13 20.744C153.13 19.6465 153.145 18.557 153.219 17.4717M154.765 10.4393C153.401 11.3347 153.299 14.8798 153.13 16.1063C152.967 17.2879 152.863 19.4616 152.797 21.4026M154.765 10.4393C154.811 10.4089 154.859 10.3816 154.908 10.3574C156.999 9.33456 158.812 13.401 159.501 14.5121C161.411 17.5947 163.242 20.5149 165.575 23.3044M153.219 17.4717C153.286 16.4826 153.401 15.4971 153.599 14.5121C154.03 12.372 154.967 9.30216 153.995 13.4251C153.678 14.7678 153.419 16.1166 153.219 17.4717ZM153.219 17.4717C153.025 18.7761 152.885 20.0864 152.797 21.4026M152.797 21.4026C152.723 22.5153 152.686 23.6323 152.686 24.7537C152.686 26.4475 152.703 24.1599 152.797 21.4026ZM174.019 11.5654C173.823 11.8336 173.637 12.119 173.463 12.4187M173.463 12.4187C173.235 12.8087 173.026 13.2229 172.838 13.6546M173.463 12.4187C174.179 12.0204 175.038 11.7688 176.069 11.7104C178.975 11.5455 183.092 12.6939 185.597 14.9148M173.463 12.4187C171.123 13.7195 170.306 16.5846 170.019 19.3916M172.838 13.6546C170.749 18.4548 171.272 25.4223 177.822 25.4785C181.081 25.5065 186.202 24.422 187.653 21.1875M172.838 13.6546C173.687 13.0272 174.737 12.6203 175.994 12.5316C178.731 12.3387 182.946 13.0017 185.597 14.9148M172.838 13.6546C170.694 15.2396 169.833 18.2322 170.143 21.0582C171.074 29.5618 185.711 27.922 187.653 21.1875M187.653 21.1875C187.928 20.5723 188.072 19.8795 188.044 19.1017C187.98 17.3107 187.011 15.935 185.597 14.9148M187.653 21.1875C187.939 20.1949 187.949 19.0917 187.599 17.894C187.267 16.7552 186.548 15.7577 185.597 14.9148M192.241 10.2607C192.274 10.6387 192.312 11.0156 192.355 11.3916M192.355 11.3916C192.658 14.0412 193.208 16.6416 193.866 19.2246M192.355 11.3916C192.525 11.6863 192.718 12.0789 192.933 12.5796C194.052 15.1876 195.539 19.1071 195.888 22.5197M192.355 11.3916C191.478 9.86754 191.233 10.9646 191.896 13.3042C192.441 15.2308 193.008 17.3156 193.866 19.2246M193.866 19.2246C194.148 20.3292 194.45 21.4306 194.76 22.5313C195.063 23.6065 195.573 26.8134 195.797 25.7198C195.994 24.7563 196.005 23.6667 195.888 22.5197M193.866 19.2246C194.404 20.419 195.056 21.5447 195.888 22.5197M195.888 22.5197C196.263 22.9593 196.675 23.3682 197.13 23.7391M200.241 10.2607C197.648 13.0462 190.686 22.0806 193.106 19.1497C193.371 18.828 193.836 18.3727 194.404 17.8357M194.404 17.8357C196.514 15.8411 200.044 12.7194 200.044 11.1303C200.044 10.4349 198.924 12.0014 198.464 12.5313C197.32 13.847 196.535 15.4037 195.377 16.7101C194.986 17.1522 194.387 17.5768 194.404 17.8357ZM194.404 17.8357C194.414 17.976 194.604 18.0676 195.106 18.0869C196.039 18.1227 196.938 18.2414 197.831 18.4109M197.831 18.4109C198.588 18.5547 199.34 18.735 200.104 18.932M197.831 18.4109C197.069 18.1049 196.309 17.7729 195.55 17.4105C194.644 16.978 199.3 18.5645 199.896 18.8357C199.965 18.8673 200.035 18.8994 200.104 18.932M197.831 18.4109C199.105 18.9226 200.384 19.3614 201.677 19.747M200.104 18.932C200.166 18.9481 200.228 18.9643 200.291 18.9806C201.502 19.2965 205.338 19.9801 207.202 21.1068M200.104 18.932C200.633 19.1816 201.156 19.4592 201.677 19.747M207.202 21.1068C207.652 21.3784 207.987 21.6758 208.143 21.9999C208.438 22.6128 206.873 22.2607 206.809 22.2415C205.005 21.6984 203.349 20.6702 201.677 19.747M207.202 21.1068C205.319 20.7213 203.485 20.286 201.677 19.747M207.202 21.1068C207.984 21.2669 208.775 21.4184 209.575 21.5652" stroke="black" stroke-width="4" stroke-linecap="round"/>
</svg>
