<svg width="195" height="34" viewBox="0 0 195 34" fill="none" xmlns="http://www.w3.org/2000/svg">
<path d="M42.5786 7.57812C38.7978 7.57812 33.9394 9.13285 30.8502 11.5784C28.5894 13.3682 29.8597 19.8227 30.5292 22.1144C32.0904 27.4579 35.6222 32.1229 40.949 31.7489C43.5013 31.5697 50.3259 27.0885 47.9613 28.1993C42.5271 30.7522 36.0481 34.5532 30.6527 29.5515C27.5049 26.6336 24.5578 13.9513 30.1342 13.156" stroke="black" stroke-width="4" stroke-linecap="round"/>
<path d="M49.9121 7.45125C51.3816 8.13091 61.479 13.8644 61.0726 15.5645C60.8487 16.5012 53.3845 8.62178 52.9491 8.15547C50.3737 5.39693 50.6524 6.59258 52.7022 9.0288C55.5258 12.3845 58.6873 15.2863 61.9121 18.0999" stroke="black" stroke-width="4" stroke-linecap="round"/>
<path d="M69.0234 6.94421C64.8227 13.3645 63.3458 21.1802 59.9617 28.0444C58.1164 31.7871 62.145 19.8027 63.6654 15.8744C64.0104 14.983 67.4127 5.96507 66.1592 10.2121C64.8292 14.7186 63.0549 19.0502 61.0234 23.1708" stroke="black" stroke-width="4" stroke-linecap="round"/>
<path d="M76.5791 9.47974C77.2927 15.7025 78.3915 21.8586 79.5667 27.9881C80.1593 31.0788 79.8034 26.249 79.7396 25.9317C78.7151 20.8311 77.3185 15.809 76.2334 10.7193C75.6701 8.07726 82.2334 7.91316 83.6902 7.45145C84.6295 7.15378 91.5416 4.74653 91.2458 4.40894" stroke="black" stroke-width="4" stroke-linecap="round"/>
<path d="M79.2451 20.6353C80.2603 17.4044 87.5204 12.7932 90.0599 16.297C91.5853 18.4015 91.6049 22.3832 90.0599 24.4102C88.0271 27.0775 84.9037 27.2231 82.1093 26.1005C81.7342 25.9498 78.9845 24.692 80.5785 24.692C83.6367 24.692 89.4403 27.1194 91.0476 22.7763C92.0814 19.9829 89.4519 18.3018 87.492 17.7055C84.4092 16.7676 81.5919 15.7131 79.6895 18.607" stroke="black" stroke-width="4" stroke-linecap="round"/>
<path d="M101.134 10.6205C100.916 15.8044 102.93 23.2526 108.813 22.9876C111.887 22.8491 113.708 16.954 114.171 14.17C115.262 7.60482 110.511 4.08306 105.035 5.38067C93.8457 8.03211 101.465 29.701 109.134 25.3258" stroke="black" stroke-width="4" stroke-linecap="round"/>
<path d="M125.578 4.53584C126.738 10.2692 127.557 16.0914 128.788 21.8047C129.432 24.7937 129.122 20.9914 129.084 20.2835C128.796 14.9451 126.516 -0.840832 126.516 4.50768C126.516 10.8885 129.726 16.8177 130.023 23.0724C130.213 27.083 127.264 15.6681 125.578 12.1421" stroke="black" stroke-width="4" stroke-linecap="round"/>
<path d="M117.134 5.54956C123.974 5.54956 130.88 3.40778 137.578 2" stroke="black" stroke-width="4" stroke-linecap="round"/>
<path d="M154.023 8.59227C152.81 4.37008 146.819 3.20336 143.652 5.54974C141.984 6.78581 141.618 9.59996 141.578 11.6347C141.478 16.8015 143.694 25.5219 149.776 23.9736C163.489 20.4824 153.933 -4.74147 143.455 6.05685C141.029 8.55672 139.451 15.3771 141.183 18.8465C143.759 24.0063 152.986 25.3341 155.109 19.0719C156.136 16.0434 156.854 12.5867 156.591 9.32467C156.512 8.35362 155.548 5.61833 155.899 6.50759C158.567 13.2704 161.928 18.426 167.8 21.7763" stroke="black" stroke-width="4" stroke-linecap="round"/>
</svg>
