<svg width="175" height="34" viewBox="0 0 175 34" fill="none" xmlns="http://www.w3.org/2000/svg">
<path d="M27.0625 3.3092C26.9255 9.64963 32.9803 22.6751 38.9638 16.2268C39.2024 15.9697 39.4317 15.6817 39.6496 15.368M39.6496 15.368C41.665 12.4671 42.7088 7.3616 41.186 3.97945C39.1472 -0.548645 39.5295 13.5889 39.6057 14.7645C39.6187 14.9645 39.6333 15.1658 39.6496 15.368ZM39.6496 15.368C40.058 20.4388 41.508 26.1604 43.9514 30.1804M28.3959 6.05108C28.215 5.84107 27.3558 4.55398 27.1613 5.44176C26.4054 8.8926 28.4602 12.7173 30.1243 15.1605C34.6414 21.7923 37.7145 18.7786 42.1737 14.2769M54.1737 7.69677C54 7.3485 53.8542 7.10983 53.7335 6.96884M53.7335 6.96884C53.0253 6.14138 53.1812 8.67841 53.6251 12.1688M53.7335 6.96884C53.7578 5.20344 53.885 3.57926 55.0625 5.86879C57.396 10.4058 56.3959 18.2306 56.3959 23.3564V23.3845C56.3959 26.6293 56.3959 31.5497 55.4576 24.575C55.0804 21.7715 54.1508 16.3018 53.6251 12.1688M53.7335 6.96884C53.7316 7.10967 53.7303 7.25139 53.7292 7.3921C53.7179 8.8236 53.6641 10.4471 53.6251 12.1688M53.6251 12.1688C53.4742 18.84 53.5468 26.9863 57.186 31.1557C58.3711 32.5135 61.0279 31.8259 62.47 31.8259C64.5075 31.8259 67.7726 32.595 69.2848 30.7292M53.2848 7.69638C54.0459 7.3111 54.8132 7.06086 55.5865 6.90759M55.5865 6.90759C57.6421 6.5002 59.7404 6.77795 61.8773 7.02612C63.7586 7.2446 58.9993 7.15119 58.7168 7.14799C58.0185 7.14008 56.6409 7.02903 55.5865 6.90759ZM55.5865 6.90759C54.492 6.78152 53.7458 6.64426 54.4699 6.59958C57.4673 6.41466 60.5051 6.59958 63.507 6.59958M53.2848 17.5675H63.507M79.9514 7.69647C80.1686 12.5732 80.783 17.3691 81.4599 22.1726M81.4599 22.1726C81.5326 22.6889 81.6061 23.2052 81.6798 23.7217C82.1532 27.0361 82.1899 27.0408 82.1784 25.0217M81.4599 22.1726C79.5494 13.5967 78.8045 1.72916 80.3959 6.96527C82.0041 12.2569 82.1336 18.7467 82.1737 24.331L82.1744 24.4357C82.1759 24.6465 82.1773 24.8421 82.1784 25.0217M81.4599 22.1726C81.684 23.1786 81.9241 24.1392 82.1784 25.0217M82.1784 25.0217C82.5873 26.4408 83.0328 27.6576 83.507 28.5353M70.618 7.69653C75.7774 9.07296 81.4224 8.24492 86.6674 8.24492C88.1454 8.24492 86.4146 8.0917 84.0894 7.94705M84.0894 7.94705C82.1353 7.82549 79.7613 7.70997 78.5193 7.69653C77.8143 7.6889 71.4536 8.20133 73.9267 8.24492C77.3136 8.30462 80.7028 8.13378 84.0894 7.94705ZM84.0894 7.94705C85.6738 7.85969 87.2576 7.76886 88.8403 7.69653M94.1736 9.3416C94.9077 12.7772 95.596 16.2237 96.2838 19.6729M96.2838 19.6729C96.2862 19.6854 96.2887 19.6979 96.2912 19.7104M96.2838 19.6729C96.1229 19.6992 95.9863 19.7189 95.8773 19.7306C95.2662 19.7961 95.6729 19.7668 96.2912 19.7104M96.2838 19.6729C96.4857 19.64 96.7261 19.5968 96.9982 19.5462M96.2912 19.7104C96.3837 20.1741 96.4761 20.6378 96.5687 21.1015C96.592 21.2181 97.0884 24.8089 97.6268 26.6283M96.2912 19.7104C96.5179 19.6897 96.773 19.6654 97.0168 19.6408M97.6268 26.6283C97.776 27.1326 97.9284 27.5008 98.0749 27.6213C98.384 27.8755 98.3609 27.4006 98.2497 26.7573M97.6268 26.6283C95.7369 28.5344 98.7648 28.5882 101.211 28.2001C104.545 27.6712 109.326 25.3126 109.532 20.3703C109.653 17.4561 103.11 18.4176 98.9418 19.1812M97.6268 26.6283C97.7684 26.4856 97.9375 26.3324 98.1366 26.1683M98.2497 26.7573C98.2283 26.6332 98.2036 26.5029 98.1773 26.3703M98.2497 26.7573C98.2262 26.6452 98.2019 26.5164 98.1773 26.3703M98.2497 26.7573C98.472 27.8156 98.6298 27.3813 98.4333 25.9326M98.1773 26.3703C98.1641 26.3034 98.1504 26.2358 98.1366 26.1683M98.1773 26.3703C98.1662 26.3045 98.155 26.2352 98.1438 26.1623M98.1366 26.1683C98.0421 25.7063 97.94 25.2418 97.902 24.9403C97.8214 24.2994 97.7412 23.6595 97.6626 23.02M98.1366 26.1683C98.139 26.1663 98.1414 26.1643 98.1438 26.1623M97.6626 23.02C97.5992 22.5042 97.5369 21.9887 97.4764 21.4731M97.6626 23.02C97.4618 21.8895 97.2374 20.7657 97.0168 19.6408M97.6626 23.02C97.8186 23.8987 97.9604 24.7813 98.0749 25.6715C98.0979 25.8502 98.1209 26.0136 98.1438 26.1623M97.4764 21.4731C97.4038 20.8541 97.3338 20.2349 97.2675 19.615M97.4764 21.4731C97.8918 23.3027 98.2409 24.7443 98.3465 25.3668C98.3809 25.5695 98.4096 25.7584 98.4333 25.9326M97.4764 21.4731C97.3451 20.8948 97.2072 20.2778 97.0683 19.6356M97.2675 19.615C97.2633 19.5761 97.2592 19.5371 97.2551 19.4981M97.2675 19.615C97.645 19.5752 97.9554 19.5378 98.0255 19.5173C98.3424 19.4247 98.648 19.3128 98.9418 19.1812M97.2675 19.615C97.2028 19.6219 97.1361 19.6287 97.0683 19.6356M97.2551 19.4981C97.097 18.008 96.9613 16.5139 96.865 15.0083C96.8179 14.2721 96.9286 8.22134 96.1736 7.84876C95.8891 7.70834 96.1924 14.9338 96.2477 15.313C96.3113 15.7491 96.3806 16.1837 96.454 16.6172M97.2551 19.4981C97.1839 19.5115 97.1145 19.5245 97.047 19.5371M97.2551 19.4981C97.7433 19.4062 98.3158 19.2959 98.9418 19.1812M96.454 16.6172C96.6201 17.5976 96.8074 18.5723 96.9982 19.5462M96.454 16.6172C96.6419 17.6143 96.8452 18.6015 97.047 19.5371M96.454 16.6172C95.5179 11.6486 94.9667 6.4326 96.9144 6.11218C100.669 5.49443 104.697 10.5513 102.667 15.1911C101.811 17.1501 100.552 18.4605 98.9418 19.1812M96.9982 19.5462C97.0044 19.5778 97.0106 19.6093 97.0168 19.6408M96.9982 19.5462C97.0144 19.5432 97.0306 19.5402 97.047 19.5371M97.0168 19.6408C97.034 19.6391 97.0512 19.6374 97.0683 19.6356M98.1438 26.1623C98.2341 26.088 98.3305 26.0114 98.4333 25.9326M98.4333 25.9326C98.4927 25.8869 98.5543 25.8405 98.6181 25.7933M97.0683 19.6356C97.0612 19.6029 97.0541 19.57 97.047 19.5371M112.84 4.4063C111.175 5.17677 113.409 15.291 113.532 16.1358C113.961 19.0975 114.409 22.0696 114.964 25.0014C115.032 25.3645 115.241 26.2866 115.408 25.9763C115.605 25.6127 115.71 25.1063 115.75 24.5127M115.75 24.5127C115.914 22.0961 115.007 18.2325 114.84 16.6537C114.535 13.7641 114.933 7.59782 113.087 5.32029C112.855 5.03363 113.206 10.0128 113.285 10.5605C113.877 14.6983 114.361 18.9795 115.309 23.0211C115.438 23.5681 115.585 24.0641 115.75 24.5127ZM115.75 24.5127C118.232 31.2668 124.645 27.254 128.84 24.1484M111.062 4.95483C115.229 4.8213 119.355 4.27626 123.507 3.85805M115.062 17.5678C117.785 17.4675 120.371 16.929 123.062 16.471M135.063 7.69662C135.052 7.70317 135.041 7.71011 135.031 7.71741M135.031 7.71741C133.777 8.61179 135.334 15.1102 135.458 15.9225C135.64 17.1207 135.816 18.3318 136.001 19.5441M135.031 7.71741C134.979 6.97265 135.006 6.29345 135.161 5.74678C135.324 5.1749 135.541 9.35533 135.556 9.63703L135.556 9.64645C135.587 10.2356 135.628 10.8227 135.676 11.4079M135.031 7.71741C135.113 8.87312 135.387 10.1867 135.676 11.4079M136.001 19.5441C136.014 19.6316 136.028 19.719 136.041 19.8064M136.001 19.5441C136.089 19.5184 136.187 19.4893 136.297 19.4566C136.428 19.4177 136.559 19.3804 136.69 19.3445M136.001 19.5441C135.075 19.8162 135.36 19.7227 136.041 19.8064M136.041 19.8064C136.407 22.1858 136.815 24.5665 137.384 26.8598C137.878 28.8531 137.464 24.5648 137.458 24.5139C137.251 22.9851 137.016 21.4642 136.782 19.9442M136.041 19.8064C136.178 19.8233 136.332 19.8474 136.495 19.8831C136.591 19.9042 136.687 19.9246 136.782 19.9442M136.782 19.9442C136.752 19.7443 136.721 19.5444 136.69 19.3445M136.782 19.9442C136.855 19.9591 136.928 19.9736 137 19.9876M136.69 19.3445C136.286 16.7117 135.898 14.0786 135.676 11.4079M136.69 19.3445C136.76 19.3254 136.83 19.3067 136.9 19.2882M135.676 11.4079C135.909 12.3924 136.152 13.3169 136.312 14.0502M136.312 14.0502C136.343 14.1946 136.372 14.3315 136.396 14.4601C136.699 16.0641 136.954 17.6396 137.183 19.2158M136.312 14.0502C136.477 15.7986 136.66 17.5433 136.9 19.2882M136.312 14.0502C136.115 11.9603 135.943 9.86507 135.729 7.75754C135.61 6.5805 134.996 3.574 135.803 2.57831C136.993 1.10973 140.783 2.81385 141.877 3.55322C145.841 6.23011 147.724 14.8345 142.791 17.5067C141.028 18.4618 139.07 18.7439 137.183 19.2158M137.183 19.2158C137.223 19.4917 137.263 19.7676 137.301 20.0437M137.183 19.2158C137.089 19.2394 136.994 19.2635 136.9 19.2882M137.301 20.0437C137.536 21.7288 137.745 23.4204 137.951 25.1537C138.463 29.4443 137.422 22.5644 137.285 21.772C137.181 21.177 137.087 20.5822 137 19.9876M137.301 20.0437C137.201 20.0259 137.101 20.0072 137 19.9876M137.301 20.0437C142.334 20.9389 145.701 19.4198 147.507 13.1805M137 19.9876C136.965 19.7545 136.932 19.5214 136.9 19.2882" stroke="black" stroke-width="4" stroke-linecap="round"/>
</svg>
