<svg width="202" height="34" viewBox="0 0 202 34" fill="none" xmlns="http://www.w3.org/2000/svg">
<path d="M28.8541 22.9032C28.8629 23.6749 28.9042 25.0517 28.9612 26.317M28.9612 26.317C29.0488 28.2609 29.1733 29.9414 29.2738 28.7601C29.2846 28.6334 29.2944 28.5064 29.3032 28.3793M28.9612 26.317C28.6859 24.5555 28.4443 22.7138 28.2847 20.8624M28.9612 26.317C29.0709 27.0186 29.1859 27.7075 29.3032 28.3793M29.3032 28.3793C29.3363 27.9035 29.3566 27.4248 29.3676 26.9442M29.3032 28.3793C29.3751 28.7907 29.4478 29.1957 29.5207 29.5932C29.903 31.6779 30.168 31.544 30.1874 29.5175C30.1878 29.4807 30.1881 29.444 30.1884 29.4073M29.3676 26.9442C29.386 26.1392 29.3788 25.3289 29.3633 24.519M29.3676 26.9442C29.2808 25.9737 29.1995 24.8648 29.1285 23.7066M29.3676 26.9442C29.6333 29.9156 29.9511 31.5906 30.1874 29.4165C30.1877 29.4134 30.1881 29.4103 30.1884 29.4073M29.3633 24.519C29.3471 23.669 29.322 22.8194 29.3083 21.9766M29.3633 24.519C29.7804 25.991 30.1091 27.3408 30.1919 28.4277M29.3633 24.519C29.2877 24.2519 29.2091 23.9808 29.1285 23.7066M29.3083 21.9766C29.3068 21.8857 29.3054 21.7949 29.3042 21.7043M29.3083 21.9766C29.4383 21.9933 29.6342 21.978 29.8664 21.9186C29.9164 21.9058 29.9665 21.8924 30.0167 21.8783M29.3083 21.9766C29.1022 21.9501 29.0616 21.8433 29.3042 21.7043M29.3042 21.7043C29.3006 21.4298 29.2985 21.1562 29.2985 20.8836C29.2985 19.0379 29.228 15.1297 29.0633 12.6688M29.3042 21.7043C29.3936 21.653 29.5214 21.5975 29.6936 21.5399C29.7939 21.5064 29.8947 21.4735 29.996 21.4413M29.0633 12.6688C28.9372 10.7837 28.7557 9.74787 28.5084 11.1388C27.9756 14.1342 27.9961 17.5142 28.2847 20.8624M29.0633 12.6688C29.3464 12.0699 29.7831 17.4622 29.8417 18.5105C29.8964 19.4887 29.949 20.4653 29.996 21.4413M29.0633 12.6688C28.9873 12.8297 28.9224 13.4226 28.8788 14.6479C28.8062 16.6876 28.9257 20.3983 29.1285 23.7066M28.2847 20.8624C28.5644 21.8252 28.8576 22.7839 29.1285 23.7066M28.2847 20.8624C26.8107 15.788 25.7132 10.6001 30.2368 9.97753C32.9783 9.60019 38.0932 8.38031 37.9899 12.5526C37.9134 15.6416 35.2521 19.0186 32.3638 20.8098M30.1884 29.4073C30.1912 29.0805 30.1923 28.754 30.1919 28.4277M30.1884 29.4073C30.2197 29.1123 30.219 28.7841 30.1919 28.4277M30.1919 28.4277C30.1891 26.2394 30.118 24.06 30.0167 21.8783M30.0167 21.8783C30.0099 21.7327 30.003 21.587 29.996 21.4413M30.0167 21.8783C30.7845 21.6629 31.5825 21.2944 32.3638 20.8098M29.996 21.4413C30.7623 21.1974 31.5567 20.9898 32.3638 20.8098M32.3638 20.8098C33.5158 20.553 34.6938 20.3526 35.8535 20.184M35.8535 20.184C36.5083 20.0887 37.1572 20.0037 37.7923 19.9242C41.7986 19.4233 46.8428 20.3364 46.1894 25.0971M35.8535 20.184C39.621 20.2408 45.7899 20.7388 46.1874 25.0743C46.1881 25.0819 46.1888 25.0895 46.1894 25.0971M35.8535 20.184C35.4082 20.1772 34.9965 20.1767 34.6318 20.1767M46.1894 25.0971C46.1302 25.5285 46.0242 25.9916 45.8664 26.488C44.6292 30.3803 39.99 31.5828 35.9527 31.8998M46.1894 25.0971C46.576 29.5535 40.3063 31.9411 36.8294 31.9411C36.5382 31.9411 36.2459 31.9259 35.9527 31.8998M35.9527 31.8998C34.6677 32.0007 33.4436 32.0119 32.4096 31.9916C32.1019 31.9855 28.5312 31.264 29.7183 31.1585C31.7581 30.9771 33.8758 31.7146 35.9527 31.8998ZM51.743 12.4514C50.9507 12.1476 51.3669 16.4721 51.3725 16.5664C51.6119 20.5635 52.5339 32.4265 53.0516 28.457C53.5915 24.3163 53.0762 19.8137 53.0762 15.6323M49.5208 2C51.6566 7.06658 50.9328 0.768823 50.4095 2.90883M64.1873 13.815C64.0531 14.2011 63.936 14.5947 63.8345 14.9948M63.8345 14.9948C62.6464 19.6808 63.6073 25.2526 64.3602 29.8712C64.394 30.0787 64.3272 30.477 64.533 30.477C64.6522 30.477 64.7273 30.4282 64.7713 30.3452M63.8345 14.9948C63.9372 15.7611 64.0685 16.5146 64.1979 17.211M63.8345 14.9948C63.3735 11.5524 63.4906 7.85143 66.9527 7.90762C73.2148 8.00925 72.3607 14.8865 70.1132 19.1166C69.4848 20.2995 68.8281 21.2381 67.9552 21.9687M64.7713 30.3452C64.8725 30.1538 64.8083 29.7811 64.7371 29.4071M64.7713 30.3452C65.1764 30.6266 65.8106 30.8655 66.2614 30.982C69.3748 31.7861 73.9426 31.3192 76.2367 28.7604C77.6736 27.1577 78.0974 23.7323 76.3355 22.1965C74.2698 20.3962 70.7983 21.2269 68.4385 21.7916L68.4343 21.7926C68.333 21.8168 68.1637 21.8805 67.9552 21.9687M64.7713 30.3452C64.344 30.0484 64.1714 29.7044 64.7371 29.4071M64.7371 29.4071C64.6854 29.1356 64.6301 28.8633 64.6317 28.6594C64.6486 26.6229 64.6496 24.584 64.5991 22.5472M64.7371 29.4071C64.8297 29.3584 64.942 29.311 65.0763 29.2653M64.5991 22.5472C64.5828 21.8915 64.5612 21.236 64.533 20.5808C64.5188 20.2497 64.4892 19.4591 64.4531 18.556M64.5991 22.5472C64.4156 20.7755 64.2417 19.0035 64.1979 17.211M64.5991 22.5472C64.778 24.2755 64.9661 26.0036 65.0516 27.7505L65.052 27.7593C65.0611 27.9523 65.1968 30.8346 65.4219 29.7702C66.0904 26.6089 65.081 22.858 64.6565 19.7477C64.611 19.4145 64.5387 19.0108 64.4531 18.556M64.4531 18.556C64.348 15.9282 64.1873 12.348 64.1873 16.3648C64.1873 16.6474 64.191 16.9295 64.1979 17.211M64.4531 18.556C64.3756 18.1445 64.2872 17.6913 64.1979 17.211M67.9552 21.9687C67.4085 22.4263 66.777 22.8022 66.0145 23.1054C64.2307 23.8146 66.7484 22.4795 67.9552 21.9687ZM85.5207 12.9058C85.4049 18.474 86.3087 24.2158 87.817 29.5678C88.2478 31.0964 88.1794 25.2149 88.138 24.443C88.0655 23.0901 86.3053 12.558 85.9651 12.9058M76.1874 10.1793C79.0091 10.1793 81.8322 10.0865 84.6533 10.0013M84.6533 10.0013C85.2141 9.9843 85.7749 9.96764 86.3355 9.95207C89.0763 9.87592 91.8169 9.7986 94.5577 9.72485C94.9444 9.71444 93.784 9.72485 93.3972 9.72485C90.4602 9.72485 87.5547 9.80214 84.6533 10.0013ZM84.6533 10.0013C82.5733 10.144 80.4955 10.3493 78.4096 10.6337M101.076 16.9958C97.8976 20.3813 100.853 28.4305 105.94 26.3872C108.453 25.378 111.84 21.9537 111.101 18.864C109.951 14.0548 102.647 13.2706 99.3725 16.087C98.7283 16.6412 98.2219 17.3214 97.8524 18.0732M97.8524 18.0732C96.3568 21.1161 97.1023 25.3328 100.014 27.1193C106.685 31.2115 116.078 19.7525 109.397 15.9103C106.699 14.3585 101.986 13.0196 99.3478 15.3801C98.5871 16.0607 98.116 17.0148 97.8524 18.0732ZM97.8524 18.0732C97.3783 19.9768 97.5753 22.2179 97.9651 23.8121M116.187 12.4518C116.398 15.7869 117.898 18.9859 119.027 22.0703C119.11 22.2967 121.842 30.5587 120.78 25.7309C120.425 24.1159 120.024 22.5062 119.6 20.8997M119.6 20.8997C119.582 20.8292 119.563 20.7586 119.544 20.6881M119.6 20.8997C119.674 20.9085 119.761 20.9153 119.859 20.9203M119.6 20.8997C119.293 20.8632 119.223 20.7934 119.544 20.6881M119.544 20.6881C118.632 17.2449 117.62 13.8163 116.731 10.3817C115.807 6.81423 118.393 16.7936 119.859 20.9203M119.544 20.6881C119.599 20.6702 119.665 20.6513 119.743 20.6313M119.859 20.9203C119.939 21.1454 120.016 21.353 120.089 21.5402C120.673 23.0473 120.921 24.964 121.718 26.362C122.632 27.9634 121.532 23.1885 120.96 20.9163M119.859 20.9203C120.147 20.9348 120.532 20.9332 120.96 20.9163M120.96 20.9163C120.912 20.7264 120.868 20.5539 120.829 20.4041C119.909 16.8657 118.41 13.258 118.41 9.54857C118.41 5.91721 124.738 8.74847 125.891 10.2807C128.338 13.5334 128.412 18.0736 124.632 20.3284C124.076 20.6598 122.303 20.8633 120.96 20.9163ZM134.41 16.087C133.775 16.9246 133.552 17.9492 133.635 19.0405M133.635 19.0405C133.933 22.9498 138.158 27.7148 141.471 27.8009C145.895 27.9159 150.73 23.64 151.002 19.1165C151.264 14.7573 145.139 12.533 140.093 13.3039M133.635 19.0405C133.659 18.8452 133.687 18.6516 133.718 18.4601C134.211 15.4342 136.942 13.7853 140.093 13.3039M133.635 19.0405C133.122 23.2425 134.339 28.2323 138.706 29.5176C143.724 30.9946 150.386 29.107 151.891 23.3577C153.164 18.4971 149.465 12.5812 144.731 11.3914C142.669 10.8734 141.195 11.826 140.093 13.3039M140.093 13.3039C138.884 14.9241 138.121 17.1757 137.521 18.8136M160.632 12.4516C160.62 12.4578 160.608 12.4641 160.596 12.4707M160.596 12.4707C160.049 12.7736 159.776 13.4756 159.682 14.3952M160.596 12.4707C161.315 14.844 161.476 17.8456 161.693 19.899C161.711 20.0608 161.735 20.3553 161.763 20.7294M160.596 12.4707C160.372 11.731 160.094 11.0524 159.743 10.4825C159.439 9.98933 159.565 12.8838 159.682 14.3952M159.682 14.3952C159.382 17.3419 160.926 22.5225 161.224 23.9635C161.772 26.6102 161.929 26.02 161.931 24.5719M159.682 14.3952C159.714 14.8101 159.746 15.1209 159.768 15.2286C160.186 17.2948 160.623 19.3586 161.116 21.4079M161.931 24.5719C161.932 23.7295 161.88 22.5969 161.823 21.6423M161.931 24.5719C161.678 23.6574 161.441 22.7387 161.215 21.8169M161.931 24.5719C162.084 25.1281 162.244 25.6828 162.41 26.2356C162.873 27.7811 162.995 24.3421 163.073 22.6081M161.823 21.6423C161.803 21.3098 161.782 20.9989 161.763 20.7294M161.823 21.6423C161.668 21.7117 161.518 21.7627 161.372 21.7924C161.313 21.8046 161.261 21.8126 161.215 21.8169M161.823 21.6423C162.298 21.429 162.811 21.0425 163.329 20.5697M161.763 20.7294C162.312 20.2115 163.059 19.581 163.715 19.0033M161.763 20.7294C161.484 20.9917 161.256 21.225 161.116 21.4079M161.116 21.4079C161.149 21.5443 161.182 21.6806 161.215 21.8169M161.116 21.4079C160.903 21.6855 160.893 21.8469 161.215 21.8169M163.073 22.6081C163.091 22.1866 163.108 21.8659 163.126 21.742C163.181 21.3559 163.248 20.9685 163.327 20.5816M163.073 22.6081C162.74 22.544 162.404 22.4905 162.064 22.4488C161.667 22.4001 162.524 21.4158 163.327 20.5816M163.073 22.6081C167.198 23.403 170.777 25.8382 174.409 27.9018M163.327 20.5816C163.327 20.5776 163.328 20.5737 163.329 20.5697M163.327 20.5816C163.354 20.5527 163.382 20.5241 163.409 20.4957M163.329 20.5697C163.436 20.045 163.564 19.5213 163.715 19.0033M163.329 20.5697C163.356 20.5453 163.383 20.5206 163.409 20.4957M163.715 19.0033C164.442 16.5056 165.701 14.1427 167.644 12.4516C168.657 11.57 170.001 11.3528 169.224 13.1585C168.401 15.0713 166.237 16.4095 164.879 17.9046C164.608 18.2031 164.184 18.5896 163.715 19.0033ZM163.409 20.4957C163.71 20.2166 164.012 19.91 164.31 19.593M163.409 20.4957C163.771 20.1222 164.112 19.7874 164.31 19.593M164.31 19.593C165.371 18.4606 166.371 17.1942 167.027 16.5666C167.037 16.5564 167.058 16.5353 167.087 16.5048M164.31 19.593C164.379 19.5248 164.43 19.4739 164.459 19.4446C165.381 18.5021 166.232 17.5011 167.087 16.5048M167.087 16.5048C167.592 15.9739 170.664 12.5967 169.076 14.2693C168.389 14.9933 167.737 15.7477 167.087 16.5048Z" stroke="black" stroke-width="4" stroke-linecap="round"/>
</svg>
