<svg width="170" height="34" viewBox="0 0 170 34" fill="none" xmlns="http://www.w3.org/2000/svg">
<path d="M41.3581 4.19527C41.4711 4.19527 39.3165 4.13468 38.9383 4.19527C35.1998 4.79415 28.7261 9.33441 27.679 12.9371C27.3689 14.0041 27.3154 14.9224 27.4635 15.707M27.4635 15.707C27.6216 16.5452 28.0099 17.2307 28.5611 17.7818M27.4635 15.707C27.7236 16.4531 28.0913 17.1589 28.5611 17.7818M27.4635 15.707C26.4271 12.735 27.096 9.12473 29.8025 7.57922M28.5611 17.7818C30.5873 19.8074 34.816 20.0162 37.9173 19.3109M28.5611 17.7818C29.3999 18.8937 30.5644 19.7412 32.0247 20.0809C33.9153 20.5208 36.1214 20.0738 37.9173 19.3109M37.9173 19.3109C38.311 19.2214 38.6865 19.1171 39.0371 19C41.8702 18.0532 40.2777 18.1611 38.5926 19C38.3755 19.1081 38.1498 19.2122 37.9173 19.3109ZM51.1358 4.45972C48.6887 5.14468 48.9638 13.2329 48.7655 15.0815C48.506 17.5002 47.894 21.1648 51.4074 21.3559C54.3243 21.5145 57.1827 20.7962 60.0741 20.5804C61.2238 20.4946 62.7918 20.8608 63.5802 20.1104M50.6915 4.03683C49.4821 4.03683 59.5438 4.45982 55.926 4.45982H49.7284M46.6914 13.3425C48.51 13.1228 54.0061 12.9196 52.1729 12.9196H49.0124C46.2148 12.9196 54.659 12.7741 57.3581 12.0736M69.8024 4.88302C68.7973 7.87283 69.9208 11.5452 70.4938 14.4943C70.792 16.029 71.268 18.2825 71.679 19.8992C72.0833 21.4898 72.0323 20.3445 72.0247 19.7347C72.0051 18.1694 71.8502 16.6154 71.6524 15.0638M71.6524 15.0638C71.6236 14.8381 71.5939 14.6124 71.5636 14.3868M71.6524 15.0638C71.771 15.4862 71.8919 15.9146 72.0066 16.3241M71.6524 15.0638C71.5853 14.8251 71.5189 14.5883 71.4548 14.358M71.5636 14.3868C71.1779 11.5149 70.6914 8.64729 70.6914 5.729C70.6914 2.99488 71.4271 11.1523 71.8271 13.8598C71.8561 14.0557 71.8778 14.2577 71.8953 14.4641M71.5636 14.3868C71.67 14.4141 71.7809 14.4403 71.8953 14.4641M71.5636 14.3868C71.5268 14.3773 71.4905 14.3677 71.4548 14.358M71.8953 14.4641C71.9457 15.0623 71.9598 15.6972 72.0066 16.3241M71.8953 14.4641C72.309 14.5501 72.7669 14.604 73.2099 14.5648C78.2972 14.1144 80.2503 10.3377 79.284 5.823C78.5305 2.30295 74.8284 1.00255 71.6543 2.81506C68.8765 4.40135 70.412 10.2576 70.9629 12.5204C71.0739 12.9761 71.2534 13.6352 71.4548 14.358M72.0066 16.3241C72.0633 17.0839 72.1682 17.832 72.4444 18.4892C72.8986 19.5698 72.5127 18.1313 72.0066 16.3241ZM71.4548 14.358C70.4192 14.0767 69.8923 13.7242 71.1358 14.6118M84.9137 3.19106C85.3509 7.82011 85.3582 12.458 85.3582 17.1028C85.3582 18.5446 85.2819 20.0699 86.2471 21.2857C86.276 21.3222 86.3062 21.3576 86.3374 21.3919M86.3374 21.3919C87.8435 23.048 91.9223 22.2257 93.9754 22.2257H93.1606C90.8203 22.2257 88.6516 21.4958 86.3374 21.3919ZM86.3374 21.3919C86.16 21.384 85.9818 21.3797 85.8026 21.3797M84.4691 4.45979C87.1105 3.71492 90.7623 3.64244 93.4074 4.27179C94.4018 4.50841 90.3121 4.88278 90.0494 4.88278H85.5061M84.0248 13.3426C85.5239 13.3426 90.4906 12.5468 91.7284 13.5776C91.934 13.7488 88.277 14.1858 88.0247 14.1886C85.0001 14.2221 84.0448 14.1886 87.5803 14.1886M113.358 10.8047C113.358 9.16589 113.418 8.64245 111.333 8.45478C108.678 8.21572 103.564 7.81674 102.938 11.1337C102.627 12.7827 102.454 14.8353 102.839 16.674M102.839 16.674C103.059 17.7239 103.461 18.7042 104.124 19.4996C106.355 22.1778 110.884 21.9578 113.751 20.0757M102.839 16.674C102.99 13.8098 105.002 11.2277 108.272 11.2277C111.181 11.2277 115.425 12.4892 116.244 15.0409M102.839 16.674C102.784 17.7092 102.972 18.7812 103.432 19.7816C104.387 21.8583 106.88 22.9252 109.161 22.8835C111.085 22.8483 112.604 21.6153 113.751 20.0757M113.751 20.0757C114.51 19.5774 115.153 18.9625 115.605 18.2541C116.394 17.019 116.536 15.9484 116.244 15.0409M113.751 20.0757C114.618 18.9123 115.272 17.5737 115.728 16.4446C115.889 16.0464 116.071 15.5675 116.244 15.0409M116.244 15.0409C116.552 14.1062 116.834 13.0209 116.93 11.9689M116.93 11.9689C117.054 10.6102 116.867 9.30692 116.025 8.45478C114.495 6.90767 116.794 11.6691 116.914 11.9327C116.919 11.9448 116.925 11.9568 116.93 11.9689ZM116.93 11.9689C118.448 15.3332 119.021 18.7175 119.111 22.3665C119.181 25.1821 119.718 28.4191 117.654 30.7323C116.783 31.7095 114.165 32.4753 112.963 31.6488C110.828 30.1812 114.198 26.7694 115.136 25.6094M137.358 9.11286C132.209 5.23301 124.52 9.0907 125.012 15.2932C125.373 19.8364 130.525 25.297 135.086 21.0506C136.882 19.3789 137.947 17.4827 138.298 15.6863M138.298 15.6863C138.722 13.5203 138.107 11.4992 136.482 10.1909M138.298 15.6863C137.791 13.6276 137.296 11.6035 136.482 10.1909M138.298 15.6863C139.116 19.0034 139.969 22.4104 142.247 23.4945M136.482 10.1909C135.473 9.37804 134.074 8.84038 132.292 8.71415M136.482 10.1909C135.807 9.0182 134.911 8.26685 133.605 8.26685C132.999 8.26685 132.624 8.46927 132.292 8.71415M132.292 8.71415C131.923 8.68802 131.537 8.67952 131.136 8.68985C129.389 8.73479 129.1 9.89588 130.914 9.51233C131.54 9.37992 131.883 9.01499 132.292 8.71415Z" stroke="black" stroke-width="4" stroke-linecap="round"/>
</svg>
